<?xml version="1.0" encoding="utf-8"?>
<!-- Generator: Adobe Illustrator 19.0.0, SVG Export Plug-In . SVG Version: 6.00 Build 0)  -->
<svg version="1.1" id="Camada_1" xmlns="http://www.w3.org/2000/svg" xmlns:xlink="http://www.w3.org/1999/xlink" x="0px" y="0px"
	 viewBox="0 0 30 30" style="enable-background:new 0 0 30 30;" xml:space="preserve">
<style type="text/css">
	.st0{fill:none;}
	.st1{fill:none;stroke:#000000;stroke-width:0.5;stroke-miterlimit:10;}
</style>
<g id="XMLID_1_">
	<g id="XMLID_8_">
		<g id="XMLID_18_">
			<path id="XMLID_114_" class="st0" d="M8.5,8.7c-0.2,0-0.3,0.5-0.3,0.7s0.3,0.3,0.5,0.3C8.9,9.5,9,9.3,8.9,9.1
				C8.9,8.9,8.7,8.7,8.5,8.7z"/>
		</g>
		<g id="XMLID_9_">
			<g id="XMLID_133_">
				<path id="XMLID_137_" d="M8.3,7.9C7.7,8,7.5,8.7,7.4,9.2c0,0.6,0.3,1.1,0.9,1.2c0.7,0.2,1.3-0.4,1.3-1c0.1-0.7-0.4-1.2-1-1.4
					C7.7,7.7,7.3,9.1,8.3,9.4C8.2,9.3,8.2,9.2,8.2,9.1C8.4,9.1,8.5,9,8.7,8.9c0,0,0.2,0.5,0.2,0.3c0-0.2,0.4,0.1-0.3,0.2
					c0.4-0.1,0.6-0.6,0.5-0.9C9.1,8,8.7,7.9,8.3,7.9z"/>
			</g>
		</g>
	</g>
	<g id="XMLID_10_">
		<g id="XMLID_27_">
			<path id="XMLID_105_" class="st0" d="M8.5,13.9c-0.2,0-0.3,0.5-0.3,0.7s0.3,0.3,0.5,0.3c0.2-0.1,0.3-0.4,0.2-0.6
				C8.9,14.1,8.7,13.9,8.5,13.9z"/>
		</g>
		<g id="XMLID_12_">
			<g id="XMLID_125_">
				<path id="XMLID_129_" d="M8.3,13.1c-0.5,0.1-0.8,0.7-0.8,1.2c0,0.6,0.3,1.1,0.9,1.2c0.7,0.2,1.3-0.4,1.3-1
					c0.1-0.7-0.4-1.2-1-1.4c-0.9-0.2-1.3,1.2-0.4,1.4c-0.1-0.1-0.1-0.2-0.1-0.3c0.2-0.1,0.4-0.1,0.5-0.2c0,0,0.2,0.5,0.2,0.3
					c0-0.2,0.4,0.1-0.3,0.2c0.4-0.1,0.6-0.6,0.5-0.9C9.1,13.2,8.7,13.1,8.3,13.1z"/>
			</g>
		</g>
	</g>
	<g id="XMLID_14_">
		<g id="XMLID_31_">
			<path id="XMLID_96_" class="st0" d="M13.1,10.9c-0.2,0-0.3,0.5-0.3,0.7c0.1,0.2,0.3,0.3,0.5,0.3c0.2-0.1,0.3-0.4,0.2-0.6
				C13.5,11,13.3,10.9,13.1,10.9z"/>
		</g>
		<g id="XMLID_15_">
			<g id="XMLID_117_">
				<path id="XMLID_121_" d="M12.9,10.1c-0.5,0.1-0.8,0.7-0.8,1.2c0,0.6,0.3,1.1,0.9,1.2c0.7,0.2,1.3-0.4,1.3-1
					c0.1-0.7-0.4-1.2-1-1.4c-0.9-0.2-1.3,1.2-0.4,1.4c-0.1-0.1-0.1-0.2-0.1-0.3c0.2-0.1,0.4-0.1,0.5-0.2c0,0,0.2,0.5,0.2,0.3
					c0-0.2,0.4,0.1-0.3,0.2c0.4-0.1,0.6-0.6,0.5-0.9C13.7,10.2,13.3,10.1,12.9,10.1z"/>
			</g>
		</g>
	</g>
	<g id="XMLID_16_">
		<g id="XMLID_36_">
			<path id="XMLID_87_" class="st0" d="M14.7,16c-0.2,0-0.3,0.5-0.3,0.7c0.1,0.2,0.3,0.3,0.5,0.3c0.2-0.1,0.3-0.4,0.2-0.6
				C15.1,16.2,15,16.1,14.7,16z"/>
		</g>
		<g id="XMLID_17_">
			<g id="XMLID_108_">
				<path id="XMLID_112_" d="M14.5,15.3c-0.5,0.1-0.8,0.7-0.8,1.2c0,0.6,0.3,1.1,0.9,1.2c0.7,0.2,1.3-0.4,1.3-1
					c0.1-0.7-0.4-1.2-1-1.4c-0.9-0.2-1.3,1.2-0.4,1.4c-0.1-0.1-0.1-0.2-0.1-0.3c0.2-0.1,0.4-0.1,0.5-0.2c0,0,0.2,0.5,0.2,0.3
					c0-0.2,0.4,0.1-0.3,0.2c0.4-0.1,0.6-0.6,0.5-0.9C15.3,15.4,14.9,15.3,14.5,15.3z"/>
			</g>
		</g>
	</g>
	<g id="XMLID_19_">
		<g id="XMLID_47_">
			<path id="XMLID_78_" class="st0" d="M19.7,11.7c-0.2,0-0.3,0.5-0.3,0.7c0.1,0.2,0.3,0.3,0.5,0.3c0.2-0.1,0.3-0.4,0.2-0.6
				S19.9,11.7,19.7,11.7z"/>
		</g>
		<g id="XMLID_20_">
			<g id="XMLID_99_">
				<path id="XMLID_104_" d="M19.5,10.9c-0.5,0.1-0.8,0.7-0.8,1.2c0,0.6,0.3,1.1,0.9,1.2c0.7,0.2,1.3-0.4,1.3-1
					c0.1-0.7-0.4-1.2-1-1.4c-0.9-0.2-1.3,1.2-0.4,1.4c-0.1-0.1-0.1-0.2-0.1-0.3c0.2-0.1,0.4-0.1,0.5-0.2c0,0,0.2,0.5,0.2,0.3
					c0-0.2,0.4,0.1-0.3,0.2c0.4-0.1,0.6-0.6,0.5-0.9C20.3,11,19.9,10.9,19.5,10.9z"/>
			</g>
		</g>
	</g>
	<g id="XMLID_28_">
		<g id="XMLID_58_">
			<path id="XMLID_67_" class="st0" d="M20.5,18.8c-0.2,0-0.3,0.5-0.3,0.7c0.1,0.2,0.3,0.3,0.5,0.3c0.2-0.1,0.3-0.4,0.2-0.6
				S20.7,18.8,20.5,18.8z"/>
		</g>
		<g id="XMLID_29_">
			<g id="XMLID_90_">
				<path id="XMLID_95_" d="M20.3,18c-0.5,0.1-0.8,0.7-0.8,1.2c0,0.6,0.3,1.1,0.9,1.2c0.7,0.2,1.3-0.4,1.3-1c0.1-0.7-0.4-1.2-1-1.4
					c-0.9-0.2-1.3,1.2-0.4,1.4c-0.1-0.1-0.1-0.2-0.1-0.3c0.2-0.1,0.4-0.1,0.5-0.2c0,0,0.2,0.5,0.2,0.3c0-0.2,0.4,0.1-0.3,0.2
					c0.4-0.1,0.6-0.6,0.5-0.9C21.1,18.1,20.7,18,20.3,18z"/>
			</g>
		</g>
	</g>
	<g id="XMLID_32_">
		<g id="XMLID_69_">
			<path id="XMLID_56_" class="st0" d="M11.5,19.9c-0.2,0-0.3,0.5-0.3,0.7c0.1,0.2,0.3,0.3,0.5,0.3c0.2-0.1,0.3-0.4,0.2-0.6
				C11.9,20.1,11.7,19.9,11.5,19.9z"/>
		</g>
		<g id="XMLID_33_">
			<g id="XMLID_82_">
				<path id="XMLID_86_" d="M11.3,19.1c-0.5,0.1-0.8,0.7-0.8,1.2c0,0.6,0.3,1.1,0.9,1.2c0.7,0.2,1.3-0.4,1.3-1
					c0.1-0.7-0.4-1.2-1-1.4c-0.9-0.2-1.3,1.2-0.4,1.4c-0.1-0.1-0.1-0.2-0.1-0.3c0.2-0.1,0.4-0.1,0.5-0.2c0,0,0.2,0.5,0.2,0.3
					c0-0.2,0.4,0.1-0.3,0.2c0.4-0.1,0.6-0.6,0.5-0.9C12.1,19.2,11.7,19.1,11.3,19.1z"/>
			</g>
		</g>
	</g>
	<g id="XMLID_38_">
		<g id="XMLID_80_">
			<path id="XMLID_45_" class="st0" d="M16.6,6.8c-0.2,0-0.3,0.5-0.3,0.7c0.1,0.2,0.3,0.3,0.5,0.3c0.2-0.1,0.3-0.4,0.2-0.6
				C17.1,7,16.9,6.8,16.6,6.8z"/>
		</g>
		<g id="XMLID_39_">
			<g id="XMLID_73_">
				<path id="XMLID_77_" d="M16.4,6c-0.5,0.1-0.8,0.7-0.8,1.2c0,0.6,0.3,1.1,0.9,1.2c0.7,0.2,1.3-0.4,1.3-1c0.1-0.7-0.4-1.2-1-1.4
					c-0.9-0.2-1.3,1.2-0.4,1.4c-0.1-0.1-0.1-0.2-0.1-0.3c0.2-0.1,0.4-0.1,0.5-0.2c0,0,0.2,0.5,0.2,0.3c0-0.2,0.4,0.1-0.3,0.2
					c0.4-0.1,0.6-0.6,0.5-0.9C17.3,6.1,16.9,6,16.4,6z"/>
			</g>
		</g>
	</g>
	<g id="XMLID_49_">
		<g id="XMLID_91_">
			<path id="XMLID_34_" class="st0" d="M24.8,13.3c-0.2,0-0.3,0.5-0.3,0.7c0.1,0.2,0.3,0.3,0.5,0.3c0.2-0.1,0.3-0.4,0.2-0.6
				C25.2,13.5,25.1,13.3,24.8,13.3z"/>
		</g>
		<g id="XMLID_50_">
			<g id="XMLID_62_">
				<path id="XMLID_66_" d="M24.6,12.6c-0.5,0.1-0.8,0.7-0.8,1.2c0,0.6,0.3,1.1,0.9,1.2c0.7,0.2,1.3-0.4,1.3-1
					c0.1-0.7-0.4-1.2-1-1.4c-0.9-0.2-1.3,1.2-0.4,1.4c-0.1-0.1-0.1-0.2-0.1-0.3c0.2-0.1,0.4-0.1,0.5-0.2c0,0,0.2,0.5,0.2,0.3
					c0-0.2,0.4,0.1-0.3,0.2c0.4-0.1,0.6-0.6,0.5-0.9C25.4,12.7,25,12.5,24.6,12.6z"/>
			</g>
		</g>
	</g>
	<g id="XMLID_60_">
		<g id="XMLID_102_">
			<path id="XMLID_26_" class="st0" d="M16.6,22.3c-0.2,0-0.3,0.5-0.3,0.7c0.1,0.2,0.3,0.3,0.5,0.3c0.2-0.1,0.3-0.4,0.2-0.6
				C17.1,22.5,16.9,22.3,16.6,22.3z"/>
		</g>
		<g id="XMLID_61_">
			<g id="XMLID_51_">
				<path id="XMLID_55_" d="M16.4,21.6c-0.5,0.1-0.8,0.7-0.8,1.2c0,0.6,0.3,1.1,0.9,1.2c0.7,0.2,1.3-0.4,1.3-1
					c0.1-0.7-0.4-1.2-1-1.4c-0.9-0.2-1.3,1.2-0.4,1.4c-0.1-0.1-0.1-0.2-0.1-0.3c0.2-0.1,0.4-0.1,0.5-0.2c0,0,0.2,0.5,0.2,0.3
					c0-0.2,0.4,0.1-0.3,0.2c0.4-0.1,0.6-0.6,0.5-0.9C17.3,21.7,16.9,21.5,16.4,21.6z"/>
			</g>
		</g>
	</g>
	<g id="XMLID_71_">
		<g id="XMLID_113_">
			<path id="XMLID_24_" class="st0" d="M7.4,18.8c-0.2,0-0.3,0.5-0.3,0.7c0.1,0.2,0.3,0.3,0.5,0.3c0.2-0.1,0.3-0.4,0.2-0.6
				S7.6,18.8,7.4,18.8z"/>
		</g>
		<g id="XMLID_72_">
			<g id="XMLID_40_">
				<path id="XMLID_44_" d="M7.2,18c-0.5,0.1-0.8,0.7-0.8,1.2c0,0.6,0.3,1.1,0.9,1.2c0.7,0.2,1.3-0.4,1.3-1c0.1-0.7-0.4-1.2-1-1.4
					c-0.9-0.2-1.3,1.2-0.4,1.4c-0.1-0.1-0.1-0.2-0.1-0.3c0.2-0.1,0.4-0.1,0.5-0.2c0,0,0.2,0.5,0.2,0.3c0-0.2,0.4,0.1-0.3,0.2
					c0.4-0.1,0.6-0.6,0.5-0.9C8,18.1,7.6,18,7.2,18z"/>
			</g>
		</g>
	</g>
	<path id="XMLID_4_" class="st1" d="M26.5,9.6c-1.1,0-1.9-0.9-1.9-1.9c0-0.2,0-0.4,0.1-0.6c0-0.1-0.1-0.2-0.2-0.2
		c-0.2,0-0.4,0-0.6,0c-0.4-0.1-0.8-0.4-1-0.8c-0.2-0.3-0.2-0.6-0.2-0.9c0-0.1-0.1-0.2-0.2-0.2c-0.2,0.1-0.4,0.1-0.6,0.1
		c-1,0-1.8-0.7-1.9-1.7c0-0.1-0.1-0.2-0.2-0.2c-1.6-0.6-3.3-0.9-5.1-0.9C8.2,2.4,2.8,7.7,2.5,14.3c-0.4,7.7,6.1,13.9,13.8,13.3
		c6.1-0.5,11-5.4,11.5-11.5c0.2-2.3-0.2-4.5-1.1-6.5C26.7,9.6,26.6,9.6,26.5,9.6z"/>
</g>
</svg>
