<?xml version="1.0" encoding="utf-8"?>
<!-- Generator: Adobe Illustrator 19.0.0, SVG Export Plug-In . SVG Version: 6.00 Build 0)  -->
<svg version="1.1" id="Camada_1" xmlns="http://www.w3.org/2000/svg" xmlns:xlink="http://www.w3.org/1999/xlink" x="0px" y="0px"
	 viewBox="0 0 200 200" style="enable-background:new 0 0 200 200;" xml:space="preserve">
<style type="text/css">
	.st0{fill:#593C24;}
	.st1{fill:#F7C8A1;}
	.st2{fill:none;stroke:#000000;stroke-width:2.0713;stroke-miterlimit:10;}
</style>
<g id="XMLID_1_">
	<path id="XMLID_6_" class="st0" d="M184.5,60.8c-8.1,0-14.7-6.6-14.7-14.7c0-1.6,0.3-3.2,0.8-4.7c0.3-0.9-0.5-1.9-1.4-1.8
		c-1.4,0.2-2.9,0.1-4.4-0.3c-3.3-0.8-6.2-3.1-7.8-6.1c-1.4-2.5-1.8-4.8-1.6-7c0.1-1-0.9-1.7-1.8-1.4c-1.3,0.4-2.8,0.6-4.2,0.6
		c-7.5,0-13.7-5.6-14.6-12.9c-0.1-0.7-0.5-1.4-1.2-1.6c-11.9-4.6-25-7-38.6-6.5C45.1,6.4,4.4,46.7,2.1,96.4
		c-2.7,58.3,46.3,105.8,105,100.7c46.1-4,83.3-41,87.5-87.1c1.6-17.7-1.6-34.5-8.4-49.3C185.6,60.8,185.1,60.8,184.5,60.8z"/>
	<g id="XMLID_8_">
		<g id="XMLID_18_">
			<path id="XMLID_51_" class="st1" d="M50.4,51.9c-1.5-0.2-2.6,4.2-1.9,5.6s2.3,2.2,3.8,1.9c1.3-1,2-2.8,1.6-4.4S52,52.2,50.4,51.9
				z"/>
		</g>
		<g id="XMLID_9_">
			<g id="XMLID_136_">
				<path id="XMLID_140_" d="M50.4,51.6c-1.6,0-2.1,2.3-2.3,3.5c-0.3,1.9,0.2,3.5,2.1,4.3c0.9,0.4,1.9,0.5,2.7-0.1
					c0.8-0.7,1.3-1.7,1.4-2.7C54.6,54.2,52.8,52.1,50.4,51.6c-0.3-0.1-0.5,0.5-0.1,0.6c1.9,0.4,3.4,1.8,3.4,3.8
					c0,2.1-1.5,3.9-3.6,2.7c-1.4-0.8-1.6-2.1-1.4-3.6c0.1-0.8,0.6-2.9,1.7-2.9C50.8,52.3,50.8,51.6,50.4,51.6z"/>
			</g>
		</g>
	</g>
	<g id="XMLID_10_">
		<g id="XMLID_27_">
			<path id="XMLID_57_" class="st1" d="M50.4,91.3c-1.5-0.2-2.6,4.2-1.9,5.6s2.3,2.2,3.8,1.9c1.3-1,2-2.8,1.6-4.4
				C53.5,92.8,52,91.5,50.4,91.3z"/>
		</g>
		<g id="XMLID_12_">
			<g id="XMLID_130_">
				<path id="XMLID_134_" d="M50.4,91c-1.6,0-2.1,2.3-2.3,3.5c-0.3,1.9,0.2,3.5,2.1,4.3c0.9,0.4,1.9,0.5,2.7-0.1
					c0.8-0.7,1.3-1.7,1.4-2.7C54.6,93.6,52.8,91.4,50.4,91c-0.3-0.1-0.5,0.5-0.1,0.6c1.9,0.4,3.4,1.8,3.4,3.8c0,2.1-1.5,3.9-3.6,2.7
					c-1.4-0.8-1.6-2.1-1.4-3.6c0.1-0.8,0.6-2.9,1.7-2.9C50.8,91.6,50.8,91,50.4,91z"/>
			</g>
		</g>
	</g>
	<g id="XMLID_14_">
		<g id="XMLID_31_">
			<path id="XMLID_56_" class="st1" d="M85.6,68.5c-1.5-0.2-2.6,4.2-1.9,5.6c0.7,1.4,2.3,2.2,3.8,1.9c1.3-1,2-2.8,1.6-4.4
				C88.7,70,87.2,68.7,85.6,68.5z"/>
		</g>
		<g id="XMLID_15_">
			<g id="XMLID_124_">
				<path id="XMLID_128_" d="M85.6,68.2c-1.6,0-2.1,2.3-2.3,3.5c-0.3,1.9,0.2,3.5,2.1,4.3c0.9,0.4,1.9,0.5,2.7-0.1
					c0.8-0.7,1.3-1.7,1.4-2.7C89.8,70.8,88,68.7,85.6,68.2c-0.3-0.1-0.5,0.5-0.1,0.6c1.9,0.4,3.4,1.8,3.4,3.8c0,2.1-1.5,3.9-3.6,2.7
					c-1.4-0.8-1.6-2.1-1.4-3.6c0.1-0.8,0.6-2.9,1.7-2.9C86,68.8,86,68.2,85.6,68.2z"/>
			</g>
		</g>
	</g>
	<g id="XMLID_16_">
		<g id="XMLID_36_">
			<path id="XMLID_55_" class="st1" d="M98,107.9c-1.5-0.2-2.6,4.2-1.9,5.6c0.7,1.4,2.3,2.2,3.8,1.9c1.3-1,2-2.8,1.6-4.4
				C101.1,109.4,99.7,108.1,98,107.9z"/>
		</g>
		<g id="XMLID_17_">
			<g id="XMLID_118_">
				<path id="XMLID_122_" d="M98,107.6c-1.6,0-2.1,2.3-2.3,3.5c-0.3,1.9,0.2,3.5,2.1,4.3c0.9,0.4,1.9,0.5,2.7-0.1
					c0.8-0.7,1.3-1.7,1.4-2.7C102.2,110.1,100.5,108,98,107.6c-0.3-0.1-0.5,0.5-0.1,0.6c1.9,0.4,3.4,1.8,3.4,3.8
					c0,2.1-1.5,3.9-3.6,2.7c-1.4-0.8-1.6-2.1-1.4-3.6c0.1-0.8,0.6-2.9,1.7-2.9C98.4,108.2,98.4,107.6,98,107.6z"/>
			</g>
		</g>
	</g>
	<g id="XMLID_19_">
		<g id="XMLID_47_">
			<path id="XMLID_54_" class="st1" d="M135.3,74.7c-1.5-0.2-2.6,4.2-1.9,5.6s2.3,2.2,3.8,1.9c1.3-1,2-2.8,1.6-4.4
				S136.9,74.9,135.3,74.7z"/>
		</g>
		<g id="XMLID_20_">
			<g id="XMLID_111_">
				<path id="XMLID_116_" d="M135.3,74.4c-1.6,0-2.1,2.3-2.3,3.5c-0.3,1.9,0.2,3.5,2.1,4.3c0.9,0.4,1.9,0.5,2.7-0.1
					c0.8-0.7,1.3-1.7,1.4-2.7C139.5,77,137.7,74.9,135.3,74.4c-0.3-0.1-0.5,0.5-0.1,0.6c1.9,0.4,3.4,1.8,3.4,3.8
					c0,2.1-1.5,3.9-3.6,2.7c-1.4-0.8-1.6-2.1-1.4-3.6c0.1-0.8,0.6-2.9,1.7-2.9C135.7,75,135.7,74.4,135.3,74.4z"/>
			</g>
		</g>
	</g>
	<g id="XMLID_28_">
		<g id="XMLID_58_">
			<path id="XMLID_53_" class="st1" d="M141.5,128.6c-1.5-0.2-2.6,4.2-1.9,5.6s2.3,2.2,3.8,1.9c1.3-1,2-2.8,1.6-4.4
				C144.6,130.1,143.1,128.8,141.5,128.6z"/>
		</g>
		<g id="XMLID_29_">
			<g id="XMLID_105_">
				<path id="XMLID_109_" d="M141.5,128.3c-1.6,0-2.1,2.3-2.3,3.5c-0.3,1.9,0.2,3.5,2.1,4.3c0.9,0.4,1.9,0.5,2.7-0.1
					c0.8-0.7,1.3-1.7,1.4-2.7C145.7,130.9,144,128.7,141.5,128.3c-0.3-0.1-0.5,0.5-0.1,0.6c1.9,0.4,3.4,1.8,3.4,3.8
					c0,2.1-1.5,3.9-3.6,2.7c-1.4-0.8-1.6-2.1-1.4-3.6c0.1-0.8,0.6-2.9,1.7-2.9C141.9,128.9,141.9,128.3,141.5,128.3z"/>
			</g>
		</g>
	</g>
	<g id="XMLID_32_">
		<g id="XMLID_69_">
			<path id="XMLID_52_" class="st1" d="M73.2,136.9c-1.5-0.2-2.6,4.2-1.9,5.6c0.7,1.4,2.3,2.2,3.8,1.9c1.3-1,2-2.8,1.6-4.4
				C76.2,138.4,74.8,137.1,73.2,136.9z"/>
		</g>
		<g id="XMLID_33_">
			<g id="XMLID_98_">
				<path id="XMLID_103_" d="M73.2,136.6c-1.6,0-2.1,2.3-2.3,3.5c-0.3,1.9,0.2,3.5,2.1,4.3c0.9,0.4,1.9,0.5,2.7-0.1
					c0.8-0.7,1.3-1.7,1.4-2.7C77.4,139.1,75.6,137,73.2,136.6c-0.3-0.1-0.5,0.5-0.1,0.6c1.9,0.4,3.4,1.8,3.4,3.8
					c0,2.1-1.5,3.9-3.6,2.7c-1.4-0.8-1.6-2.1-1.4-3.6c0.1-0.8,0.6-2.9,1.7-2.9C73.6,137.2,73.6,136.6,73.2,136.6z"/>
			</g>
		</g>
	</g>
	<g id="XMLID_38_">
		<g id="XMLID_80_">
			<path id="XMLID_45_" class="st1" d="M112.5,37.4c-1.5-0.2-2.6,4.2-1.9,5.6c0.7,1.4,2.3,2.2,3.8,1.9c1.3-1,2-2.8,1.6-4.4
				S114.2,37.7,112.5,37.4z"/>
		</g>
		<g id="XMLID_39_">
			<g id="XMLID_92_">
				<path id="XMLID_96_" d="M112.5,37.1c-1.6,0-2.1,2.3-2.3,3.5c-0.3,1.9,0.2,3.5,2.1,4.3c0.9,0.4,1.9,0.5,2.7-0.1
					c0.8-0.7,1.3-1.7,1.4-2.7C116.7,39.7,115,37.6,112.5,37.1c-0.3-0.1-0.5,0.5-0.1,0.6c1.9,0.4,3.4,1.8,3.4,3.8
					c0,2.1-1.5,3.9-3.6,2.7c-1.4-0.8-1.6-2.1-1.4-3.6c0.1-0.8,0.6-2.9,1.7-2.9C112.9,37.8,112.9,37.1,112.5,37.1z"/>
			</g>
		</g>
	</g>
	<g id="XMLID_49_">
		<g id="XMLID_91_">
			<path id="XMLID_43_" class="st1" d="M174.7,87.2c-1.5-0.2-2.6,4.2-1.9,5.6c0.7,1.4,2.3,2.2,3.8,1.9c1.3-1,2-2.8,1.6-4.4
				C177.7,88.7,176.3,87.4,174.7,87.2z"/>
		</g>
		<g id="XMLID_50_">
			<g id="XMLID_85_">
				<path id="XMLID_89_" d="M174.7,86.8c-1.6,0-2.1,2.3-2.3,3.5c-0.3,1.9,0.2,3.5,2.1,4.3c0.9,0.4,1.9,0.5,2.7-0.1
					c0.8-0.7,1.3-1.7,1.4-2.7C178.9,89.4,177.1,87.3,174.7,86.8c-0.3-0.1-0.5,0.5-0.1,0.6c1.9,0.4,3.4,1.8,3.4,3.8
					c0,2.1-1.5,3.9-3.6,2.7c-1.4-0.8-1.6-2.1-1.4-3.6c0.1-0.8,0.6-2.9,1.7-2.9C175.1,87.5,175.1,86.8,174.7,86.8z"/>
			</g>
		</g>
	</g>
	<g id="XMLID_60_">
		<g id="XMLID_102_">
			<path id="XMLID_41_" class="st1" d="M112.5,155.5c-1.5-0.2-2.6,4.2-1.9,5.6c0.7,1.4,2.3,2.2,3.8,1.9c1.3-1,2-2.8,1.6-4.4
				S114.2,155.7,112.5,155.5z"/>
		</g>
		<g id="XMLID_61_">
			<g id="XMLID_77_">
				<path id="XMLID_83_" d="M112.5,155.2c-1.6,0-2.1,2.3-2.3,3.5c-0.3,1.9,0.2,3.5,2.1,4.3c0.9,0.4,1.9,0.5,2.7-0.1
					c0.8-0.7,1.3-1.7,1.4-2.7C116.7,157.8,115,155.7,112.5,155.2c-0.3-0.1-0.5,0.5-0.1,0.6c1.9,0.4,3.4,1.8,3.4,3.8
					c0,2.1-1.5,3.9-3.6,2.7c-1.4-0.8-1.6-2.1-1.4-3.6c0.1-0.8,0.6-2.9,1.7-2.9C112.9,155.8,112.9,155.2,112.5,155.2z"/>
			</g>
		</g>
	</g>
	<g id="XMLID_71_">
		<g id="XMLID_113_">
			<path id="XMLID_37_" class="st1" d="M42.1,128.6c-1.5-0.2-2.6,4.2-1.9,5.6s2.3,2.2,3.8,1.9c1.3-1,2-2.8,1.6-4.4
				C45.2,130.1,43.7,128.8,42.1,128.6z"/>
		</g>
		<g id="XMLID_72_">
			<g id="XMLID_66_">
				<path id="XMLID_75_" d="M42.1,128.3c-1.6,0-2.1,2.3-2.3,3.5c-0.3,1.9,0.2,3.5,2.1,4.3c0.9,0.4,1.9,0.5,2.7-0.1
					c0.8-0.7,1.3-1.7,1.4-2.7C46.3,130.9,44.5,128.7,42.1,128.3c-0.3-0.1-0.5,0.5-0.1,0.6c1.9,0.4,3.4,1.8,3.4,3.8
					c0,2.1-1.5,3.9-3.6,2.7c-1.4-0.8-1.6-2.1-1.4-3.6c0.1-0.8,0.6-2.9,1.7-2.9C42.5,128.9,42.5,128.3,42.1,128.3z"/>
			</g>
		</g>
	</g>
	<path id="XMLID_4_" class="st2" d="M187.4,58.8c-8.1,0-14.7-6.6-14.7-14.7c0-1.6,0.3-3.2,0.8-4.7c0.3-0.9-0.5-1.9-1.4-1.8
		c-1.4,0.2-2.9,0.1-4.4-0.3c-3.3-0.8-6.2-3.1-7.8-6.1c-1.4-2.5-1.8-4.8-1.6-7c0.1-1-0.9-1.7-1.8-1.4c-1.3,0.4-2.8,0.6-4.2,0.6
		c-7.5,0-13.7-5.6-14.6-12.9c-0.1-0.7-0.5-1.4-1.2-1.6c-11.9-4.6-25-7-38.6-6.5C48.1,4.4,7.4,44.7,5.1,94.4
		c-2.7,58.3,46.3,105.8,105,100.7c46.1-4,83.3-41,87.5-87.1c1.6-17.7-1.6-34.5-8.4-49.3C188.6,58.7,188,58.8,187.4,58.8z"/>
</g>
</svg>
