<?xml version="1.0" encoding="UTF-8" standalone="no"?>
<!DOCTYPE svg PUBLIC "-//W3C//DTD SVG 1.1//EN"
"http://www.w3.org/Graphics/SVG/1.1/DTD/svg11.dtd">
<svg viewBox="0 0 1466 855" version="1.1" xmlns="http://www.w3.org/2000/svg" xmlns:xlink="http://www.w3.org/1999/xlink">
<defs>
<style type="text/css"><![CDATA[
.g1_1{
fill: #F4E72D;
}
.g2_1{
}
.g3_1{
fill: #5B1BE7;
}
.g4_1{
fill: #FFFFFF;
}
]]></style>
</defs>
<path d="M684.7,797.8l-578.8,0l0,-740.1l578.8,0l0,740.1Z" class="g1_1" />
<path d="M745.1,72.3c0.4,-0.6,0.9,-1,1.6,-1.2c0.7,-0.3,1.5,-0.4,2.5,-0.4c1,0,1.9,0.1,2.5,0.3c0.6,0.2,1.1,0.4,1.4,0.7c0.3,0.2,0.5,0.6,0.7,1.1c0.2,0.6,0.3,1.5,0.3,2.7l0,29.9c0,0.8,0,1.5,-0.1,1.9c0,0.4,-0.2,0.8,-0.5,1.4c-0.5,0.9,-1.9,1.4,-4.2,1.4c-1.4,0,-2.4,-0.1,-2.9,-0.3c-0.5,-0.2,-1,-0.6,-1.3,-1C737,98,731.7,91,729.1,87.7l0,17.7c0,0.8,0,1.5,0,1.9c-0.1,0.4,-0.3,0.8,-0.6,1.4c-0.5,0.9,-1.9,1.4,-4.2,1.4c-2.2,0,-3.5,-0.5,-4,-1.4c-0.3,-0.6,-0.5,-1.1,-0.6,-1.5c0,-0.4,0,-1,0,-1.9l0,-30c0,-1.4,0.1,-2.3,0.5,-3c0.3,-0.6,0.8,-1,1.5,-1.2c0.7,-0.3,1.6,-0.4,2.6,-0.4c1.1,0,2,0.1,2.6,0.3c0.6,0.2,1.1,0.5,1.3,0.7c0.2,0.1,0.6,0.6,1.3,1.4c7.5,10.3,12.6,17.1,15.1,20.4l0,-18.2c0,-1.4,0.2,-2.3,0.5,-3Z" class="g2_1" />
<path d="M775,68.4l-1.6,0.3c-1.1,0,-1.9,-1,-2.6,-3.1c-0.3,-0.9,-0.5,-1.6,-0.5,-2.2c0,-0.6,0.2,-1.1,0.4,-1.4c0.3,-0.5,1,-0.9,2,-1.2l8.8,-2.7c1,-0.3,1.5,-0.4,1.6,-0.4c1.1,0,2,1.1,2.6,3.2c0.3,0.9,0.5,1.6,0.5,2.2c0,0.6,-0.1,1,-0.4,1.3c-0.3,0.5,-1,0.9,-2,1.2Zm-7.9,22.1c0,3.2,1,5.8,3.1,7.8c2.1,1.9,4.4,2.9,6.9,2.9c2.6,0,4.9,-0.9,6.9,-2.9c2.1,-1.9,3.1,-4.5,3.1,-7.8c0,-3.2,-1.1,-5.8,-3.1,-7.8c-2.1,-2,-4.4,-3,-6.9,-3c-2.6,0,-4.9,1,-6.9,3c-2.1,2,-3.1,4.6,-3.1,7.8m9.8,-20.3c5.3,0,9.9,1.9,13.8,5.8c3.9,3.8,5.9,8.6,5.9,14.2c0,5.7,-1.9,10.6,-5.6,14.6c-3.7,4,-8.3,6,-13.8,6c-5.4,0,-10.1,-2,-13.9,-6c-3.8,-3.9,-5.7,-8.6,-5.7,-14.1c0,-2.9,0.5,-5.7,1.6,-8.3c1.1,-2.6,2.5,-4.8,4.3,-6.6c1.8,-1.7,3.9,-3.1,6.2,-4.1c2.3,-1,4.7,-1.5,7.2,-1.5Z" class="g2_1" />
<path d="M800.7,104.6c-1,-1.2,-1.4,-2.2,-1.4,-3.1c0,-0.9,0.8,-2.1,2.3,-3.7c0.9,-0.8,1.8,-1.2,2.8,-1.2c1.1,0,2.4,0.9,4.2,2.6c0.5,0.7,1.3,1.2,2.2,1.8c0.9,0.6,1.8,0.8,2.6,0.8c3.3,0,5,-1.3,5,-4.1c0,-0.8,-0.5,-1.5,-1.4,-2c-0.9,-0.6,-2,-1,-3.4,-1.2c-1.4,-0.3,-2.8,-0.7,-4.4,-1.3c-1.6,-0.5,-3.1,-1.2,-4.4,-1.9c-1.4,-0.8,-2.5,-2,-3.4,-3.6c-1,-1.6,-1.4,-3.6,-1.4,-5.9c0,-3.1,1.2,-5.9,3.5,-8.2c2.4,-2.4,5.6,-3.6,9.6,-3.6c2.2,0,4.1,0.3,5.9,0.9c1.8,0.5,3,1.1,3.7,1.7l1.3,1c1.1,1,1.7,1.9,1.7,2.6c0,0.7,-0.4,1.7,-1.3,3c-1.2,1.8,-2.5,2.7,-3.8,2.7c-0.7,0,-1.6,-0.4,-2.8,-1.1c-0.1,-0.1,-0.3,-0.3,-0.6,-0.5c-0.3,-0.3,-0.6,-0.6,-0.8,-0.7c-0.8,-0.5,-1.7,-0.7,-2.9,-0.7c-1.2,0,-2.1,0.2,-2.9,0.8c-0.8,0.5,-1.1,1.3,-1.1,2.3c0,1,0.4,1.8,1.3,2.4c0.9,0.6,2.1,1,3.4,1.2c1.4,0.3,2.9,0.6,4.5,1c1.6,0.5,3.1,1,4.5,1.7c1.3,0.6,2.5,1.7,3.4,3.3c0.9,1.6,1.4,3.6,1.4,5.9c0,2.4,-0.5,4.4,-1.4,6.2c-1,1.8,-2.2,3.1,-3.7,4.1c-2.9,1.9,-6,2.9,-9.3,2.9c-1.7,0,-3.3,-0.3,-4.8,-0.7c-1.5,-0.4,-2.7,-0.9,-3.7,-1.5c-1.9,-1.1,-3.2,-2.3,-3.9,-3.3Z" class="g2_1" />
<path d="M845.7,104.6c-1,-1.2,-1.4,-2.2,-1.4,-3.1c0,-0.9,0.7,-2.1,2.3,-3.7c0.9,-0.8,1.8,-1.2,2.8,-1.2c1,0,2.4,0.9,4.2,2.6c0.5,0.7,1.2,1.2,2.2,1.8c0.9,0.6,1.8,0.8,2.6,0.8c3.3,0,5,-1.3,5,-4.1c0,-0.8,-0.5,-1.5,-1.4,-2c-0.9,-0.6,-2.1,-1,-3.4,-1.2c-1.4,-0.3,-2.9,-0.7,-4.4,-1.3c-1.6,-0.5,-3.1,-1.2,-4.5,-1.9c-1.3,-0.8,-2.5,-2,-3.4,-3.6C845.4,86.1,845,84.1,845,81.8c0,-3.1,1.1,-5.9,3.5,-8.2C850.8,71.2,854,70,858.1,70c2.1,0,4.1,0.3,5.9,0.9c1.7,0.5,3,1.1,3.7,1.7l1.3,1c1.1,1,1.7,1.9,1.7,2.6c0,0.7,-0.5,1.7,-1.3,3c-1.2,1.8,-2.5,2.7,-3.8,2.7c-0.7,0,-1.7,-0.4,-2.8,-1.1c-0.1,-0.1,-0.3,-0.3,-0.6,-0.5c-0.3,-0.3,-0.6,-0.6,-0.8,-0.7c-0.8,-0.5,-1.7,-0.7,-2.9,-0.7c-1.2,0,-2.1,0.2,-2.9,0.8c-0.8,0.5,-1.2,1.3,-1.2,2.3c0,1,0.5,1.8,1.4,2.4c0.9,0.6,2.1,1,3.4,1.2c1.4,0.3,2.9,0.6,4.5,1c1.6,0.5,3.1,1,4.4,1.7c1.4,0.6,2.5,1.7,3.5,3.3c0.9,1.6,1.3,3.6,1.3,5.9c0,2.4,-0.4,4.4,-1.4,6.2c-0.9,1.8,-2.1,3.1,-3.6,4.1c-2.9,1.9,-6,2.9,-9.3,2.9c-1.7,0,-3.3,-0.3,-4.8,-0.7c-1.5,-0.4,-2.7,-0.9,-3.7,-1.5c-1.9,-1.1,-3.2,-2.3,-4,-3.3Z" class="g2_1" />
<path d="M885.1,90.5c0,3.2,1.1,5.8,3.1,7.8c2.1,1.9,4.4,2.9,7,2.9c2.5,0,4.8,-0.9,6.8,-2.9c2.1,-1.9,3.1,-4.5,3.1,-7.8c0,-3.2,-1,-5.8,-3.1,-7.8c-2.1,-2,-4.4,-3,-6.9,-3c-2.5,0,-4.8,1,-6.9,3c-2,2,-3.1,4.6,-3.1,7.8m9.8,-20.3c5.3,0,10,1.9,13.9,5.8c3.9,3.8,5.8,8.6,5.8,14.2c0,5.7,-1.8,10.6,-5.6,14.6c-3.7,4,-8.3,6,-13.7,6c-5.5,0,-10.1,-2,-13.9,-6c-3.9,-3.9,-5.8,-8.6,-5.8,-14.1c0,-2.9,0.6,-5.7,1.6,-8.3c1.1,-2.6,2.5,-4.8,4.3,-6.6c1.8,-1.7,3.9,-3.1,6.2,-4.1c2.4,-1,4.8,-1.5,7.2,-1.5Z" class="g2_1" />
<path d="M960,72.2c0.3,0.5,0.5,1,0.5,1.4c0.1,0.5,0.1,1.1,0.1,1.9l0,29.9c0,2.5,-0.7,3.9,-2,4.3c-0.7,0.3,-1.6,0.4,-2.6,0.4c-1,0,-1.9,-0.1,-2.5,-0.3c-0.6,-0.2,-1.1,-0.4,-1.4,-0.7c-0.3,-0.2,-0.6,-0.6,-0.7,-1c-0.2,-0.6,-0.3,-1.6,-0.3,-2.8l0,-18c-0.9,1.1,-2.2,2.8,-3.9,5.3c-1.7,2.4,-2.8,3.9,-3.3,4.5c-0.5,0.6,-0.8,1,-1,1.3c-0.2,0.2,-0.6,0.5,-1.3,0.9c-0.7,0.4,-1.4,0.6,-2.3,0.6c-0.8,0,-1.5,-0.1,-2.2,-0.5C936.5,99,936,98.6,935.7,98.3l-0.4,-0.6C934.6,96.8,933.1,94.9,931,92c-2.1,-3,-3.2,-4.5,-3.4,-4.7l0,18.1c0,0.8,0,1.4,-0.1,1.8c0,0.5,-0.2,0.9,-0.5,1.4c-0.5,1,-1.9,1.5,-4.2,1.5c-2.2,0,-3.5,-0.5,-4.1,-1.5c-0.3,-0.5,-0.4,-1,-0.5,-1.4c-0.1,-0.4,-0.1,-1.1,-0.1,-1.9l0,-29.9c0,-0.8,0,-1.4,0.1,-1.8c0.1,-0.5,0.2,-0.9,0.5,-1.5c0.6,-0.9,1.9,-1.4,4.2,-1.4c1,0,1.8,0.2,2.5,0.4c0.7,0.2,1.2,0.5,1.4,0.7l0.3,0.3l12.2,16.1c6.1,-8.1,10.2,-13.4,12.2,-16c0.6,-1,2.1,-1.5,4.4,-1.5c2.2,0,3.6,0.5,4.1,1.5Z" class="g2_1" />
<path d="M973.6,90.5c0,3.2,1.1,5.8,3.1,7.8c2.1,1.9,4.4,2.9,6.9,2.9c2.6,0,4.9,-0.9,6.9,-2.9c2.1,-1.9,3.1,-4.5,3.1,-7.8c0,-3.2,-1,-5.8,-3.1,-7.8c-2.1,-2,-4.4,-3,-6.9,-3c-2.6,0,-4.9,1,-6.9,3c-2,2,-3.1,4.6,-3.1,7.8m9.8,-20.3c5.3,0,9.9,1.9,13.9,5.8c3.9,3.8,5.8,8.6,5.8,14.2c0,5.7,-1.8,10.6,-5.6,14.6c-3.7,4,-8.3,6,-13.7,6c-5.5,0,-10.1,-2,-14,-6c-3.8,-3.9,-5.7,-8.6,-5.7,-14.1c0,-2.9,0.6,-5.7,1.6,-8.3c1.1,-2.6,2.5,-4.8,4.3,-6.6c1.8,-1.7,3.9,-3.1,6.2,-4.1c2.4,-1,4.8,-1.5,7.2,-1.5Z" class="g2_1" />
<path d="M1007.2,104.6c-0.9,-1.2,-1.4,-2.2,-1.4,-3.1c0,-0.9,0.8,-2.1,2.3,-3.7c0.9,-0.8,1.9,-1.2,2.9,-1.2c1,0,2.4,0.9,4.2,2.6c0.5,0.7,1.2,1.2,2.1,1.8c1,0.6,1.8,0.8,2.6,0.8c3.3,0,5,-1.3,5,-4.1c0,-0.8,-0.4,-1.5,-1.4,-2c-0.9,-0.6,-2,-1,-3.4,-1.2c-1.3,-0.3,-2.8,-0.7,-4.4,-1.3c-1.6,-0.5,-3,-1.2,-4.4,-1.9c-1.4,-0.8,-2.5,-2,-3.4,-3.6c-0.9,-1.6,-1.4,-3.6,-1.4,-5.9c0,-3.1,1.2,-5.9,3.5,-8.2c2.4,-2.4,5.6,-3.6,9.6,-3.6c2.2,0,4.1,0.3,5.9,0.9c1.8,0.5,3,1.1,3.7,1.7l1.4,1c1.1,1,1.6,1.9,1.6,2.6c0,0.7,-0.4,1.7,-1.3,3c-1.2,1.8,-2.4,2.7,-3.7,2.7c-0.8,0,-1.7,-0.4,-2.8,-1.1c-0.1,-0.1,-0.3,-0.3,-0.7,-0.5c-0.3,-0.3,-0.5,-0.6,-0.8,-0.7c-0.7,-0.5,-1.7,-0.7,-2.9,-0.7c-1.1,0,-2.1,0.2,-2.9,0.8c-0.7,0.5,-1.1,1.3,-1.1,2.3c0,1,0.4,1.8,1.3,2.4c1,0.6,2.1,1,3.5,1.2c1.3,0.3,2.8,0.6,4.4,1c1.6,0.5,3.1,1,4.5,1.7c1.4,0.6,2.5,1.7,3.4,3.3c0.9,1.6,1.4,3.6,1.4,5.9c0,2.4,-0.5,4.4,-1.4,6.2c-0.9,1.8,-2.2,3.1,-3.7,4.1c-2.9,1.9,-6,2.9,-9.3,2.9c-1.7,0,-3.3,-0.3,-4.8,-0.7c-1.5,-0.4,-2.7,-0.9,-3.6,-1.5c-1.9,-1.1,-3.3,-2.3,-4,-3.3Z" class="g2_1" />
<path d="M1077.4,72.1c0.3,-0.5,0.8,-0.9,1.5,-1.2c0.7,-0.2,1.6,-0.3,2.6,-0.3c1,0,1.8,0.1,2.4,0.3c0.6,0.2,1.1,0.4,1.4,0.6c0.3,0.3,0.6,0.7,0.7,1.2c0.2,0.6,0.3,1.5,0.3,2.8l0,16.2c0,4.8,-1.4,9.1,-4.4,12.9c-1.4,1.9,-3.2,3.3,-5.5,4.5c-2.3,1.1,-4.8,1.7,-7.5,1.7c-2.8,0,-5.3,-0.6,-7.5,-1.8c-2.2,-1.1,-4.1,-2.6,-5.5,-4.5c-2.9,-3.8,-4.3,-8.1,-4.3,-12.9l0,-16.2c0,-0.8,0,-1.5,0.1,-1.9c0,-0.4,0.2,-0.9,0.5,-1.4c0.3,-0.6,0.8,-0.9,1.4,-1.2c0.7,-0.2,1.6,-0.3,2.8,-0.3c1.1,0,2,0.1,2.7,0.3c0.7,0.3,1.2,0.6,1.4,1.2c0.5,0.8,0.7,1.9,0.7,3.4l0,16.1c0,2.2,0.5,4.3,1.6,6.2c0.5,1.1,1.3,1.9,2.4,2.5c1.1,0.6,2.3,0.9,3.8,0.9c2.6,0,4.6,-1,5.9,-2.9c1.3,-2,1.9,-4.2,1.9,-6.7l0,-16.5c0,-1.4,0.2,-2.4,0.6,-3Z" class="g2_1" />
<path d="M1132.6,72.2c0.2,0.5,0.4,1,0.5,1.4c0,0.5,0,1.1,0,1.9l0,29.9c0,2.5,-0.6,3.9,-2,4.3c-0.7,0.3,-1.5,0.4,-2.6,0.4c-1,0,-1.8,-0.1,-2.5,-0.3c-0.6,-0.2,-1,-0.4,-1.4,-0.7c-0.3,-0.2,-0.5,-0.6,-0.7,-1c-0.2,-0.6,-0.3,-1.6,-0.3,-2.8l0,-18c-0.9,1.1,-2.2,2.8,-3.9,5.3c-1.7,2.4,-2.8,3.9,-3.3,4.5c-0.5,0.6,-0.8,1,-1,1.3c-0.1,0.2,-0.6,0.5,-1.3,0.9c-0.7,0.4,-1.4,0.6,-2.2,0.6c-0.8,0,-1.6,-0.1,-2.2,-0.5c-0.7,-0.4,-1.2,-0.8,-1.5,-1.1l-0.4,-0.6c-0.7,-0.9,-2.1,-2.8,-4.2,-5.7c-2.2,-3,-3.3,-4.5,-3.5,-4.7l0,18.1c0,0.8,0,1.4,-0.1,1.8c0,0.5,-0.2,0.9,-0.5,1.4c-0.5,1,-1.9,1.5,-4.2,1.5c-2.2,0,-3.5,-0.5,-4.1,-1.5c-0.2,-0.5,-0.4,-1,-0.5,-1.4c0,-0.4,-0.1,-1.1,-0.1,-1.9l0,-29.9c0,-0.8,0.1,-1.4,0.1,-1.8c0.1,-0.5,0.3,-0.9,0.5,-1.5c0.6,-0.9,2,-1.4,4.2,-1.4c1,0,1.8,0.2,2.5,0.4c0.7,0.2,1.2,0.5,1.4,0.7l0.3,0.3l12.2,16.1c6.1,-8.1,10.2,-13.4,12.3,-16c0.6,-1,2,-1.5,4.3,-1.5c2.3,0,3.7,0.5,4.2,1.5Z" class="g2_1" />
<path d="M744.3,164.3l1,-0.7c1.2,-0.7,2.1,-1,2.6,-1c1.1,0,2.3,1,3.6,3c0.7,1.2,1.1,2.2,1.1,3c0,0.7,-0.2,1.4,-0.7,1.9c-0.5,0.5,-1,0.9,-1.7,1.3c-0.6,0.4,-1.2,0.8,-1.8,1.2c-0.6,0.3,-1.8,0.8,-3.7,1.4c-1.8,0.5,-3.6,0.8,-5.3,0.8c-1.7,0,-3.4,-0.2,-5.1,-0.7c-1.8,-0.4,-3.6,-1.2,-5.4,-2.2c-1.9,-1.1,-3.5,-2.4,-5,-3.9c-1.5,-1.5,-2.7,-3.5,-3.6,-5.9c-1,-2.3,-1.4,-4.9,-1.4,-7.7c0,-2.8,0.4,-5.4,1.4,-7.6c0.9,-2.3,2.1,-4.2,3.5,-5.7c1.5,-1.5,3.1,-2.7,5,-3.7c3.5,-2,7.1,-2.9,10.6,-2.9c1.7,0,3.4,0.2,5.1,0.7c1.8,0.6,3.1,1.1,4,1.6l1.3,0.8c0.6,0.4,1.1,0.7,1.5,1c0.9,0.7,1.4,1.6,1.4,2.5c0,1,-0.4,2,-1.1,3c-1.4,1.9,-2.7,2.9,-3.8,2.9c-0.6,0,-1.6,-0.4,-2.7,-1.2c-1.5,-1.2,-3.6,-1.8,-6.1,-1.8c-2.3,0,-4.6,0.8,-6.9,2.4c-1,0.8,-1.9,1.9,-2.6,3.3c-0.8,1.5,-1.1,3.1,-1.1,4.9c0,1.8,0.3,3.4,1.1,4.9c0.7,1.4,1.6,2.5,2.7,3.4c2.2,1.5,4.5,2.3,6.8,2.3c1.1,0,2.2,-0.1,3.2,-0.4c1,-0.3,1.7,-0.6,2.1,-0.9Z" class="g2_1" />
<path d="M764.9,155c0,3.2,1,5.8,3.1,7.8c2.1,2,4.4,3,6.9,3c2.6,0,4.9,-1,6.9,-2.9c2,-1.9,3.1,-4.5,3.1,-7.8c0,-3.3,-1.1,-5.9,-3.1,-7.9c-2.1,-1.9,-4.4,-2.9,-6.9,-2.9c-2.6,0,-4.9,1,-6.9,3c-2.1,2,-3.1,4.5,-3.1,7.7m9.8,-20.2c5.3,0,9.9,1.9,13.8,5.7c3.9,3.8,5.9,8.6,5.9,14.3c0,5.7,-1.9,10.5,-5.6,14.5c-3.7,4,-8.3,6,-13.8,6c-5.4,0,-10.1,-2,-13.9,-5.9c-3.8,-3.9,-5.7,-8.6,-5.7,-14.1c0,-3,0.5,-5.8,1.6,-8.4c1.1,-2.6,2.5,-4.7,4.3,-6.5c1.8,-1.8,3.9,-3.1,6.2,-4.1c2.3,-1,4.7,-1.5,7.2,-1.5Z" class="g2_1" />
<path d="M807.4,166.7l14.6,0c1.2,0,2.1,0.1,2.6,0.4c0.6,0.3,0.9,0.7,1.1,1.3c0.2,0.6,0.3,1.3,0.3,2.3c0,0.9,-0.1,1.7,-0.3,2.3c-0.2,0.5,-0.5,0.9,-0.9,1.1c-0.7,0.4,-1.6,0.6,-2.8,0.6l-19.4,0c-2.5,0,-4,-0.7,-4.4,-2.1c-0.2,-0.5,-0.3,-1.5,-0.3,-2.7l0,-29.9c0,-0.9,0,-1.5,0.1,-1.9c0,-0.4,0.2,-0.9,0.5,-1.4c0.5,-1,1.9,-1.5,4.2,-1.5c2.5,0,4,0.7,4.4,2c0.2,0.6,0.3,1.6,0.3,2.8Z" class="g2_1" />
<path d="M839,165.2l16.6,0c0.8,0,1.4,0,1.8,0c0.4,0.1,0.9,0.3,1.4,0.5c1,0.5,1.5,1.9,1.5,4.2c0,2.5,-0.7,4,-2,4.4c-0.6,0.3,-1.5,0.4,-2.8,0.4l-21.3,0c-2.5,0,-4,-0.7,-4.4,-2.1c-0.2,-0.5,-0.3,-1.5,-0.3,-2.7l0,-29.9c0,-1.9,0.3,-3.1,1,-3.8c0.7,-0.6,2,-1,3.9,-1l21.2,0c0.8,0,1.4,0.1,1.8,0.1c0.4,0.1,0.9,0.2,1.4,0.5c1,0.5,1.5,1.9,1.5,4.2c0,2.5,-0.7,4,-2,4.4c-0.6,0.3,-1.5,0.4,-2.8,0.4l-16.5,0l0,5.4l10.6,0c0.9,0,1.5,0,1.9,0.1c0.4,0,0.9,0.2,1.4,0.5c1,0.5,1.5,1.9,1.5,4.2c0,2.5,-0.7,4,-2.1,4.4c-0.6,0.2,-1.5,0.3,-2.8,0.3l-10.5,0Z" class="g2_1" />
<path d="M866.4,135.2l29.9,0c1.1,0,2,0.1,2.5,0.4c0.5,0.3,0.9,0.7,1.1,1.3c0.2,0.5,0.3,1.3,0.3,2.2c0,0.9,-0.1,1.7,-0.3,2.2c-0.2,0.6,-0.5,1,-0.9,1.2c-0.7,0.3,-1.6,0.5,-2.8,0.5l-10.3,0l0,27c0,0.9,0,1.5,0,1.9c-0.1,0.4,-0.2,0.8,-0.5,1.3c-0.3,0.6,-0.8,0.9,-1.4,1.1c-0.7,0.3,-1.6,0.4,-2.7,0.4c-1.1,0,-2,-0.1,-2.7,-0.4c-0.7,-0.2,-1.1,-0.5,-1.4,-1.1c-0.3,-0.5,-0.4,-0.9,-0.5,-1.4c0,-0.4,-0.1,-1,-0.1,-1.8l0,-27l-10.3,0c-1.1,0,-2,-0.1,-2.5,-0.4c-0.6,-0.3,-0.9,-0.7,-1.1,-1.3c-0.2,-0.6,-0.3,-1.3,-0.3,-2.2c0,-1,0.1,-1.7,0.3,-2.3c0.2,-0.5,0.5,-0.9,0.9,-1.1c0.7,-0.4,1.6,-0.5,2.8,-0.5Z" class="g2_1" />
<path d="M903.1,140c0,-0.9,0,-1.5,0.1,-1.9c0,-0.4,0.2,-0.9,0.5,-1.4c0.5,-1,1.9,-1.5,4.2,-1.5c2.5,0,4,0.7,4.5,2c0.1,0.6,0.2,1.6,0.2,2.8l0,29.9c0,0.9,0,1.5,0,1.9c-0.1,0.4,-0.3,0.9,-0.6,1.4c-0.5,1,-1.9,1.5,-4.2,1.5c-2.5,0,-3.9,-0.7,-4.4,-2.1c-0.2,-0.5,-0.3,-1.5,-0.3,-2.7Z" class="g2_1" />
<path d="M952.9,135.8c2.1,1.1,3.2,2.2,3.2,3.5c0,0.5,-0.3,1.4,-0.8,2.6L940.4,172c-0.4,0.8,-1,1.4,-1.8,1.9c-0.8,0.5,-1.6,0.7,-2.5,0.7l-0.5,0c-0.9,0,-1.7,-0.2,-2.6,-0.7c-0.8,-0.5,-1.4,-1.1,-1.8,-1.9L916.4,141.9c-0.5,-1.2,-0.8,-2.1,-0.8,-2.6c0,-1.3,1,-2.4,3.2,-3.5c1.1,-0.6,2.1,-0.9,2.7,-0.9c0.6,0,1.1,0.1,1.4,0.2c0.3,0.2,0.6,0.4,0.9,0.8c0.3,0.4,0.6,0.9,0.9,1.4c0.3,0.5,1,2,2.1,4.5c1.1,2.4,2.3,5,3.6,7.8c1.2,2.8,2.4,5.4,3.6,7.8c1.1,2.5,1.7,3.9,1.9,4.1L946.6,138c0.3,-0.7,0.6,-1.2,0.8,-1.6c0.6,-1,1.4,-1.5,2.4,-1.5c0.9,0,1.9,0.3,3.1,0.9Z" class="g2_1" />
<path d="M965.6,155c0,3.2,1.1,5.8,3.1,7.8c2.1,2,4.4,3,6.9,3c2.6,0,4.9,-1,6.9,-2.9c2.1,-1.9,3.1,-4.5,3.1,-7.8c0,-3.3,-1.1,-5.9,-3.1,-7.9c-2.1,-1.9,-4.4,-2.9,-6.9,-2.9c-2.6,0,-4.9,1,-6.9,3c-2.1,2,-3.1,4.5,-3.1,7.7m9.8,-20.2c5.3,0,9.9,1.9,13.8,5.7c3.9,3.8,5.9,8.6,5.9,14.3c0,5.7,-1.9,10.5,-5.6,14.5c-3.7,4,-8.3,6,-13.8,6c-5.4,0,-10.1,-2,-13.9,-5.9c-3.8,-3.9,-5.7,-8.6,-5.7,-14.1c0,-3,0.5,-5.8,1.6,-8.4c1.1,-2.6,2.5,-4.7,4.3,-6.5c1.8,-1.8,3.9,-3.1,6.2,-4.1c2.3,-1,4.7,-1.5,7.2,-1.5Z" class="g2_1" />
<path d="M741.4,226.8c2.1,-1.9,3.1,-4.4,3.1,-7.3c0,-2.9,-1,-5.3,-3,-7.3c-2,-1.9,-4.4,-2.9,-7.1,-2.9l-5.2,0l0,20.4l5.2,0c2.6,0,4.9,-1,7,-2.9M724.5,199.7l9.9,0.1c5.2,0,9.8,1.9,13.7,5.6c4,3.8,5.9,8.4,5.9,13.8c0,5.5,-1.9,10.2,-5.7,14.1c-3.9,3.9,-8.6,5.9,-14.1,5.9l-9.8,0c-2.2,0,-3.6,-0.5,-4.1,-1.4c-0.4,-0.7,-0.6,-1.9,-0.6,-3.4l0,-29.9c0,-0.9,0,-1.5,0,-1.9c0.1,-0.4,0.3,-0.9,0.6,-1.4c0.5,-1,1.9,-1.5,4.2,-1.5Z" class="g2_1" />
<path d="M767.1,229.7l16.5,0c0.9,0,1.5,0,1.9,0.1c0.4,0,0.9,0.2,1.4,0.5c1,0.5,1.5,1.9,1.5,4.2c0,2.5,-0.7,4,-2,4.4c-0.6,0.2,-1.6,0.3,-2.8,0.3l-21.3,0c-2.5,0,-4,-0.7,-4.4,-2c-0.3,-0.6,-0.4,-1.5,-0.4,-2.8l0,-29.9c0,-1.8,0.4,-3,1.1,-3.7c0.6,-0.7,1.9,-1,3.8,-1l21.2,0c0.9,0,1.5,0,1.9,0.1c0.4,0,0.9,0.2,1.4,0.5c1,0.5,1.5,1.9,1.5,4.2c0,2.5,-0.7,4,-2,4.4c-0.6,0.2,-1.6,0.3,-2.8,0.3l-16.5,0l0,5.5l10.6,0c0.8,0,1.5,0,1.9,0c0.4,0.1,0.9,0.3,1.4,0.5c1,0.5,1.4,1.9,1.4,4.2c0,2.6,-0.6,4,-2,4.5c-0.6,0.2,-1.5,0.3,-2.8,0.3l-10.5,0Z" class="g2_1" />
<path d="M823.9,215.5l-3.6,7.4l7.2,0Zm4.3,-12.9l14.5,30c0.7,1.2,1,2.1,1,2.8c0,1.2,-1.1,2.4,-3.2,3.5c-1.2,0.6,-2.1,0.9,-2.8,0.9c-0.7,0,-1.3,-0.2,-1.8,-0.5c-0.4,-0.3,-0.7,-0.7,-0.9,-1c-0.2,-0.4,-0.5,-0.9,-0.9,-1.7l-2.8,-5.8l-14.9,0l-2.8,5.8c-0.3,0.8,-0.6,1.3,-0.8,1.6c-0.2,0.3,-0.5,0.7,-1,1c-0.4,0.3,-1,0.5,-1.7,0.5c-0.7,0,-1.6,-0.3,-2.9,-0.9c-2,-1,-3.1,-2.2,-3.1,-3.4c0,-0.7,0.3,-1.6,0.9,-2.8l14.6,-30.1c0.4,-0.8,1,-1.4,1.8,-2c0.8,-0.5,1.6,-0.7,2.5,-0.7c2,0,3.4,0.9,4.3,2.8Z" class="g2_1" />
<path d="M856.1,218.8l6.9,0c1.1,0,2.1,-0.4,3.2,-1.1c1,-0.8,1.5,-2,1.5,-3.6c0,-1.6,-0.5,-2.8,-1.5,-3.6c-1.1,-0.8,-2.2,-1.2,-3.3,-1.2l-6.8,0Zm20.7,13.8c0.5,1.2,0.8,2.2,0.8,2.8c0,1.3,-1.1,2.5,-3.3,3.4c-1.2,0.5,-2.1,0.8,-2.8,0.8c-0.7,0,-1.3,-0.2,-1.7,-0.6c-0.5,-0.3,-0.8,-0.6,-1,-1c-0.4,-0.7,-1.8,-3.9,-4.2,-9.7l-1.7,0.1l-6.8,0l0,6c0,0.9,0,1.5,0,1.9c-0.1,0.4,-0.3,0.9,-0.5,1.4c-0.5,1,-1.9,1.5,-4.2,1.5c-2.6,0,-4,-0.7,-4.5,-2c-0.2,-0.6,-0.3,-1.6,-0.3,-2.8l0,-29.9c0,-0.8,0.1,-1.4,0.1,-1.8c0.1,-0.4,0.2,-0.9,0.5,-1.5c0.5,-0.9,1.9,-1.4,4.2,-1.4l11.6,0c3.2,0,6.3,1.1,9.2,3.4c1.5,1.2,2.7,2.7,3.6,4.6c0.9,1.9,1.4,4,1.4,6.3c0,4.1,-1.4,7.4,-4.1,10c0.8,1.9,2.1,4.7,3.7,8.5Z" class="g2_1" />
<path d="M881,199.7l29.9,0c1.2,0,2,0.2,2.5,0.4c0.6,0.3,0.9,0.7,1.1,1.3c0.2,0.6,0.3,1.3,0.3,2.3c0,0.9,-0.1,1.6,-0.3,2.2c-0.2,0.6,-0.5,0.9,-0.9,1.2c-0.6,0.3,-1.6,0.4,-2.7,0.4l-10.3,0l0,27.1c0,0.8,0,1.4,-0.1,1.8c0,0.4,-0.2,0.9,-0.5,1.4c-0.3,0.5,-0.7,0.9,-1.4,1.1c-0.7,0.2,-1.6,0.3,-2.7,0.3c-1.1,0,-2,-0.1,-2.7,-0.3c-0.6,-0.2,-1.1,-0.6,-1.4,-1.1c-0.2,-0.5,-0.4,-1,-0.4,-1.4c-0.1,-0.4,-0.1,-1,-0.1,-1.9l0,-27l-10.3,0c-1.2,0,-2,-0.1,-2.6,-0.4c-0.5,-0.2,-0.9,-0.7,-1.1,-1.2c-0.1,-0.6,-0.2,-1.4,-0.2,-2.3c0,-0.9,0.1,-1.7,0.2,-2.2c0.2,-0.6,0.5,-1,1,-1.2c0.6,-0.3,1.5,-0.5,2.7,-0.5Z" class="g2_1" />
<path d="M927.3,229.7l16.5,0c0.9,0,1.5,0,1.9,0.1c0.4,0,0.9,0.2,1.4,0.5c1,0.5,1.5,1.9,1.5,4.2c0,2.5,-0.7,4,-2,4.4c-0.6,0.2,-1.6,0.3,-2.8,0.3l-21.3,0c-2.5,0,-4,-0.7,-4.4,-2c-0.2,-0.6,-0.4,-1.5,-0.4,-2.8l0,-29.9c0,-1.8,0.4,-3,1.1,-3.7c0.6,-0.7,1.9,-1,3.8,-1l21.2,0c0.9,0,1.5,0,1.9,0.1c0.4,0,0.9,0.2,1.4,0.5c1,0.5,1.5,1.9,1.5,4.2c0,2.5,-0.7,4,-2,4.4c-0.6,0.2,-1.6,0.3,-2.8,0.3l-16.5,0l0,5.5l10.6,0c0.8,0,1.5,0,1.9,0c0.4,0.1,0.9,0.3,1.4,0.5c1,0.5,1.5,1.9,1.5,4.2c0,2.6,-0.7,4,-2.1,4.5c-0.6,0.2,-1.5,0.3,-2.8,0.3l-10.5,0Z" class="g2_1" />
<path d="M951.9,230.8c0.3,-0.6,0.8,-1,1.6,-1.2c0.7,-0.3,1.8,-0.4,3.4,-0.4c1.6,0,2.7,0.4,3.4,1.1c0.7,0.7,1.1,2,1.1,4c0,0.8,-0.1,1.5,-0.2,2.1c-0.3,3.1,-1.3,5.7,-3,8c-1.7,2.3,-3.7,3.4,-5.9,3.4c-0.3,0,-0.5,-0.2,-0.7,-0.6c-0.2,-0.4,-0.3,-0.8,-0.3,-1.4c0,-0.6,0.1,-1.1,0.3,-1.5c0.1,-0.3,0.3,-0.5,0.6,-0.6c0.2,-0.1,0.5,-0.3,0.8,-0.5c0.2,-0.2,0.6,-0.6,1.1,-1.4c0.4,-0.7,0.7,-1.6,0.8,-2.6c-1.2,-0.1,-2.1,-0.5,-2.7,-1.1c-0.6,-0.7,-0.9,-1.7,-0.9,-3.1c0,-1.4,0,-2.3,0.1,-2.7c0,-0.5,0.2,-0.9,0.5,-1.5Z" class="g2_1" />
<path d="M1003.1,228.9l1,-0.7c1.2,-0.7,2.1,-1.1,2.6,-1.1c1.1,0,2.3,1,3.6,3c0.8,1.3,1.2,2.3,1.2,3c0,0.8,-0.3,1.4,-0.8,1.9c-0.5,0.5,-1,1,-1.7,1.4c-0.6,0.4,-1.2,0.7,-1.8,1.1c-0.6,0.4,-1.8,0.8,-3.6,1.4c-1.9,0.6,-3.6,0.9,-5.3,0.9c-1.8,0,-3.5,-0.3,-5.2,-0.7c-1.8,-0.5,-3.5,-1.2,-5.4,-2.3c-1.8,-1,-3.5,-2.3,-5,-3.8c-1.4,-1.6,-2.7,-3.5,-3.6,-5.9c-1,-2.4,-1.4,-5,-1.4,-7.8c0,-2.8,0.4,-5.3,1.4,-7.6c0.9,-2.3,2.1,-4.1,3.6,-5.6c1.4,-1.5,3.1,-2.8,4.9,-3.8c3.5,-1.9,7.1,-2.9,10.6,-2.9c1.7,0,3.4,0.3,5.2,0.8c1.7,0.5,3,1,3.9,1.6l1.3,0.7c0.7,0.4,1.2,0.8,1.5,1c0.9,0.8,1.4,1.6,1.4,2.6c0,0.9,-0.4,1.9,-1.1,2.9c-1.4,2,-2.7,3,-3.8,3c-0.6,0,-1.5,-0.4,-2.7,-1.2c-1.5,-1.2,-3.5,-1.9,-6.1,-1.9c-2.3,0,-4.6,0.8,-6.8,2.5c-1.1,0.8,-2,1.9,-2.7,3.3c-0.7,1.4,-1.1,3.1,-1.1,4.9c0,1.8,0.4,3.4,1.1,4.8c0.7,1.5,1.6,2.6,2.7,3.4c2.2,1.6,4.5,2.4,6.8,2.4c1.2,0,2.2,-0.2,3.2,-0.4c1,-0.3,1.7,-0.6,2.1,-0.9Z" class="g2_1" />
<path d="M1024.5,218.8l6.9,0c1.1,0,2.1,-0.4,3.1,-1.1c1.1,-0.8,1.6,-2,1.6,-3.6c0,-1.6,-0.5,-2.8,-1.6,-3.6c-1,-0.8,-2.1,-1.2,-3.2,-1.2l-6.8,0Zm20.7,13.8c0.5,1.2,0.8,2.2,0.8,2.8c0,1.3,-1.1,2.5,-3.3,3.4c-1.2,0.5,-2.1,0.8,-2.8,0.8c-0.7,0,-1.3,-0.2,-1.7,-0.6c-0.5,-0.3,-0.8,-0.6,-1,-1c-0.4,-0.7,-1.8,-3.9,-4.2,-9.7l-1.7,0.1l-6.8,0l0,6c0,0.9,0,1.5,0,1.9c-0.1,0.4,-0.3,0.9,-0.6,1.4c-0.5,1,-1.9,1.5,-4.2,1.5c-2.5,0,-3.9,-0.7,-4.4,-2c-0.2,-0.6,-0.3,-1.6,-0.3,-2.8l0,-29.9c0,-0.8,0,-1.4,0.1,-1.8c0,-0.4,0.2,-0.9,0.5,-1.5c0.5,-0.9,1.9,-1.4,4.2,-1.4l11.6,0c3.2,0,6.2,1.1,9.2,3.4c1.4,1.2,2.6,2.7,3.6,4.6c0.9,1.9,1.4,4,1.4,6.3c0,4.1,-1.4,7.4,-4.1,10c0.8,1.9,2,4.7,3.7,8.5Z" class="g2_1" />
<path d="M1049,204.5c0,-0.8,0,-1.4,0,-1.8c0.1,-0.4,0.3,-0.9,0.5,-1.5c0.5,-0.9,1.9,-1.4,4.2,-1.4c2.6,0,4,0.7,4.5,2c0.2,0.6,0.3,1.5,0.3,2.8l0,29.9c0,0.9,0,1.5,-0.1,1.9c-0.1,0.4,-0.2,0.8,-0.5,1.4c-0.5,0.9,-1.9,1.4,-4.2,1.4c-2.5,0,-4,-0.7,-4.4,-2c-0.2,-0.6,-0.3,-1.5,-0.3,-2.8Z" class="g2_1" />
<path d="M1081.2,215.5l-3.6,7.4l7.2,0Zm4.3,-12.9l14.6,30c0.6,1.2,0.9,2.1,0.9,2.8c0,1.2,-1.1,2.4,-3.1,3.5c-1.3,0.6,-2.2,0.9,-2.9,0.9c-0.7,0,-1.3,-0.2,-1.7,-0.5c-0.5,-0.3,-0.8,-0.7,-1,-1c-0.2,-0.4,-0.5,-0.9,-0.8,-1.7l-2.8,-5.8l-14.9,0l-2.8,5.8c-0.4,0.8,-0.7,1.3,-0.9,1.6c-0.2,0.3,-0.5,0.7,-0.9,1c-0.5,0.3,-1.1,0.5,-1.8,0.5c-0.7,0,-1.6,-0.3,-2.8,-0.9c-2.1,-1,-3.2,-2.2,-3.2,-3.4c0,-0.7,0.3,-1.6,0.9,-2.8l14.6,-30.1c0.4,-0.8,1,-1.4,1.8,-2c0.8,-0.5,1.6,-0.7,2.5,-0.7c2,0,3.4,0.9,4.3,2.8Z" class="g2_1" />
<path d="M1096.5,199.7l29.9,0c1.1,0,2,0.2,2.5,0.4c0.5,0.3,0.9,0.7,1.1,1.3c0.2,0.6,0.2,1.3,0.2,2.3c0,0.9,0,1.6,-0.2,2.2c-0.2,0.6,-0.5,0.9,-0.9,1.2c-0.7,0.3,-1.6,0.4,-2.8,0.4l-10.3,0l0,27.1c0,0.8,0,1.4,0,1.8c-0.1,0.4,-0.3,0.9,-0.5,1.4c-0.3,0.5,-0.8,0.9,-1.4,1.1c-0.7,0.2,-1.6,0.3,-2.7,0.3c-1.2,0,-2,-0.1,-2.7,-0.3c-0.7,-0.2,-1.1,-0.6,-1.4,-1.1c-0.3,-0.5,-0.4,-1,-0.5,-1.4c0,-0.4,-0.1,-1,-0.1,-1.9l0,-27l-10.3,0c-1.1,0,-2,-0.1,-2.5,-0.4c-0.6,-0.2,-0.9,-0.7,-1.1,-1.2c-0.2,-0.6,-0.3,-1.4,-0.3,-2.3c0,-0.9,0.1,-1.7,0.3,-2.2c0.2,-0.6,0.5,-1,0.9,-1.2c0.7,-0.3,1.6,-0.5,2.8,-0.5Z" class="g2_1" />
<path d="M1133.2,204.5c0,-0.8,0,-1.4,0.1,-1.8c0,-0.4,0.2,-0.9,0.5,-1.5c0.5,-0.9,1.9,-1.4,4.2,-1.4c2.5,0,4,0.7,4.5,2c0.1,0.6,0.2,1.5,0.2,2.8l0,29.9c0,0.9,0,1.5,-0.1,1.9c0,0.4,-0.2,0.8,-0.5,1.4c-0.5,0.9,-1.9,1.4,-4.2,1.4c-2.5,0,-3.9,-0.7,-4.4,-2c-0.2,-0.6,-0.3,-1.5,-0.3,-2.8Z" class="g2_1" />
<path d="M1183,200.4c2.1,1,3.2,2.2,3.2,3.4c0,0.6,-0.3,1.5,-0.8,2.6l-14.9,30.1c-0.4,0.8,-1,1.5,-1.8,1.9c-0.8,0.5,-1.6,0.8,-2.5,0.8l-0.5,0c-0.9,0,-1.8,-0.3,-2.6,-0.8c-0.8,-0.4,-1.4,-1.1,-1.8,-1.9l-14.8,-30.1c-0.5,-1.1,-0.8,-2,-0.8,-2.6c0,-1.2,1,-2.4,3.2,-3.4c1.1,-0.6,2,-0.9,2.7,-0.9c0.6,0,1.1,0,1.4,0.2c0.3,0.1,0.6,0.4,0.9,0.7c0.3,0.5,0.6,0.9,0.9,1.5c0.3,0.5,1,2,2.1,4.4c1.1,2.5,2.3,5.1,3.5,7.9c1.3,2.7,2.5,5.3,3.7,7.8c1.1,2.4,1.7,3.8,1.9,4.1l10.7,-23.6c0.3,-0.6,0.6,-1.2,0.8,-1.6c0.6,-0.9,1.4,-1.4,2.3,-1.4c1,0,2,0.3,3.2,0.9Z" class="g2_1" />
<path d="M1189.1,204.5c0,-0.8,0.1,-1.4,0.1,-1.8c0.1,-0.4,0.3,-0.9,0.5,-1.5c0.5,-0.9,1.9,-1.4,4.2,-1.4c2.5,0,4,0.7,4.5,2c0.2,0.6,0.3,1.5,0.3,2.8l0,29.9c0,0.9,-0.1,1.5,-0.1,1.9c-0.1,0.4,-0.2,0.8,-0.5,1.4c-0.5,0.9,-1.9,1.4,-4.2,1.4c-2.5,0,-4,-0.7,-4.4,-2c-0.2,-0.6,-0.4,-1.5,-0.4,-2.8Z" class="g2_1" />
<path d="M1224.7,226.8c2.1,-1.9,3.1,-4.4,3.1,-7.3c0,-2.9,-1,-5.3,-3,-7.3c-2,-1.9,-4.4,-2.9,-7.1,-2.9l-5.2,0l0,20.4l5.2,0c2.6,0,4.9,-1,7,-2.9m-16.9,-27.1l9.9,0.1c5.2,0,9.8,1.9,13.7,5.6c4,3.8,5.9,8.4,5.9,13.8c0,5.5,-1.9,10.2,-5.7,14.1c-3.9,3.9,-8.6,5.9,-14,5.9l-9.9,0c-2.2,0,-3.5,-0.5,-4.1,-1.4c-0.4,-0.7,-0.6,-1.9,-0.6,-3.4l0,-29.9c0,-0.9,0,-1.5,0.1,-1.9c0,-0.4,0.2,-0.9,0.5,-1.4c0.5,-1,1.9,-1.5,4.2,-1.5Z" class="g2_1" />
<path d="M1256.6,215.5l-3.6,7.4l7.2,0Zm4.3,-12.9l14.5,30c0.6,1.2,1,2.1,1,2.8c0,1.2,-1.1,2.4,-3.2,3.5c-1.2,0.6,-2.1,0.9,-2.8,0.9c-0.7,0,-1.3,-0.2,-1.8,-0.5c-0.4,-0.3,-0.7,-0.7,-0.9,-1c-0.2,-0.4,-0.5,-0.9,-0.9,-1.7l-2.8,-5.8l-14.9,0l-2.8,5.8c-0.3,0.8,-0.6,1.3,-0.8,1.6c-0.2,0.3,-0.5,0.7,-1,1c-0.4,0.3,-1,0.5,-1.7,0.5c-0.7,0,-1.6,-0.3,-2.9,-0.9c-2,-1,-3.1,-2.2,-3.1,-3.4c0,-0.7,0.3,-1.6,0.9,-2.8l14.6,-30.1c0.3,-0.8,0.9,-1.4,1.8,-2c0.8,-0.5,1.6,-0.7,2.5,-0.7c1.9,0,3.4,0.9,4.3,2.8Z" class="g2_1" />
<path d="M1301,226.8c2.1,-1.9,3.2,-4.4,3.2,-7.3c0,-2.9,-1,-5.3,-3.1,-7.3c-2,-1.9,-4.4,-2.9,-7.1,-2.9l-5.2,0l0,20.4l5.3,0c2.5,0,4.9,-1,6.9,-2.9m-16.9,-27.1l10,0.1c5.2,0,9.7,1.9,13.7,5.6c3.9,3.8,5.9,8.4,5.9,13.8c0,5.5,-1.9,10.2,-5.8,14.1c-3.8,3.9,-8.5,5.9,-14,5.9l-9.9,0c-2.1,0,-3.5,-0.5,-4,-1.4c-0.5,-0.7,-0.7,-1.9,-0.7,-3.4l0,-29.9c0,-0.9,0,-1.5,0.1,-1.9c0,-0.4,0.2,-0.9,0.5,-1.4c0.5,-1,1.9,-1.5,4.2,-1.5Z" class="g2_1" />
<path d="M1326.7,229.7l16.6,0c0.8,0,1.4,0,1.8,0.1c0.4,0,0.9,0.2,1.5,0.5c0.9,0.5,1.4,1.9,1.4,4.2c0,2.5,-0.6,4,-2,4.4c-0.6,0.2,-1.5,0.3,-2.8,0.3l-21.3,0c-2.5,0,-4,-0.7,-4.4,-2c-0.2,-0.6,-0.3,-1.5,-0.3,-2.8l0,-29.9c0,-1.8,0.3,-3,1,-3.7c0.7,-0.7,2,-1,3.9,-1l21.2,0c0.8,0,1.4,0,1.8,0.1c0.4,0,0.9,0.2,1.5,0.5c0.9,0.5,1.4,1.9,1.4,4.2c0,2.5,-0.6,4,-2,4.4c-0.6,0.2,-1.5,0.3,-2.8,0.3l-16.5,0l0,5.5l10.7,0c0.8,0,1.4,0,1.8,0c0.4,0.1,0.9,0.3,1.4,0.5c1,0.5,1.5,1.9,1.5,4.2c0,2.6,-0.7,4,-2,4.5c-0.7,0.2,-1.6,0.3,-2.8,0.3l-10.6,0Z" class="g2_1" />
<path d="M1351.4,230.8c0.3,-0.6,0.8,-1,1.5,-1.2c0.7,-0.3,1.9,-0.4,3.5,-0.4c1.5,0,2.7,0.4,3.4,1.1c0.7,0.7,1,2,1,4c0,0.8,0,1.5,-0.1,2.1c-0.4,3.1,-1.4,5.7,-3.1,8c-1.6,2.3,-3.6,3.4,-5.9,3.4c-0.2,0,-0.5,-0.2,-0.6,-0.6c-0.2,-0.4,-0.3,-0.8,-0.3,-1.4c0,-0.6,0,-1.1,0.2,-1.5c0.2,-0.3,0.4,-0.5,0.6,-0.6c0.3,-0.1,0.5,-0.3,0.8,-0.5c0.3,-0.2,0.6,-0.6,1.1,-1.4c0.5,-0.7,0.7,-1.6,0.8,-2.6c-1.1,-0.1,-2,-0.5,-2.7,-1.1c-0.6,-0.7,-0.9,-1.7,-0.9,-3.1c0,-1.4,0.1,-2.3,0.1,-2.7c0.1,-0.5,0.3,-0.9,0.6,-1.5Z" class="g2_1" />
<path d="M744.3,293.5l1,-0.7c1.2,-0.8,2.1,-1.1,2.6,-1.1c1.1,0,2.3,1,3.6,3c0.7,1.3,1.1,2.3,1.1,3c0,0.8,-0.2,1.4,-0.7,1.9c-0.5,0.5,-1,0.9,-1.7,1.3c-0.6,0.4,-1.2,0.8,-1.8,1.2c-0.6,0.3,-1.8,0.8,-3.7,1.4c-1.8,0.5,-3.6,0.8,-5.3,0.8c-1.7,0,-3.4,-0.2,-5.1,-0.6c-1.8,-0.5,-3.6,-1.2,-5.4,-2.3c-1.9,-1.1,-3.5,-2.4,-5,-3.9c-1.5,-1.5,-2.7,-3.5,-3.6,-5.8c-1,-2.4,-1.4,-5,-1.4,-7.8c0,-2.8,0.4,-5.4,1.4,-7.6c0.9,-2.3,2.1,-4.2,3.5,-5.7c1.5,-1.5,3.1,-2.7,5,-3.7c3.5,-2,7.1,-2.9,10.6,-2.9c1.7,0,3.4,0.2,5.1,0.8c1.8,0.5,3.1,1,4,1.5l1.3,0.8c0.6,0.4,1.1,0.7,1.5,1c0.9,0.7,1.4,1.6,1.4,2.5c0,1,-0.4,2,-1.1,3c-1.4,1.9,-2.7,2.9,-3.8,2.9c-0.6,0,-1.6,-0.4,-2.7,-1.2c-1.5,-1.2,-3.6,-1.8,-6.1,-1.8c-2.3,0,-4.6,0.8,-6.9,2.4c-1,0.8,-1.9,1.9,-2.6,3.4c-0.8,1.4,-1.1,3,-1.1,4.8c0,1.8,0.3,3.5,1.1,4.9c0.7,1.4,1.6,2.6,2.7,3.4c2.2,1.6,4.5,2.3,6.8,2.3c1.1,0,2.2,-0.1,3.2,-0.4c1,-0.3,1.7,-0.6,2.1,-0.8Z" class="g2_1" />
<path d="M764.9,284.2c0,3.1,1,5.7,3.1,7.7c2.1,2,4.4,3,6.9,3c2.6,0,4.9,-1,6.9,-2.9c2,-1.9,3.1,-4.5,3.1,-7.8c0,-3.3,-1.1,-5.9,-3.1,-7.9c-2.1,-1.9,-4.4,-2.9,-6.9,-2.9c-2.6,0,-4.9,1,-6.9,3c-2.1,2,-3.1,4.6,-3.1,7.8m9.8,-20.3c5.3,0,9.9,1.9,13.8,5.7c3.9,3.9,5.9,8.6,5.9,14.3c0,5.7,-1.9,10.5,-5.6,14.5c-3.7,4,-8.3,6,-13.8,6c-5.4,0,-10.1,-1.9,-13.9,-5.9c-3.8,-3.9,-5.7,-8.6,-5.7,-14.1c0,-3,0.5,-5.7,1.6,-8.3c1.1,-2.6,2.5,-4.8,4.3,-6.6c1.8,-1.7,3.9,-3.1,6.2,-4.1c2.3,-1,4.7,-1.5,7.2,-1.5Z" class="g2_1" />
<path d="M839.8,265.9c0.3,0.5,0.5,1,0.5,1.4c0.1,0.4,0.1,1.1,0.1,1.9l0,29.9c0,2.4,-0.7,3.9,-2.1,4.3c-0.6,0.2,-1.5,0.3,-2.5,0.3c-1.1,0,-1.9,-0.1,-2.5,-0.2c-0.6,-0.2,-1.1,-0.4,-1.4,-0.7c-0.3,-0.2,-0.6,-0.6,-0.8,-1.1c-0.1,-0.6,-0.2,-1.5,-0.2,-2.8l0,-18c-0.9,1.1,-2.2,2.9,-4,5.3c-1.7,2.4,-2.8,4,-3.2,4.6c-0.5,0.6,-0.8,1,-1,1.2c-0.2,0.3,-0.6,0.6,-1.3,1c-0.7,0.4,-1.5,0.6,-2.3,0.6c-0.8,0,-1.5,-0.2,-2.2,-0.5c-0.7,-0.4,-1.1,-0.8,-1.4,-1.1L815,291.4c-0.7,-0.9,-2.1,-2.8,-4.2,-5.8c-2.1,-2.9,-3.3,-4.5,-3.4,-4.7l0,18.2c0,0.8,-0.1,1.4,-0.1,1.8c-0.1,0.4,-0.3,0.9,-0.5,1.4c-0.6,0.9,-2,1.4,-4.2,1.4c-2.2,0,-3.6,-0.5,-4.1,-1.4c-0.3,-0.5,-0.5,-1,-0.5,-1.4c-0.1,-0.4,-0.1,-1.1,-0.1,-2l0,-29.8c0,-0.8,0,-1.5,0.1,-1.9c0,-0.4,0.2,-0.9,0.5,-1.4c0.5,-0.9,1.9,-1.4,4.2,-1.4c0.9,0,1.8,0.1,2.5,0.4c0.7,0.2,1.1,0.4,1.3,0.7l0.4,0.3l12.2,16c6.1,-8,10.1,-13.4,12.2,-15.9c0.6,-1,2,-1.5,4.3,-1.5c2.3,0,3.7,0.5,4.2,1.5Z" class="g2_1" />
<path d="M870.5,265.8c0.3,-0.6,0.8,-1,1.5,-1.2c0.7,-0.2,1.5,-0.3,2.6,-0.3c1,0,1.8,0.1,2.4,0.3c0.6,0.1,1.1,0.4,1.4,0.6c0.3,0.3,0.6,0.6,0.7,1.1c0.2,0.7,0.3,1.6,0.3,2.8l0,16.3c0,4.7,-1.4,9,-4.4,12.9c-1.4,1.8,-3.3,3.3,-5.5,4.4c-2.3,1.2,-4.8,1.7,-7.5,1.7c-2.8,0,-5.3,-0.5,-7.5,-1.7c-2.2,-1.1,-4.1,-2.6,-5.5,-4.5c-2.9,-3.8,-4.3,-8.1,-4.3,-12.9l0,-16.2c0,-0.9,0,-1.5,0.1,-1.9c0,-0.4,0.2,-0.9,0.5,-1.4c0.3,-0.6,0.7,-1,1.4,-1.2c0.7,-0.2,1.6,-0.3,2.8,-0.3c1.1,0,2,0.1,2.7,0.3c0.7,0.2,1.2,0.6,1.4,1.2c0.4,0.8,0.7,1.9,0.7,3.3l0,16.2c0,2.2,0.5,4.3,1.6,6.2c0.5,1,1.3,1.8,2.4,2.4c1.1,0.7,2.3,1,3.8,1c2.6,0,4.6,-1,5.9,-2.9c1.3,-2,1.9,-4.2,1.9,-6.8l0,-16.4c0,-1.4,0.2,-2.4,0.6,-3Z" class="g2_1" />
<path d="M909.2,266c0.4,-0.6,0.9,-1.1,1.6,-1.3c0.6,-0.2,1.5,-0.3,2.5,-0.3c1,0,1.9,0.1,2.5,0.3c0.6,0.2,1.1,0.4,1.4,0.6c0.3,0.3,0.5,0.6,0.7,1.2c0.2,0.5,0.3,1.4,0.3,2.7l0,29.9c0,0.8,-0.1,1.4,-0.1,1.8c-0.1,0.4,-0.2,0.9,-0.5,1.4c-0.5,1,-1.9,1.5,-4.2,1.5c-1.4,0,-2.4,-0.1,-2.9,-0.3c-0.6,-0.3,-1,-0.6,-1.4,-1.1c-8,-10.7,-13.3,-17.7,-15.9,-21l0,17.7c0,0.8,0,1.4,-0.1,1.8c0,0.4,-0.2,0.9,-0.5,1.4c-0.5,1,-1.9,1.5,-4.2,1.5c-2.2,0,-3.6,-0.5,-4.1,-1.5c-0.3,-0.5,-0.4,-1,-0.5,-1.4c0,-0.4,-0.1,-1.1,-0.1,-1.9l0,-30c0,-1.4,0.2,-2.4,0.6,-3c0.3,-0.6,0.8,-1.1,1.5,-1.3c0.7,-0.2,1.5,-0.3,2.6,-0.3c1.1,0,2,0.1,2.6,0.3c0.6,0.2,1,0.4,1.3,0.7c0.1,0.1,0.6,0.5,1.2,1.4c7.6,10.3,12.7,17.1,15.2,20.4l0,-18.2c0,-1.4,0.2,-2.4,0.5,-3Z" class="g2_1" />
<path d="M922.5,269.1c0,-0.8,0,-1.5,0.1,-1.9c0,-0.4,0.2,-0.9,0.5,-1.4c0.5,-1,1.9,-1.4,4.2,-1.4c2.5,0,4,0.6,4.4,1.9c0.2,0.7,0.3,1.6,0.3,2.8l0,30c0,0.8,0,1.4,-0.1,1.8c0,0.4,-0.2,0.9,-0.5,1.4c-0.5,1,-1.9,1.5,-4.2,1.5c-2.5,0,-4,-0.7,-4.4,-2.1c-0.2,-0.5,-0.3,-1.4,-0.3,-2.7Z" class="g2_1" />
<path d="M960.9,293.5l1,-0.7c1.2,-0.8,2.1,-1.1,2.6,-1.1c1.1,0,2.3,1,3.6,3c0.8,1.3,1.2,2.3,1.2,3c0,0.8,-0.3,1.4,-0.7,1.9c-0.5,0.5,-1.1,0.9,-1.7,1.3c-0.7,0.4,-1.3,0.8,-1.9,1.2c-0.6,0.3,-1.8,0.8,-3.6,1.4c-1.9,0.5,-3.6,0.8,-5.3,0.8c-1.7,0,-3.4,-0.2,-5.2,-0.6c-1.7,-0.5,-3.5,-1.2,-5.4,-2.3c-1.8,-1.1,-3.5,-2.4,-4.9,-3.9c-1.5,-1.5,-2.7,-3.5,-3.7,-5.8c-0.9,-2.4,-1.4,-5,-1.4,-7.8c0,-2.8,0.5,-5.4,1.4,-7.6c0.9,-2.3,2.1,-4.2,3.6,-5.7c1.4,-1.5,3.1,-2.7,4.9,-3.7c3.6,-2,7.1,-2.9,10.6,-2.9c1.7,0,3.4,0.2,5.2,0.8c1.7,0.5,3,1,3.9,1.5l1.3,0.8c0.7,0.4,1.2,0.7,1.5,1c1,0.7,1.4,1.6,1.4,2.5c0,1,-0.3,2,-1.1,3c-1.4,1.9,-2.6,2.9,-3.8,2.9c-0.6,0,-1.5,-0.4,-2.7,-1.2c-1.5,-1.2,-3.5,-1.8,-6,-1.8c-2.4,0,-4.7,0.8,-6.9,2.4c-1.1,0.8,-2,1.9,-2.7,3.4c-0.7,1.4,-1.1,3,-1.1,4.8c0,1.8,0.4,3.5,1.1,4.9c0.7,1.4,1.6,2.6,2.7,3.4c2.2,1.6,4.5,2.3,6.9,2.3c1.1,0,2.1,-0.1,3.1,-0.4c1,-0.3,1.7,-0.6,2.1,-0.8Z" class="g2_1" />
<path d="M990.2,280.1l-3.6,7.3l7.2,0Zm4.3,-12.9l14.5,30c0.6,1.2,1,2.1,1,2.7c0,1.3,-1.1,2.5,-3.2,3.5c-1.2,0.6,-2.1,0.9,-2.8,0.9c-0.7,0,-1.3,-0.1,-1.8,-0.5c-0.4,-0.3,-0.7,-0.6,-0.9,-1c-0.2,-0.3,-0.5,-0.9,-0.9,-1.6l-2.8,-5.8l-14.9,0l-2.8,5.8c-0.3,0.7,-0.6,1.2,-0.8,1.6c-0.2,0.3,-0.5,0.6,-1,1c-0.4,0.3,-1,0.5,-1.7,0.5c-0.7,0,-1.7,-0.3,-2.9,-0.9c-2.1,-1,-3.1,-2.2,-3.1,-3.5c0,-0.6,0.3,-1.5,0.9,-2.7l14.6,-30.1c0.3,-0.8,0.9,-1.5,1.8,-2c0.8,-0.5,1.6,-0.7,2.5,-0.7c1.9,0,3.4,0.9,4.3,2.8Z" class="g2_1" />
<path d="M1024.7,305.2c0.1,-0.6,0.4,-1.1,1,-1.4c-4,-0.9,-7.6,-2.8,-10.8,-5.9c-1.7,-1.6,-3,-3.6,-4,-6.1c-1,-2.4,-1.5,-5,-1.5,-7.9c0,-2.8,0.5,-5.4,1.4,-7.7c0.9,-2.3,2.1,-4.2,3.6,-5.7c1.4,-1.4,3.1,-2.7,5,-3.7c3.4,-2,7,-2.9,10.6,-2.9c1.7,0,3.4,0.2,5.1,0.8c1.8,0.5,3.1,1,4,1.5l1.3,0.8c0.6,0.5,1.1,0.8,1.5,1.1c0.9,0.7,1.4,1.5,1.4,2.5c0,0.9,-0.4,1.9,-1.2,3c-1.3,1.9,-2.6,2.9,-3.7,2.9c-0.6,0,-1.5,-0.4,-2.8,-1.2c-1.5,-1.2,-3.5,-1.9,-6,-1.9c-2.3,0,-4.6,0.9,-6.9,2.5c-1.1,0.8,-2,1.9,-2.7,3.3c-0.7,1.4,-1.1,3.1,-1.1,4.9c0,1.8,0.4,3.4,1.1,4.9c0.7,1.4,1.7,2.6,2.8,3.4c2.2,1.6,4.5,2.3,6.8,2.3c1.1,0,2.2,-0.1,3.1,-0.4c1,-0.3,1.7,-0.6,2.2,-0.8l0.6,-0.5l0.4,-0.2c1.1,-0.8,2,-1.2,2.6,-1.2c1,0,2.2,1,3.5,3c0.8,1.3,1.2,2.2,1.2,2.9c0,0.6,-0.2,1.2,-0.5,1.7c-0.3,0.4,-0.6,0.8,-0.9,1c-0.3,0.2,-0.8,0.6,-1.5,1c-2,1.4,-4.5,2.4,-7.5,2.9c1.4,1.1,2.1,2.5,2.1,4.3c0,1.8,-0.7,3.2,-1.9,4.2c-1.2,1.1,-2.5,1.6,-3.9,1.6c-1,0,-1.7,-0.2,-2.2,-0.4c-1.4,-0.7,-2.1,-1.4,-2.2,-2.1l0,-0.2c0,-0.5,0.3,-1,0.8,-1.6c0.5,-0.7,1,-1,1.4,-1c0.3,0,0.7,0.1,0.9,0.2c0.3,0.2,0.5,0.3,0.6,0.3c0.1,0.2,0.4,0.3,0.7,0.3c0.2,0,0.5,-0.2,0.8,-0.4c0.3,-0.2,0.4,-0.5,0.4,-0.9c0,-0.4,-0.1,-0.7,-0.4,-0.9c-0.3,-0.2,-0.6,-0.3,-0.9,-0.3c-0.3,0,-0.6,0.1,-0.9,0.4c-0.3,0.2,-0.8,0.3,-1.3,0.3c-0.6,0,-1.1,-0.3,-1.5,-1.1c-0.4,-0.7,-0.6,-1.2,-0.6,-1.6Z" class="g2_1" />
<path d="M1064.1,280.1l-3.6,7.3l7.2,0Zm8.8,-27.9c1.3,0.9,1.9,1.8,1.9,2.6c0,0.5,-0.1,1,-0.4,1.5c-0.3,0.5,-0.5,0.8,-0.6,1c-0.1,0.2,-0.3,0.5,-0.7,1c-0.4,0.5,-0.9,1,-1.4,1.4c-1.4,1,-2.7,1.5,-4.1,1.5c-1.4,0,-2.5,-0.3,-3.3,-0.7c-0.8,-0.5,-1.5,-1,-2,-1.4c-0.5,-0.5,-1,-0.7,-1.3,-0.7c-0.5,0,-1,0.2,-1.4,0.6c-0.8,1.5,-1.6,2.2,-2.3,2.2c-0.7,0,-1.5,-0.5,-2.5,-1.3c-1,-0.9,-1.5,-1.6,-1.5,-2.1c0,-0.6,0.2,-1.1,0.4,-1.6c0.3,-0.4,0.5,-0.8,0.6,-1c0.1,-0.2,0.4,-0.5,0.8,-1c0.4,-0.5,0.9,-0.9,1.4,-1.3c1.3,-1,2.7,-1.5,4.1,-1.5c1.5,0,2.6,0.3,3.4,0.7c0.8,0.5,1.4,0.9,1.9,1.4c0.5,0.4,0.9,0.6,1.2,0.6c0.6,0,1.1,-0.2,1.4,-0.6c0.8,-1.4,1.6,-2.1,2.5,-2.1c0.5,0,1.1,0.3,1.9,0.8m-4.5,15l14.6,30c0.6,1.2,0.9,2.1,0.9,2.7c0,1.3,-1.1,2.5,-3.1,3.5c-1.3,0.6,-2.2,0.9,-2.9,0.9c-0.7,0,-1.3,-0.1,-1.7,-0.5c-0.5,-0.3,-0.8,-0.6,-1,-1c-0.2,-0.3,-0.5,-0.9,-0.9,-1.6l-2.7,-5.8l-14.9,0l-2.8,5.8c-0.4,0.7,-0.7,1.2,-0.9,1.6c-0.2,0.3,-0.5,0.6,-1,1c-0.4,0.3,-1,0.5,-1.7,0.5c-0.7,0,-1.6,-0.3,-2.8,-0.9c-2.1,-1,-3.2,-2.2,-3.2,-3.5c0,-0.6,0.3,-1.5,0.9,-2.7l14.6,-30.1c0.4,-0.8,1,-1.5,1.8,-2c0.8,-0.5,1.6,-0.7,2.5,-0.7c2,0,3.4,0.9,4.3,2.8Z" class="g2_1" />
<path d="M1092.9,284.2c0,3.1,1,5.7,3,7.7c2.1,2,4.4,3,7,3c2.5,0,4.8,-1,6.8,-2.9c2.1,-1.9,3.1,-4.5,3.1,-7.8c0,-3.3,-1,-5.9,-3.1,-7.9c-2,-1.9,-4.3,-2.9,-6.9,-2.9c-2.5,0,-4.8,1,-6.9,3c-2,2,-3,4.6,-3,7.8m9.7,-20.3c5.4,0,10,1.9,13.9,5.7c3.9,3.9,5.8,8.6,5.8,14.3c0,5.7,-1.8,10.5,-5.6,14.5c-3.7,4,-8.3,6,-13.7,6c-5.5,0,-10.1,-1.9,-13.9,-5.9c-3.9,-3.9,-5.8,-8.6,-5.8,-14.1c0,-3,0.6,-5.7,1.6,-8.3c1.1,-2.6,2.6,-4.8,4.4,-6.6c1.7,-1.7,3.8,-3.1,6.1,-4.1c2.4,-1,4.8,-1.5,7.2,-1.5Z" class="g2_1" />
<path d="M1149,294.3l16.5,0c0.9,0,1.5,0,1.9,0c0.4,0.1,0.9,0.3,1.4,0.6c1,0.5,1.5,1.9,1.5,4.2c0,2.5,-0.7,3.9,-2,4.4c-0.6,0.2,-1.6,0.3,-2.8,0.3l-21.3,0c-2.5,0,-4,-0.7,-4.4,-2.1c-0.2,-0.5,-0.4,-1.4,-0.4,-2.7l0,-29.9c0,-1.8,0.4,-3.1,1.1,-3.8c0.6,-0.6,1.9,-0.9,3.8,-0.9l21.2,0c0.9,0,1.5,0,1.9,0c0.4,0.1,0.9,0.3,1.4,0.5c1,0.5,1.5,1.9,1.5,4.2c0,2.6,-0.7,4,-2,4.5c-0.6,0.2,-1.6,0.3,-2.8,0.3l-16.5,0l0,5.4l10.6,0c0.8,0,1.5,0,1.9,0.1c0.4,0,0.9,0.2,1.4,0.5c1,0.5,1.5,1.9,1.5,4.2c0,2.5,-0.7,4,-2.1,4.4c-0.6,0.2,-1.5,0.3,-2.8,0.3l-10.5,0Z" class="g2_1" />
<path d="M738.1,344.6l-3.6,7.4l7.2,0Zm4.3,-12.9l14.5,30c0.7,1.2,1,2.2,1,2.8c0,1.3,-1.1,2.4,-3.2,3.5c-1.2,0.6,-2.1,0.9,-2.8,0.9c-0.7,0,-1.3,-0.2,-1.8,-0.5c-0.4,-0.3,-0.7,-0.7,-0.9,-1c-0.2,-0.4,-0.5,-0.9,-0.9,-1.6L745.5,360l-14.9,0l-2.8,5.8c-0.3,0.7,-0.6,1.2,-0.8,1.5c-0.2,0.3,-0.5,0.7,-1,1c-0.4,0.4,-1,0.5,-1.7,0.5c-0.7,0,-1.6,-0.3,-2.9,-0.9c-2,-1,-3.1,-2.1,-3.1,-3.4c0,-0.6,0.3,-1.6,0.9,-2.8l14.6,-30c0.4,-0.9,1,-1.5,1.8,-2c0.8,-0.5,1.6,-0.8,2.5,-0.8c2,0,3.4,0.9,4.3,2.8Z" class="g2_1" />
<path d="M753.3,328.9l30,0c1.1,0,1.9,0.1,2.5,0.4c0.5,0.2,0.9,0.6,1.1,1.2c0.1,0.6,0.2,1.4,0.2,2.3c0,0.9,-0.1,1.7,-0.2,2.2c-0.2,0.6,-0.5,1,-1,1.2c-0.6,0.3,-1.5,0.5,-2.7,0.5l-10.3,0l0,27c0,0.8,0,1.5,-0.1,1.8c0,0.4,-0.2,0.9,-0.4,1.4c-0.3,0.5,-0.8,0.9,-1.5,1.1c-0.6,0.2,-1.5,0.3,-2.7,0.3c-1.1,0,-2,-0.1,-2.6,-0.3c-0.7,-0.2,-1.1,-0.6,-1.4,-1.1c-0.3,-0.5,-0.4,-1,-0.5,-1.4c-0.1,-0.4,-0.1,-1,-0.1,-1.8l0,-27l-10.3,0c-1.2,0,-2,-0.2,-2.5,-0.4c-0.6,-0.3,-0.9,-0.7,-1.1,-1.3c-0.2,-0.6,-0.3,-1.3,-0.3,-2.3c0,-0.9,0.1,-1.6,0.3,-2.2c0.2,-0.6,0.5,-0.9,0.9,-1.2c0.6,-0.3,1.6,-0.4,2.7,-0.4Z" class="g2_1" />
<path d="M790.1,333.6c0,-0.8,0,-1.4,0.1,-1.8c0,-0.4,0.2,-0.9,0.5,-1.4c0.5,-1,1.9,-1.5,4.2,-1.5c2.5,0,4,0.7,4.4,2c0.2,0.6,0.3,1.5,0.3,2.8l0,29.9c0,0.9,0,1.5,-0.1,1.9c0,0.4,-0.2,0.9,-0.5,1.4c-0.5,1,-1.9,1.4,-4.2,1.4c-2.5,0,-4,-0.6,-4.4,-2c-0.2,-0.6,-0.3,-1.5,-0.3,-2.7Z" class="g2_1" />
<path d="M839.9,329.5c2.1,1,3.2,2.2,3.2,3.4c0,0.6,-0.3,1.5,-0.8,2.6l-14.9,30.2c-0.4,0.7,-1,1.4,-1.8,1.9c-0.8,0.4,-1.6,0.7,-2.5,0.7l-0.5,0c-0.9,0,-1.8,-0.3,-2.6,-0.7c-0.8,-0.5,-1.4,-1.2,-1.8,-1.9L803.4,335.5c-0.6,-1.1,-0.8,-2,-0.8,-2.6c0,-1.2,1,-2.4,3.1,-3.4c1.2,-0.6,2.1,-0.9,2.8,-0.9c0.6,0,1.1,0.1,1.4,0.2c0.3,0.1,0.6,0.4,0.9,0.8c0.3,0.4,0.6,0.9,0.9,1.4c0.3,0.5,0.9,2,2.1,4.4c1.1,2.5,2.3,5.1,3.5,7.9c1.3,2.7,2.5,5.3,3.6,7.8c1.2,2.5,1.8,3.8,1.9,4.1l10.8,-23.5c0.3,-0.7,0.5,-1.3,0.8,-1.7c0.6,-0.9,1.4,-1.4,2.3,-1.4c1,0,2,0.3,3.2,0.9Z" class="g2_1" />
<path d="M846,333.6c0,-0.8,0.1,-1.4,0.1,-1.8c0.1,-0.4,0.2,-0.9,0.5,-1.4c0.5,-1,1.9,-1.5,4.2,-1.5c2.5,0,4,0.7,4.5,2c0.2,0.6,0.3,1.5,0.3,2.8l0,29.9c0,0.9,-0.1,1.5,-0.1,1.9c-0.1,0.4,-0.3,0.9,-0.5,1.4c-0.5,1,-1.9,1.4,-4.2,1.4c-2.5,0,-4,-0.6,-4.4,-2c-0.3,-0.6,-0.4,-1.5,-0.4,-2.7Z" class="g2_1" />
<path d="M860.5,362.8c-1,-1.1,-1.4,-2.2,-1.4,-3.1c0,-0.9,0.7,-2.1,2.3,-3.6c0.9,-0.9,1.8,-1.3,2.8,-1.3c1,0,2.4,0.9,4.2,2.7c0.5,0.6,1.2,1.2,2.2,1.7c0.9,0.6,1.8,0.9,2.5,0.9c3.4,0,5,-1.4,5,-4.1c0,-0.9,-0.4,-1.5,-1.3,-2.1c-0.9,-0.6,-2.1,-1,-3.4,-1.2c-1.4,-0.3,-2.9,-0.7,-4.5,-1.2c-1.5,-0.6,-3,-1.2,-4.4,-2c-1.3,-0.7,-2.5,-1.9,-3.4,-3.6c-0.9,-1.6,-1.3,-3.6,-1.3,-5.9c0,-3.1,1.1,-5.9,3.5,-8.2c2.3,-2.4,5.5,-3.5,9.6,-3.5c2.1,0,4.1,0.2,5.9,0.8c1.7,0.6,3,1.1,3.7,1.7l1.3,1c1.1,1.1,1.7,1.9,1.7,2.7c0,0.7,-0.5,1.7,-1.3,2.9c-1.2,1.8,-2.5,2.7,-3.8,2.7c-0.7,0,-1.7,-0.4,-2.8,-1.1c-0.1,0,-0.3,-0.2,-0.6,-0.5c-0.3,-0.3,-0.6,-0.5,-0.8,-0.7c-0.8,-0.5,-1.8,-0.7,-2.9,-0.7c-1.2,0,-2.2,0.3,-2.9,0.8c-0.8,0.6,-1.2,1.3,-1.2,2.3c0,1,0.5,1.8,1.4,2.4c0.9,0.6,2,1,3.4,1.3c1.4,0.2,2.9,0.5,4.5,1c1.6,0.4,3.1,1,4.4,1.6c1.4,0.6,2.5,1.8,3.5,3.4c0.9,1.6,1.3,3.5,1.3,5.9c0,2.3,-0.4,4.3,-1.4,6.1c-0.9,1.8,-2.1,3.2,-3.6,4.1c-2.9,1.9,-6,2.9,-9.3,2.9c-1.7,0,-3.3,-0.2,-4.8,-0.6c-1.5,-0.4,-2.8,-1,-3.7,-1.6c-1.9,-1.1,-3.2,-2.2,-4,-3.3Z" class="g2_1" />
<path d="M933.1,330.4c0.3,0.6,0.5,1,0.5,1.5c0.1,0.4,0.1,1,0.1,1.9l0,29.8c0,2.5,-0.7,3.9,-2,4.4c-0.7,0.2,-1.6,0.3,-2.6,0.3c-1,0,-1.9,-0.1,-2.5,-0.3c-0.6,-0.2,-1.1,-0.4,-1.4,-0.6c-0.3,-0.3,-0.6,-0.6,-0.7,-1.1c-0.2,-0.6,-0.3,-1.5,-0.3,-2.8l0,-18c-0.9,1.1,-2.2,2.9,-3.9,5.3c-1.7,2.4,-2.8,3.9,-3.3,4.5c-0.5,0.6,-0.8,1.1,-1,1.3c-0.2,0.2,-0.6,0.5,-1.3,1c-0.7,0.4,-1.4,0.6,-2.3,0.6c-0.8,0,-1.5,-0.2,-2.2,-0.6c-0.6,-0.4,-1.1,-0.7,-1.4,-1.1l-0.4,-0.6c-0.7,-0.9,-2.2,-2.8,-4.3,-5.7c-2.1,-2.9,-3.2,-4.5,-3.4,-4.7l0,18.1c0,0.8,0,1.5,-0.1,1.9c0,0.4,-0.2,0.8,-0.5,1.3c-0.5,1,-1.9,1.5,-4.2,1.5c-2.2,0,-3.5,-0.5,-4.1,-1.5c-0.3,-0.5,-0.4,-0.9,-0.5,-1.4c-0.1,-0.4,-0.1,-1,-0.1,-1.9l0,-29.9c0,-0.8,0,-1.4,0.1,-1.8c0.1,-0.4,0.2,-0.9,0.5,-1.4c0.6,-1,2,-1.4,4.2,-1.4c1,0,1.8,0.1,2.5,0.3c0.7,0.2,1.2,0.5,1.4,0.7l0.3,0.4l12.2,16c6.1,-8.1,10.2,-13.4,12.2,-16c0.6,-1,2.1,-1.4,4.4,-1.4c2.2,0,3.6,0.4,4.1,1.4Z" class="g2_1" />
<path d="M946.7,348.7c0,3.2,1.1,5.8,3.1,7.8c2.1,2,4.4,3,6.9,3c2.6,0,4.9,-1,6.9,-2.9c2.1,-2,3.1,-4.6,3.1,-7.8c0,-3.3,-1,-5.9,-3.1,-7.9c-2.1,-2,-4.4,-3,-6.9,-3c-2.6,0,-4.8,1,-6.9,3c-2,2,-3.1,4.6,-3.1,7.8m9.8,-20.3c5.3,0,9.9,1.9,13.9,5.8c3.9,3.8,5.8,8.6,5.8,14.3c0,5.6,-1.8,10.5,-5.6,14.5c-3.7,4,-8.3,6,-13.7,6c-5.5,0,-10.1,-2,-14,-5.9c-3.8,-4,-5.7,-8.7,-5.7,-14.1c0,-3,0.6,-5.8,1.6,-8.4c1.1,-2.6,2.5,-4.8,4.3,-6.5c1.8,-1.8,3.9,-3.2,6.2,-4.2c2.4,-1,4.8,-1.5,7.2,-1.5Z" class="g2_1" />
<path d="M1360.8,416.1l-642.5,0l0,381.7l642.5,0l0,-381.7Z" class="g3_1" />
<path d="M844.2,528.6l15,0c0.7,0,1.3,0.1,1.7,0.1c0.3,0.1,0.8,0.2,1.3,0.5c0.8,0.4,1.3,1.7,1.3,3.8c0,2.2,-0.6,3.6,-1.8,4c-0.6,0.1,-1.4,0.2,-2.6,0.2l-19.2,0c-2.3,0,-3.6,-0.6,-4,-1.8c-0.2,-0.5,-0.3,-1.4,-0.3,-2.5l0,-27c0,-1.7,0.3,-2.8,0.9,-3.4c0.6,-0.6,1.8,-0.9,3.5,-0.9l19.2,0c0.7,0,1.3,0,1.7,0.1c0.3,0,0.8,0.2,1.3,0.4c0.8,0.5,1.3,1.8,1.3,3.8c0,2.3,-0.6,3.6,-1.8,4c-0.6,0.2,-1.4,0.3,-2.6,0.3l-14.9,0l0,4.9l9.6,0c0.8,0,1.3,0,1.7,0.1c0.4,0,0.8,0.2,1.3,0.5c0.9,0.4,1.3,1.7,1.3,3.7c0,2.3,-0.6,3.6,-1.8,4c-0.6,0.2,-1.4,0.3,-2.6,0.3l-9.5,0Z" class="g4_1" />
<path d="M895.6,515.8l-3.3,6.7l6.5,0Zm3.9,-11.7l13.1,27.2c0.6,1.1,0.9,1.9,0.9,2.4c0,1.2,-1,2.3,-2.9,3.2c-1.1,0.6,-1.9,0.8,-2.6,0.8c-0.6,0,-1.1,-0.1,-1.5,-0.4c-0.4,-0.3,-0.7,-0.6,-0.9,-0.9c-0.2,-0.4,-0.4,-0.8,-0.8,-1.5l-2.5,-5.2l-13.5,0l-2.5,5.2c-0.3,0.7,-0.6,1.1,-0.7,1.4c-0.2,0.3,-0.5,0.6,-0.9,0.9c-0.4,0.3,-0.9,0.5,-1.6,0.5c-0.6,0,-1.5,-0.3,-2.6,-0.8c-1.8,-1,-2.8,-2,-2.8,-3.2c0,-0.5,0.3,-1.3,0.8,-2.4l13.2,-27.2c0.3,-0.8,0.9,-1.4,1.6,-1.8c0.7,-0.5,1.5,-0.7,2.3,-0.7c1.8,0,3.1,0.8,3.9,2.5Z" class="g4_1" />
<path d="M936,527.9l0.8,-0.6c1.1,-0.7,1.9,-1,2.4,-1c1,0,2.1,0.9,3.2,2.7c0.7,1.2,1.1,2.1,1.1,2.7c0,0.7,-0.2,1.3,-0.6,1.8c-0.5,0.4,-1,0.8,-1.6,1.2c-0.6,0.3,-1.1,0.7,-1.7,1c-0.5,0.3,-1.6,0.7,-3.2,1.3c-1.7,0.5,-3.3,0.7,-4.8,0.7c-1.6,0,-3.1,-0.2,-4.7,-0.6c-1.6,-0.4,-3.2,-1.1,-4.9,-2c-1.6,-1,-3.1,-2.1,-4.5,-3.5c-1.3,-1.4,-2.4,-3.2,-3.2,-5.3c-0.9,-2.2,-1.3,-4.5,-1.3,-7c0,-2.6,0.4,-4.9,1.2,-6.9c0.9,-2.1,2,-3.8,3.3,-5.1c1.3,-1.4,2.8,-2.5,4.5,-3.4c3.1,-1.8,6.3,-2.6,9.5,-2.6c1.6,0,3.1,0.2,4.7,0.7c1.6,0.4,2.8,0.9,3.6,1.4l1.1,0.7c0.6,0.3,1.1,0.6,1.4,0.9c0.8,0.6,1.3,1.4,1.3,2.3c0,0.8,-0.4,1.7,-1.1,2.7c-1.2,1.7,-2.4,2.6,-3.4,2.6c-0.6,0,-1.4,-0.4,-2.4,-1.1c-1.4,-1.1,-3.2,-1.6,-5.5,-1.6c-2.1,0,-4.2,0.7,-6.2,2.2c-1,0.7,-1.8,1.7,-2.5,3c-0.6,1.3,-0.9,2.7,-0.9,4.4c0,1.6,0.3,3.1,0.9,4.4c0.7,1.3,1.5,2.3,2.5,3c2,1.5,4.1,2.2,6.2,2.2c1,0,2,-0.2,2.9,-0.4c0.8,-0.3,1.5,-0.5,1.9,-0.8Z" class="g4_1" />
<path d="M955.3,518.8l6.2,0c1,0,1.9,-0.3,2.9,-1.1c0.9,-0.7,1.4,-1.7,1.4,-3.2c0,-1.4,-0.5,-2.5,-1.4,-3.2c-1,-0.7,-1.9,-1.1,-2.9,-1.1l-6.2,0ZM974,531.2c0.5,1.2,0.7,2,0.7,2.5c0,1.3,-1,2.3,-3,3.2c-1,0.4,-1.9,0.6,-2.5,0.6c-0.6,0,-1.1,-0.1,-1.5,-0.4c-0.5,-0.3,-0.8,-0.7,-0.9,-1c-0.4,-0.6,-1.6,-3.5,-3.8,-8.8l-1.5,0.1l-6.2,0l0,5.5c0,0.8,0,1.3,0,1.7c-0.1,0.4,-0.3,0.8,-0.5,1.3c-0.5,0.9,-1.7,1.3,-3.8,1.3c-2.3,0,-3.6,-0.6,-4,-1.8c-0.2,-0.6,-0.3,-1.4,-0.3,-2.5l0,-27c0,-0.8,0,-1.3,0.1,-1.7c0,-0.4,0.2,-0.8,0.5,-1.3c0.4,-0.9,1.7,-1.3,3.7,-1.3l10.5,0c2.9,0,5.7,1,8.4,3.1c1.3,1,2.3,2.4,3.2,4.1c0.8,1.7,1.2,3.6,1.2,5.7c0,3.7,-1.2,6.7,-3.6,9.1c0.7,1.7,1.8,4.2,3.3,7.6Z" class="g4_1" />
<path d="M986,528.6l15,0c0.7,0,1.3,0.1,1.7,0.1c0.3,0.1,0.8,0.2,1.3,0.5c0.8,0.4,1.3,1.7,1.3,3.8c0,2.2,-0.6,3.6,-1.8,4c-0.6,0.1,-1.4,0.2,-2.6,0.2l-19.2,0c-2.3,0,-3.6,-0.6,-4,-1.8c-0.2,-0.5,-0.3,-1.4,-0.3,-2.5l0,-27c0,-1.7,0.3,-2.8,0.9,-3.4c0.6,-0.6,1.8,-0.9,3.5,-0.9l19.2,0c0.7,0,1.3,0,1.7,0.1c0.3,0,0.8,0.2,1.3,0.4c0.8,0.5,1.3,1.8,1.3,3.8c0,2.3,-0.6,3.6,-1.8,4c-0.6,0.2,-1.4,0.3,-2.6,0.3l-14.9,0l0,4.9l9.6,0c0.8,0,1.3,0,1.7,0.1c0.4,0,0.8,0.2,1.3,0.5c0.9,0.4,1.3,1.7,1.3,3.7c0,2.3,-0.6,3.6,-1.8,4c-0.6,0.2,-1.4,0.3,-2.6,0.3l-9.5,0Z" class="g4_1" />
<path d="M1028.1,526c1.8,-1.7,2.8,-3.9,2.8,-6.6c0,-2.6,-0.9,-4.8,-2.8,-6.5c-1.8,-1.8,-3.9,-2.7,-6.4,-2.7l-4.7,0l0,18.4l4.7,0c2.4,0,4.5,-0.9,6.4,-2.6m-15.3,-24.4l8.9,0c4.7,0,8.9,1.7,12.4,5.1c3.6,3.4,5.4,7.5,5.4,12.5c0,4.9,-1.7,9.2,-5.2,12.7c-3.5,3.5,-7.7,5.3,-12.7,5.3l-8.9,0c-2,0,-3.2,-0.4,-3.7,-1.2c-0.4,-0.7,-0.6,-1.7,-0.6,-3.1l0,-27.1c0,-0.7,0,-1.3,0.1,-1.7c0,-0.3,0.2,-0.7,0.5,-1.2c0.4,-0.9,1.7,-1.3,3.8,-1.3Z" class="g4_1" />
<path d="M1042.7,505.9c0,-0.8,0,-1.3,0,-1.7c0.1,-0.4,0.2,-0.8,0.5,-1.3c0.4,-0.9,1.7,-1.3,3.8,-1.3c2.3,0,3.6,0.6,4,1.8c0.2,0.5,0.3,1.4,0.3,2.5l0,27.1c0,0.7,-0.1,1.3,-0.1,1.7c-0.1,0.3,-0.2,0.7,-0.5,1.2c-0.4,0.9,-1.7,1.3,-3.8,1.3c-2.2,0,-3.6,-0.6,-4,-1.8c-0.1,-0.5,-0.2,-1.3,-0.2,-2.5Z" class="g4_1" />
<path d="M1057.5,501.6l27,0c1.1,0,1.8,0.1,2.3,0.3c0.5,0.3,0.8,0.6,1,1.2c0.1,0.5,0.2,1.2,0.2,2c0,0.8,-0.1,1.5,-0.2,2c-0.2,0.5,-0.5,0.9,-0.8,1.1c-0.6,0.3,-1.5,0.4,-2.5,0.4l-9.3,0l0,24.5c0,0.7,0,1.3,-0.1,1.6c0,0.4,-0.2,0.8,-0.4,1.3c-0.3,0.4,-0.7,0.8,-1.3,1c-0.6,0.1,-1.4,0.2,-2.4,0.2c-1,0,-1.8,-0.1,-2.4,-0.2c-0.6,-0.2,-1.1,-0.6,-1.3,-1c-0.3,-0.5,-0.4,-0.9,-0.4,-1.3c-0.1,-0.4,-0.1,-0.9,-0.1,-1.7l0,-24.4l-9.4,0c-1,0,-1.8,-0.1,-2.2,-0.4c-0.5,-0.2,-0.9,-0.6,-1,-1.1c-0.2,-0.5,-0.3,-1.2,-0.3,-2c0,-0.9,0.1,-1.6,0.3,-2.1c0.1,-0.5,0.4,-0.8,0.8,-1c0.6,-0.3,1.4,-0.4,2.5,-0.4Z" class="g4_1" />
<path d="M1100,515.8l-3.2,6.7l6.5,0Zm4,-11.7l13.1,27.2c0.6,1.1,0.8,1.9,0.8,2.4c0,1.2,-0.9,2.3,-2.8,3.2c-1.1,0.6,-2,0.8,-2.6,0.8c-0.6,0,-1.1,-0.1,-1.5,-0.4c-0.4,-0.3,-0.7,-0.6,-0.9,-0.9c-0.2,-0.4,-0.4,-0.8,-0.8,-1.5l-2.5,-5.2l-13.5,0l-2.5,5.2c-0.3,0.7,-0.6,1.1,-0.8,1.4c-0.1,0.3,-0.4,0.6,-0.8,0.9c-0.4,0.3,-1,0.5,-1.6,0.5c-0.6,0,-1.5,-0.3,-2.6,-0.8c-1.9,-1,-2.8,-2,-2.8,-3.2c0,-0.5,0.3,-1.3,0.8,-2.4l13.1,-27.2c0.4,-0.8,0.9,-1.4,1.7,-1.8c0.7,-0.5,1.5,-0.7,2.3,-0.7c1.7,0,3,0.8,3.9,2.5Z" class="g4_1" />
<path d="M1158.5,503c0.2,0.4,0.4,0.9,0.5,1.3c0,0.4,0,0.9,0,1.7l0,27c0,2.2,-0.6,3.5,-1.8,3.9c-0.6,0.2,-1.4,0.3,-2.4,0.3c-0.9,0,-1.6,-0.1,-2.2,-0.2c-0.5,-0.2,-1,-0.4,-1.3,-0.6c-0.3,-0.3,-0.5,-0.6,-0.6,-1c-0.2,-0.6,-0.3,-1.4,-0.3,-2.5l0,-16.3c-0.8,1,-2,2.6,-3.5,4.8c-1.6,2.2,-2.6,3.5,-3,4.1c-0.4,0.5,-0.7,0.9,-0.9,1.1c-0.1,0.2,-0.5,0.5,-1.2,0.9c-0.6,0.4,-1.3,0.6,-2,0.6c-0.7,0,-1.4,-0.2,-2,-0.6c-0.6,-0.3,-1,-0.6,-1.3,-1l-0.4,-0.5c-0.6,-0.8,-1.9,-2.5,-3.8,-5.2c-1.9,-2.6,-3,-4,-3.1,-4.2l0,16.4c0,0.7,-0.1,1.3,-0.1,1.6c-0.1,0.4,-0.2,0.8,-0.5,1.3c-0.5,0.9,-1.7,1.3,-3.8,1.3c-1.9,0,-3.2,-0.4,-3.7,-1.3c-0.2,-0.5,-0.4,-0.9,-0.4,-1.3c-0.1,-0.4,-0.1,-1,-0.1,-1.7l0,-27c0,-0.8,0,-1.3,0.1,-1.7c0,-0.4,0.2,-0.8,0.4,-1.3c0.5,-0.8,1.8,-1.3,3.8,-1.3c0.9,0,1.7,0.2,2.3,0.4c0.6,0.2,1,0.4,1.2,0.6l0.3,0.3l11.1,14.5c5.5,-7.3,9.2,-12.1,11,-14.4c0.6,-0.9,1.9,-1.4,3.9,-1.4c2.1,0,3.3,0.5,3.8,1.4Z" class="g4_1" />
<path d="M1170.8,519.5c0,2.9,0.9,5.2,2.8,7c1.9,1.8,3.9,2.7,6.2,2.7c2.3,0,4.4,-0.9,6.3,-2.6c1.8,-1.8,2.7,-4.1,2.7,-7.1c0,-2.9,-0.9,-5.3,-2.8,-7.1c-1.8,-1.7,-3.9,-2.6,-6.2,-2.6c-2.3,0,-4.4,0.9,-6.2,2.7c-1.9,1.8,-2.8,4.1,-2.8,7m8.8,-18.3c4.8,0,9,1.7,12.5,5.2c3.6,3.4,5.3,7.7,5.3,12.9c0,5.1,-1.6,9.5,-5,13.1c-3.4,3.6,-7.5,5.4,-12.5,5.4c-4.9,0,-9.1,-1.8,-12.5,-5.3c-3.5,-3.6,-5.2,-7.8,-5.2,-12.8c0,-2.7,0.5,-5.2,1.4,-7.5c1,-2.4,2.3,-4.3,3.9,-5.9c1.7,-1.6,3.5,-2.9,5.6,-3.8c2.1,-0.9,4.3,-1.3,6.5,-1.3Z" class="g4_1" />
<path d="M1201.1,532.2c-0.8,-1,-1.2,-1.9,-1.2,-2.8c0,-0.8,0.7,-1.9,2.1,-3.2c0.8,-0.8,1.6,-1.2,2.5,-1.2c0.9,0,2.2,0.8,3.8,2.4c0.5,0.6,1.1,1.1,2,1.6c0.8,0.5,1.6,0.8,2.3,0.8c3,0,4.5,-1.3,4.5,-3.7c0,-0.8,-0.4,-1.4,-1.2,-1.9c-0.8,-0.5,-1.9,-0.9,-3.1,-1.1c-1.2,-0.2,-2.6,-0.6,-4,-1.1c-1.4,-0.5,-2.7,-1.1,-4,-1.8c-1.2,-0.7,-2.2,-1.7,-3.1,-3.2c-0.8,-1.5,-1.2,-3.3,-1.2,-5.3c0,-2.9,1.1,-5.4,3.2,-7.5c2.1,-2.1,5,-3.2,8.7,-3.2c1.9,0,3.7,0.3,5.3,0.8c1.6,0.5,2.7,1,3.3,1.5l1.2,0.9c1,1,1.5,1.8,1.5,2.4c0,0.7,-0.3,1.5,-1.1,2.7c-1.1,1.6,-2.3,2.4,-3.4,2.4c-0.7,0,-1.5,-0.3,-2.6,-1c-0.1,0,-0.2,-0.2,-0.5,-0.4c-0.3,-0.3,-0.5,-0.5,-0.8,-0.7c-0.6,-0.4,-1.5,-0.6,-2.6,-0.6c-1,0,-1.9,0.2,-2.6,0.7c-0.7,0.5,-1,1.2,-1,2.1c0,0.9,0.4,1.6,1.2,2.2c0.8,0.6,1.9,0.9,3.1,1.1c1.2,0.2,2.6,0.5,4,0.9c1.5,0.4,2.8,0.9,4.1,1.5c1.2,0.6,2.2,1.6,3,3c0.9,1.5,1.3,3.3,1.3,5.4c0,2.1,-0.4,3.9,-1.3,5.5c-0.8,1.6,-1.9,2.9,-3.3,3.8c-2.6,1.7,-5.4,2.5,-8.4,2.5c-1.5,0,-3,-0.2,-4.3,-0.5c-1.4,-0.4,-2.5,-0.9,-3.3,-1.4c-1.7,-1.1,-2.9,-2.1,-3.6,-3Z" class="g4_1" />
<path d="M1249.1,519.5c0,2.9,1,5.2,2.8,7c1.9,1.8,4,2.7,6.3,2.7c2.3,0,4.4,-0.9,6.2,-2.6c1.8,-1.8,2.8,-4.1,2.8,-7.1c0,-2.9,-1,-5.3,-2.8,-7.1c-1.9,-1.7,-4,-2.6,-6.3,-2.6c-2.3,0,-4.4,0.9,-6.2,2.7c-1.8,1.8,-2.8,4.1,-2.8,7m24.9,8.1c1.5,1,2.5,1.7,3.2,2.2c1.2,0.8,1.7,1.7,1.7,2.5c0,0.8,-0.4,1.9,-1.4,3.3c-1,1.4,-2,2.1,-3,2.1c-0.6,0,-1.5,-0.4,-2.8,-1.3c-0.2,-0.1,-0.6,-0.4,-1.4,-0.9c-0.7,-0.5,-1.3,-0.9,-1.7,-1.2c-3,2.4,-6.4,3.5,-10.2,3.5c-5,0,-9.2,-1.8,-12.7,-5.3c-3.5,-3.6,-5.2,-7.8,-5.2,-12.8c0,-2.7,0.5,-5.2,1.5,-7.5c1,-2.4,2.2,-4.3,3.9,-5.9c1.6,-1.6,3.5,-2.9,5.6,-3.8c2.1,-0.9,4.2,-1.3,6.5,-1.3c4.8,0,8.9,1.7,12.5,5.2c3.5,3.4,5.3,7.8,5.3,13.1c0,2.7,-0.6,5.4,-1.8,8.1Z" class="g4_1" />
<path d="M1303,502.9c0.3,-0.5,0.8,-0.9,1.4,-1.1c0.6,-0.2,1.4,-0.2,2.3,-0.2c0.9,0,1.6,0,2.2,0.2c0.5,0.2,1,0.4,1.3,0.6c0.2,0.2,0.5,0.5,0.6,1c0.2,0.5,0.3,1.4,0.3,2.5l0,14.7c0,4.3,-1.3,8.2,-4,11.7c-1.3,1.6,-3,3,-5,4c-2.1,1,-4.3,1.5,-6.8,1.5c-2.5,0,-4.7,-0.5,-6.8,-1.5c-2,-1.1,-3.6,-2.4,-4.9,-4.1c-2.6,-3.5,-3.9,-7.3,-3.9,-11.7l0,-14.6c0,-0.8,0,-1.4,0,-1.7c0.1,-0.4,0.2,-0.8,0.5,-1.3c0.3,-0.5,0.7,-0.9,1.3,-1.1c0.6,-0.2,1.5,-0.2,2.5,-0.2c1,0,1.9,0,2.5,0.2c0.6,0.2,1,0.6,1.2,1.1c0.4,0.7,0.6,1.7,0.6,3l0,14.6c0,2,0.5,3.9,1.5,5.7c0.5,0.9,1.2,1.6,2.2,2.1c0.9,0.6,2.1,0.9,3.4,0.9c2.4,0,4.2,-0.9,5.3,-2.7c1.2,-1.7,1.8,-3.7,1.8,-6l0,-14.9c0,-1.3,0.1,-2.2,0.5,-2.7Z" class="g4_1" />
<path d="M1323.6,528.6l15,0c0.7,0,1.3,0.1,1.6,0.1c0.4,0.1,0.8,0.2,1.3,0.5c0.9,0.4,1.3,1.7,1.3,3.8c0,2.2,-0.6,3.6,-1.8,4c-0.5,0.1,-1.4,0.2,-2.5,0.2l-19.2,0c-2.3,0,-3.6,-0.6,-4,-1.8c-0.2,-0.5,-0.3,-1.4,-0.3,-2.5l0,-27c0,-1.7,0.3,-2.8,0.9,-3.4c0.6,-0.6,1.8,-0.9,3.5,-0.9l19.2,0c0.7,0,1.3,0,1.6,0.1c0.4,0,0.8,0.2,1.3,0.4c0.9,0.5,1.3,1.8,1.3,3.8c0,2.3,-0.6,3.6,-1.8,4c-0.5,0.2,-1.4,0.3,-2.5,0.3l-14.9,0l0,4.9l9.6,0c0.8,0,1.3,0,1.7,0.1c0.4,0,0.8,0.2,1.3,0.5c0.8,0.4,1.3,1.7,1.3,3.7c0,2.3,-0.6,3.6,-1.9,4c-0.5,0.2,-1.4,0.3,-2.5,0.3l-9.5,0Z" class="g4_1" />
<path d="M753.7,574.2l-3.2,6.6l6.4,0Zm3.9,-11.7l13.1,27.1c0.6,1.1,0.9,1.9,0.9,2.5c0,1.2,-1,2.2,-2.9,3.2c-1.1,0.5,-1.9,0.8,-2.6,0.8c-0.6,0,-1.1,-0.2,-1.5,-0.5c-0.4,-0.2,-0.7,-0.6,-0.9,-0.9c-0.2,-0.3,-0.4,-0.8,-0.7,-1.4L760.4,588L747,588l-2.6,5.3c-0.3,0.6,-0.6,1.1,-0.7,1.4c-0.2,0.3,-0.5,0.6,-0.9,0.9c-0.4,0.3,-0.9,0.4,-1.6,0.4c-0.6,0,-1.5,-0.2,-2.6,-0.8c-1.8,-0.9,-2.8,-1.9,-2.8,-3.1c0,-0.6,0.3,-1.4,0.8,-2.5l13.2,-27.2c0.3,-0.7,0.9,-1.3,1.6,-1.8c0.7,-0.4,1.5,-0.6,2.3,-0.6c1.8,0,3.1,0.8,3.9,2.5Z" class="g4_1" />
<path d="M773.3,590.6c-0.8,-1,-1.3,-2,-1.3,-2.8c0,-0.8,0.7,-1.9,2.1,-3.3c0.8,-0.8,1.7,-1.2,2.6,-1.2c0.9,0,2.2,0.9,3.8,2.5c0.5,0.5,1.1,1.1,2,1.6c0.8,0.5,1.6,0.7,2.3,0.7c3,0,4.5,-1.2,4.5,-3.7c0,-0.7,-0.4,-1.4,-1.2,-1.9c-0.9,-0.5,-1.9,-0.8,-3.1,-1.1c-1.3,-0.2,-2.6,-0.5,-4,-1c-1.4,-0.6,-2.8,-1.1,-4,-1.8c-1.2,-0.7,-2.3,-1.8,-3.1,-3.3c-0.8,-1.4,-1.2,-3.2,-1.2,-5.3c0,-2.8,1,-5.3,3.2,-7.4c2.1,-2.2,5,-3.2,8.6,-3.2c2,0,3.8,0.2,5.4,0.7c1.6,0.5,2.7,1,3.3,1.6l1.2,0.9c1,0.9,1.5,1.7,1.5,2.4c0,0.6,-0.4,1.5,-1.1,2.6c-1.1,1.7,-2.3,2.5,-3.4,2.5c-0.7,0,-1.6,-0.4,-2.6,-1c-0.1,-0.1,-0.3,-0.2,-0.5,-0.5c-0.3,-0.3,-0.6,-0.5,-0.8,-0.6c-0.7,-0.4,-1.5,-0.7,-2.6,-0.7c-1,0,-1.9,0.3,-2.6,0.8c-0.7,0.5,-1.1,1.2,-1.1,2.1c0,0.9,0.5,1.6,1.3,2.2c0.8,0.5,1.8,0.9,3.1,1.1c1.2,0.2,2.5,0.5,4,0.9c1.5,0.4,2.8,0.9,4,1.5c1.3,0.5,2.3,1.6,3.1,3c0.9,1.4,1.3,3.2,1.3,5.3c0,2.1,-0.5,4,-1.3,5.6c-0.8,1.6,-1.9,2.8,-3.3,3.7c-2.6,1.7,-5.4,2.6,-8.4,2.6c-1.5,0,-3,-0.2,-4.3,-0.6c-1.4,-0.3,-2.5,-0.8,-3.4,-1.4c-1.7,-1,-2.9,-2,-3.6,-3Z" class="g4_1" />
<path d="M822,577.2l6.3,0c0.9,0,1.8,-0.4,2.8,-1.1c0.9,-0.7,1.4,-1.8,1.4,-3.2c0,-1.4,-0.5,-2.5,-1.4,-3.2c-1,-0.8,-1.9,-1.1,-2.9,-1.1l-6.2,0Zm18.7,12.4c0.5,1.1,0.7,2,0.7,2.5c0,1.2,-1,2.3,-3,3.1c-1,0.5,-1.9,0.7,-2.5,0.7c-0.6,0,-1.1,-0.2,-1.5,-0.5c-0.4,-0.3,-0.7,-0.6,-0.9,-0.9c-0.4,-0.6,-1.6,-3.6,-3.8,-8.8l-1.5,0.1l-6.2,0l0,5.5c0,0.7,0,1.3,0,1.6c-0.1,0.4,-0.2,0.8,-0.5,1.3c-0.5,0.9,-1.7,1.3,-3.8,1.3c-2.3,0,-3.6,-0.6,-4,-1.8c-0.2,-0.5,-0.3,-1.3,-0.3,-2.5l0,-27c0,-0.7,0.1,-1.3,0.1,-1.6c0,-0.4,0.2,-0.8,0.5,-1.3c0.4,-0.9,1.7,-1.3,3.8,-1.3l10.5,0c2.8,0,5.6,1,8.3,3.1c1.3,1,2.3,2.3,3.2,4c0.8,1.8,1.2,3.7,1.2,5.8c0,3.7,-1.2,6.7,-3.6,9c0.7,1.8,1.8,4.3,3.3,7.7Z" class="g4_1" />
<path d="M867.4,561.3c0.3,-0.6,0.8,-0.9,1.4,-1.1c0.6,-0.2,1.4,-0.3,2.3,-0.3c0.9,0,1.7,0.1,2.2,0.2c0.6,0.2,1,0.4,1.3,0.6c0.3,0.3,0.5,0.6,0.6,1.1c0.2,0.5,0.3,1.3,0.3,2.5l0,14.7c0,4.2,-1.3,8.1,-4,11.6c-1.3,1.7,-2.9,3,-5,4c-2,1.1,-4.3,1.6,-6.8,1.6c-2.4,0,-4.7,-0.5,-6.7,-1.6c-2,-1,-3.7,-2.4,-5,-4.1c-2.6,-3.4,-3.9,-7.3,-3.9,-11.6l0,-14.7c0,-0.7,0,-1.3,0.1,-1.7c0,-0.4,0.2,-0.8,0.4,-1.3c0.3,-0.5,0.7,-0.8,1.4,-1c0.6,-0.2,1.4,-0.3,2.4,-0.3c1.1,0,1.9,0.1,2.5,0.3c0.6,0.2,1.1,0.5,1.3,1c0.4,0.8,0.6,1.8,0.6,3.1l0,14.6c0,1.9,0.5,3.8,1.4,5.6c0.5,0.9,1.2,1.6,2.2,2.2c1,0.5,2.1,0.8,3.5,0.8c2.3,0,4.1,-0.9,5.3,-2.6c1.1,-1.8,1.7,-3.8,1.7,-6.1l0,-14.9c0,-1.2,0.2,-2.1,0.5,-2.6Z" class="g4_1" />
<path d="M893.6,574.2l-3.2,6.6l6.5,0Zm4,-11.7l13.1,27.1c0.5,1.1,0.8,1.9,0.8,2.5c0,1.2,-0.9,2.2,-2.8,3.2c-1.1,0.5,-2,0.8,-2.6,0.8c-0.6,0,-1.2,-0.2,-1.6,-0.5c-0.4,-0.2,-0.7,-0.6,-0.8,-0.9c-0.2,-0.3,-0.5,-0.8,-0.8,-1.4L900.4,588l-13.5,0l-2.5,5.3c-0.3,0.6,-0.6,1.1,-0.8,1.4c-0.2,0.3,-0.4,0.6,-0.9,0.9c-0.4,0.3,-0.9,0.4,-1.5,0.4c-0.6,0,-1.5,-0.2,-2.6,-0.8c-1.9,-0.9,-2.8,-1.9,-2.8,-3.1c0,-0.6,0.2,-1.4,0.8,-2.5l13.1,-27.2c0.4,-0.7,0.9,-1.3,1.7,-1.8c0.7,-0.4,1.5,-0.6,2.3,-0.6c1.7,0,3,0.8,3.9,2.5Z" class="g4_1" />
<path d="M913.3,590.6c-0.9,-1,-1.3,-2,-1.3,-2.8c0,-0.8,0.7,-1.9,2.1,-3.3c0.8,-0.8,1.7,-1.2,2.6,-1.2c0.9,0,2.1,0.9,3.8,2.5c0.4,0.5,1.1,1.1,1.9,1.6c0.8,0.5,1.6,0.7,2.3,0.7c3.1,0,4.6,-1.2,4.6,-3.7c0,-0.7,-0.5,-1.4,-1.3,-1.9c-0.8,-0.5,-1.8,-0.8,-3.1,-1.1c-1.2,-0.2,-2.5,-0.5,-4,-1c-1.4,-0.6,-2.7,-1.1,-3.9,-1.8c-1.3,-0.7,-2.3,-1.8,-3.1,-3.3c-0.9,-1.4,-1.3,-3.2,-1.3,-5.3c0,-2.8,1.1,-5.3,3.2,-7.4c2.1,-2.2,5,-3.2,8.7,-3.2c1.9,0,3.7,0.2,5.3,0.7c1.6,0.5,2.7,1,3.4,1.6l1.2,0.9c1,0.9,1.5,1.7,1.5,2.4c0,0.6,-0.4,1.5,-1.2,2.6c-1.1,1.7,-2.2,2.5,-3.4,2.5c-0.7,0,-1.5,-0.4,-2.5,-1c-0.1,-0.1,-0.3,-0.2,-0.6,-0.5c-0.3,-0.3,-0.5,-0.5,-0.7,-0.6c-0.7,-0.4,-1.6,-0.7,-2.6,-0.7c-1.1,0,-2,0.3,-2.7,0.8c-0.7,0.5,-1,1.2,-1,2.1c0,0.9,0.4,1.6,1.2,2.2c0.9,0.5,1.9,0.9,3.1,1.1c1.2,0.2,2.6,0.5,4.1,0.9c1.4,0.4,2.8,0.9,4,1.5c1.2,0.5,2.2,1.6,3.1,3c0.8,1.4,1.2,3.2,1.2,5.3c0,2.1,-0.4,4,-1.2,5.6c-0.9,1.6,-2,2.8,-3.4,3.7c-2.6,1.7,-5.4,2.6,-8.4,2.6c-1.5,0,-2.9,-0.2,-4.3,-0.6c-1.4,-0.3,-2.5,-0.8,-3.3,-1.4c-1.7,-1,-2.9,-2,-3.6,-3Z" class="g4_1" />
<path d="M953.9,590.6c-0.8,-1,-1.2,-2,-1.2,-2.8c0,-0.8,0.6,-1.9,2,-3.3c0.8,-0.8,1.7,-1.2,2.6,-1.2c0.9,0,2.2,0.9,3.8,2.5c0.5,0.5,1.1,1.1,2,1.6c0.8,0.5,1.6,0.7,2.3,0.7c3,0,4.5,-1.2,4.5,-3.7c0,-0.7,-0.4,-1.4,-1.2,-1.9c-0.9,-0.5,-1.9,-0.8,-3.1,-1.1c-1.2,-0.2,-2.6,-0.5,-4,-1c-1.4,-0.6,-2.8,-1.1,-4,-1.8c-1.2,-0.7,-2.3,-1.8,-3.1,-3.3c-0.8,-1.4,-1.2,-3.2,-1.2,-5.3c0,-2.8,1,-5.3,3.2,-7.4c2.1,-2.2,5,-3.2,8.6,-3.2c2,0,3.8,0.2,5.4,0.7c1.6,0.5,2.7,1,3.3,1.6l1.2,0.9c1,0.9,1.5,1.7,1.5,2.4c0,0.6,-0.4,1.5,-1.1,2.6c-1.1,1.7,-2.3,2.5,-3.4,2.5c-0.7,0,-1.6,-0.4,-2.6,-1c-0.1,-0.1,-0.3,-0.2,-0.5,-0.5c-0.3,-0.3,-0.6,-0.5,-0.8,-0.6c-0.7,-0.4,-1.5,-0.7,-2.6,-0.7c-1,0,-1.9,0.3,-2.6,0.8c-0.7,0.5,-1.1,1.2,-1.1,2.1c0,0.9,0.5,1.6,1.3,2.2c0.8,0.5,1.8,0.9,3.1,1.1c1.2,0.2,2.5,0.5,4,0.9c1.5,0.4,2.8,0.9,4,1.5c1.3,0.5,2.3,1.6,3.1,3c0.9,1.4,1.3,3.2,1.3,5.3c0,2.1,-0.5,4,-1.3,5.6c-0.8,1.6,-1.9,2.8,-3.3,3.7c-2.6,1.7,-5.4,2.6,-8.4,2.6c-1.5,0,-3,-0.2,-4.3,-0.6c-1.4,-0.3,-2.5,-0.8,-3.3,-1.4c-1.8,-1,-3,-2,-3.6,-3Z" class="g4_1" />
<path d="M996.4,574.2l-3.2,6.6l6.5,0Zm8,-25.2c1.2,0.8,1.7,1.6,1.7,2.3c0,0.5,-0.1,0.9,-0.3,1.4c-0.3,0.4,-0.5,0.7,-0.6,0.9c-0.1,0.1,-0.3,0.5,-0.7,0.9c-0.3,0.5,-0.7,0.9,-1.2,1.2c-1.2,0.9,-2.5,1.4,-3.7,1.4c-1.3,0,-2.3,-0.2,-3,-0.6c-0.7,-0.5,-1.3,-0.9,-1.8,-1.3c-0.5,-0.4,-0.9,-0.6,-1.2,-0.6c-0.4,0,-0.8,0.1,-1.2,0.5c-0.8,1.3,-1.5,2,-2.1,2c-0.6,0,-1.4,-0.4,-2.3,-1.2c-0.9,-0.8,-1.3,-1.4,-1.3,-1.9c0,-0.5,0.1,-1,0.4,-1.4c0.2,-0.4,0.4,-0.7,0.5,-0.9c0.1,-0.2,0.3,-0.5,0.7,-0.9c0.4,-0.5,0.8,-0.8,1.3,-1.2c1.2,-0.9,2.4,-1.3,3.7,-1.3c1.3,0,2.3,0.2,3,0.6c0.7,0.4,1.3,0.8,1.8,1.2c0.4,0.4,0.8,0.6,1.1,0.6c0.5,0,0.9,-0.2,1.3,-0.6c0.6,-1.2,1.4,-1.8,2.1,-1.8c0.5,0,1.1,0.2,1.8,0.7m-4,13.5l13.1,27.1c0.5,1.1,0.8,1.9,0.8,2.5c0,1.2,-0.9,2.2,-2.8,3.2c-1.1,0.5,-2,0.8,-2.6,0.8c-0.6,0,-1.2,-0.2,-1.6,-0.5c-0.4,-0.2,-0.7,-0.6,-0.8,-0.9c-0.2,-0.3,-0.5,-0.8,-0.8,-1.4l-2.5,-5.3l-13.5,0l-2.5,5.3c-0.3,0.6,-0.6,1.1,-0.8,1.4c-0.2,0.3,-0.4,0.6,-0.9,0.9c-0.4,0.3,-0.9,0.4,-1.5,0.4c-0.6,0,-1.5,-0.2,-2.6,-0.8c-1.9,-0.9,-2.8,-1.9,-2.8,-3.1c0,-0.6,0.2,-1.4,0.8,-2.5l13.1,-27.2c0.4,-0.7,0.9,-1.3,1.7,-1.8c0.7,-0.4,1.5,-0.6,2.3,-0.6c1.7,0,3,0.8,3.9,2.5Z" class="g4_1" />
<path d="M1022.4,577.8c0,2.9,1,5.3,2.8,7.1c1.9,1.8,4,2.7,6.3,2.7c2.3,0,4.4,-0.9,6.2,-2.7c1.8,-1.7,2.8,-4.1,2.8,-7c0,-3,-1,-5.3,-2.8,-7.1c-1.9,-1.8,-4,-2.7,-6.3,-2.7c-2.3,0,-4.3,0.9,-6.2,2.7c-1.8,1.8,-2.8,4.2,-2.8,7m8.9,-18.3c4.8,0,8.9,1.7,12.5,5.2c3.5,3.5,5.3,7.8,5.3,12.9c0,5.2,-1.7,9.5,-5.1,13.2c-3.4,3.6,-7.5,5.4,-12.4,5.4c-5,0,-9.1,-1.8,-12.6,-5.4c-3.4,-3.5,-5.2,-7.8,-5.2,-12.7c0,-2.7,0.5,-5.2,1.5,-7.6c1,-2.3,2.3,-4.3,3.9,-5.9c1.6,-1.6,3.5,-2.8,5.6,-3.7c2.1,-0.9,4.2,-1.4,6.5,-1.4Z" class="g4_1" />
<path d="M1087.8,561.3c0.4,-0.6,0.8,-0.9,1.4,-1.1c0.7,-0.2,1.4,-0.3,2.4,-0.3c0.9,0,1.6,0.1,2.2,0.2c0.5,0.2,0.9,0.4,1.2,0.6c0.3,0.3,0.5,0.6,0.7,1.1c0.2,0.5,0.3,1.3,0.3,2.5l0,14.7c0,4.2,-1.4,8.1,-4,11.6c-1.3,1.7,-3,3,-5,4c-2.1,1.1,-4.3,1.6,-6.8,1.6c-2.5,0,-4.8,-0.5,-6.8,-1.6c-2,-1,-3.7,-2.4,-4.9,-4.1c-2.6,-3.4,-4,-7.3,-4,-11.6l0,-14.7c0,-0.7,0.1,-1.3,0.1,-1.7c0.1,-0.4,0.2,-0.8,0.5,-1.3c0.2,-0.5,0.7,-0.8,1.3,-1c0.6,-0.2,1.4,-0.3,2.5,-0.3c1,0,1.8,0.1,2.5,0.3c0.6,0.2,1,0.5,1.2,1c0.4,0.8,0.6,1.8,0.6,3.1l0,14.6c0,1.9,0.5,3.8,1.5,5.6c0.4,0.9,1.2,1.6,2.1,2.2c1,0.5,2.2,0.8,3.5,0.8c2.4,0,4.1,-0.9,5.3,-2.6c1.2,-1.8,1.7,-3.8,1.7,-6.1l0,-14.9c0,-1.2,0.2,-2.1,0.5,-2.6Z" class="g4_1" />
<path d="M1137.7,561.3c0.3,0.5,0.4,0.9,0.5,1.3c0,0.4,0.1,1,0.1,1.7l0,27c0,2.3,-0.7,3.6,-1.9,4c-0.6,0.2,-1.4,0.2,-2.3,0.2c-1,0,-1.7,0,-2.3,-0.2c-0.5,-0.2,-0.9,-0.4,-1.2,-0.6c-0.3,-0.2,-0.5,-0.5,-0.7,-1c-0.2,-0.5,-0.2,-1.3,-0.2,-2.5l0,-16.3c-0.9,1,-2,2.6,-3.6,4.8c-1.6,2.2,-2.5,3.6,-3,4.1c-0.4,0.6,-0.7,1,-0.8,1.2c-0.2,0.2,-0.6,0.5,-1.2,0.8c-0.7,0.4,-1.3,0.6,-2.1,0.6c-0.7,0,-1.4,-0.2,-2,-0.5c-0.6,-0.3,-1,-0.7,-1.3,-1l-0.3,-0.5c-0.7,-0.8,-2,-2.6,-3.9,-5.2c-1.9,-2.7,-2.9,-4.1,-3.1,-4.3l0,16.4c0,0.8,0,1.3,-0.1,1.7c0,0.4,-0.2,0.8,-0.4,1.2c-0.5,0.9,-1.8,1.3,-3.8,1.3c-2,0,-3.2,-0.4,-3.7,-1.3c-0.3,-0.4,-0.4,-0.8,-0.5,-1.2c0,-0.4,-0.1,-1,-0.1,-1.8l0,-27c0,-0.7,0.1,-1.3,0.1,-1.6c0.1,-0.4,0.2,-0.8,0.5,-1.3c0.5,-0.9,1.7,-1.3,3.8,-1.3c0.8,0,1.6,0.1,2.2,0.3c0.7,0.2,1.1,0.4,1.3,0.7l0.3,0.3l11,14.5c5.5,-7.3,9.2,-12.2,11,-14.5c0.6,-0.9,1.9,-1.3,4,-1.3c2,0,3.3,0.4,3.7,1.3Z" class="g4_1" />
<path d="M1163.1,587l14.9,0c0.8,0,1.3,0,1.7,0.1c0.4,0,0.8,0.2,1.3,0.4c0.9,0.5,1.3,1.7,1.3,3.8c0,2.3,-0.6,3.6,-1.8,4c-0.5,0.2,-1.4,0.3,-2.5,0.3l-19.3,0c-2.2,0,-3.6,-0.6,-4,-1.9c-0.2,-0.5,-0.2,-1.3,-0.2,-2.4l0,-27.1c0,-1.6,0.3,-2.7,0.9,-3.3c0.6,-0.6,1.8,-0.9,3.5,-0.9l19.1,0c0.8,0,1.3,0,1.7,0c0.4,0.1,0.8,0.2,1.3,0.5c0.9,0.4,1.3,1.7,1.3,3.8c0,2.3,-0.6,3.6,-1.8,4c-0.5,0.2,-1.4,0.3,-2.5,0.3l-14.9,0l0,4.9l9.6,0c0.7,0,1.3,0,1.7,0c0.3,0.1,0.8,0.2,1.3,0.5c0.8,0.5,1.3,1.7,1.3,3.8c0,2.3,-0.7,3.6,-1.9,4c-0.5,0.2,-1.4,0.3,-2.5,0.3l-9.5,0Z" class="g4_1" />
<path d="M1186,590.6c-0.8,-1,-1.3,-2,-1.3,-2.8c0,-0.8,0.7,-1.9,2.1,-3.3c0.8,-0.8,1.7,-1.2,2.6,-1.2c0.9,0,2.2,0.9,3.8,2.5c0.5,0.5,1.1,1.1,2,1.6c0.8,0.5,1.6,0.7,2.3,0.7c3,0,4.5,-1.2,4.5,-3.7c0,-0.7,-0.4,-1.4,-1.2,-1.9c-0.9,-0.5,-1.9,-0.8,-3.1,-1.1c-1.3,-0.2,-2.6,-0.5,-4,-1c-1.4,-0.6,-2.8,-1.1,-4,-1.8c-1.2,-0.7,-2.3,-1.8,-3.1,-3.3c-0.8,-1.4,-1.2,-3.2,-1.2,-5.3c0,-2.8,1,-5.3,3.2,-7.4c2.1,-2.2,5,-3.2,8.6,-3.2c2,0,3.8,0.2,5.4,0.7c1.6,0.5,2.7,1,3.3,1.6l1.2,0.9c1,0.9,1.5,1.7,1.5,2.4c0,0.6,-0.4,1.5,-1.1,2.6c-1.1,1.7,-2.3,2.5,-3.4,2.5c-0.7,0,-1.6,-0.4,-2.6,-1c-0.1,-0.1,-0.3,-0.2,-0.5,-0.5c-0.3,-0.3,-0.6,-0.5,-0.8,-0.6c-0.7,-0.4,-1.5,-0.7,-2.6,-0.7c-1,0,-1.9,0.3,-2.6,0.8c-0.7,0.5,-1.1,1.2,-1.1,2.1c0,0.9,0.5,1.6,1.3,2.2c0.8,0.5,1.8,0.9,3.1,1.1c1.2,0.2,2.5,0.5,4,0.9c1.5,0.4,2.8,0.9,4,1.5c1.3,0.5,2.3,1.6,3.1,3c0.9,1.4,1.3,3.2,1.3,5.3c0,2.1,-0.5,4,-1.3,5.6c-0.8,1.6,-1.9,2.8,-3.3,3.7c-2.6,1.7,-5.4,2.6,-8.4,2.6c-1.5,0,-3,-0.2,-4.3,-0.6c-1.4,-0.3,-2.5,-0.8,-3.4,-1.4c-1.7,-1,-2.9,-2,-3.6,-3Z" class="g4_1" />
<path d="M1231.4,576.1c1,-0.7,1.4,-1.8,1.4,-3.2c0,-1.4,-0.4,-2.5,-1.4,-3.2c-0.9,-0.8,-1.9,-1.1,-2.9,-1.1l-6.1,0l0,8.6l6.2,0c0.9,0,1.9,-0.4,2.8,-1.1m8.7,-9c0.9,1.8,1.3,3.7,1.3,5.8c0,2.1,-0.4,4,-1.3,5.7c-0.8,1.7,-1.9,3.1,-3.2,4.1c-2.7,2,-5.5,3.1,-8.4,3.1l-6.1,0l0,5.5c0,0.7,0,1.3,0,1.6c-0.1,0.4,-0.2,0.8,-0.5,1.3c-0.5,0.9,-1.7,1.3,-3.8,1.3c-2.3,0,-3.6,-0.6,-4,-1.8c-0.2,-0.5,-0.3,-1.3,-0.3,-2.5l0,-27c0,-0.7,0,-1.3,0.1,-1.6c0,-0.4,0.2,-0.8,0.5,-1.3c0.4,-0.9,1.7,-1.3,3.8,-1.3l10.4,0c2.8,0,5.6,1,8.3,3.1c1.3,1,2.4,2.3,3.2,4Z" class="g4_1" />
<path d="M1257.2,574.2l-3.3,6.6l6.5,0Zm3.9,-11.7l13.1,27.1c0.6,1.1,0.8,1.9,0.8,2.5c0,1.2,-0.9,2.2,-2.8,3.2c-1.1,0.5,-1.9,0.8,-2.6,0.8c-0.6,0,-1.1,-0.2,-1.5,-0.5c-0.4,-0.2,-0.7,-0.6,-0.9,-0.9c-0.2,-0.3,-0.4,-0.8,-0.8,-1.4l-2.5,-5.3l-13.5,0l-2.5,5.3c-0.3,0.6,-0.6,1.1,-0.7,1.4c-0.2,0.3,-0.5,0.6,-0.9,0.9c-0.4,0.3,-0.9,0.4,-1.6,0.4c-0.6,0,-1.5,-0.2,-2.6,-0.8c-1.9,-0.9,-2.8,-1.9,-2.8,-3.1c0,-0.6,0.3,-1.4,0.8,-2.5l13.2,-27.2c0.3,-0.7,0.9,-1.3,1.6,-1.8c0.7,-0.4,1.5,-0.6,2.3,-0.6c1.8,0,3,0.8,3.9,2.5Z" class="g4_1" />
<path d="M1288.4,596.9c0.1,-0.6,0.4,-1,0.8,-1.3c-3.5,-0.8,-6.8,-2.6,-9.7,-5.4c-1.5,-1.4,-2.7,-3.2,-3.6,-5.4c-0.9,-2.2,-1.3,-4.6,-1.3,-7.2c0,-2.5,0.4,-4.9,1.2,-7c0.9,-2,1.9,-3.7,3.3,-5.1c1.3,-1.3,2.8,-2.4,4.5,-3.4c3.1,-1.7,6.3,-2.6,9.6,-2.6c1.5,0,3,0.3,4.6,0.7c1.6,0.5,2.7,1,3.6,1.5l1.2,0.7c0.5,0.4,1,0.7,1.3,0.9c0.8,0.7,1.2,1.4,1.2,2.3c0,0.8,-0.3,1.7,-1,2.7c-1.2,1.7,-2.3,2.6,-3.3,2.6c-0.6,0,-1.4,-0.4,-2.6,-1.1c-1.3,-1.1,-3.1,-1.6,-5.4,-1.6c-2.1,0,-4.2,0.7,-6.2,2.2c-1,0.7,-1.8,1.7,-2.5,3c-0.6,1.3,-0.9,2.7,-0.9,4.4c0,1.6,0.3,3.1,0.9,4.4c0.7,1.3,1.5,2.3,2.6,3.1c2,1.4,4,2.1,6.1,2.1c1,0,1.9,-0.1,2.8,-0.4c0.9,-0.2,1.6,-0.5,2,-0.7l0.5,-0.5l0.4,-0.2c1,-0.7,1.8,-1,2.3,-1c1,0,2.1,0.9,3.2,2.7c0.7,1.2,1.1,2,1.1,2.6c0,0.6,-0.1,1.1,-0.4,1.5c-0.3,0.4,-0.6,0.8,-0.9,1c-0.3,0.2,-0.7,0.5,-1.3,0.8c-1.8,1.3,-4.1,2.2,-6.8,2.6c1.2,1,1.9,2.4,1.9,4c0,1.6,-0.6,2.9,-1.7,3.8c-1.1,0.9,-2.3,1.4,-3.6,1.4c-0.8,0,-1.5,-0.1,-1.9,-0.4c-1.3,-0.6,-1.9,-1.2,-2,-1.8l0,-0.3c0,-0.3,0.2,-0.8,0.7,-1.4c0.5,-0.6,0.9,-0.9,1.2,-0.9c0.4,0,0.7,0.1,0.9,0.2c0.2,0.2,0.4,0.3,0.5,0.3c0.2,0.1,0.4,0.2,0.6,0.2c0.3,0,0.5,-0.1,0.8,-0.3c0.2,-0.2,0.3,-0.5,0.3,-0.8c0,-0.4,-0.1,-0.7,-0.3,-0.8c-0.3,-0.2,-0.5,-0.3,-0.8,-0.3c-0.3,0,-0.6,0.1,-0.9,0.3c-0.3,0.2,-0.7,0.3,-1.2,0.3c-0.5,0,-0.9,-0.3,-1.3,-1c-0.3,-0.6,-0.5,-1.1,-0.5,-1.4Z" class="g4_1" />
<path d="M1316.2,577.8c0,2.9,0.9,5.3,2.8,7.1c1.8,1.8,3.9,2.7,6.2,2.7c2.3,0,4.4,-0.9,6.3,-2.7c1.8,-1.7,2.7,-4.1,2.7,-7c0,-3,-0.9,-5.3,-2.8,-7.1c-1.8,-1.8,-3.9,-2.7,-6.2,-2.7c-2.3,0,-4.4,0.9,-6.2,2.7c-1.9,1.8,-2.8,4.2,-2.8,7m8.8,-18.3c4.8,0,9,1.7,12.5,5.2c3.6,3.5,5.3,7.8,5.3,12.9c0,5.2,-1.7,9.5,-5,13.2c-3.4,3.6,-7.5,5.4,-12.5,5.4c-4.9,0,-9.1,-1.8,-12.5,-5.4c-3.5,-3.5,-5.2,-7.8,-5.2,-12.7c0,-2.7,0.5,-5.2,1.4,-7.6c1,-2.3,2.3,-4.3,3.9,-5.9c1.6,-1.6,3.5,-2.8,5.6,-3.7c2.1,-0.9,4.3,-1.4,6.5,-1.4Z" class="g4_1" />
<path d="M843.6,634.5c0.9,-0.8,1.4,-1.8,1.4,-3.3c0,-1.4,-0.5,-2.5,-1.4,-3.2c-1,-0.7,-1.9,-1.1,-2.9,-1.1l-6.1,0l0,8.6l6.1,0c1,0,1.9,-0.3,2.9,-1m8.7,-9c0.8,1.7,1.2,3.6,1.2,5.7c0,2.1,-0.4,4.1,-1.2,5.8c-0.9,1.7,-1.9,3,-3.3,4c-2.7,2.1,-5.5,3.1,-8.3,3.1l-6.1,0l0,5.5c0,0.8,0,1.3,-0.1,1.7c0,0.4,-0.2,0.8,-0.5,1.3c-0.4,0.9,-1.7,1.3,-3.7,1.3c-2.3,0,-3.6,-0.6,-4,-1.8c-0.2,-0.5,-0.3,-1.4,-0.3,-2.5l0,-27c0,-0.8,0,-1.3,0,-1.7c0.1,-0.4,0.2,-0.8,0.5,-1.3c0.5,-0.9,1.7,-1.3,3.8,-1.3l10.4,0c2.9,0,5.6,1,8.3,3.1c1.4,1,2.4,2.4,3.3,4.1Z" class="g4_1" />
<path d="M869.3,632.5l-3.2,6.7l6.5,0Zm3.9,-11.7L886.4,648c0.5,1.1,0.8,1.9,0.8,2.5c0,1.1,-0.9,2.2,-2.8,3.1c-1.1,0.6,-2,0.8,-2.6,0.8c-0.7,0,-1.2,-0.1,-1.6,-0.4c-0.4,-0.3,-0.7,-0.6,-0.9,-0.9c-0.1,-0.3,-0.4,-0.8,-0.7,-1.5l-2.5,-5.2l-13.5,0l-2.5,5.2c-0.4,0.7,-0.6,1.1,-0.8,1.4c-0.2,0.3,-0.5,0.6,-0.9,0.9c-0.4,0.3,-0.9,0.5,-1.5,0.5c-0.7,0,-1.5,-0.3,-2.6,-0.8c-1.9,-0.9,-2.8,-2,-2.8,-3.1c0,-0.6,0.2,-1.4,0.8,-2.5l13.1,-27.2c0.4,-0.8,0.9,-1.4,1.6,-1.8c0.8,-0.5,1.5,-0.7,2.3,-0.7c1.8,0,3.1,0.9,3.9,2.5Z" class="g4_1" />
<path d="M898.5,635.5l6.2,0c0.9,0,1.9,-0.3,2.8,-1c1,-0.8,1.4,-1.8,1.4,-3.3c0,-1.4,-0.4,-2.5,-1.4,-3.2c-0.9,-0.7,-1.9,-1.1,-2.9,-1.1l-6.1,0Zm18.6,12.4c0.5,1.2,0.8,2,0.8,2.6c0,1.2,-1,2.2,-3,3.1c-1.1,0.4,-1.9,0.6,-2.5,0.6c-0.7,0,-1.2,-0.1,-1.6,-0.4c-0.4,-0.3,-0.7,-0.6,-0.9,-1c-0.3,-0.6,-1.6,-3.5,-3.8,-8.8l-1.5,0.1l-6.1,0l0,5.5c0,0.8,0,1.3,-0.1,1.7c0,0.4,-0.2,0.8,-0.5,1.3c-0.4,0.9,-1.7,1.3,-3.8,1.3c-2.2,0,-3.6,-0.6,-3.9,-1.8c-0.2,-0.5,-0.3,-1.4,-0.3,-2.5l0,-27c0,-0.8,0,-1.3,0,-1.7c0.1,-0.4,0.2,-0.8,0.5,-1.3c0.5,-0.9,1.7,-1.3,3.8,-1.3l10.5,0c2.9,0,5.6,1,8.3,3.1c1.3,1,2.4,2.4,3.2,4.1c0.9,1.7,1.3,3.6,1.3,5.7c0,3.7,-1.2,6.7,-3.7,9.1c0.8,1.7,1.9,4.2,3.3,7.6Z" class="g4_1" />
<path d="M937.2,632.5l-3.2,6.7l6.4,0Zm3.9,-11.7L954.3,648c0.5,1.1,0.8,1.9,0.8,2.5c0,1.1,-1,2.2,-2.8,3.1c-1.1,0.6,-2,0.8,-2.6,0.8c-0.7,0,-1.2,-0.1,-1.6,-0.4c-0.4,-0.3,-0.7,-0.6,-0.9,-0.9c-0.2,-0.3,-0.4,-0.8,-0.7,-1.5l-2.6,-5.2l-13.4,0l-2.6,5.2c-0.3,0.7,-0.5,1.1,-0.7,1.4c-0.2,0.3,-0.5,0.6,-0.9,0.9c-0.4,0.3,-0.9,0.5,-1.5,0.5c-0.7,0,-1.5,-0.3,-2.6,-0.8c-1.9,-0.9,-2.9,-2,-2.9,-3.1c0,-0.6,0.3,-1.4,0.9,-2.5l13.1,-27.2c0.4,-0.8,0.9,-1.4,1.6,-1.8c0.8,-0.5,1.5,-0.7,2.3,-0.7c1.8,0,3.1,0.9,3.9,2.5Z" class="g4_1" />
<path d="M986.7,632.5l-3.2,6.7l6.4,0Zm3.9,-11.7l13.2,27.2c0.5,1.1,0.8,1.9,0.8,2.5c0,1.1,-1,2.2,-2.8,3.1c-1.1,0.6,-2,0.8,-2.6,0.8c-0.7,0,-1.2,-0.1,-1.6,-0.4c-0.4,-0.3,-0.7,-0.6,-0.9,-0.9c-0.2,-0.3,-0.4,-0.8,-0.7,-1.5l-2.6,-5.2l-13.4,0l-2.6,5.2c-0.3,0.7,-0.5,1.1,-0.7,1.4c-0.2,0.3,-0.5,0.6,-0.9,0.9c-0.4,0.3,-0.9,0.5,-1.5,0.5c-0.7,0,-1.5,-0.3,-2.6,-0.8c-1.9,-0.9,-2.9,-2,-2.9,-3.1c0,-0.6,0.3,-1.4,0.9,-2.5l13.1,-27.2c0.4,-0.8,0.9,-1.4,1.6,-1.8c0.8,-0.5,1.5,-0.7,2.3,-0.7c1.8,0,3.1,0.9,3.9,2.5Z" class="g4_1" />
<path d="M1039.2,642.7c1.9,-1.7,2.8,-3.9,2.8,-6.5c0,-2.7,-0.9,-4.9,-2.7,-6.6c-1.9,-1.8,-4,-2.7,-6.5,-2.7l-4.6,0l0,18.4l4.7,0c2.3,0,4.4,-0.9,6.3,-2.6m-15.3,-24.4l9,0c4.7,0,8.8,1.7,12.4,5.1c3.5,3.4,5.3,7.5,5.3,12.5c0,4.9,-1.7,9.2,-5.2,12.7c-3.5,3.5,-7.7,5.3,-12.7,5.3l-8.9,0c-1.9,0,-3.2,-0.4,-3.7,-1.2c-0.3,-0.7,-0.5,-1.7,-0.5,-3.1l0,-27.1c0,-0.7,0,-1.3,0,-1.7c0.1,-0.3,0.2,-0.7,0.5,-1.2c0.4,-0.9,1.7,-1.3,3.8,-1.3Z" class="g4_1" />
<path d="M1062.4,645.3l15,0c0.7,0,1.3,0.1,1.7,0.1c0.3,0.1,0.8,0.2,1.2,0.5c0.9,0.4,1.4,1.7,1.4,3.8c0,2.2,-0.6,3.6,-1.8,4c-0.6,0.2,-1.4,0.2,-2.6,0.2l-19.2,0c-2.3,0,-3.6,-0.6,-4,-1.8c-0.2,-0.5,-0.3,-1.3,-0.3,-2.5l0,-27c0,-1.7,0.3,-2.8,0.9,-3.4c0.6,-0.6,1.8,-0.9,3.5,-0.9l19.2,0c0.7,0,1.3,0,1.7,0.1c0.3,0,0.8,0.2,1.2,0.4c0.9,0.5,1.4,1.8,1.4,3.8c0,2.3,-0.6,3.6,-1.8,4c-0.6,0.2,-1.4,0.3,-2.6,0.3l-14.9,0l0,4.9l9.6,0c0.8,0,1.3,0,1.7,0.1c0.4,0,0.8,0.2,1.3,0.5c0.9,0.4,1.3,1.7,1.3,3.8c0,2.2,-0.6,3.6,-1.8,3.9c-0.6,0.2,-1.4,0.3,-2.6,0.3l-9.5,0Z" class="g4_1" />
<path d="M1122.7,619.7c0.3,0.5,0.4,0.9,0.5,1.3c0,0.4,0,0.9,0,1.7l0,27c0,2.2,-0.6,3.5,-1.8,3.9c-0.6,0.2,-1.4,0.3,-2.3,0.3c-1,0,-1.7,-0.1,-2.3,-0.2c-0.5,-0.2,-1,-0.4,-1.3,-0.6c-0.2,-0.3,-0.5,-0.6,-0.6,-1c-0.2,-0.5,-0.3,-1.4,-0.3,-2.5l0,-16.3c-0.8,1,-2,2.6,-3.5,4.8c-1.6,2.2,-2.6,3.5,-3,4.1c-0.4,0.5,-0.7,0.9,-0.9,1.1c-0.1,0.2,-0.5,0.5,-1.2,0.9c-0.6,0.4,-1.3,0.6,-2,0.6c-0.7,0,-1.4,-0.2,-2,-0.6c-0.6,-0.3,-1,-0.6,-1.3,-0.9l-0.4,-0.6c-0.6,-0.8,-1.9,-2.5,-3.8,-5.2c-1.9,-2.6,-3,-4,-3.1,-4.2l0,16.4c0,0.7,0,1.3,-0.1,1.7c0,0.3,-0.2,0.7,-0.5,1.2c-0.4,0.9,-1.7,1.3,-3.8,1.3c-1.9,0,-3.2,-0.4,-3.6,-1.3c-0.3,-0.5,-0.5,-0.9,-0.5,-1.3c-0.1,-0.4,-0.1,-0.9,-0.1,-1.7l0,-27c0,-0.8,0,-1.3,0.1,-1.7c0,-0.4,0.2,-0.8,0.5,-1.3c0.4,-0.8,1.7,-1.2,3.7,-1.2c0.9,0,1.7,0.1,2.3,0.3c0.6,0.2,1.1,0.4,1.2,0.6l0.3,0.3l11.1,14.5c5.5,-7.3,9.2,-12.1,11,-14.4c0.6,-0.9,1.9,-1.3,3.9,-1.3c2.1,0,3.3,0.4,3.8,1.3Z" class="g4_1" />
<path d="M1135,636.2c0,2.9,0.9,5.2,2.8,7c1.9,1.8,3.9,2.7,6.2,2.7c2.3,0,4.4,-0.8,6.3,-2.6c1.8,-1.7,2.7,-4.1,2.7,-7c0,-3,-0.9,-5.4,-2.8,-7.1c-1.8,-1.8,-3.9,-2.7,-6.2,-2.7c-2.3,0,-4.4,0.9,-6.2,2.7c-1.9,1.8,-2.8,4.1,-2.8,7m8.9,-18.3c4.7,0,8.9,1.7,12.4,5.2c3.6,3.4,5.3,7.7,5.3,12.9c0,5.1,-1.6,9.5,-5,13.1c-3.4,3.6,-7.5,5.4,-12.5,5.4c-4.9,0,-9.1,-1.7,-12.5,-5.3c-3.5,-3.6,-5.2,-7.8,-5.2,-12.8c0,-2.6,0.5,-5.2,1.5,-7.5c0.9,-2.4,2.2,-4.3,3.8,-5.9c1.7,-1.6,3.5,-2.9,5.6,-3.8c2.1,-0.9,4.3,-1.3,6.6,-1.3Z" class="g4_1" />
<path d="M1187.1,644.6L1188,644c1.1,-0.7,1.8,-1,2.3,-1c1,0,2.1,0.9,3.2,2.7c0.8,1.2,1.1,2.1,1.1,2.8c0,0.6,-0.2,1.2,-0.6,1.7c-0.5,0.4,-1,0.8,-1.6,1.2c-0.6,0.3,-1.1,0.7,-1.6,1c-0.6,0.3,-1.7,0.7,-3.3,1.3c-1.7,0.5,-3.3,0.7,-4.8,0.7c-1.6,0,-3.1,-0.2,-4.7,-0.6c-1.6,-0.4,-3.2,-1.1,-4.9,-2c-1.6,-1,-3.1,-2.1,-4.5,-3.5c-1.3,-1.4,-2.4,-3.2,-3.2,-5.3c-0.9,-2.2,-1.3,-4.5,-1.3,-7c0,-2.6,0.4,-4.9,1.2,-6.9c0.9,-2.1,2,-3.8,3.3,-5.1c1.3,-1.4,2.8,-2.5,4.5,-3.4c3.2,-1.8,6.3,-2.6,9.6,-2.6c1.5,0,3,0.2,4.6,0.7c1.6,0.4,2.8,0.9,3.6,1.4l1.1,0.7c0.6,0.3,1.1,0.6,1.4,0.9c0.8,0.6,1.3,1.4,1.3,2.3c0,0.8,-0.4,1.7,-1.1,2.7c-1.2,1.7,-2.4,2.6,-3.4,2.6c-0.5,0,-1.4,-0.4,-2.4,-1.1c-1.4,-1.1,-3.2,-1.6,-5.5,-1.6c-2.1,0,-4.2,0.7,-6.2,2.2c-1,0.7,-1.8,1.7,-2.4,3c-0.7,1.3,-1,2.7,-1,4.4c0,1.6,0.3,3.1,1,4.4c0.6,1.3,1.4,2.3,2.4,3c2,1.5,4.1,2.2,6.2,2.2c1,0,2,-0.1,2.9,-0.4c0.8,-0.3,1.5,-0.5,1.9,-0.8Z" class="g4_1" />
<path d="M1206.4,635.5l6.3,0c0.9,0,1.8,-0.3,2.8,-1c0.9,-0.8,1.4,-1.8,1.4,-3.3c0,-1.4,-0.5,-2.5,-1.4,-3.2c-1,-0.7,-1.9,-1.1,-2.9,-1.1l-6.2,0Zm18.7,12.4c0.5,1.2,0.7,2,0.7,2.6c0,1.2,-1,2.2,-3,3.1c-1,0.4,-1.9,0.6,-2.5,0.6c-0.6,0,-1.1,-0.1,-1.5,-0.4c-0.4,-0.3,-0.7,-0.6,-0.9,-1c-0.4,-0.6,-1.6,-3.5,-3.8,-8.8l-1.5,0.1l-6.2,0l0,5.5c0,0.8,0,1.3,0,1.7c-0.1,0.4,-0.2,0.8,-0.5,1.3c-0.5,0.9,-1.7,1.3,-3.8,1.3c-2.3,0,-3.6,-0.6,-4,-1.8c-0.2,-0.5,-0.3,-1.4,-0.3,-2.5l0,-27c0,-0.8,0,-1.3,0.1,-1.7c0,-0.4,0.2,-0.8,0.5,-1.3c0.4,-0.9,1.7,-1.3,3.8,-1.3l10.5,0c2.8,0,5.6,1,8.3,3.1c1.3,1,2.3,2.4,3.2,4.1c0.8,1.7,1.2,3.6,1.2,5.7c0,3.7,-1.2,6.7,-3.6,9.1c0.7,1.7,1.8,4.2,3.3,7.6Z" class="g4_1" />
<path d="M1245.1,632.5l-3.2,6.7l6.5,0Zm4,-11.7l13.1,27.2c0.6,1.1,0.8,1.9,0.8,2.5c0,1.1,-0.9,2.2,-2.8,3.1c-1.1,0.6,-2,0.8,-2.6,0.8c-0.6,0,-1.1,-0.1,-1.5,-0.4c-0.4,-0.3,-0.7,-0.6,-0.9,-0.9c-0.2,-0.3,-0.4,-0.8,-0.8,-1.5l-2.5,-5.2l-13.5,0l-2.5,5.2c-0.3,0.7,-0.6,1.1,-0.8,1.4c-0.1,0.3,-0.4,0.6,-0.8,0.9c-0.4,0.3,-1,0.5,-1.6,0.5c-0.6,0,-1.5,-0.3,-2.6,-0.8c-1.9,-0.9,-2.8,-2,-2.8,-3.1c0,-0.6,0.3,-1.4,0.8,-2.5l13.1,-27.2c0.4,-0.8,0.9,-1.4,1.7,-1.8c0.7,-0.5,1.5,-0.7,2.3,-0.7c1.7,0,3,0.9,3.9,2.5Z" class="g4_1" />
<path d="M1285.6,644.6l0.8,-0.6c1.1,-0.7,1.9,-1,2.4,-1c1,0,2,0.9,3.2,2.7c0.7,1.2,1.1,2.1,1.1,2.8c0,0.6,-0.2,1.2,-0.7,1.7c-0.4,0.4,-0.9,0.8,-1.5,1.2c-0.6,0.3,-1.1,0.7,-1.7,1c-0.5,0.3,-1.6,0.7,-3.3,1.3c-1.6,0.5,-3.2,0.7,-4.7,0.7c-1.6,0,-3.1,-0.2,-4.7,-0.6c-1.6,-0.4,-3.2,-1.1,-4.9,-2c-1.7,-1,-3.2,-2.1,-4.5,-3.5c-1.3,-1.4,-2.4,-3.2,-3.3,-5.3c-0.8,-2.2,-1.3,-4.5,-1.3,-7c0,-2.6,0.5,-4.9,1.3,-6.9c0.9,-2.1,1.9,-3.8,3.2,-5.1c1.4,-1.4,2.9,-2.5,4.5,-3.4c3.2,-1.8,6.4,-2.6,9.6,-2.6c1.5,0,3.1,0.2,4.7,0.7c1.5,0.4,2.7,0.9,3.5,1.4l1.2,0.7c0.6,0.3,1,0.6,1.4,0.9c0.8,0.6,1.2,1.4,1.2,2.3c0,0.8,-0.3,1.7,-1,2.7c-1.3,1.7,-2.4,2.6,-3.4,2.6c-0.6,0,-1.4,-0.4,-2.5,-1.1c-1.3,-1.1,-3.1,-1.6,-5.4,-1.6c-2.1,0,-4.2,0.7,-6.2,2.2c-1,0.7,-1.8,1.7,-2.5,3c-0.6,1.3,-0.9,2.7,-0.9,4.4c0,1.6,0.3,3.1,0.9,4.4c0.7,1.3,1.5,2.3,2.5,3c2,1.5,4,2.2,6.2,2.2c1,0,1.9,-0.1,2.8,-0.4c0.9,-0.3,1.6,-0.5,2,-0.8Z" class="g4_1" />
<path d="M1296.3,622.6c0,-0.8,0,-1.3,0.1,-1.7c0,-0.4,0.2,-0.8,0.4,-1.3c0.5,-0.9,1.7,-1.3,3.8,-1.3c2.3,0,3.6,0.6,4.1,1.8c0.1,0.6,0.2,1.4,0.2,2.5l0,27.1c0,0.7,0,1.3,-0.1,1.7c0,0.3,-0.2,0.7,-0.4,1.2c-0.5,0.9,-1.8,1.4,-3.8,1.4c-2.3,0,-3.6,-0.7,-4,-1.9c-0.2,-0.5,-0.3,-1.3,-0.3,-2.5Z" class="g4_1" />
<path d="M1325.4,632.5l-3.2,6.7l6.5,0Zm4,-11.7l13.1,27.2c0.5,1.1,0.8,1.9,0.8,2.5c0,1.1,-0.9,2.2,-2.8,3.1c-1.1,0.6,-2,0.8,-2.6,0.8c-0.6,0,-1.2,-0.1,-1.6,-0.4c-0.4,-0.3,-0.7,-0.6,-0.8,-0.9c-0.2,-0.3,-0.5,-0.8,-0.8,-1.5l-2.5,-5.2l-13.5,0l-2.5,5.2c-0.3,0.7,-0.6,1.1,-0.8,1.4c-0.1,0.3,-0.4,0.6,-0.8,0.9c-0.5,0.3,-1,0.5,-1.6,0.5c-0.6,0,-1.5,-0.3,-2.6,-0.8c-1.9,-0.9,-2.8,-2,-2.8,-3.1c0,-0.6,0.3,-1.4,0.8,-2.5l13.1,-27.2c0.4,-0.8,0.9,-1.4,1.7,-1.8c0.7,-0.5,1.5,-0.7,2.3,-0.7c1.7,0,3,0.9,3.9,2.5Z" class="g4_1" />
<path d="M1060.8,690.9l-3.2,6.6l6.5,0Zm4,-11.7l13.1,27.1c0.6,1.1,0.8,2,0.8,2.5c0,1.2,-0.9,2.2,-2.8,3.2c-1.1,0.5,-2,0.8,-2.6,0.8c-0.6,0,-1.1,-0.2,-1.5,-0.4c-0.4,-0.3,-0.7,-0.6,-0.9,-1c-0.2,-0.3,-0.4,-0.8,-0.8,-1.4l-2.5,-5.3l-13.5,0l-2.5,5.3c-0.3,0.6,-0.6,1.1,-0.7,1.4c-0.2,0.3,-0.5,0.6,-0.9,0.9c-0.4,0.3,-0.9,0.4,-1.6,0.4c-0.6,0,-1.5,-0.2,-2.6,-0.8c-1.9,-0.9,-2.8,-1.9,-2.8,-3.1c0,-0.5,0.3,-1.4,0.8,-2.5L1057,679.1c0.3,-0.7,0.9,-1.3,1.6,-1.8c0.7,-0.4,1.5,-0.6,2.3,-0.6c1.7,0,3,0.8,3.9,2.5Z" class="g4_1" />
<path d="M1101.3,703l0.8,-0.7c1.1,-0.6,1.9,-0.9,2.4,-0.9c1,0,2.1,0.9,3.2,2.7c0.7,1.1,1.1,2,1.1,2.7c0,0.7,-0.2,1.3,-0.7,1.7c-0.4,0.5,-0.9,0.9,-1.5,1.2c-0.6,0.4,-1.1,0.7,-1.7,1c-0.5,0.4,-1.6,0.8,-3.3,1.3c-1.6,0.5,-3.2,0.8,-4.7,0.8c-1.6,0,-3.1,-0.2,-4.7,-0.6c-1.6,-0.4,-3.2,-1.1,-4.9,-2.1c-1.6,-0.9,-3.1,-2.1,-4.5,-3.5c-1.3,-1.3,-2.4,-3.1,-3.3,-5.3c-0.8,-2.1,-1.2,-4.5,-1.2,-7c0,-2.5,0.4,-4.8,1.2,-6.9c0.9,-2,1.9,-3.7,3.3,-5.1c1.3,-1.3,2.8,-2.4,4.5,-3.4c3.1,-1.7,6.3,-2.6,9.5,-2.6c1.6,0,3.1,0.3,4.7,0.7c1.5,0.5,2.7,1,3.5,1.5l1.2,0.6c0.6,0.4,1.1,0.7,1.4,0.9c0.8,0.7,1.2,1.5,1.2,2.3c0,0.9,-0.3,1.8,-1,2.7c-1.2,1.8,-2.4,2.6,-3.4,2.6c-0.6,0,-1.4,-0.3,-2.5,-1c-1.3,-1.1,-3.1,-1.7,-5.4,-1.7c-2.1,0,-4.2,0.8,-6.2,2.2c-1,0.7,-1.8,1.7,-2.5,3c-0.6,1.3,-0.9,2.8,-0.9,4.4c0,1.7,0.3,3.1,0.9,4.4c0.7,1.3,1.5,2.4,2.5,3.1c2,1.4,4.1,2.1,6.2,2.1c1,0,1.9,-0.1,2.8,-0.4c0.9,-0.2,1.6,-0.5,2,-0.7Z" class="g4_1" />
<path d="M1119.9,694.6c0,2.8,0.9,5.2,2.8,7c1.8,1.8,3.9,2.7,6.2,2.7c2.3,0,4.4,-0.9,6.2,-2.6c1.9,-1.8,2.8,-4.1,2.8,-7.1c0,-2.9,-0.9,-5.3,-2.8,-7.1c-1.8,-1.8,-3.9,-2.7,-6.2,-2.7c-2.3,0,-4.4,0.9,-6.2,2.7c-1.9,1.8,-2.8,4.2,-2.8,7.1m8.8,-18.4c4.8,0,9,1.8,12.5,5.2c3.6,3.5,5.3,7.8,5.3,12.9c0,5.2,-1.7,9.6,-5,13.2c-3.4,3.6,-7.6,5.4,-12.5,5.4c-4.9,0,-9.1,-1.8,-12.5,-5.4c-3.5,-3.5,-5.2,-7.8,-5.2,-12.7c0,-2.7,0.5,-5.2,1.4,-7.6c1,-2.3,2.3,-4.3,3.9,-5.9c1.6,-1.6,3.5,-2.8,5.6,-3.7c2.1,-0.9,4.3,-1.4,6.5,-1.4Z" class="g4_1" />
<path d="M1172.7,678.1c0.3,-0.5,0.8,-0.9,1.4,-1.1c0.6,-0.2,1.4,-0.3,2.3,-0.3c0.9,0,1.7,0.1,2.2,0.3c0.6,0.1,1,0.3,1.3,0.5c0.3,0.3,0.5,0.6,0.6,1.1c0.2,0.5,0.3,1.3,0.3,2.4l0,27c0,0.8,0,1.4,-0.1,1.7c0,0.4,-0.2,0.8,-0.4,1.3c-0.5,0.9,-1.7,1.3,-3.8,1.3c-1.3,0,-2.2,-0.1,-2.6,-0.3c-0.5,-0.2,-0.9,-0.5,-1.3,-0.9c-7.3,-9.7,-12.1,-16.1,-14.4,-19.1l0,16c0,0.8,0,1.4,0,1.7c-0.1,0.4,-0.2,0.8,-0.5,1.3c-0.4,0.9,-1.7,1.3,-3.8,1.3c-2,0,-3.2,-0.4,-3.7,-1.3c-0.2,-0.5,-0.4,-0.9,-0.4,-1.3c-0.1,-0.4,-0.1,-1,-0.1,-1.7l0,-27.2c0,-1.2,0.1,-2.1,0.4,-2.7c0.4,-0.5,0.8,-0.9,1.4,-1.1c0.6,-0.2,1.4,-0.3,2.4,-0.3c1,0,1.8,0.1,2.3,0.3c0.6,0.2,1,0.4,1.2,0.6c0.1,0.1,0.5,0.5,1.1,1.2c6.9,9.4,11.4,15.5,13.8,18.5l0,-16.5c0,-1.2,0.1,-2.1,0.4,-2.7Z" class="g4_1" />
<path d="M1187,676.6l27.1,0c1,0,1.8,0.1,2.3,0.4c0.4,0.2,0.8,0.6,0.9,1.1c0.2,0.5,0.3,1.2,0.3,2.1c0,0.8,-0.1,1.5,-0.3,2c-0.1,0.5,-0.4,0.8,-0.8,1c-0.6,0.3,-1.4,0.5,-2.5,0.5l-9.3,0l0,24.4c0,0.8,0,1.3,0,1.7c-0.1,0.3,-0.2,0.7,-0.5,1.2c-0.2,0.5,-0.7,0.8,-1.3,1c-0.6,0.2,-1.4,0.3,-2.4,0.3c-1,0,-1.8,-0.1,-2.4,-0.3c-0.6,-0.2,-1,-0.5,-1.3,-1c-0.2,-0.5,-0.4,-0.9,-0.4,-1.2c-0.1,-0.4,-0.1,-1,-0.1,-1.7l0,-24.4l-9.3,0c-1.1,0,-1.8,-0.2,-2.3,-0.4c-0.5,-0.2,-0.8,-0.6,-1,-1.1c-0.1,-0.6,-0.2,-1.2,-0.2,-2.1c0,-0.8,0.1,-1.5,0.2,-2c0.2,-0.5,0.5,-0.9,0.9,-1.1c0.5,-0.2,1.4,-0.4,2.4,-0.4Z" class="g4_1" />
<path d="M1228.9,703.7l14.9,0c0.8,0,1.3,0,1.7,0.1c0.4,0,0.8,0.2,1.3,0.4c0.9,0.5,1.3,1.7,1.3,3.8c0,2.3,-0.6,3.6,-1.8,4c-0.5,0.2,-1.4,0.3,-2.5,0.3l-19.3,0c-2.2,0,-3.6,-0.6,-4,-1.8c-0.2,-0.6,-0.3,-1.4,-0.3,-2.5l0,-27.1c0,-1.6,0.4,-2.7,1,-3.3c0.6,-0.6,1.8,-0.9,3.5,-0.9l19.1,0c0.8,0,1.3,0,1.7,0c0.4,0.1,0.8,0.2,1.3,0.5c0.9,0.4,1.3,1.7,1.3,3.8c0,2.3,-0.6,3.6,-1.8,4c-0.5,0.2,-1.4,0.3,-2.5,0.3l-14.9,0l0,4.9l9.6,0c0.7,0,1.3,0,1.7,0.1c0.3,0,0.8,0.2,1.2,0.4c0.9,0.5,1.4,1.7,1.4,3.8c0,2.3,-0.7,3.6,-1.9,4c-0.5,0.2,-1.4,0.3,-2.5,0.3l-9.5,0Z" class="g4_1" />
<path d="M1273.5,703l0.9,-0.7c1.1,-0.6,1.9,-0.9,2.3,-0.9c1.1,0,2.1,0.9,3.3,2.7c0.7,1.1,1.1,2,1.1,2.7c0,0.7,-0.2,1.3,-0.7,1.7c-0.4,0.5,-0.9,0.9,-1.5,1.2c-0.6,0.4,-1.2,0.7,-1.7,1c-0.5,0.4,-1.6,0.8,-3.3,1.3c-1.6,0.5,-3.2,0.8,-4.8,0.8c-1.5,0,-3.1,-0.2,-4.6,-0.6c-1.6,-0.4,-3.2,-1.1,-4.9,-2.1c-1.7,-0.9,-3.2,-2.1,-4.5,-3.5c-1.3,-1.3,-2.4,-3.1,-3.3,-5.3c-0.8,-2.1,-1.3,-4.5,-1.3,-7c0,-2.5,0.5,-4.8,1.3,-6.9c0.8,-2,1.9,-3.7,3.2,-5.1c1.3,-1.3,2.8,-2.4,4.5,-3.4c3.2,-1.7,6.4,-2.6,9.6,-2.6c1.5,0,3.1,0.3,4.7,0.7c1.5,0.5,2.7,1,3.5,1.5l1.2,0.6c0.6,0.4,1,0.7,1.4,0.9c0.8,0.7,1.2,1.5,1.2,2.3c0,0.9,-0.3,1.8,-1,2.7c-1.3,1.8,-2.4,2.6,-3.4,2.6c-0.6,0,-1.4,-0.3,-2.5,-1c-1.3,-1.1,-3.2,-1.7,-5.4,-1.7c-2.1,0,-4.2,0.8,-6.3,2.2c-0.9,0.7,-1.7,1.7,-2.4,3c-0.6,1.3,-1,2.8,-1,4.4c0,1.7,0.4,3.1,1,4.4c0.7,1.3,1.5,2.4,2.5,3.1c2,1.4,4,2.1,6.2,2.1c1,0,1.9,-0.1,2.8,-0.4c0.9,-0.2,1.6,-0.5,1.9,-0.7Z" class="g4_1" />
<path d="M1292.9,703.7l15,0c0.7,0,1.3,0,1.6,0.1c0.4,0,0.9,0.2,1.3,0.4c0.9,0.5,1.4,1.7,1.4,3.8c0,2.3,-0.6,3.6,-1.8,4c-0.6,0.2,-1.4,0.3,-2.6,0.3l-19.2,0c-2.3,0,-3.6,-0.6,-4,-1.8c-0.2,-0.6,-0.3,-1.4,-0.3,-2.5l0,-27.1c0,-1.6,0.3,-2.7,0.9,-3.3c0.6,-0.6,1.8,-0.9,3.5,-0.9l19.2,0c0.7,0,1.3,0,1.6,0c0.4,0.1,0.9,0.2,1.3,0.5c0.9,0.4,1.4,1.7,1.4,3.8c0,2.3,-0.6,3.6,-1.8,4c-0.6,0.2,-1.4,0.3,-2.6,0.3l-14.9,0l0,4.9l9.6,0c0.8,0,1.3,0,1.7,0.1c0.4,0,0.8,0.2,1.3,0.4c0.9,0.5,1.3,1.7,1.3,3.8c0,2.3,-0.6,3.6,-1.8,4c-0.6,0.2,-1.4,0.3,-2.6,0.3l-9.5,0Z" class="g4_1" />
<path d="M1323.9,693.9l6.2,0c1,0,1.9,-0.4,2.9,-1.1c0.9,-0.7,1.4,-1.8,1.4,-3.2c0,-1.4,-0.5,-2.5,-1.4,-3.2c-1,-0.8,-2,-1.1,-3,-1.1l-6.1,0Zm18.7,12.4c0.5,1.1,0.7,2,0.7,2.5c0,1.2,-1,2.3,-3,3.1c-1,0.5,-1.9,0.7,-2.5,0.7c-0.6,0,-1.2,-0.2,-1.6,-0.5c-0.4,-0.3,-0.7,-0.6,-0.9,-0.9c-0.3,-0.6,-1.5,-3.6,-3.7,-8.8l-1.6,0.1l-6.1,0l0,5.5c0,0.7,0,1.3,-0.1,1.7c0,0.3,-0.2,0.8,-0.4,1.2c-0.5,0.9,-1.7,1.4,-3.8,1.4c-2.3,0,-3.6,-0.6,-4,-1.8c-0.2,-0.6,-0.3,-1.4,-0.3,-2.6l0,-27c0,-0.7,0,-1.3,0.1,-1.6c0,-0.4,0.2,-0.8,0.4,-1.3c0.5,-0.9,1.8,-1.3,3.8,-1.3l10.5,0c2.9,0,5.7,1,8.4,3.1c1.3,1,2.3,2.3,3.2,4.1c0.8,1.7,1.2,3.6,1.2,5.7c0,3.7,-1.2,6.7,-3.6,9c0.7,1.8,1.8,4.3,3.3,7.7Z" class="g4_1" />
</svg>