<?xml version="1.0" encoding="UTF-8" standalone="no"?>
<svg
   xmlns:dc="http://purl.org/dc/elements/1.1/"
   xmlns:cc="http://creativecommons.org/ns#"
   xmlns:rdf="http://www.w3.org/1999/02/22-rdf-syntax-ns#"
   xmlns:svg="http://www.w3.org/2000/svg"
   xmlns="http://www.w3.org/2000/svg"
   xmlns:sodipodi="http://sodipodi.sourceforge.net/DTD/sodipodi-0.dtd"
   xmlns:inkscape="http://www.inkscape.org/namespaces/inkscape"
   version="1.1"
   id="Camada_1"
   x="0px"
   y="0px"
   viewBox="0 0 455 314"
   xml:space="preserve"
   inkscape:version="0.91 r13725"
   sodipodi:docname="lambe_que_eu_gosto.svg"
   width="455"
   height="314"><metadata
     id="metadata54"><rdf:RDF><cc:Work
         rdf:about=""><dc:format>image/svg+xml</dc:format><dc:type
           rdf:resource="http://purl.org/dc/dcmitype/StillImage" /><dc:title></dc:title></cc:Work></rdf:RDF></metadata><defs
     id="defs52" /><sodipodi:namedview
     pagecolor="#ffffff"
     bordercolor="#666666"
     borderopacity="1"
     objecttolerance="10"
     gridtolerance="10"
     guidetolerance="10"
     inkscape:pageopacity="0"
     inkscape:pageshadow="2"
     inkscape:window-width="1366"
     inkscape:window-height="702"
     id="namedview50"
     showgrid="false"
     inkscape:zoom="0.73265306"
     inkscape:cx="359.13258"
     inkscape:cy="167.43707"
     inkscape:window-x="-8"
     inkscape:window-y="-8"
     inkscape:window-maximized="1"
     inkscape:current-layer="Camada_1" /><style
     type="text/css"
     id="style3">
	.st0{fill:none;stroke:#000000;}
</style><g
     id="g4177"
     transform="translate(-1.85,-0.25)"><g
       style="fill:none;stroke:#000000;stroke-opacity:1"
       id="XMLID_6_"><g
         style="fill:none;stroke:#000000;stroke-opacity:1"
         id="XMLID_1_"><path
           id="XMLID_76_"
           class="st0"
           d="m 29.3,80.6 32.5,0 c 2.6,0 4.5,0.3 5.7,0.9 1.2,0.6 2,1.5 2.4,2.8 0.4,1.3 0.6,3 0.6,5.1 0,2.1 -0.2,3.8 -0.6,5.1 -0.4,1.3 -1.1,2.2 -2,2.6 -1.5,0.8 -3.6,1.2 -6.2,1.2 l -43.1,0 C 13,98.3 9.7,96.8 8.8,93.8 8.3,92.5 8.1,90.5 8.1,87.7 l 0,-66.6 c 0,-1.8 0.1,-3.2 0.2,-4.1 0.1,-0.9 0.5,-2 1.1,-3.2 1.1,-2.2 4.2,-3.2 9.3,-3.2 5.6,0 8.9,1.5 9.9,4.4 0.4,1.4 0.6,3.4 0.6,6.2 l 0,59.4 z"
           inkscape:connector-curvature="0"
           style="fill:none;stroke:#000000;stroke-opacity:1" /><path
           id="XMLID_73_"
           class="st0"
           d="m 137.2,16.8 32.3,66.8 c 1.4,2.7 2,4.7 2,6.1 0,2.9 -2.3,5.5 -6.9,7.8 -2.7,1.4 -4.8,2 -6.4,2 -1.6,0 -2.8,-0.4 -3.8,-1.1 -1,-0.7 -1.7,-1.5 -2.2,-2.3 -0.4,-0.8 -1.1,-2 -1.9,-3.6 l -6.2,-12.9 -33.1,0 -6.2,12.9 c -0.8,1.6 -1.4,2.8 -1.9,3.5 -0.4,0.7 -1.2,1.5 -2.2,2.2 -1,0.8 -2.3,1.1 -3.8,1.1 -1.6,0 -3.7,-0.7 -6.4,-2 -4.6,-2.2 -6.9,-4.8 -6.9,-7.7 0,-1.4 0.7,-3.4 2,-6.1 l 32.3,-66.9 c 0.9,-1.8 2.2,-3.3 4,-4.4 1.8,-1.1 3.7,-1.7 5.7,-1.7 4.3,0.1 7.5,2.2 9.6,6.3 z m -9.7,28.7 -7.9,16.4 15.9,0 -8,-16.4 z"
           inkscape:connector-curvature="0"
           style="fill:none;stroke:#000000;stroke-opacity:1" /><path
           id="XMLID_71_"
           class="st0"
           d="m 277.7,13.9 c 0.6,1.2 1,2.3 1.1,3.2 0.1,1 0.2,2.4 0.2,4.2 l 0,66.4 c 0,5.5 -1.5,8.7 -4.5,9.7 -1.5,0.5 -3.4,0.7 -5.7,0.7 -2.3,0 -4.1,-0.2 -5.5,-0.6 -1.4,-0.4 -2.4,-0.9 -3.1,-1.4 -0.7,-0.6 -1.3,-1.4 -1.7,-2.4 -0.4,-1.4 -0.6,-3.4 -0.6,-6.2 l 0,-40.1 c -2,2.5 -4.9,6.4 -8.7,11.8 -3.8,5.4 -6.3,8.8 -7.3,10.1 -1,1.4 -1.8,2.3 -2.2,2.8 -0.4,0.5 -1.4,1.2 -2.9,2.2 -1.6,0.9 -3.2,1.4 -5,1.4 -1.8,0 -3.4,-0.4 -4.9,-1.3 -1.5,-0.8 -2.5,-1.7 -3.2,-2.5 l -1,-1.3 c -1.6,-2 -4.7,-6.2 -9.5,-12.7 -4.7,-6.5 -7.3,-10 -7.7,-10.5 l 0,40.3 c 0,1.8 -0.1,3.2 -0.2,4.1 -0.1,0.9 -0.5,1.9 -1.1,3.1 -1.2,2.2 -4.3,3.2 -9.3,3.2 -4.9,0 -7.9,-1.1 -9.1,-3.2 -0.6,-1.1 -1,-2.2 -1.1,-3.1 -0.1,-1 -0.2,-2.4 -0.2,-4.3 l 0,-66.4 c 0,-1.8 0.1,-3.2 0.2,-4.1 0.1,-0.9 0.5,-2 1.1,-3.2 1.2,-2.1 4.3,-3.1 9.3,-3.1 2.2,0 4,0.3 5.6,0.8 1.6,0.5 2.6,1.1 3.1,1.6 l 0.7,0.7 27.2,35.7 c 13.6,-17.9 22.6,-29.8 27.2,-35.5 1.4,-2.2 4.6,-3.2 9.6,-3.2 5,-0.1 8.1,1 9.2,3.1 z"
           inkscape:connector-curvature="0"
           style="fill:none;stroke:#000000;stroke-opacity:1" /><path
           id="XMLID_68_"
           class="st0"
           d="m 354.5,51.3 c 4.7,5.6 7.1,11.8 7.1,18.8 -0.2,8 -2.9,14.7 -8.2,20 -5.3,5.4 -11.7,8.1 -19.3,8.1 l -31.5,0 c -5.6,0 -8.9,-1.5 -9.8,-4.5 -0.5,-1.4 -0.7,-3.4 -0.7,-6.2 l 0,-66.5 c 0,-1.9 0.1,-3.3 0.2,-4.2 0.1,-0.9 0.5,-1.9 1.1,-3.1 1.1,-2.2 4.2,-3.2 9.3,-3.2 l 30.2,0 c 7.3,0 13.5,2.6 18.4,7.7 5.2,5.2 7.8,11.4 7.8,18.7 0,5.2 -1.6,10 -4.6,14.4 z m -14.1,17.6 c 0,-1.9 -0.2,-3.4 -0.7,-4.5 -0.4,-1.1 -1.2,-1.9 -2.2,-2.4 -1.6,-0.6 -3.8,-1 -6.7,-1 -2.9,0 -5,-0.6 -6.5,-1.7 -1.4,-1.1 -2.2,-3.4 -2.2,-6.9 0,-3.5 0.7,-5.8 2.2,-6.9 1.5,-1.1 3.9,-1.7 7.4,-1.7 3.2,0 5.1,-0.8 5.7,-2.5 0.2,-0.9 0.4,-2.3 0.4,-4.3 0,-2 -0.7,-3.4 -2,-4.2 -1.3,-0.8 -3.3,-1.2 -5.9,-1.2 l -16.8,0 0,45.4 19.6,0 c 5.2,0 7.7,-2.7 7.7,-8.1 z"
           inkscape:connector-curvature="0"
           style="fill:none;stroke:#000000;stroke-opacity:1" /><path
           id="XMLID_66_"
           class="st0"
           d="m 395.7,77.1 36.9,0 c 1.8,0 3.2,0.1 4.1,0.2 0.9,0.1 2,0.5 3.2,1.1 2.2,1.1 3.2,4.2 3.2,9.3 0,5.6 -1.5,8.9 -4.4,9.8 -1.4,0.5 -3.4,0.7 -6.2,0.7 l -47.4,0 c -5.6,0 -8.9,-1.5 -9.8,-4.5 -0.5,-1.3 -0.7,-3.3 -0.7,-6.1 l 0,-66.5 c 0,-4.1 0.8,-6.8 2.3,-8.3 1.5,-1.5 4.4,-2.2 8.6,-2.2 l 47.1,0 c 1.8,0 3.2,0.1 4.1,0.2 0.9,0.1 2,0.5 3.2,1.1 2.2,1.1 3.2,4.2 3.2,9.3 0,5.6 -1.5,8.9 -4.4,9.8 -1.4,0.5 -3.4,0.7 -6.2,0.7 l -36.7,0 0,12.1 23.7,0 c 1.8,0 3.2,0.1 4.1,0.2 0.9,0.1 2,0.5 3.2,1.1 2.2,1.1 3.2,4.2 3.2,9.3 0,5.6 -1.5,8.9 -4.5,9.8 -1.4,0.5 -3.4,0.7 -6.2,0.7 l -23.5,0 0,12.2 z"
           inkscape:connector-curvature="0"
           style="fill:none;stroke:#000000;stroke-opacity:1" /></g><g
         style="fill:none;stroke:#000000;stroke-opacity:1"
         id="XMLID_4_"><g
           style="fill:none;stroke:#000000;stroke-opacity:1"
           id="XMLID_2_"><path
             id="XMLID_61_"
             class="st0"
             d="m 84.5,177.6 c 3.5,2.3 6,4 7.5,5.1 2.7,2 4.1,4 4.1,5.8 0,1.9 -1.1,4.4 -3.4,7.8 -2.3,3.3 -4.6,5 -6.9,5 -1.4,0 -3.6,-1 -6.6,-3.1 -0.4,-0.2 -1.4,-0.9 -3.2,-2.2 -1.7,-1.2 -3.1,-2.1 -4.1,-2.7 -7,5.4 -14.9,8.2 -23.7,8.2 -11.7,0 -21.6,-4.2 -29.7,-12.5 -8.1,-8.3 -12.1,-18.2 -12.1,-29.7 0,-6.3 1.1,-12.2 3.4,-17.6 2.3,-5.5 5.3,-10.1 9.1,-13.8 3.8,-3.7 8.1,-6.6 13,-8.7 4.9,-2.1 10,-3.2 15.2,-3.2 11.2,0 20.9,4 29.2,12.1 8.2,8.1 12.4,18.3 12.4,30.7 0,6.3 -1.4,12.6 -4.2,18.8 z m -58,-18.9 c 0,6.7 2.2,12.2 6.5,16.4 4.3,4.2 9.2,6.3 14.6,6.3 5.4,0 10.2,-2 14.5,-6.1 4.3,-4.1 6.5,-9.6 6.5,-16.5 0,-6.9 -2.2,-12.4 -6.5,-16.6 -4.4,-4.2 -9.2,-6.2 -14.6,-6.2 -5.4,0 -10.2,2.1 -14.5,6.3 -4.3,4.2 -6.5,9.7 -6.5,16.4 z"
             inkscape:connector-curvature="0"
             style="fill:none;stroke:#000000;stroke-opacity:1" /><path
             id="XMLID_59_"
             class="st0"
             d="m 163.6,120.1 c 0.8,-1.2 1.9,-2 3.3,-2.5 1.4,-0.5 3.2,-0.7 5.4,-0.7 2.2,0 3.9,0.2 5.2,0.6 1.3,0.4 2.3,0.8 3,1.4 0.7,0.5 1.2,1.3 1.5,2.4 0.5,1.3 0.7,3.3 0.7,5.9 l 0,34.3 c 0,10 -3.1,19.1 -9.3,27.2 -3,3.9 -6.9,7 -11.7,9.4 -4.8,2.4 -10,3.6 -15.8,3.6 -5.8,0 -11,-1.2 -15.8,-3.6 -4.7,-2.4 -8.6,-5.6 -11.5,-9.5 -6.1,-8 -9.2,-17.1 -9.2,-27.2 l 0,-34.4 c 0,-1.8 0.1,-3.2 0.2,-4 0.1,-0.9 0.5,-1.9 1.1,-3 0.6,-1.1 1.6,-1.9 3.1,-2.4 1.4,-0.5 3.4,-0.7 5.8,-0.7 2.4,0 4.3,0.2 5.8,0.7 1.4,0.5 2.4,1.2 3,2.4 0.9,1.7 1.4,4.1 1.4,7.1 l 0,34 c 0,4.6 1.1,9 3.4,13.2 1.1,2.1 2.8,3.8 5.1,5.1 2.3,1.3 5,1.9 8.1,1.9 5.5,0 9.6,-2 12.4,-6.1 2.7,-4.1 4.1,-8.8 4.1,-14.2 l 0,-34.7 c -0.4,-3 0,-5 0.7,-6.2 z"
             inkscape:connector-curvature="0"
             style="fill:none;stroke:#000000;stroke-opacity:1" /><path
             id="XMLID_57_"
             class="st0"
             d="m 215.8,180.1 34.9,0 c 1.7,0 3,0.1 3.9,0.2 0.9,0.1 1.9,0.5 3,1.1 2,1.1 3.1,4 3.1,8.9 0,5.3 -1.4,8.4 -4.2,9.3 -1.3,0.5 -3.3,0.7 -5.9,0.7 l -44.9,0 c -5.3,0 -8.4,-1.4 -9.3,-4.3 -0.5,-1.2 -0.7,-3.1 -0.7,-5.8 l 0,-63.2 c 0,-3.9 0.7,-6.5 2.2,-7.9 1.4,-1.4 4.2,-2.1 8.2,-2.1 l 44.7,0 c 1.7,0 3,0.1 3.9,0.2 0.9,0.1 1.9,0.5 3,1.1 2,1.1 3.1,4 3.1,8.8 0,5.3 -1.4,8.4 -4.2,9.3 -1.3,0.5 -3.3,0.7 -5.9,0.7 l -34.8,0 0,11.5 22.5,0 c 1.7,0 3,0.1 3.9,0.2 0.9,0.1 1.9,0.5 3,1.1 2,1.1 3.1,4 3.1,8.8 0,5.3 -1.4,8.4 -4.3,9.3 -1.3,0.5 -3.3,0.7 -5.9,0.7 l -22.2,0 0,11.4 z"
             inkscape:connector-curvature="0"
             style="fill:none;stroke:#000000;stroke-opacity:1" /></g><g
           style="fill:none;stroke:#000000;stroke-opacity:1"
           id="XMLID_3_"><path
             id="XMLID_55_"
             class="st0"
             d="m 311.3,180.1 34.9,0 c 1.7,0 3,0.1 3.9,0.2 0.9,0.1 1.9,0.5 3,1.1 2,1.1 3.1,4 3.1,8.9 0,5.3 -1.4,8.4 -4.2,9.3 -1.3,0.5 -3.3,0.7 -5.9,0.7 l -44.9,0 c -5.3,0 -8.4,-1.4 -9.3,-4.3 -0.5,-1.2 -0.7,-3.1 -0.7,-5.8 l 0,-63.2 c 0,-3.9 0.7,-6.5 2.2,-7.9 1.4,-1.4 4.2,-2.1 8.2,-2.1 l 44.7,0 c 1.7,0 3,0.1 3.9,0.2 0.9,0.1 1.9,0.5 3,1.1 2,1.1 3.1,4 3.1,8.8 0,5.3 -1.4,8.4 -4.2,9.3 -1.3,0.5 -3.3,0.7 -5.9,0.7 l -34.8,0 0,11.5 22.5,0 c 1.7,0 3,0.1 3.9,0.2 0.9,0.1 1.9,0.5 3,1.1 2,1.1 3.1,4 3.1,8.8 0,5.3 -1.4,8.4 -4.3,9.3 -1.3,0.5 -3.3,0.7 -5.9,0.7 l -22.2,0 0,11.4 z"
             inkscape:connector-curvature="0"
             style="fill:none;stroke:#000000;stroke-opacity:1" /><path
             id="XMLID_53_"
             class="st0"
             d="m 423.8,120.1 c 0.8,-1.2 1.9,-2 3.3,-2.5 1.4,-0.5 3.2,-0.7 5.4,-0.7 2.2,0 3.9,0.2 5.2,0.6 1.3,0.4 2.3,0.8 3,1.4 0.7,0.5 1.2,1.3 1.5,2.4 0.5,1.3 0.7,3.3 0.7,5.9 l 0,34.3 c 0,10 -3.1,19.1 -9.3,27.2 -3,3.9 -6.9,7 -11.7,9.4 -4.8,2.4 -10,3.6 -15.8,3.6 -5.8,0 -11,-1.2 -15.8,-3.6 -4.7,-2.4 -8.6,-5.6 -11.5,-9.5 -6.1,-8 -9.2,-17.1 -9.2,-27.2 l 0,-34.4 c 0,-1.8 0.1,-3.2 0.2,-4 0.1,-0.9 0.5,-1.9 1.1,-3 0.6,-1.1 1.6,-1.9 3.1,-2.4 1.4,-0.5 3.4,-0.7 5.8,-0.7 2.4,0 4.3,0.2 5.8,0.7 1.4,0.5 2.4,1.2 3,2.4 0.9,1.7 1.4,4.1 1.4,7.1 l 0,34 c 0,4.6 1.1,9 3.4,13.2 1.1,2.1 2.8,3.8 5.1,5.1 2.3,1.3 5,1.9 8.1,1.9 5.5,0 9.6,-2 12.4,-6.1 2.7,-4.1 4.1,-8.8 4.1,-14.2 l 0,-34.7 c -0.4,-3 -0.1,-5 0.7,-6.2 z"
             inkscape:connector-curvature="0"
             style="fill:none;stroke:#000000;stroke-opacity:1" /></g></g><g
         style="fill:none;stroke:#000000;stroke-opacity:1"
         id="XMLID_5_"><path
           id="XMLID_51_"
           class="st0"
           d="m 55.5,252.4 21.8,0 c 4.4,0.2 7.2,1.3 8.2,3.5 0.8,1.6 1.2,3.9 1.2,6.9 l 0,27.2 c 0,2.6 -1.2,5.2 -3.5,7.5 -6.9,7.2 -17.3,10.8 -31.1,10.8 -12.3,0 -23,-4.6 -32,-13.9 C 11,285.1 6.5,273.9 6.5,260.8 c 0,-13.1 4.6,-24 13.8,-32.8 9.2,-8.8 20.1,-13.2 32.6,-13.2 9.7,0 18.9,3.2 27.6,9.6 2.2,1.6 3.3,3.5 3.3,5.5 0,2 -0.9,4.3 -2.8,7 -3.2,4.4 -6.1,6.6 -8.8,6.6 -1.6,0 -4.1,-1.1 -7.5,-3.4 -3.5,-2.3 -7.6,-3.4 -12.4,-3.4 -6.3,0 -11.8,2.2 -16.7,6.6 -4.9,4.4 -7.3,10.2 -7.3,17.3 0,7.1 2.5,13.2 7.4,18.2 4.9,5 10.5,7.5 16.8,7.5 4.5,0 8.6,-0.7 12.2,-2.2 l 0,-13.5 -9.7,0 c -2.6,0 -4.4,-0.3 -5.4,-1 -1.1,-0.7 -1.8,-1.6 -2.1,-2.9 -0.3,-1.3 -0.5,-3 -0.5,-5.2 0,-2.2 0.2,-3.9 0.6,-5.3 0.4,-1.3 1.1,-2.2 2,-2.7 1.4,-0.7 3.4,-1.1 5.9,-1.1 z"
           inkscape:connector-curvature="0"
           style="fill:none;stroke:#000000;stroke-opacity:1" /><path
           id="XMLID_48_"
           class="st0"
           d="m 144.2,215.3 c 12.2,0 22.8,4.4 31.8,13.2 9,8.8 13.5,19.8 13.5,32.8 0,13.1 -4.3,24.2 -12.9,33.4 -8.6,9.2 -19.1,13.8 -31.6,13.8 -12.5,0 -23.2,-4.5 -32,-13.6 -8.8,-9.1 -13.2,-19.9 -13.2,-32.4 0,-6.8 1.2,-13.2 3.7,-19.2 2.5,-6 5.8,-11 9.9,-15 4.1,-4 8.9,-7.2 14.2,-9.5 5.4,-2.3 10.9,-3.5 16.6,-3.5 z m -22.5,46.6 c 0,7.3 2.4,13.3 7.1,17.9 4.7,4.6 10,6.9 15.9,6.9 5.9,0 11.1,-2.2 15.8,-6.7 4.7,-4.5 7,-10.4 7,-17.9 0,-7.5 -2.4,-13.5 -7.1,-18 -4.7,-4.5 -10,-6.8 -15.9,-6.8 -5.9,0 -11.1,2.3 -15.8,6.9 -4.7,4.4 -7,10.4 -7,17.7 z"
           inkscape:connector-curvature="0"
           style="fill:none;stroke:#000000;stroke-opacity:1" /><path
           id="XMLID_46_"
           class="st0"
           d="m 205.8,294.3 c -2.1,-2.6 -3.2,-5 -3.2,-7.1 0,-2.1 1.8,-4.9 5.3,-8.3 2.1,-2 4.2,-3 6.6,-3 2.3,0 5.5,2.1 9.6,6.2 1.2,1.4 2.8,2.7 4.9,4 2.1,1.3 4.1,1.9 5.9,1.9 7.7,0 11.5,-3.1 11.5,-9.4 0,-1.9 -1.1,-3.5 -3.2,-4.8 -2.1,-1.3 -4.7,-2.2 -7.8,-2.8 -3.1,-0.6 -6.5,-1.5 -10.1,-2.8 -3.6,-1.3 -7,-2.8 -10.1,-4.5 -3.1,-1.7 -5.7,-4.5 -7.8,-8.2 -2.1,-3.7 -3.2,-8.3 -3.2,-13.5 0,-7.3 2.7,-13.6 8.1,-19 5.4,-5.4 12.8,-8.1 22.1,-8.1 4.9,0 9.5,0.6 13.5,1.9 4.1,1.3 6.9,2.6 8.5,3.9 l 3.1,2.3 c 2.6,2.4 3.8,4.4 3.8,6.1 0,1.6 -1,3.9 -3,6.8 -2.8,4.1 -5.7,6.2 -8.7,6.2 -1.7,0 -3.9,-0.8 -6.4,-2.5 -0.2,-0.2 -0.7,-0.6 -1.4,-1.2 -0.7,-0.7 -1.3,-1.2 -1.9,-1.6 -1.7,-1.1 -3.9,-1.6 -6.6,-1.6 -2.7,0 -4.9,0.6 -6.7,1.9 -1.8,1.3 -2.7,3 -2.7,5.3 0,2.3 1.1,4.1 3.2,5.5 2.1,1.4 4.7,2.3 7.8,2.8 3.1,0.5 6.6,1.3 10.3,2.3 3.7,1 7.1,2.3 10.3,3.8 3.1,1.5 5.7,4.1 7.8,7.7 2.1,3.7 3.2,8.2 3.2,13.5 0,5.3 -1.1,10.1 -3.2,14.2 -2.1,4.1 -4.9,7.2 -8.4,9.5 -6.7,4.4 -13.8,6.6 -21.4,6.6 -3.9,0 -7.5,-0.5 -11,-1.4 -3.5,-0.9 -6.3,-2.1 -8.4,-3.5 -4.4,-2.6 -7.4,-5.2 -9.1,-7.7 l -1.2,-1.4 z"
           inkscape:connector-curvature="0"
           style="fill:none;stroke:#000000;stroke-opacity:1" /><path
           id="XMLID_44_"
           class="st0"
           d="m 280.5,216.3 68.7,0 c 2.6,0 4.6,0.3 5.8,0.9 1.2,0.6 2.1,1.6 2.5,2.9 0.4,1.3 0.6,3 0.6,5.2 0,2.1 -0.2,3.9 -0.6,5.1 -0.4,1.3 -1.1,2.2 -2.1,2.7 -1.5,0.7 -3.6,1.1 -6.3,1.1 l -23.6,0 0,62.2 c 0,1.9 -0.1,3.3 -0.2,4.2 -0.1,0.9 -0.5,2 -1.1,3.2 -0.6,1.2 -1.7,2 -3.3,2.5 -1.6,0.5 -3.6,0.7 -6.2,0.7 -2.6,0 -4.6,-0.2 -6.1,-0.7 -1.5,-0.5 -2.6,-1.3 -3.2,-2.5 -0.6,-1.2 -1,-2.3 -1.1,-3.2 -0.1,-0.9 -0.2,-2.4 -0.2,-4.3 l 0,-62.1 -23.7,0 c -2.6,0 -4.6,-0.3 -5.8,-0.9 -1.2,-0.6 -2.1,-1.6 -2.5,-2.9 -0.4,-1.3 -0.6,-3 -0.6,-5.2 0,-2.1 0.2,-3.9 0.6,-5.1 0.4,-1.3 1.1,-2.2 2.1,-2.7 1.5,-0.7 3.6,-1.1 6.3,-1.1 z"
           inkscape:connector-curvature="0"
           style="fill:none;stroke:#000000;stroke-opacity:1" /><path
           id="XMLID_41_"
           class="st0"
           d="m 402.5,215.3 c 12.2,0 22.8,4.4 31.8,13.2 9,8.8 13.5,19.8 13.5,32.8 0,13.1 -4.3,24.2 -12.9,33.4 -8.6,9.2 -19.1,13.8 -31.6,13.8 -12.5,0 -23.2,-4.5 -32,-13.6 -8.8,-9.1 -13.2,-19.9 -13.2,-32.4 0,-6.8 1.2,-13.2 3.7,-19.2 2.5,-6 5.8,-11 9.9,-15 4.1,-4 8.9,-7.2 14.2,-9.5 5.4,-2.3 10.9,-3.5 16.6,-3.5 z M 380,261.9 c 0,7.3 2.4,13.3 7.1,17.9 4.7,4.6 10,6.9 15.9,6.9 5.9,0 11.1,-2.2 15.8,-6.7 4.7,-4.5 7,-10.4 7,-17.9 0,-7.5 -2.4,-13.5 -7.1,-18 -4.7,-4.5 -10,-6.8 -15.9,-6.8 -5.9,0 -11.1,2.3 -15.8,6.9 -4.6,4.4 -7,10.4 -7,17.7 z"
           inkscape:connector-curvature="0"
           style="fill:none;stroke:#000000;stroke-opacity:1" /></g></g><g
       style="fill:#000000;fill-opacity:1;stroke:none"
       id="XMLID_8_"><g
         style="fill:#000000;fill-opacity:1;stroke:none"
         id="XMLID_36_"><path
           style="fill:#000000;fill-opacity:1;stroke:none"
           id="XMLID_86_"
           d="m 34.3,75.6 32.5,0 c 2.6,0 4.5,0.3 5.7,0.9 1.2,0.6 2,1.5 2.4,2.8 0.4,1.3 0.6,3 0.6,5.1 0,2.1 -0.2,3.8 -0.6,5.1 -0.4,1.3 -1.1,2.2 -2,2.6 -1.5,0.8 -3.6,1.2 -6.2,1.2 l -43.1,0 c -5.6,0 -8.9,-1.5 -9.8,-4.5 -0.5,-1.3 -0.7,-3.3 -0.7,-6.1 l 0,-66.6 c 0,-1.8 0.1,-3.2 0.2,-4.1 0.1,-0.9 0.5,-2 1.1,-3.2 1.1,-2.2 4.2,-3.2 9.3,-3.2 5.6,0 8.9,1.5 9.9,4.4 0.4,1.4 0.6,3.4 0.6,6.2 l 0,59.4 z"
           inkscape:connector-curvature="0" /><path
           style="fill:#000000;fill-opacity:1;stroke:none"
           id="XMLID_83_"
           d="m 142.2,11.8 32.3,66.8 c 1.4,2.7 2,4.7 2,6.1 0,2.9 -2.3,5.5 -6.9,7.8 -2.7,1.4 -4.8,2 -6.4,2 -1.6,0 -2.8,-0.4 -3.8,-1.1 -1,-0.7 -1.7,-1.5 -2.2,-2.3 -0.4,-0.8 -1.1,-2 -1.9,-3.6 l -6.2,-12.9 -33.1,0 -6.2,12.9 c -0.8,1.6 -1.4,2.8 -1.9,3.5 -0.4,0.7 -1.2,1.5 -2.2,2.2 -1,0.8 -2.3,1.1 -3.8,1.1 -1.6,0 -3.7,-0.7 -6.4,-2 -4.6,-2.2 -6.9,-4.8 -6.9,-7.7 0,-1.4 0.7,-3.4 2,-6.1 l 32.3,-66.9 c 0.9,-1.8 2.2,-3.3 4,-4.4 1.8,-1.1 3.7,-1.7 5.7,-1.7 4.3,0.1 7.5,2.2 9.6,6.3 z m -9.7,28.7 -7.9,16.4 15.9,0 -8,-16.4 z"
           inkscape:connector-curvature="0" /><path
           style="fill:#000000;fill-opacity:1;stroke:none"
           id="XMLID_81_"
           d="m 282.7,8.9 c 0.6,1.2 1,2.3 1.1,3.2 0.1,1 0.2,2.4 0.2,4.2 l 0,66.4 c 0,5.5 -1.5,8.7 -4.5,9.7 -1.5,0.5 -3.4,0.7 -5.7,0.7 -2.3,0 -4.1,-0.2 -5.5,-0.6 -1.4,-0.4 -2.4,-0.9 -3.1,-1.4 -0.7,-0.6 -1.3,-1.4 -1.7,-2.4 -0.4,-1.4 -0.6,-3.4 -0.6,-6.2 l 0,-40.1 c -2,2.5 -4.9,6.4 -8.7,11.8 -3.8,5.4 -6.3,8.8 -7.3,10.1 -1,1.4 -1.8,2.3 -2.2,2.8 -0.4,0.5 -1.4,1.2 -2.9,2.2 -1.6,0.9 -3.2,1.4 -5,1.4 -1.8,0 -3.4,-0.4 -4.9,-1.3 -1.5,-0.8 -2.5,-1.7 -3.2,-2.5 l -1,-1.3 c -1.6,-2 -4.7,-6.2 -9.5,-12.7 -4.7,-6.5 -7.3,-10 -7.7,-10.5 l 0,40.3 c 0,1.8 -0.1,3.2 -0.2,4.1 -0.1,0.9 -0.5,1.9 -1.1,3.1 -1.2,2.2 -4.3,3.2 -9.3,3.2 -4.9,0 -7.9,-1.1 -9.1,-3.2 -0.6,-1.1 -1,-2.2 -1.1,-3.1 -0.1,-1 -0.2,-2.4 -0.2,-4.3 l 0,-66.4 c 0,-1.8 0.1,-3.2 0.2,-4.1 0.1,-0.9 0.5,-2 1.1,-3.2 1.2,-2.1 4.3,-3.1 9.3,-3.1 2.2,0 4,0.3 5.6,0.8 1.6,0.5 2.6,1.1 3.1,1.6 l 0.7,0.7 27.2,35.7 C 250.3,26.6 259.3,14.7 263.9,9 c 1.4,-2.2 4.6,-3.2 9.6,-3.2 5,-0.1 8.1,1 9.2,3.1 z"
           inkscape:connector-curvature="0" /><path
           style="fill:#000000;fill-opacity:1;stroke:none"
           id="XMLID_78_"
           d="m 359.5,46.3 c 4.7,5.6 7.1,11.8 7.1,18.8 -0.2,8 -2.9,14.7 -8.2,20 -5.3,5.4 -11.7,8.1 -19.3,8.1 l -31.5,0 c -5.6,0 -8.9,-1.5 -9.8,-4.5 -0.5,-1.4 -0.7,-3.4 -0.7,-6.2 l 0,-66.5 c 0,-1.9 0.1,-3.3 0.2,-4.2 0.1,-0.9 0.5,-1.9 1.1,-3.1 1.1,-2.2 4.2,-3.2 9.3,-3.2 l 30.2,0 c 7.3,0 13.5,2.6 18.4,7.7 5.2,5.2 7.8,11.4 7.8,18.7 0,5.2 -1.6,10 -4.6,14.4 z m -14.1,17.6 c 0,-1.9 -0.2,-3.4 -0.7,-4.5 -0.4,-1.1 -1.2,-1.9 -2.2,-2.4 -1.6,-0.6 -3.8,-1 -6.7,-1 -2.9,0 -5,-0.6 -6.5,-1.7 -1.4,-1.1 -2.2,-3.4 -2.2,-6.9 0,-3.5 0.7,-5.8 2.2,-6.9 1.5,-1.1 3.9,-1.7 7.4,-1.7 3.2,0 5.1,-0.8 5.7,-2.5 0.2,-0.9 0.4,-2.3 0.4,-4.3 0,-2 -0.7,-3.4 -2,-4.2 -1.3,-0.8 -3.3,-1.2 -5.9,-1.2 l -16.8,0 0,45.4 19.6,0 c 5.2,0 7.7,-2.7 7.7,-8.1 z"
           inkscape:connector-curvature="0" /><path
           style="fill:#000000;fill-opacity:1;stroke:none"
           id="XMLID_39_"
           d="m 400.8,72.1 36.9,0 c 1.8,0 3.2,0.1 4.1,0.2 0.9,0.1 2,0.5 3.2,1.1 2.2,1.1 3.2,4.2 3.2,9.3 0,5.6 -1.5,8.9 -4.4,9.8 -1.4,0.5 -3.4,0.7 -6.2,0.7 l -47.4,0 c -5.6,0 -8.9,-1.5 -9.8,-4.5 -0.5,-1.3 -0.7,-3.3 -0.7,-6.1 l 0,-66.5 c 0,-4.1 0.8,-6.8 2.3,-8.3 1.5,-1.5 4.4,-2.2 8.6,-2.2 l 47.1,0 c 1.8,0 3.2,0.1 4.1,0.2 0.9,0.1 2,0.5 3.2,1.1 2.2,1.1 3.2,4.2 3.2,9.3 0,5.6 -1.5,8.9 -4.4,9.8 -1.4,0.5 -3.4,0.7 -6.2,0.7 l -36.7,0 0,12.1 23.7,0 c 1.8,0 3.2,0.1 4.1,0.2 0.9,0.1 2,0.5 3.2,1.1 2.2,1.1 3.2,4.2 3.2,9.3 0,5.6 -1.5,8.9 -4.5,9.8 -1.4,0.5 -3.4,0.7 -6.2,0.7 l -23.5,0 0,12.2 z"
           inkscape:connector-curvature="0" /></g><g
         style="fill:#000000;fill-opacity:1;stroke:none"
         id="XMLID_22_"><g
           style="fill:#000000;fill-opacity:1;stroke:none"
           id="XMLID_28_"><path
             style="fill:#000000;fill-opacity:1;stroke:none"
             id="XMLID_33_"
             d="m 89.5,172.6 c 3.5,2.3 6,4 7.5,5.1 2.7,2 4.1,4 4.1,5.8 0,1.9 -1.1,4.4 -3.4,7.8 -2.3,3.3 -4.6,5 -6.9,5 -1.4,0 -3.6,-1 -6.6,-3.1 -0.4,-0.2 -1.4,-0.9 -3.2,-2.2 -1.7,-1.2 -3.1,-2.1 -4.1,-2.7 -7,5.4 -14.9,8.2 -23.7,8.2 -11.7,0 -21.6,-4.2 -29.7,-12.5 -8.1,-8.3 -12.1,-18.2 -12.1,-29.7 0,-6.3 1.1,-12.2 3.4,-17.6 2.3,-5.5 5.3,-10.1 9.1,-13.8 3.8,-3.7 8.1,-6.6 13,-8.7 4.9,-2.1 10,-3.2 15.2,-3.2 11.2,0 20.9,4 29.2,12.1 8.2,8.1 12.4,18.3 12.4,30.7 0,6.3 -1.4,12.6 -4.2,18.8 z m -58,-18.9 c 0,6.7 2.2,12.2 6.5,16.4 4.3,4.2 9.2,6.3 14.6,6.3 5.4,0 10.2,-2 14.5,-6.1 4.3,-4.1 6.5,-9.6 6.5,-16.5 0,-6.9 -2.2,-12.4 -6.5,-16.6 -4.4,-4.2 -9.2,-6.2 -14.6,-6.2 -5.4,0 -10.2,2.1 -14.5,6.3 -4.3,4.2 -6.5,9.7 -6.5,16.4 z"
             inkscape:connector-curvature="0" /><path
             style="fill:#000000;fill-opacity:1;stroke:none"
             id="XMLID_31_"
             d="m 168.6,115.1 c 0.8,-1.2 1.9,-2 3.3,-2.5 1.4,-0.5 3.2,-0.7 5.4,-0.7 2.2,0 3.9,0.2 5.2,0.6 1.3,0.4 2.3,0.8 3,1.4 0.7,0.5 1.2,1.3 1.5,2.4 0.5,1.3 0.7,3.3 0.7,5.9 l 0,34.3 c 0,10 -3.1,19.1 -9.3,27.2 -3,3.9 -6.9,7 -11.7,9.4 -4.8,2.4 -10,3.6 -15.8,3.6 -5.8,0 -11,-1.2 -15.8,-3.6 -4.7,-2.4 -8.6,-5.6 -11.5,-9.5 -6.1,-8 -9.2,-17.1 -9.2,-27.2 l 0,-34.4 c 0,-1.8 0.1,-3.2 0.2,-4 0.1,-0.9 0.5,-1.9 1.1,-3 0.6,-1.1 1.6,-1.9 3.1,-2.4 1.4,-0.5 3.4,-0.7 5.8,-0.7 2.4,0 4.3,0.2 5.8,0.7 1.4,0.5 2.4,1.2 3,2.4 0.9,1.7 1.4,4.1 1.4,7.1 l 0,34 c 0,4.6 1.1,9 3.4,13.2 1.1,2.1 2.8,3.8 5.1,5.1 2.3,1.3 5,1.9 8.1,1.9 5.5,0 9.6,-2 12.4,-6.1 2.7,-4.1 4.1,-8.8 4.1,-14.2 l 0,-34.7 c -0.4,-3 0,-5 0.7,-6.2 z"
             inkscape:connector-curvature="0" /><path
             style="fill:#000000;fill-opacity:1;stroke:none"
             id="XMLID_29_"
             d="m 220.8,175.1 34.9,0 c 1.7,0 3,0.1 3.9,0.2 0.9,0.1 1.9,0.5 3,1.1 2,1.1 3.1,4 3.1,8.9 0,5.3 -1.4,8.4 -4.2,9.3 -1.3,0.5 -3.3,0.7 -5.9,0.7 l -44.9,0 c -5.3,0 -8.4,-1.4 -9.3,-4.3 -0.5,-1.2 -0.7,-3.1 -0.7,-5.8 l 0,-63.2 c 0,-3.9 0.7,-6.5 2.2,-7.9 1.4,-1.4 4.2,-2.1 8.2,-2.1 l 44.7,0 c 1.7,0 3,0.1 3.9,0.2 0.9,0.1 1.9,0.5 3,1.1 2,1.1 3.1,4 3.1,8.8 0,5.3 -1.4,8.4 -4.2,9.3 -1.3,0.5 -3.3,0.7 -5.9,0.7 l -34.8,0 0,11.5 22.5,0 c 1.7,0 3,0.1 3.9,0.2 0.9,0.1 1.9,0.5 3,1.1 2,1.1 3.1,4 3.1,8.8 0,5.3 -1.4,8.4 -4.3,9.3 -1.3,0.5 -3.3,0.7 -5.9,0.7 l -22.2,0 0,11.4 z"
             inkscape:connector-curvature="0" /></g><g
           style="fill:#000000;fill-opacity:1;stroke:none"
           id="XMLID_23_"><path
             style="fill:#000000;fill-opacity:1;stroke:none"
             id="XMLID_26_"
             d="m 316.3,175.1 34.9,0 c 1.7,0 3,0.1 3.9,0.2 0.9,0.1 1.9,0.5 3,1.1 2,1.1 3.1,4 3.1,8.9 0,5.3 -1.4,8.4 -4.2,9.3 -1.3,0.5 -3.3,0.7 -5.9,0.7 l -44.9,0 c -5.3,0 -8.4,-1.4 -9.3,-4.3 -0.5,-1.2 -0.7,-3.1 -0.7,-5.8 l 0,-63.2 c 0,-3.9 0.7,-6.5 2.2,-7.9 1.4,-1.4 4.2,-2.1 8.2,-2.1 l 44.7,0 c 1.7,0 3,0.1 3.9,0.2 0.9,0.1 1.9,0.5 3,1.1 2,1.1 3.1,4 3.1,8.8 0,5.3 -1.4,8.4 -4.2,9.3 -1.3,0.5 -3.3,0.7 -5.9,0.7 l -34.8,0 0,11.5 22.5,0 c 1.7,0 3,0.1 3.9,0.2 0.9,0.1 1.9,0.5 3,1.1 2,1.1 3.1,4 3.1,8.8 0,5.3 -1.4,8.4 -4.3,9.3 -1.3,0.5 -3.3,0.7 -5.9,0.7 l -22.2,0 0,11.4 z"
             inkscape:connector-curvature="0" /><path
             style="fill:#000000;fill-opacity:1;stroke:none"
             id="XMLID_24_"
             d="m 428.8,115.1 c 0.8,-1.2 1.9,-2 3.3,-2.5 1.4,-0.5 3.2,-0.7 5.4,-0.7 2.2,0 3.9,0.2 5.2,0.6 1.3,0.4 2.3,0.8 3,1.4 0.7,0.5 1.2,1.3 1.5,2.4 0.5,1.3 0.7,3.3 0.7,5.9 l 0,34.3 c 0,10 -3.1,19.1 -9.3,27.2 -3,3.9 -6.9,7 -11.7,9.4 -4.8,2.4 -10,3.6 -15.8,3.6 -5.8,0 -11,-1.2 -15.8,-3.6 -4.7,-2.4 -8.6,-5.6 -11.5,-9.5 -6.1,-8 -9.2,-17.1 -9.2,-27.2 l 0,-34.4 c 0,-1.8 0.1,-3.2 0.2,-4 0.1,-0.9 0.5,-1.9 1.1,-3 0.6,-1.1 1.6,-1.9 3.1,-2.4 1.4,-0.5 3.4,-0.7 5.8,-0.7 2.4,0 4.3,0.2 5.8,0.7 1.4,0.5 2.4,1.2 3,2.4 0.9,1.7 1.4,4.1 1.4,7.1 l 0,34 c 0,4.6 1.1,9 3.4,13.2 1.1,2.1 2.8,3.8 5.1,5.1 2.3,1.3 5,1.9 8.1,1.9 5.5,0 9.6,-2 12.4,-6.1 2.7,-4.1 4.1,-8.8 4.1,-14.2 l 0,-34.7 c -0.4,-3 -0.1,-5 0.7,-6.2 z"
             inkscape:connector-curvature="0" /></g></g><g
         style="fill:#000000;fill-opacity:1;stroke:none"
         id="XMLID_9_"><path
           style="fill:#000000;fill-opacity:1;stroke:none"
           id="XMLID_20_"
           d="m 60.5,247.4 21.8,0 c 4.4,0.2 7.2,1.3 8.2,3.5 0.8,1.6 1.2,3.9 1.2,6.9 l 0,27.2 c 0,2.6 -1.2,5.2 -3.5,7.5 -6.9,7.2 -17.3,10.8 -31.1,10.8 -12.3,0 -23,-4.6 -32,-13.9 -9.1,-9.3 -13.6,-20.5 -13.6,-33.6 0,-13.1 4.6,-24 13.8,-32.8 9.2,-8.8 20.1,-13.2 32.6,-13.2 9.7,0 18.9,3.2 27.6,9.6 2.2,1.6 3.3,3.5 3.3,5.5 0,2 -0.9,4.3 -2.8,7 -3.2,4.4 -6.1,6.6 -8.8,6.6 -1.6,0 -4.1,-1.1 -7.5,-3.4 -3.5,-2.3 -7.6,-3.4 -12.4,-3.4 -6.3,0 -11.8,2.2 -16.7,6.6 -4.9,4.4 -7.3,10.2 -7.3,17.3 0,7.1 2.5,13.2 7.4,18.2 4.9,5 10.5,7.5 16.8,7.5 4.5,0 8.6,-0.7 12.2,-2.2 l 0,-13.5 -9.7,0 c -2.6,0 -4.4,-0.3 -5.4,-1 -1.1,-0.7 -1.8,-1.6 -2.1,-2.9 -0.3,-1.3 -0.5,-3 -0.5,-5.2 0,-2.2 0.2,-3.9 0.6,-5.3 0.4,-1.3 1.1,-2.2 2,-2.7 1.5,-0.7 3.4,-1.1 5.9,-1.1 z"
           inkscape:connector-curvature="0" /><path
           style="fill:#000000;fill-opacity:1;stroke:none"
           id="XMLID_17_"
           d="m 149.2,210.3 c 12.2,0 22.8,4.4 31.8,13.2 9,8.8 13.5,19.8 13.5,32.8 0,13 -4.3,24.2 -12.9,33.4 -8.6,9.2 -19.1,13.8 -31.6,13.8 -12.5,0 -23.2,-4.5 -32,-13.6 -8.8,-9.1 -13.2,-19.9 -13.2,-32.4 0,-6.8 1.2,-13.2 3.7,-19.2 2.5,-6 5.8,-11 9.9,-15 4.1,-4 8.9,-7.2 14.2,-9.5 5.4,-2.3 10.9,-3.5 16.6,-3.5 z m -22.5,46.6 c 0,7.3 2.4,13.3 7.1,17.9 4.7,4.6 10,6.9 15.9,6.9 5.9,0 11.1,-2.2 15.8,-6.7 4.7,-4.5 7,-10.4 7,-17.9 0,-7.5 -2.4,-13.5 -7.1,-18 -4.7,-4.5 -10,-6.8 -15.9,-6.8 -5.9,0 -11.1,2.3 -15.8,6.9 -4.7,4.6 -7,10.4 -7,17.7 z"
           inkscape:connector-curvature="0" /><path
           style="fill:#000000;fill-opacity:1;stroke:none"
           id="XMLID_15_"
           d="m 210.8,289.3 c -2.1,-2.6 -3.2,-5 -3.2,-7.1 0,-2.1 1.8,-4.9 5.3,-8.3 2.1,-2 4.2,-3 6.6,-3 2.3,0 5.5,2.1 9.6,6.2 1.2,1.4 2.8,2.7 4.9,4 2.1,1.3 4.1,1.9 5.9,1.9 7.7,0 11.5,-3.1 11.5,-9.4 0,-1.9 -1.1,-3.5 -3.2,-4.8 -2.1,-1.3 -4.7,-2.2 -7.8,-2.8 -3.1,-0.6 -6.5,-1.5 -10.1,-2.8 -3.6,-1.3 -7,-2.8 -10.1,-4.5 -3.1,-1.7 -5.7,-4.5 -7.8,-8.2 -2.1,-3.7 -3.2,-8.3 -3.2,-13.5 0,-7.3 2.7,-13.6 8.1,-19 5.4,-5.4 12.8,-8.1 22.1,-8.1 4.9,0 9.5,0.6 13.5,1.9 4.1,1.3 6.9,2.6 8.5,3.9 l 3.1,2.3 c 2.6,2.4 3.8,4.4 3.8,6.1 0,1.6 -1,3.9 -3,6.8 -2.8,4.1 -5.7,6.2 -8.7,6.2 -1.7,0 -3.9,-0.8 -6.4,-2.5 -0.2,-0.2 -0.7,-0.6 -1.4,-1.2 -0.7,-0.7 -1.3,-1.2 -1.9,-1.6 -1.7,-1.1 -3.9,-1.6 -6.6,-1.6 -2.7,0 -4.9,0.6 -6.7,1.9 -1.8,1.3 -2.7,3 -2.7,5.3 0,2.3 1.1,4.1 3.2,5.5 2.1,1.4 4.7,2.3 7.8,2.8 3.1,0.5 6.6,1.3 10.3,2.3 3.7,1 7.1,2.3 10.3,3.8 3.1,1.5 5.7,4.1 7.8,7.7 2.1,3.7 3.2,8.2 3.2,13.5 0,5.4 -1.1,10.1 -3.2,14.2 -2.1,4.1 -4.9,7.2 -8.4,9.5 -6.7,4.4 -13.8,6.6 -21.4,6.6 -3.9,0 -7.5,-0.5 -11,-1.4 -3.5,-0.9 -6.3,-2.1 -8.4,-3.5 -4.4,-2.6 -7.4,-5.2 -9.1,-7.7 l -1.2,-1.4 z"
           inkscape:connector-curvature="0" /><path
           style="fill:#000000;fill-opacity:1;stroke:none"
           id="XMLID_13_"
           d="m 285.5,211.3 68.7,0 c 2.6,0 4.6,0.3 5.8,0.9 1.2,0.6 2.1,1.6 2.5,2.9 0.4,1.3 0.6,3 0.6,5.2 0,2.1 -0.2,3.9 -0.6,5.1 -0.4,1.3 -1.1,2.2 -2.1,2.7 -1.5,0.7 -3.6,1.1 -6.3,1.1 l -23.6,0 0,62.2 c 0,1.9 -0.1,3.3 -0.2,4.2 -0.1,0.9 -0.5,2 -1.1,3.2 -0.6,1.2 -1.7,2 -3.3,2.5 -1.6,0.5 -3.6,0.7 -6.2,0.7 -2.6,0 -4.6,-0.2 -6.1,-0.7 -1.5,-0.5 -2.6,-1.3 -3.2,-2.5 -0.6,-1.2 -1,-2.3 -1.1,-3.2 -0.1,-0.9 -0.2,-2.4 -0.2,-4.3 l 0,-62.1 -23.7,0 c -2.6,0 -4.6,-0.3 -5.8,-0.9 -1.2,-0.6 -2.1,-1.6 -2.5,-2.9 -0.4,-1.3 -0.6,-3 -0.6,-5.2 0,-2.1 0.2,-3.9 0.6,-5.1 0.4,-1.3 1.1,-2.2 2.1,-2.7 1.5,-0.7 3.6,-1.1 6.3,-1.1 z"
           inkscape:connector-curvature="0" /><path
           style="fill:#000000;fill-opacity:1;stroke:none"
           id="XMLID_10_"
           d="m 407.5,210.3 c 12.2,0 22.8,4.4 31.8,13.2 9,8.8 13.5,19.8 13.5,32.8 0,13 -4.3,24.2 -12.9,33.4 -8.6,9.2 -19.1,13.8 -31.6,13.8 -12.5,0 -23.2,-4.5 -32,-13.6 -8.8,-9.1 -13.2,-19.9 -13.2,-32.4 0,-6.8 1.2,-13.2 3.7,-19.2 2.5,-6 5.8,-11 9.9,-15 4.1,-4 8.9,-7.2 14.2,-9.5 5.4,-2.3 10.9,-3.5 16.6,-3.5 z M 385,256.9 c 0,7.3 2.4,13.3 7.1,17.9 4.7,4.6 10,6.9 15.9,6.9 5.9,0 11.1,-2.2 15.8,-6.7 4.7,-4.5 7,-10.4 7,-17.9 0,-7.5 -2.4,-13.5 -7.1,-18 -4.7,-4.5 -10,-6.8 -15.9,-6.8 -5.9,0 -11.1,2.3 -15.8,6.9 -4.6,4.4 -7,10.4 -7,17.7 z"
           inkscape:connector-curvature="0" /></g></g></g></svg>
