<svg xmlns="http://www.w3.org/2000/svg" viewBox="-152 192 254 177" enable-background="new -152 192 254 177"><style type="text/css">.st0{fill:#FE4365;}</style><path class="st0" d="M-49.9 252l-2 4.1h4zM3.4 257.8c0-.5-.1-.9-.2-1.1-.1-.3-.3-.5-.6-.6-.4-.2-1-.3-1.7-.3s-1.3-.2-1.6-.4c-.4-.3-.6-.9-.6-1.7 0-.9.2-1.5.6-1.7s1-.4 1.9-.4c.8 0 1.3-.2 1.4-.6.1-.2.1-.6.1-1.1 0-.5-.2-.9-.5-1.1-.3-.2-.8-.3-1.5-.3h-4.2v11.4h4.9c1.3 0 2-.7 2-2.1zM-69.9 274.6c-1.4 0-2.6.5-3.6 1.6-1.1 1.1-1.6 2.4-1.6 4.1s.6 3.1 1.6 4.1c1.1 1.1 2.3 1.6 3.7 1.6s2.6-.5 3.6-1.5c1.1-1 1.6-2.4 1.6-4.1s-.6-3.1-1.6-4.2c-1.2-1.1-2.4-1.6-3.7-1.6zM-45.7 300c-1.5 0-2.8.6-4 1.7-1.2 1.2-1.8 2.6-1.8 4.4s.6 3.3 1.8 4.5c1.2 1.2 2.5 1.7 4 1.7s2.8-.6 4-1.7c1.2-1.1 1.8-2.6 1.8-4.5s-.6-3.4-1.8-4.5c-1.2-1.1-2.5-1.6-4-1.6zM-25 202.5c-43.1 0-78 34.9-78 78s34.9 78 78 78 78-34.9 78-78-34.9-78-78-78zm36.9 43.4c0-1 .2-1.7.6-2.1.4-.4 1.1-.6 2.2-.6h11.8c.5 0 .8 0 1 .1.2 0 .5.1.8.3.6.3.8 1.1.8 2.3 0 1.4-.4 2.2-1.1 2.5-.4.1-.9.2-1.6.2h-9.2v3h5.9c.5 0 .8 0 1 .1.2 0 .5.1.8.3.6.3.8 1.1.8 2.3 0 1.4-.4 2.2-1.1 2.5-.4.1-.9.2-1.6.2h-5.9v3.1h9.2c.5 0 .8 0 1 .1.2 0 .5.1.8.3.6.3.8 1.1.8 2.3 0 1.4-.4 2.2-1.1 2.5-.4.1-.9.2-1.6.2h-11.6c-1.4 0-2.2-.4-2.5-1.1-.1-.3-.2-.8-.2-1.5v-17zm-1.2 26.5c0-.5 0-.8.1-1 0-.2.1-.5.3-.8s.4-.5.8-.6c.4-.1.9-.2 1.5-.2s1.1.1 1.5.2c.4.1.6.3.8.6.2.4.4 1 .4 1.8v8.5c0 1.2.3 2.3.9 3.3.3.5.7 1 1.3 1.3.6.3 1.3.5 2 .5 1.4 0 2.4-.5 3.1-1.5.7-1 1-2.2 1-3.6v-8.7c-.1-.8 0-1.3.2-1.6s.5-.5.8-.6.8-.2 1.4-.2 1 .1 1.3.2c.3.1.6.2.8.4.2.1.3.3.4.6.1.3.2.8.2 1.5v8.6c0 2.5-.8 4.8-2.3 6.8-.8 1-1.7 1.8-2.9 2.4-1.2.6-2.5.9-4 .9s-2.8-.3-4-.9c-1.2-.6-2.2-1.4-2.9-2.4-1.5-2-2.3-4.3-2.3-6.8v-8.7zm-19.4-26.6c0-.5 0-.8.1-1.1s.1-.5.3-.8c.3-.6 1.1-.8 2.3-.8h7.6c1.8 0 3.4.7 4.6 1.9 1.3 1.3 2 2.9 2 4.7 0 1.3-.4 2.5-1.2 3.6 1.2 1.4 1.8 3 1.8 4.7-.1 2-.7 3.7-2.1 5-1.3 1.4-2.9 2-4.8 2h-7.9c-1.4 0-2.2-.4-2.5-1.1-.1-.4-.2-.9-.2-1.6v-16.5zm-.3 26.6c0-1 .2-1.6.6-2 .4-.4 1.1-.5 2.1-.5h11.1c.4 0 .8 0 1 .1s.5.1.8.3c.5.3.8 1 .8 2.2 0 1.3-.4 2.1-1.1 2.3-.3.1-.8.2-1.5.2h-8.7v2.9h5.6c.4 0 .8 0 1 .1s.5.1.8.3c.5.3.8 1 .8 2.2 0 1.3-.4 2.1-1.1 2.3-.3.1-.8.2-1.5.2h-5.6v2.9h8.7c.4 0 .8 0 1 .1s.5.1.8.3c.5.3.8 1 .8 2.2 0 1.3-.4 2.1-1.1 2.3-.3.1-.8.2-1.5.2h-11.3c-1.3 0-2.1-.4-2.3-1.1-.1-.3-.2-.8-.2-1.5v-16zm-28.4-2.4c.3.1.6.2.8.4.2.1.3.3.4.6.1.3.2.8.2 1.5v8.6c0 2.5-.8 4.8-2.3 6.8-.8 1-1.7 1.8-2.9 2.4-1.2.6-2.5.9-4 .9s-2.8-.3-4-.9c-1.2-.6-2.2-1.4-2.9-2.4-1.5-2-2.3-4.3-2.3-6.8v-8.6c0-.5 0-.8.1-1 0-.2.1-.5.3-.8s.4-.5.8-.6c.4-.1.9-.2 1.5-.2s1.1.1 1.5.2c.4.1.6.3.8.6.2.4.4 1 .4 1.8v8.5c0 1.2.3 2.3.9 3.3.3.5.7 1 1.3 1.3s1.3.5 2 .5c1.4 0 2.4-.5 3.1-1.5.7-1 1-2.2 1-3.6v-8.7c-.1-.8 0-1.3.2-1.6.2-.3.5-.5.8-.6s.8-.2 1.4-.2c.1-.1.6 0 .9.1zm-42.4-24.1c0-.5 0-.8.1-1s.1-.5.3-.8c.3-.6 1.1-.8 2.3-.8 1.4 0 2.2.4 2.5 1.1.1.4.2.9.2 1.6v14.9h8.1c.7 0 1.1.1 1.4.2.3.2.5.4.6.7s.2.8.2 1.3-.1 1-.2 1.3-.3.6-.5.7c-.4.2-.9.3-1.6.3h-10.8c-1.4 0-2.2-.4-2.5-1.1-.1-.3-.2-.8-.2-1.5v-16.9zm19.7 67.3c0 .7-.3 1.3-.9 1.9-1.7 1.8-4.3 2.7-7.8 2.7-3.1 0-5.8-1.2-8-3.5-2.3-2.3-3.4-5.1-3.4-8.4 0-3.3 1.2-6 3.5-8.2s5-3.3 8.2-3.3c2.4 0 4.7.8 6.9 2.4.6.4.8.9.8 1.4 0 .5-.2 1.1-.7 1.8-.8 1.1-1.5 1.7-2.2 1.7-.4 0-1-.3-1.9-.9-.9-.6-1.9-.9-3.1-.9-1.6 0-3 .6-4.2 1.7-1.2 1.1-1.8 2.6-1.8 4.3s.6 3.3 1.9 4.6c1.2 1.3 2.6 1.9 4.2 1.9 1.1 0 2.2-.2 3.1-.6v-3.4h-2.4c-.7 0-1.1-.1-1.4-.3-.3-.2-.5-.4-.5-.7-.1-.3-.1-.8-.1-1.3 0-.6.1-1 .2-1.3.1-.3.3-.6.5-.7.4-.2.9-.3 1.5-.3h5.5c1.1.1 1.8.3 2.1.9.2.4.3 1 .3 1.7v6.8zm1.5-23.5c-.6.8-1.2 1.3-1.7 1.3-.4 0-.9-.3-1.7-.8-.1-.1-.4-.2-.8-.6-.4-.3-.8-.5-1-.7-1.8 1.4-3.7 2.1-5.9 2.1-2.9 0-5.4-1.1-7.4-3.1s-3-4.6-3-7.4c0-1.6.3-3.1.9-4.4.6-1.4 1.3-2.5 2.3-3.5 1-.9 2-1.7 3.3-2.2 1.2-.5 2.5-.8 3.8-.8 2.8 0 5.2 1 7.3 3 2.1 2 3.1 4.6 3.1 7.7 0 1.6-.4 3.2-1.1 4.7.9.6 1.5 1 1.9 1.3.7.5 1 1 1 1.5-.2.4-.5 1.1-1 1.9zm-.6-24.8c-1.2-.6-1.7-1.2-1.7-1.9 0-.4.2-.9.5-1.5l8.1-16.7c.2-.5.6-.8 1-1.1s.9-.4 1.4-.4c1.1 0 1.9.6 2.4 1.6l8.1 16.7c.4.7.5 1.2.5 1.5 0 .7-.6 1.4-1.7 2-.7.4-1.2.5-1.6.5s-.7-.1-1-.3c-.3-.2-.4-.4-.6-.6-.1-.2-.3-.5-.5-.9l-1.6-3.2h-8.3l-1.6 3.2c-.2.4-.4.7-.5.9-.1.2-.3.4-.6.6-.3.2-.6.3-1 .3-.1-.2-.6-.3-1.3-.7zm21.6 49.4c-2.2 2.3-4.8 3.5-7.9 3.5s-5.8-1.1-8-3.4-3.3-5-3.3-8.1c0-1.7.3-3.3.9-4.8.6-1.5 1.5-2.8 2.5-3.8s2.2-1.8 3.6-2.4c1.4-.6 2.7-.9 4.2-.9 3.1 0 5.7 1.1 8 3.3 2.3 2.2 3.4 5 3.4 8.2-.2 3.3-1.3 6.1-3.4 8.4zm4.9-24.7c-.1-.3-.2-.8-.2-1.5v-15.8c0-1 .2-1.6.6-2 .4-.4 1.1-.5 2.1-.5h11.2c.4 0 .8 0 1 .1s.5.1.8.3c.5.3.8 1 .8 2.2 0 1.3-.4 2.1-1.1 2.3-.3.1-.8.2-1.5.2h-8.7v2.9h5.6c.4 0 .8 0 1 .1s.5.1.8.3c.5.3.8 1 .8 2.2 0 1.3-.4 2.1-1.1 2.3-.3.1-.8.2-1.5.2h-5.6v2.9h8.7c.4 0 .8 0 1 .1s.5.1.8.3c.5.3.8 1 .8 2.2 0 1.3-.4 2.1-1.1 2.3-.3.1-.8.2-1.5.2h-11.2c-1.5-.2-2.3-.5-2.5-1.3zm17.3 24.1c-.5 1-1.2 1.8-2.1 2.4-1.7 1.1-3.5 1.7-5.4 1.7-1 0-1.9-.1-2.8-.4-.9-.2-1.6-.5-2.1-.9-1.1-.7-1.9-1.3-2.3-1.9l-.3-.4c-.5-.7-.8-1.3-.8-1.8s.5-1.2 1.3-2.1c.5-.5 1.1-.8 1.7-.8.6 0 1.4.5 2.4 1.6.3.4.7.7 1.2 1 .5.3 1 .5 1.5.5 1.9 0 2.9-.8 2.9-2.4 0-.5-.3-.9-.8-1.2-.5-.3-1.2-.6-2-.7-.8-.2-1.6-.4-2.5-.7-.9-.3-1.8-.7-2.5-1.1-.8-.4-1.4-1.1-2-2.1-.5-.9-.8-2.1-.8-3.4 0-1.8.7-3.4 2-4.8s3.2-2 5.5-2c1.2 0 2.4.2 3.4.5s1.7.7 2.1 1l.8.6c.7.6 1 1.1 1 1.5 0 .4-.3 1-.8 1.7-.7 1-1.4 1.6-2.2 1.6-.4 0-1-.2-1.6-.6-.1-.1-.2-.2-.4-.3-.2-.2-.3-.3-.5-.4-.4-.3-1-.4-1.7-.4s-1.2.2-1.7.5-.7.8-.7 1.3c0 .6.3 1 .8 1.4.5.4 1.2.6 2 .7.8.1 1.7.3 2.6.6.9.3 1.8.6 2.6 1s1.4 1 2 1.9c.5.9.8 2.1.8 3.4.2 1.3-.1 2.5-.6 3.5zm-.5-48.7c-.4-.1-.6-.2-.8-.4-.2-.2-.3-.4-.4-.6-.1-.4-.2-.9-.2-1.6v-10c-.5.6-1.2 1.6-2.2 3l-1.8 2.5c-.3.4-.5.6-.6.7s-.4.3-.7.6c-.4.2-.8.4-1.3.4s-.9-.1-1.2-.3c-.4-.2-.6-.4-.8-.6l-.3-.3c-.4-.5-1.2-1.6-2.4-3.2s-1.8-2.5-1.9-2.6v10.1c0 .5 0 .8-.1 1s-.1.5-.3.8c-.3.6-1.1.8-2.3.8-1.2 0-2-.3-2.3-.8-.2-.3-.3-.6-.3-.8 0-.3-.1-.6-.1-1.1v-16.6c0-.5 0-.8.1-1s.1-.5.3-.8c.3-.5 1.1-.8 2.3-.8.6 0 1 .1 1.4.2.4.1.7.3.8.4l.2.2 6.8 8.9c3.4-4.5 5.7-7.5 6.8-8.9.4-.6 1.2-.8 2.4-.8 1.3 0 2 .3 2.3.8.2.3.3.6.3.8 0 .3.1.6.1 1.1v16.6c0 1.4-.4 2.2-1.1 2.4-.4.1-.9.2-1.4.2s-1-.2-1.3-.3zm23 33.9c-.4.2-.9.3-1.6.3h-5.9v15.6c0 .5 0 .8-.1 1.1s-.1.5-.3.8c-.2.3-.4.5-.8.6-.4.1-.9.2-1.6.2-.7 0-1.2-.1-1.5-.2s-.7-.3-.8-.6c-.2-.3-.3-.6-.3-.8s-.1-.6-.1-1.1v-15.5h-5.9c-.7 0-1.2-.1-1.5-.2s-.5-.4-.6-.7-.2-.8-.2-1.3.1-1 .2-1.3c.1-.3.3-.6.5-.7.4-.2.9-.3 1.6-.3h17.4c.7 0 1.2.1 1.5.2s.5.4.6.7.2.8.2 1.3-.1 1-.2 1.3c-.2.3-.3.5-.6.6zm19.9 15.4c-2.2 2.3-4.8 3.5-7.9 3.5-3.1 0-5.8-1.1-8-3.4s-3.3-5-3.3-8.1c0-1.7.3-3.3.9-4.8.6-1.5 1.5-2.8 2.5-3.8s2.2-1.8 3.6-2.4c1.4-.6 2.7-.9 4.2-.9 3.1 0 5.7 1.1 8 3.3 2.3 2.2 3.4 5 3.4 8.2-.2 3.3-1.2 6.1-3.4 8.4zM19 300c-1.5 0-2.8.6-4 1.7-1.2 1.1-1.8 2.6-1.8 4.4s.6 3.3 1.8 4.5c1.2 1.2 2.5 1.7 4 1.7s2.8-.6 4-1.7c1.2-1.1 1.8-2.6 1.8-4.5s-.6-3.4-1.8-4.5c-1.2-1.1-2.6-1.6-4-1.6z"/></svg>
