<?xml version="1.0" encoding="UTF-8" standalone="no"?>
<!DOCTYPE svg PUBLIC "-//W3C//DTD SVG 1.1//EN"
"http://www.w3.org/Graphics/SVG/1.1/DTD/svg11.dtd">
<svg viewBox="0 0 1466 855" version="1.1" xmlns="http://www.w3.org/2000/svg" xmlns:xlink="http://www.w3.org/1999/xlink">
<defs>
<style type="text/css"><![CDATA[
.g1_3{
fill: #33CCCC;
}
.g2_3{
fill: #FF851B;
}
.g3_3{
fill: #FFFFFF;
}
.g4_3{
fill: #A5A5A5;
}
.g5_3{
fill: none;
stroke: #1D1D1B;
stroke-width: 0.4476389;
stroke-linecap: butt;
stroke-linejoin: miter;
}
.g6_3{
fill: none;
stroke: #757575;
stroke-width: 0.4476389;
stroke-linecap: butt;
stroke-linejoin: miter;
}
]]></style>
</defs>
<path d="M1405.7,797.8L63,797.8L63,57.9l1342.7,0l0,739.9Z" class="g1_3" />
<path d="M106.8,103.1c5.9,0,10.9,2.3,14.8,6.9c4,4.5,5.9,10,5.9,16.6l0,15.7c0,1.3,0,2.3,-0.1,3c-0.1,0.7,-0.4,1.5,-0.8,2.3c-0.4,0.9,-1.2,1.5,-2.4,1.9c-1.1,0.3,-2.6,0.5,-4.5,0.5c-1.5,0,-2.8,-0.1,-3.8,-0.4c-1,-0.3,-1.8,-0.7,-2.3,-1.1c-0.6,-0.4,-1,-1,-1.2,-1.8c-0.3,-0.8,-0.5,-1.5,-0.5,-2c0,-0.6,0,-1.4,0,-2.5l0,-15.7c0,-2.5,-0.7,-4.4,-2.1,-5.7c-1.4,-1.4,-3.3,-2.1,-5.7,-2.1c-2.3,0,-4.2,0.7,-5.6,2.2c-1.5,1.4,-2.2,3.3,-2.2,5.6l0,15.8c0,1.3,-0.1,2.3,-0.2,3c-0.1,0.7,-0.3,1.5,-0.8,2.3c-0.4,0.9,-1.2,1.5,-2.3,1.9c-1.2,0.3,-2.7,0.5,-4.6,0.5c-1.8,0,-3.3,-0.2,-4.4,-0.5c-1.2,-0.4,-1.9,-1,-2.4,-1.9c-0.4,-0.9,-0.7,-1.7,-0.8,-2.4c-0.1,-0.6,-0.1,-1.7,-0.1,-3l0,-31.6c0,-1.3,0,-2.3,0.1,-3c0.1,-0.6,0.4,-1.4,0.9,-2.2c0.4,-0.9,1.2,-1.4,2.4,-1.8c1.1,-0.3,2.6,-0.5,4.4,-0.5c1.8,0,3.3,0.2,4.4,0.6c1.1,0.3,1.9,0.9,2.3,1.5c0.4,0.7,0.7,1.3,0.8,1.8c0,0.4,0.1,1.1,0.1,1.8c0.1,-0.1,0.3,-0.3,0.5,-0.6c0.2,-0.2,0.6,-0.7,1.3,-1.3c0.7,-0.7,1.4,-1.3,2.2,-1.8c0.8,-0.5,1.8,-0.9,3,-1.3c1.2,-0.5,2.4,-0.7,3.7,-0.7Z" class="g2_3" />
<path d="M151.9,133c1.9,1.5,3.9,2.2,5.8,2.2c2,0,4,-0.7,5.9,-2.2c2,-1.5,3,-3.7,3,-6.6c0,-2.9,-1,-5.1,-2.8,-6.5c-1.8,-1.4,-3.9,-2.2,-6.1,-2.2c-2.1,0,-4,0.8,-5.8,2.3c-1.9,1.5,-2.8,3.6,-2.8,6.5c0,2.9,0.9,5.1,2.8,6.5m5.8,-30.9c6.6,0,12.3,2.3,17.2,6.9c5,4.6,7.4,10.4,7.4,17.6c0,4.9,-1.3,9.3,-3.8,13.1c-2.6,3.8,-5.7,6.7,-9.3,8.5c-3.7,1.8,-7.4,2.7,-11.3,2.7c-4,0,-7.8,-1,-11.5,-2.9c-3.7,-1.9,-6.8,-4.8,-9.3,-8.6c-2.5,-3.7,-3.8,-8,-3.8,-12.7c0,-7.2,2.5,-13,7.5,-17.7c5,-4.6,10.6,-6.9,16.9,-6.9Z" class="g2_3" />
<path d="M205.4,150.9c-6,0,-11.6,-1.7,-16.9,-5c-1.2,-0.7,-1.7,-1.7,-1.7,-3.1c0,-1.7,1.1,-4.2,3.4,-7.3c0.6,-1,1.6,-1.5,3,-1.5c1.5,0,3.4,0.6,5.4,1.8c2.9,1.7,5.4,2.5,7.4,2.5c3.6,0,5.5,-0.7,5.5,-2.1c0,-0.6,-0.6,-1.1,-1.7,-1.5c-1.2,-0.4,-2.6,-0.8,-4.3,-1c-1.7,-0.2,-3.6,-0.7,-5.6,-1.5c-2,-0.7,-3.8,-1.6,-5.5,-2.7c-1.8,-1.1,-3.2,-2.7,-4.3,-5c-1.2,-2.3,-1.7,-5,-1.7,-8.2c0,-9.4,6.4,-14.1,19.3,-14.1c4.2,0,8.6,1.1,13,3.1c2.1,0.9,3.1,2.2,3.1,3.9c0,1.2,-0.6,2.8,-1.8,4.8c-1.4,2.1,-2.8,3.2,-4.1,3.2c-0.7,0,-1.7,-0.3,-3.1,-0.9c-2.5,-1.2,-4.9,-1.8,-7.2,-1.8c-3.5,0,-5.2,0.7,-5.2,2c0,1,0.5,1.7,1.7,2.3c1.2,0.5,2.6,0.9,4.4,1.1c1.7,0.2,3.6,0.6,5.6,1.2c2.1,0.6,3.9,1.4,5.7,2.2c1.7,0.9,3.2,2.3,4.4,4.4c1.1,2,1.7,4.5,1.7,7.5c0,3.2,-0.6,5.9,-1.7,8.1c-1.2,2.1,-2.8,3.7,-4.9,4.8c-2.2,1,-4.3,1.8,-6.5,2.2c-2.1,0.4,-4.6,0.6,-7.4,0.6Z" class="g2_3" />
<path d="M249,150.9c-6,0,-11.7,-1.7,-17,-5c-1.1,-0.7,-1.7,-1.7,-1.7,-3.1c0,-1.7,1.2,-4.2,3.4,-7.3c0.7,-1,1.7,-1.5,3.1,-1.5c1.5,0,3.3,0.6,5.4,1.8c2.9,1.7,5.4,2.5,7.4,2.5c3.6,0,5.4,-0.7,5.4,-2.1c0,-0.6,-0.5,-1.1,-1.7,-1.5c-1.1,-0.4,-2.5,-0.8,-4.2,-1c-1.8,-0.2,-3.6,-0.7,-5.6,-1.5c-2,-0.7,-3.9,-1.6,-5.6,-2.7c-1.7,-1.1,-3.1,-2.7,-4.3,-5c-1.1,-2.3,-1.7,-5,-1.7,-8.2c0,-9.4,6.5,-14.1,19.4,-14.1c4.2,0,8.5,1.1,13,3.1c2.1,0.9,3.1,2.2,3.1,3.9c0,1.2,-0.6,2.8,-1.9,4.8c-1.3,2.1,-2.7,3.2,-4.1,3.2c-0.7,0,-1.7,-0.3,-3,-0.9c-2.5,-1.2,-4.9,-1.8,-7.2,-1.8c-3.5,0,-5.3,0.7,-5.3,2c0,1,0.6,1.7,1.8,2.3c1.1,0.5,2.6,0.9,4.3,1.1c1.8,0.2,3.7,0.6,5.7,1.2c2,0.6,3.9,1.4,5.7,2.2c1.7,0.9,3.2,2.3,4.3,4.4c1.2,2,1.8,4.5,1.8,7.5c0,3.2,-0.6,5.9,-1.8,8.1c-1.1,2.1,-2.8,3.7,-4.9,4.8c-2.1,1,-4.2,1.8,-6.4,2.2c-2.2,0.4,-4.6,0.6,-7.4,0.6Z" class="g2_3" />
<path d="M297.5,134.3c2.2,0,4,-0.8,5.4,-2.4c1.5,-1.6,2.2,-3.4,2.2,-5.3c0,-1.9,-0.7,-3.7,-2.1,-5.4c-1.4,-1.6,-3.3,-2.5,-5.7,-2.5c-2.3,0,-4.2,0.9,-5.6,2.5c-1.5,1.7,-2.2,3.5,-2.2,5.5c0,1.9,0.8,3.7,2.3,5.3c1.6,1.5,3.5,2.3,5.7,2.3m16,-31.2c1.8,0,3.3,0.2,4.4,0.6c1.2,0.3,1.9,1,2.4,1.8c0.4,0.9,0.7,1.7,0.8,2.4c0.1,0.7,0.1,1.7,0.1,3.1l0,31.2c0,1.3,0,2.4,-0.1,3c-0.1,0.7,-0.4,1.5,-0.8,2.4c-0.5,0.8,-1.2,1.4,-2.4,1.8c-1.1,0.3,-2.6,0.5,-4.5,0.5c-2.7,0,-4.6,-0.4,-5.7,-1.2c-1.1,-0.8,-1.7,-2,-1.9,-3.5c-2.2,3.1,-5.8,4.7,-10.7,4.7c-5.3,0,-10.2,-2.3,-14.6,-7c-4.4,-4.7,-6.6,-10.2,-6.6,-16.5c0,-6.1,2.2,-11.5,6.7,-16.2c4.4,-4.6,9.2,-7,14.5,-7c2,0,3.9,0.4,5.5,1.1c1.7,0.7,2.9,1.4,3.5,2c0.7,0.6,1.2,1.2,1.6,1.8c0.2,-1.6,0.8,-2.9,1.9,-3.7c1.1,-0.8,3.1,-1.3,5.9,-1.3Z" class="g2_3" />
<path d="M345.6,150.9c-6,0,-11.6,-1.7,-16.9,-5c-1.1,-0.7,-1.7,-1.7,-1.7,-3.1c0,-1.7,1.1,-4.2,3.4,-7.3c0.7,-1,1.7,-1.5,3,-1.5c1.6,0,3.4,0.6,5.5,1.8c2.9,1.7,5.3,2.5,7.4,2.5c3.6,0,5.4,-0.7,5.4,-2.1c0,-0.6,-0.6,-1.1,-1.7,-1.5c-1.1,-0.4,-2.6,-0.8,-4.3,-1c-1.7,-0.2,-3.6,-0.7,-5.5,-1.5c-2,-0.7,-3.9,-1.6,-5.6,-2.7c-1.7,-1.1,-3.2,-2.7,-4.3,-5c-1.1,-2.3,-1.7,-5,-1.7,-8.2c0,-9.4,6.5,-14.1,19.4,-14.1c4.2,0,8.5,1.1,13,3.1c2,0.9,3.1,2.2,3.1,3.9c0,1.2,-0.6,2.8,-1.9,4.8c-1.4,2.1,-2.7,3.2,-4.1,3.2c-0.7,0,-1.7,-0.3,-3,-0.9c-2.6,-1.2,-5,-1.8,-7.2,-1.8c-3.5,0,-5.3,0.7,-5.3,2c0,1,0.6,1.7,1.7,2.3c1.2,0.5,2.7,0.9,4.4,1.1c1.8,0.2,3.6,0.6,5.7,1.2c2,0.6,3.9,1.4,5.6,2.2c1.8,0.9,3.2,2.3,4.4,4.4c1.1,2,1.7,4.5,1.7,7.5c0,3.2,-0.6,5.9,-1.7,8.1c-1.2,2.1,-2.8,3.7,-4.9,4.8c-2.1,1,-4.3,1.8,-6.4,2.2c-2.2,0.4,-4.7,0.6,-7.5,0.6Z" class="g2_3" />
<path d="M412.4,132c1.5,1.6,3.3,2.4,5.5,2.4c2.2,0,4.1,-0.8,5.6,-2.4c1.5,-1.6,2.3,-3.4,2.3,-5.3c0,-2,-0.7,-3.8,-2.1,-5.4c-1.5,-1.7,-3.4,-2.5,-5.7,-2.5c-2.4,0,-4.3,0.9,-5.7,2.5c-1.4,1.7,-2.1,3.5,-2.1,5.4c0,1.9,0.8,3.7,2.2,5.3m7.8,-28.8c5.3,0,10.1,2.4,14.6,7.1c4.4,4.7,6.6,10,6.6,16.1c0,6.3,-2.2,11.9,-6.6,16.5c-4.4,4.7,-9.3,7,-14.6,7c-4.8,0,-8.2,-1.4,-10.3,-4.3c-0.5,2.9,-3.1,4.4,-7.7,4.4c-1.8,0,-3.3,-0.2,-4.4,-0.5c-1.2,-0.4,-2,-1,-2.4,-1.9c-0.5,-0.9,-0.7,-1.7,-0.8,-2.4c-0.1,-0.6,-0.1,-1.7,-0.1,-3l0,-53.2c0,-1.4,0,-2.4,0.1,-3.1c0.1,-0.7,0.3,-1.5,0.8,-2.3c0.4,-0.9,1.2,-1.5,2.4,-1.8c1.1,-0.4,2.6,-0.6,4.5,-0.6c1.8,0,3.3,0.2,4.4,0.6c1.2,0.3,2,0.9,2.4,1.8c0.5,0.9,0.7,1.7,0.8,2.4c0.1,0.7,0.1,1.7,0.1,3.1l0,18.5c2.4,-2.9,5.8,-4.4,10.2,-4.4Z" class="g2_3" />
<path d="M469.5,134.3c2.1,0,3.9,-0.8,5.4,-2.4c1.4,-1.6,2.1,-3.4,2.1,-5.3c0,-1.9,-0.7,-3.7,-2.1,-5.4c-1.3,-1.6,-3.2,-2.5,-5.6,-2.5c-2.3,0,-4.2,0.9,-5.7,2.5c-1.4,1.7,-2.2,3.5,-2.2,5.5c0,1.9,0.8,3.7,2.4,5.3c1.5,1.5,3.4,2.3,5.7,2.3m15.9,-31.2c1.9,0,3.3,0.2,4.5,0.6c1.1,0.3,1.9,1,2.3,1.8c0.5,0.9,0.7,1.7,0.8,2.4c0.1,0.7,0.2,1.7,0.2,3.1l0,31.2c0,1.3,-0.1,2.4,-0.2,3c-0.1,0.7,-0.3,1.5,-0.8,2.4c-0.4,0.8,-1.2,1.4,-2.3,1.8c-1.2,0.3,-2.7,0.5,-4.6,0.5c-2.7,0,-4.5,-0.4,-5.6,-1.2c-1.1,-0.8,-1.8,-2,-2,-3.5c-2.1,3.1,-5.7,4.7,-10.6,4.7c-5.4,0,-10.3,-2.3,-14.6,-7c-4.4,-4.7,-6.6,-10.2,-6.6,-16.5c0,-6.1,2.2,-11.5,6.6,-16.2c4.4,-4.6,9.3,-7,14.6,-7c2,0,3.8,0.4,5.5,1.1c1.6,0.7,2.8,1.4,3.5,2c0.6,0.6,1.1,1.2,1.6,1.8c0.1,-1.6,0.8,-2.9,1.9,-3.7c1.1,-0.8,3,-1.3,5.8,-1.3Z" class="g2_3" />
<path d="M526.4,103.1c5.9,0,10.9,2.3,14.8,6.9c4,4.5,6,10,6,16.6l0,15.7c0,1.3,-0.1,2.3,-0.2,3c-0.1,0.7,-0.3,1.5,-0.8,2.3c-0.4,0.9,-1.2,1.5,-2.3,1.9c-1.2,0.3,-2.7,0.5,-4.6,0.5c-1.5,0,-2.8,-0.1,-3.8,-0.4c-1,-0.3,-1.8,-0.7,-2.3,-1.1c-0.6,-0.4,-1,-1,-1.2,-1.8c-0.3,-0.8,-0.5,-1.5,-0.5,-2c0,-0.6,0,-1.4,0,-2.5l0,-15.7c0,-2.5,-0.7,-4.4,-2.1,-5.7c-1.4,-1.4,-3.3,-2.1,-5.7,-2.1c-2.3,0,-4.2,0.7,-5.6,2.2c-1.5,1.4,-2.2,3.3,-2.2,5.6l0,15.8c0,1.3,-0.1,2.3,-0.2,3c0,0.7,-0.3,1.5,-0.8,2.3c-0.4,0.9,-1.2,1.5,-2.3,1.9c-1.1,0.3,-2.7,0.5,-4.6,0.5c-1.8,0,-3.3,-0.2,-4.4,-0.5c-1.1,-0.4,-1.9,-1,-2.4,-1.9c-0.4,-0.9,-0.7,-1.7,-0.8,-2.4c-0.1,-0.6,-0.1,-1.7,-0.1,-3l0,-31.6c0,-1.3,0,-2.3,0.1,-3c0.1,-0.6,0.4,-1.4,0.9,-2.2c0.4,-0.9,1.3,-1.4,2.4,-1.8c1.1,-0.3,2.6,-0.5,4.4,-0.5c1.8,0,3.3,0.2,4.4,0.6c1.1,0.3,1.9,0.9,2.3,1.5c0.4,0.7,0.7,1.3,0.8,1.8c0.1,0.4,0.1,1.1,0.1,1.8c0.1,-0.1,0.3,-0.3,0.5,-0.6c0.2,-0.2,0.6,-0.7,1.3,-1.3c0.7,-0.7,1.4,-1.3,2.2,-1.8c0.8,-0.5,1.8,-0.9,3,-1.3c1.2,-0.5,2.4,-0.7,3.7,-0.7Z" class="g2_3" />
<path d="M571.3,132c1.5,1.6,3.4,2.4,5.6,2.4c2.2,0,4,-0.8,5.5,-2.4c1.4,-1.6,2.2,-3.4,2.2,-5.3c0,-1.9,-0.7,-3.7,-2.1,-5.4c-1.4,-1.6,-3.3,-2.5,-5.7,-2.5c-2.4,0,-4.3,0.8,-5.7,2.5c-1.4,1.6,-2.1,3.4,-2.1,5.4c0,1.9,0.7,3.7,2.3,5.3M592.7,81.2c1.8,0,3.3,0.2,4.4,0.6c1.2,0.3,1.9,0.9,2.4,1.8c0.4,0.9,0.7,1.7,0.8,2.4c0.1,0.7,0.1,1.7,0.1,3.1l0,53.2c0,1.3,0,2.3,-0.1,3c-0.1,0.7,-0.4,1.5,-0.9,2.3c-0.4,0.9,-1.2,1.5,-2.4,1.9c-1.1,0.3,-2.6,0.5,-4.5,0.5c-4.5,0,-7,-1.5,-7.5,-4.4c-2.5,2.9,-6,4.3,-10.4,4.3c-5.4,0,-10.2,-2.3,-14.6,-7c-4.4,-4.6,-6.6,-10.2,-6.6,-16.5c0,-6.1,2.2,-11.4,6.6,-16.1c4.4,-4.7,9.3,-7.1,14.6,-7.1c4.4,0,7.8,1.5,10.2,4.5l0,-18.7c0,-1.4,0.1,-2.4,0.2,-3.1c0.1,-0.7,0.3,-1.5,0.8,-2.3c0.4,-0.9,1.2,-1.5,2.3,-1.8c1.2,-0.4,2.7,-0.6,4.6,-0.6Z" class="g2_3" />
<path d="M634,123.6c2.3,0,3.4,-0.9,3.4,-2.8c0,-1.4,-0.5,-2.5,-1.6,-3.3c-1,-0.8,-2.5,-1.3,-4.5,-1.3c-1.9,0,-3.8,0.8,-5.7,2.4c-1.9,1.6,-2.8,3.3,-2.8,5Zm18.8,-3c0,3.9,-0.9,6.8,-2.7,8.5c-1.8,1.8,-3.8,2.6,-6,2.6l-21.1,0c0,1.7,0.9,3.1,2.9,4.2c2,1.2,4.1,1.7,6.3,1.7c1.6,0,3.1,-0.1,4.6,-0.3c1.4,-0.3,2.4,-0.5,3.1,-0.8l1,-0.3c1.4,-0.7,2.6,-1,3.5,-1c1.9,0,3.6,1.3,4.9,4c0.8,1.6,1.2,3,1.2,4.1c0,5.3,-6.3,7.9,-19,7.9c-4.4,0,-8.3,-0.7,-11.7,-2.2c-3.4,-1.5,-6.1,-3.5,-8,-6c-1.9,-2.5,-3.3,-5.1,-4.2,-7.8c-0.9,-2.7,-1.4,-5.5,-1.4,-8.4c0,-7.4,2.4,-13.4,7.3,-17.9c4.8,-4.5,10.9,-6.7,18.1,-6.7c2.9,0,5.6,0.4,8,1.2c2.5,0.8,4.5,1.8,6.1,3.1c1.6,1.3,2.9,2.7,4,4.4c1.1,1.7,1.9,3.3,2.4,4.9c0.5,1.7,0.7,3.3,0.7,4.8Z" class="g2_3" />
<path d="M658.6,111c0,-1.4,0,-2.4,0.1,-3.1c0.1,-0.7,0.4,-1.4,0.8,-2.3c0.5,-0.9,1.3,-1.5,2.4,-1.8c1.1,-0.4,2.6,-0.6,4.5,-0.6c1.5,0,2.8,0.2,3.8,0.5c1.1,0.3,1.8,0.6,2.3,1c0.5,0.5,0.9,1.1,1.2,1.9c0.3,0.8,0.4,1.5,0.4,2c0.1,0.6,0.1,1.4,0.1,2.6l0,31.1c0,1.4,-0.1,2.4,-0.1,3.1c-0.1,0.7,-0.4,1.5,-0.8,2.3c-0.5,0.9,-1.3,1.5,-2.4,1.9c-1.1,0.3,-2.6,0.5,-4.5,0.5c-1.9,0,-3.4,-0.2,-4.5,-0.5c-1.1,-0.4,-1.9,-1,-2.4,-1.9c-0.4,-0.9,-0.7,-1.7,-0.8,-2.3c-0.1,-0.7,-0.1,-1.7,-0.1,-3.1Zm7.8,-14.2c-1.9,0,-3.4,-0.2,-4.5,-0.5c-1.1,-0.4,-1.9,-1,-2.4,-1.9c-0.4,-0.9,-0.7,-1.7,-0.8,-2.4c-0.1,-0.6,-0.1,-1.7,-0.1,-3c0,-1.4,0,-2.4,0.1,-3.1c0.1,-0.7,0.4,-1.5,0.8,-2.3c0.5,-0.9,1.3,-1.5,2.4,-1.8c1.1,-0.4,2.6,-0.6,4.5,-0.6c1.9,0,3.4,0.2,4.5,0.6c1.1,0.3,1.9,0.9,2.4,1.8c0.4,0.9,0.7,1.7,0.8,2.4c0,0.7,0.1,1.7,0.1,3.1c0,1.3,-0.1,2.4,-0.1,3c-0.1,0.7,-0.4,1.5,-0.8,2.4c-0.5,0.8,-1.3,1.4,-2.4,1.8c-1.1,0.3,-2.6,0.5,-4.5,0.5Z" class="g2_3" />
<path d="M717.1,108.7c0,2.5,-0.5,4.9,-1.7,7.2c-1.1,2.2,-2.7,3.4,-4.9,3.4c-1,0,-2.1,-0.3,-3,-0.7c-1,-0.5,-2,-0.8,-3,-0.8c-2.2,0,-4,0.6,-5.4,1.7c-1.4,1.2,-2.1,2.5,-2.1,4.1l0,18.7c0,1.4,-0.1,2.4,-0.1,3.1c-0.1,0.7,-0.4,1.5,-0.9,2.3c-0.5,0.9,-1.3,1.5,-2.4,1.9c-1.1,0.3,-2.6,0.5,-4.5,0.5c-1.5,0,-2.8,-0.2,-3.8,-0.5c-1.1,-0.2,-1.8,-0.6,-2.3,-1c-0.5,-0.4,-0.9,-1,-1.2,-1.9c-0.3,-0.7,-0.4,-1.4,-0.4,-2c-0.1,-0.6,-0.1,-1.4,-0.1,-2.5l0,-31.3c0,-1.4,0.1,-2.4,0.1,-3.1c0.1,-0.7,0.4,-1.4,0.9,-2.3c0.4,-0.9,1.2,-1.5,2.3,-1.8c1.1,-0.4,2.7,-0.6,4.6,-0.6c1.7,0,3.2,0.2,4.3,0.6c1.1,0.3,1.9,0.8,2.3,1.4c0.5,0.7,0.7,1.2,0.8,1.6c0.2,0.4,0.2,0.9,0.2,1.4c0.3,-0.4,0.7,-0.9,1.3,-1.5c0.6,-0.6,1.8,-1.4,3.6,-2.4c1.9,-1,3.7,-1.5,5.6,-1.5c0.9,0,1.8,0.1,2.8,0.2c0.9,0.2,2,0.4,3.1,0.8c1.1,0.3,2.1,0.9,2.8,1.8c0.8,0.9,1.1,1.9,1.1,3.2Z" class="g2_3" />
<path d="M741.6,134.3c2.2,0,4,-0.8,5.4,-2.4c1.5,-1.6,2.2,-3.4,2.2,-5.3c0,-1.9,-0.7,-3.7,-2.1,-5.4c-1.4,-1.6,-3.3,-2.5,-5.7,-2.5c-2.3,0,-4.2,0.9,-5.6,2.5c-1.5,1.7,-2.2,3.5,-2.2,5.5c0,1.9,0.8,3.7,2.3,5.3c1.6,1.5,3.5,2.3,5.7,2.3m16,-31.2c1.8,0,3.3,0.2,4.4,0.6c1.1,0.3,1.9,1,2.4,1.8c0.4,0.9,0.7,1.7,0.8,2.4c0.1,0.7,0.1,1.7,0.1,3.1l0,31.2c0,1.3,0,2.4,-0.1,3c-0.1,0.7,-0.4,1.5,-0.8,2.4c-0.5,0.8,-1.3,1.4,-2.4,1.8c-1.1,0.3,-2.6,0.5,-4.5,0.5c-2.7,0,-4.6,-0.4,-5.7,-1.2c-1.1,-0.8,-1.7,-2,-1.9,-3.5c-2.2,3.1,-5.8,4.7,-10.7,4.7c-5.3,0,-10.2,-2.3,-14.6,-7C720.2,138.2,718,132.7,718,126.4c0,-6.1,2.2,-11.5,6.6,-16.2c4.5,-4.6,9.3,-7,14.6,-7c2,0,3.9,0.4,5.5,1.1c1.7,0.7,2.9,1.4,3.5,2c0.7,0.6,1.2,1.2,1.6,1.8c0.2,-1.6,0.8,-2.9,1.9,-3.7c1.1,-0.8,3.1,-1.3,5.9,-1.3Z" class="g2_3" />
<path d="M789.7,150.9c-6,0,-11.6,-1.7,-16.9,-5c-1.1,-0.7,-1.7,-1.7,-1.7,-3.1c0,-1.7,1.1,-4.2,3.4,-7.3c0.6,-1,1.7,-1.5,3,-1.5c1.6,0,3.4,0.6,5.5,1.8c2.9,1.7,5.3,2.5,7.3,2.5c3.7,0,5.5,-0.7,5.5,-2.1c0,-0.6,-0.6,-1.1,-1.7,-1.5c-1.1,-0.4,-2.6,-0.8,-4.3,-1c-1.7,-0.2,-3.6,-0.7,-5.5,-1.5c-2,-0.7,-3.9,-1.6,-5.6,-2.7c-1.7,-1.1,-3.2,-2.7,-4.3,-5c-1.1,-2.3,-1.7,-5,-1.7,-8.2c0,-9.4,6.5,-14.1,19.3,-14.1c4.3,0,8.6,1.1,13.1,3.1c2,0.9,3.1,2.2,3.1,3.9c0,1.2,-0.7,2.8,-1.9,4.8c-1.4,2.1,-2.7,3.2,-4.1,3.2c-0.7,0,-1.7,-0.3,-3,-0.9c-2.6,-1.2,-5,-1.8,-7.2,-1.8c-3.5,0,-5.3,0.7,-5.3,2c0,1,0.6,1.7,1.7,2.3c1.2,0.5,2.7,0.9,4.4,1.1c1.8,0.2,3.6,0.6,5.7,1.2c2,0.6,3.9,1.4,5.6,2.2c1.8,0.9,3.2,2.3,4.4,4.4c1.1,2,1.7,4.5,1.7,7.5c0,3.2,-0.6,5.9,-1.7,8.1c-1.2,2.1,-2.8,3.7,-4.9,4.8c-2.1,1,-4.3,1.8,-6.4,2.2c-2.2,0.4,-4.7,0.6,-7.5,0.6Z" class="g2_3" />
<path d="M146.9,512.9c3,1.6,13.1,8.4,13.1,20.5c0,10.7,-17.3,42.7,-10.6,51l43,-53.5c0,0,10.7,13,4.3,24C190,566.3,173.6,579.7,167,589.7c-4.1,6.1,-2.1,9.4,-2.1,9.4l52,-28.5c0,0,4.2,12.4,-5.7,21.3c-10.4,9.5,-35.1,13.2,-35.1,23l35.8,0c0,0,-3.7,10.8,-10.6,12.4c-6.1,1.3,-19.1,-2.2,-25.3,3.3c-6.4,5.8,-13.7,25,-35.5,25c-14.7,0,-26,-10.5,-33.1,-24.4C99.3,615.2,90.2,607.5,80.8,605.5c0,0,5.1,-12.1,18.6,-12.1c18.6,0,26.5,30.4,40.5,30.4c4.1,0,8.3,-2.1,8.3,-8c0,-6.5,-9.3,-11.8,-11.9,-13.6c-6.1,-4.3,-11.1,-11.2,-7.9,-22.6l18.5,-66.7Z" class="g3_3" />
<path d="M333.3,644c-1.2,-0.3,-3.2,-1.2,-4.5,-2c-2.1,-1.3,-2.2,-1.5,-1.2,-2.7c0.7,-0.7,1.4,-2.7,1.7,-4.5l0.6,-3.3l3,2.2l3,2.1l2.6,-3.1c1.5,-1.7,2.7,-3.5,2.7,-3.9c0,-0.5,-3.5,-3.6,-7.8,-7c-4.3,-3.4,-7.8,-6.3,-7.8,-6.6c0,-0.2,0.4,-0.8,0.7,-1.4c0.5,-0.8,3.4,1,12.2,7.9c6.4,5,12.2,9.1,12.9,9.1c1.4,0,5.3,-4.2,5.3,-5.7c0,-0.5,-5.3,-5.1,-11.7,-10.1c-6.4,-5.1,-11.6,-9.5,-11.6,-9.8c0,-0.4,0.5,-1,1,-1.5c0.8,-0.6,4.2,1.6,14.4,9.6c7.3,5.8,13.9,10.5,14.5,10.5c0.6,0,2.2,-1.5,3.5,-3.3c1.9,-2.7,2.2,-3.5,1.4,-4.1C359.7,610.1,342,595.3,342,594.5c0,-2.5,2.2,-1.2,12.8,7.1c6.3,4.9,12,9,12.7,9c1.7,0,6.5,-6.5,5.9,-7.9c-0.4,-1,-30.7,-25,-33.6,-26.6c-0.8,-0.5,-2.3,0.5,-5.5,3.6c-7.1,7,-11.8,8.1,-21.4,5.2c-3.6,-1.1,-5.2,-2,-5.6,-3.2c-0.6,-1.8,0,-2.5,8.1,-11c3.2,-3.3,5.7,-6.1,5.5,-6.4c-1.1,-1.1,-28.9,-9.1,-29.5,-8.5c-1.4,1.5,-14.7,33.8,-14.3,34.9c0.2,0.6,2.5,2.3,5,3.9c2.6,1.6,4.6,3,4.6,3.3c0,0.2,-1,1.9,-2.4,3.8l-2.4,3.4l-3.1,-1.8c-9,-4.9,-12.5,-10.8,-10.3,-17.2c3.1,-9,14.5,-34.5,16.3,-36.3c1.1,-1.2,3.4,-2.6,5,-3.1c2.9,-0.8,4.3,-0.5,20.7,4.6l17.7,5.4l2.7,-1.8c2.4,-1.7,3.6,-1.9,10.7,-1.9l8,0l7.1,-8.5c3.8,-4.7,7.7,-8.9,8.5,-9.3c1.7,-0.9,2.4,-0.5,20.4,13.7c6.7,5.2,12.4,10,12.6,10.5c0.5,1.5,-0.6,3.2,-9.3,14.3c-6.1,7.7,-8.5,11.5,-9.7,15.1l-1.7,4.8l1.6,1.7c0.9,0.9,2.2,3,2.9,4.6c1.4,3.4,0.7,7.6,-2,10.9c-0.9,1.1,-1.5,3.1,-1.5,4.8c0,3.9,-1.6,7.1,-5.8,11.9c-2.6,2.9,-4.6,4.3,-6.9,5c-1.8,0.5,-4,1.9,-5.1,3.1c-3.4,4.1,-8.8,5.6,-13.7,3.7c-1.5,-0.5,-2.1,-0.5,-2.4,0.4c-0.6,1.4,-4.7,4,-7.3,4.5c-1.1,0.2,-2.9,0.1,-4,-0.2Z" class="g3_3" />
<path d="M305.7,631.4C281.4,613.1,282,614,288.1,605.7c3.3,-4.5,5.8,-4.9,9.1,-1.4c2,2.1,2.1,2.6,1.4,4.3c-1.2,2.5,0.3,3.5,1.9,1.3c2.2,-3.2,4,-3.5,7.2,-1.4c3.9,2.6,4.6,4.7,2.4,7.7c-2.1,2.8,-1.7,3.3,1.8,2.1c2.4,-0.9,2.9,-0.8,5.1,0.8c2.7,1.9,3.2,4.9,1.2,7.1c-1.5,1.6,-0.9,3,1,2.5c1.8,-0.4,4.9,2.5,4.9,4.7c0,2,-4.1,6.7,-5.7,6.7c-0.7,0,-6.4,-3.9,-12.7,-8.7Z" class="g3_3" />
<path d="M468.4,560.4l-2.2,4.6l4.4,0Zm2.7,-8l9,18.7c0.4,0.7,0.5,1.3,0.5,1.7c0,0.8,-0.6,1.5,-1.9,2.1c-0.7,0.4,-1.3,0.6,-1.8,0.6c-0.4,0,-0.8,-0.1,-1,-0.3c-0.3,-0.2,-0.5,-0.4,-0.6,-0.6c-0.2,-0.3,-0.3,-0.6,-0.6,-1L473,570l-9.3,0l-1.7,3.6c-0.2,0.4,-0.4,0.7,-0.5,0.9c-0.1,0.2,-0.3,0.4,-0.6,0.6c-0.3,0.3,-0.6,0.4,-1.1,0.4c-0.4,0,-1,-0.2,-1.8,-0.6c-1.3,-0.6,-1.9,-1.3,-1.9,-2.1c0,-0.4,0.2,-1,0.6,-1.7l9,-18.7c0.2,-0.5,0.6,-0.9,1.1,-1.3c0.5,-0.3,1,-0.4,1.6,-0.4c1.2,0,2.1,0.6,2.7,1.7Z" class="g3_3" />
<path d="M488.4,562.5l4.3,0c0.6,0,1.3,-0.2,1.9,-0.7c0.7,-0.5,1,-1.3,1,-2.2c0,-1,-0.3,-1.8,-1,-2.3c-0.6,-0.5,-1.3,-0.7,-2,-0.7l-4.2,0Zm12.8,8.5c0.4,0.8,0.5,1.4,0.5,1.8c0,0.8,-0.7,1.5,-2,2.1c-0.8,0.3,-1.3,0.5,-1.8,0.5c-0.4,0,-0.8,-0.1,-1,-0.4c-0.3,-0.2,-0.5,-0.4,-0.7,-0.6c-0.2,-0.4,-1,-2.4,-2.6,-6.1l-1,0.1l-4.2,0l0,3.8c0,0.5,0,0.9,-0.1,1.1c0,0.3,-0.1,0.6,-0.3,0.9c-0.3,0.6,-1.1,0.9,-2.6,0.9c-1.5,0,-2.4,-0.4,-2.7,-1.2c-0.1,-0.4,-0.2,-1,-0.2,-1.7l0,-18.6c0,-0.5,0,-0.9,0,-1.1c0.1,-0.3,0.2,-0.6,0.4,-0.9c0.3,-0.6,1.1,-0.9,2.6,-0.9l7.2,0c1.9,0,3.8,0.7,5.7,2.1c0.9,0.7,1.6,1.6,2.2,2.8c0.6,1.2,0.9,2.5,0.9,4c0,2.5,-0.9,4.6,-2.5,6.2c0.4,1.2,1.2,2.9,2.2,5.2Z" class="g3_3" />
<path d="M503.8,550.6l18.6,0c0.7,0,1.2,0.1,1.6,0.3c0.3,0.2,0.5,0.4,0.6,0.8c0.1,0.3,0.2,0.8,0.2,1.4c0,0.6,-0.1,1,-0.2,1.4c-0.1,0.3,-0.3,0.6,-0.5,0.7c-0.4,0.2,-1,0.3,-1.7,0.3l-6.4,0l0,16.8c0,0.5,0,0.9,-0.1,1.1c0,0.3,-0.1,0.6,-0.3,0.9c-0.1,0.3,-0.4,0.5,-0.9,0.7c-0.4,0.1,-0.9,0.2,-1.6,0.2c-0.7,0,-1.3,-0.1,-1.7,-0.2c-0.4,-0.2,-0.7,-0.4,-0.8,-0.7c-0.2,-0.3,-0.3,-0.6,-0.3,-0.9c-0.1,-0.2,-0.1,-0.6,-0.1,-1.1l0,-16.8l-6.4,0c-0.7,0,-1.2,-0.1,-1.6,-0.3c-0.3,-0.1,-0.5,-0.4,-0.6,-0.7c-0.2,-0.4,-0.2,-0.9,-0.2,-1.4c0,-0.6,0,-1.1,0.2,-1.4c0.1,-0.4,0.3,-0.6,0.5,-0.8c0.4,-0.2,1,-0.3,1.7,-0.3Z" class="g3_3" />
<path d="M532.5,569.3l10.3,0c0.5,0,0.9,0,1.2,0c0.2,0,0.5,0.1,0.9,0.3c0.6,0.3,0.9,1.2,0.9,2.6c0,1.6,-0.4,2.5,-1.3,2.8c-0.3,0.1,-0.9,0.2,-1.7,0.2l-13.2,0c-1.6,0,-2.5,-0.5,-2.8,-1.3c-0.1,-0.4,-0.2,-0.9,-0.2,-1.7l0,-18.6c0,-1.1,0.2,-1.9,0.7,-2.3c0.4,-0.4,1.2,-0.6,2.4,-0.6l13.1,0c0.5,0,0.9,0,1.2,0c0.2,0.1,0.5,0.2,0.9,0.3c0.6,0.4,0.9,1.2,0.9,2.7c0,1.5,-0.4,2.4,-1.3,2.7c-0.3,0.1,-0.9,0.2,-1.7,0.2l-10.3,0l0,3.4l6.7,0c0.5,0,0.9,0,1.1,0c0.3,0,0.6,0.2,0.9,0.3c0.6,0.3,0.9,1.2,0.9,2.6c0,1.6,-0.4,2.5,-1.3,2.8c-0.3,0.1,-0.9,0.2,-1.7,0.2l-6.6,0Z" class="g3_3" />
<path d="M555.2,555.6c0,0.8,0.2,1.7,0.6,2.7c1,-0.6,1.8,-1.2,2.3,-1.6c0.6,-0.5,0.8,-0.9,0.8,-1.3c0,-1,-0.5,-1.5,-1.6,-1.5c-1.4,0,-2.1,0.6,-2.1,1.7m1.1,14.9c0.5,0,1,-0.1,1.5,-0.1c-1.3,-1.2,-2.6,-2.6,-3.7,-4.2c-0.5,0.7,-0.8,1.3,-0.8,2c0,1.5,1,2.3,3,2.3m11.9,4.7c-2,0,-3.9,-0.5,-5.8,-1.5c-2.1,1.2,-4.2,1.7,-6.4,1.7c-5.7,0,-8.6,-2.4,-8.6,-7.1c0,-2.5,1.3,-4.8,3.9,-6.9c-0.9,-2,-1.4,-3.8,-1.4,-5.4c0,-2.2,0.7,-3.8,2.1,-4.9c1.3,-1.1,3.1,-1.6,5.3,-1.6c2.3,0,4,0.5,5.1,1.6c1.2,1.1,1.8,2.5,1.8,4.4c0,1.5,-0.7,2.9,-1.9,4.2c-1,0.9,-2.3,1.9,-4,3.1c1.3,1.7,2.8,3.2,4.3,4.4c0.6,-1,1.1,-2,1.3,-3c0.2,-0.9,1.2,-1.4,3,-1.4c0.8,0,1.3,0.1,1.7,0.3c0.4,0.2,0.6,0.4,0.7,0.6c0.1,0.2,0.1,0.5,0.1,0.8c-0.1,1.7,-0.8,3.4,-2.1,5.1c0.3,0,0.6,0.1,0.9,0.1c1.8,0,2.6,0.8,2.6,2.6c0,1.2,-0.2,2,-0.6,2.4c-0.4,0.3,-1.1,0.5,-2,0.5Z" class="g3_3" />
<path d="M472.2,593.8l0.6,-0.4c0.8,-0.5,1.3,-0.7,1.6,-0.7c0.7,0,1.5,0.6,2.3,1.9c0.5,0.7,0.7,1.4,0.7,1.8c0,0.5,-0.1,0.9,-0.4,1.2c-0.3,0.3,-0.7,0.6,-1.1,0.8c-0.4,0.3,-0.8,0.5,-1.1,0.7c-0.4,0.3,-1.2,0.6,-2.3,0.9c-1.1,0.4,-2.2,0.5,-3.3,0.5c-1,0,-2.1,-0.1,-3.2,-0.4c-1.1,-0.2,-2.2,-0.7,-3.3,-1.4c-1.2,-0.6,-2.2,-1.4,-3.1,-2.4c-0.9,-0.9,-1.7,-2.1,-2.3,-3.6c-0.6,-1.5,-0.9,-3.1,-0.9,-4.8c0,-1.8,0.3,-3.4,0.9,-4.8c0.6,-1.4,1.3,-2.6,2.2,-3.5c0.9,-0.9,2,-1.7,3.1,-2.3c2.2,-1.2,4.4,-1.8,6.6,-1.8c1,0,2.1,0.2,3.2,0.5c1.1,0.3,1.9,0.6,2.4,1l0.8,0.4c0.4,0.3,0.8,0.5,1,0.6c0.6,0.5,0.8,1,0.8,1.6c0,0.6,-0.2,1.2,-0.7,1.9c-0.8,1.2,-1.6,1.8,-2.3,1.8c-0.4,0,-1,-0.3,-1.7,-0.8c-0.9,-0.7,-2.2,-1.1,-3.7,-1.1c-1.5,0,-2.9,0.5,-4.3,1.5c-0.7,0.5,-1.2,1.2,-1.7,2.1c-0.4,0.9,-0.7,1.9,-0.7,3c0,1.1,0.3,2.1,0.7,3c0.5,0.9,1,1.6,1.7,2.1c1.4,1,2.8,1.5,4.3,1.5c0.6,0,1.3,-0.1,1.9,-0.3c0.6,-0.1,1.1,-0.3,1.3,-0.5Z" class="g3_3" />
<path d="M495.6,576.6c0.2,-0.3,0.6,-0.6,1,-0.7c0.4,-0.1,0.9,-0.2,1.6,-0.2c0.6,0,1.1,0.1,1.5,0.2c0.4,0.1,0.7,0.2,0.9,0.4c0.2,0.1,0.3,0.4,0.4,0.7c0.1,0.3,0.2,0.9,0.2,1.7l0,10.1c0,2.9,-0.9,5.6,-2.8,8c-0.8,1.1,-2,2.1,-3.4,2.8c-1.4,0.7,-2.9,1,-4.6,1c-1.8,0,-3.3,-0.3,-4.7,-1.1c-1.4,-0.7,-2.5,-1.6,-3.4,-2.8c-1.8,-2.3,-2.7,-5,-2.7,-8l0,-10c0,-0.6,0,-1,0.1,-1.2c0,-0.3,0.1,-0.6,0.3,-0.9c0.2,-0.3,0.5,-0.6,0.9,-0.7c0.4,-0.1,1,-0.2,1.7,-0.2c0.7,0,1.3,0.1,1.7,0.2c0.4,0.1,0.7,0.4,0.9,0.7c0.2,0.5,0.4,1.2,0.4,2.1l0,10c0,1.4,0.3,2.7,1,3.9c0.3,0.6,0.8,1.1,1.5,1.5c0.6,0.4,1.4,0.6,2.3,0.6c1.7,0,2.9,-0.6,3.7,-1.8c0.8,-1.2,1.2,-2.6,1.2,-4.2l0,-10.2c0,-0.9,0.1,-1.5,0.3,-1.9Z" class="g3_3" />
<path d="M509.8,595.3l9.1,0c0.7,0,1.2,0.1,1.6,0.2c0.3,0.2,0.5,0.4,0.6,0.8c0.1,0.4,0.2,0.8,0.2,1.4c0,0.6,-0.1,1.1,-0.2,1.4c-0.1,0.4,-0.3,0.6,-0.5,0.8c-0.5,0.2,-1,0.3,-1.8,0.3l-12,0c-1.6,0,-2.5,-0.4,-2.7,-1.3c-0.2,-0.3,-0.2,-0.9,-0.2,-1.7l0,-18.5c0,-0.5,0,-0.9,0,-1.2c0,-0.2,0.1,-0.5,0.3,-0.9c0.3,-0.6,1.2,-0.9,2.6,-0.9c1.6,0,2.5,0.4,2.8,1.3c0.1,0.3,0.2,0.9,0.2,1.7Z" class="g3_3" />
<path d="M525.1,575.7l18.5,0c0.7,0,1.3,0.1,1.6,0.2c0.3,0.2,0.6,0.5,0.7,0.8c0.1,0.4,0.1,0.9,0.1,1.4c0,0.6,0,1.1,-0.1,1.4c-0.1,0.4,-0.3,0.6,-0.6,0.7c-0.4,0.2,-1,0.3,-1.7,0.3l-6.4,0l0,16.8c0,0.6,0,0.9,0,1.2c-0.1,0.2,-0.2,0.5,-0.3,0.8c-0.2,0.3,-0.5,0.6,-0.9,0.7c-0.4,0.1,-1,0.2,-1.7,0.2c-0.7,0,-1.2,-0.1,-1.6,-0.2c-0.4,-0.1,-0.7,-0.4,-0.9,-0.7c-0.2,-0.3,-0.3,-0.6,-0.3,-0.8c0,-0.3,-0.1,-0.7,-0.1,-1.2l0,-16.8l-6.4,0c-0.7,0,-1.2,0,-1.5,-0.2c-0.4,-0.2,-0.6,-0.4,-0.7,-0.8c-0.1,-0.4,-0.2,-0.8,-0.2,-1.4c0,-0.6,0.1,-1,0.2,-1.4c0.1,-0.3,0.3,-0.6,0.6,-0.7c0.4,-0.2,0.9,-0.3,1.7,-0.3Z" class="g3_3" />
<path d="M563.9,576.6c0.2,-0.3,0.5,-0.6,0.9,-0.7c0.5,-0.1,1,-0.2,1.6,-0.2c0.7,0,1.2,0.1,1.6,0.2c0.3,0.1,0.6,0.2,0.8,0.4c0.2,0.1,0.4,0.4,0.5,0.7c0.1,0.3,0.2,0.9,0.2,1.7l0,10.1c0,2.9,-1,5.6,-2.8,8c-0.9,1.1,-2,2.1,-3.4,2.8c-1.4,0.7,-3,1,-4.7,1c-1.7,0,-3.2,-0.3,-4.6,-1.1c-1.4,-0.7,-2.5,-1.6,-3.4,-2.8c-1.8,-2.3,-2.7,-5,-2.7,-8l0,-10c0,-0.6,0,-1,0,-1.2c0.1,-0.3,0.2,-0.6,0.3,-0.9c0.2,-0.3,0.5,-0.6,0.9,-0.7c0.5,-0.1,1,-0.2,1.8,-0.2c0.7,0,1.2,0.1,1.7,0.2c0.4,0.1,0.7,0.4,0.8,0.7c0.3,0.5,0.4,1.2,0.4,2.1l0,10c0,1.4,0.4,2.7,1,3.9c0.4,0.6,0.9,1.1,1.5,1.5c0.7,0.4,1.5,0.6,2.4,0.6c1.6,0,2.8,-0.6,3.6,-1.8c0.8,-1.2,1.2,-2.6,1.2,-4.2l0,-10.2c0,-0.9,0.2,-1.5,0.4,-1.9Z" class="g3_3" />
<path d="M578,587.6l4.3,0c0.7,0,1.3,-0.3,1.9,-0.8c0.7,-0.5,1,-1.2,1,-2.2c0,-1,-0.3,-1.7,-1,-2.2c-0.6,-0.5,-1.3,-0.8,-2,-0.8l-4.2,0Zm12.9,8.5c0.3,0.8,0.5,1.4,0.5,1.7c0,0.9,-0.7,1.6,-2.1,2.1c-0.7,0.4,-1.3,0.5,-1.7,0.5c-0.5,0,-0.8,-0.1,-1.1,-0.3c-0.3,-0.2,-0.5,-0.4,-0.6,-0.7c-0.2,-0.4,-1.1,-2.4,-2.6,-6l-1.1,0.1l-4.2,0l0,3.7c0,0.6,0,0.9,0,1.2c0,0.2,-0.2,0.5,-0.3,0.9c-0.3,0.6,-1.2,0.9,-2.6,0.9c-1.6,0,-2.5,-0.4,-2.8,-1.3c-0.1,-0.3,-0.2,-0.9,-0.2,-1.7l0,-18.5c0,-0.5,0,-0.9,0.1,-1.2c0,-0.2,0.1,-0.5,0.3,-0.9c0.3,-0.6,1.2,-0.9,2.6,-0.9l7.2,0c2,0,3.9,0.7,5.7,2.2c0.9,0.7,1.6,1.6,2.2,2.8c0.6,1.2,0.9,2.5,0.9,3.9c0,2.5,-0.8,4.6,-2.5,6.2c0.5,1.2,1.2,3,2.3,5.3Z" class="g3_3" />
<path d="M604.6,585.5l-2.2,4.6l4.5,0Zm2.7,-8l9,18.6c0.4,0.8,0.6,1.3,0.6,1.7c0,0.8,-0.6,1.5,-1.9,2.2c-0.8,0.4,-1.4,0.5,-1.8,0.5c-0.4,0,-0.8,-0.1,-1.1,-0.3c-0.3,-0.2,-0.5,-0.4,-0.6,-0.6c-0.1,-0.2,-0.3,-0.5,-0.5,-1L609.3,595l-9.3,0l-1.7,3.6c-0.2,0.5,-0.4,0.8,-0.5,1c-0.2,0.2,-0.4,0.4,-0.6,0.6c-0.3,0.2,-0.7,0.3,-1.1,0.3c-0.4,0,-1,-0.2,-1.8,-0.6c-1.3,-0.6,-1.9,-1.3,-1.9,-2.1c0,-0.4,0.2,-0.9,0.5,-1.7l9,-18.7c0.3,-0.5,0.7,-0.9,1.2,-1.2c0.5,-0.3,1,-0.5,1.6,-0.5c1.2,0,2,0.6,2.6,1.8Z" class="g3_3" />
<path d="M670.6,628.3c-1.1,-3,1.4,-15.4,4.5,-21.6c5.5,-11.3,14.4,-19,24.6,-21.3c2.7,-0.6,5,-0.9,5.2,-0.8c0.2,0.2,-1.8,3.6,-4.5,7.5c-5.8,8.6,-9.1,18.2,-10.2,29.2l-0.8,8.2l-9.1,0.3c-7.7,0.3,-9.1,0.1,-9.7,-1.5Z" class="g4_3" />
<path d="M694.3,623.8c0,-18,10.4,-36,25.3,-44c6.3,-3.4,7.7,-3.7,16.2,-3.8c7.8,0,10.2,0.5,15.5,3c15.1,7,27,27.5,27,46.2l0,4.8l-42,0l-42,0l0,-6.2Z" class="g3_3" />
<path d="M782.2,628.7c-0.2,-0.7,-0.7,-4.6,-1,-8.5c-0.9,-9.9,-4.4,-19.7,-10.1,-28.1c-2.6,-3.9,-4.7,-7.3,-4.5,-7.4c0.2,-0.2,2.6,0.1,5.5,0.8c14.8,3.1,28,20.5,28.4,37.4l0.2,6.6l-9,0.3c-6.6,0.3,-9.1,0,-9.5,-1.1Z" class="g4_3" />
<path d="M699.4,579.8c-17.5,-5.3,-20.3,-32.2,-4.3,-41.2c2.3,-1.2,5.9,-2.6,8,-3l4,-0.7l-0.5,7.6c-0.4,4.6,0,9.2,0.8,11.8c2,6.1,7,12.9,11.4,15.7c3.7,2.3,5,4.4,2.8,4.4c-0.6,0,-3.5,1.4,-6.4,3.2c-5.5,3.4,-9.8,4,-15.8,2.2Z" class="g4_3" />
<path d="M755.1,576.8L748.8,573l3.1,-1.9c9.5,-5.8,15.3,-18.1,13.9,-29.8l-0.7,-6.5l4.1,0.8c5.8,1.1,9.4,3.1,13.3,7.6c9.9,11.3,5.9,29.4,-8,35.7c-6.6,3,-12.1,2.4,-19.4,-2.1Z" class="g4_3" />
<path d="M723.6,568c-6.7,-3.4,-12.2,-11.3,-13.2,-18.6c-1.4,-10.3,3.1,-20.6,11.4,-26.1c6.2,-4.1,19,-4.9,25.6,-1.5c15.4,7.8,19.4,27.6,8.2,40.7c-7.8,9.1,-20.9,11.3,-32,5.5Z" class="g3_3" />
<path d="M924.4,589.3L885,576.8c-2.1,10.2,-1.2,20.4,2.5,30.6c23.4,4.1,48.1,4.3,74.5,0c3.1,-10.2,3.7,-20.4,2,-30.6Z" class="g3_3" />
<path d="M993.6,565.2l-69.2,22l-69.2,-22l69.2,-45.7Z" class="g3_3" />
<path d="M871.2,570.9c0.3,11.9,-0.2,23.8,-1.6,35.6c-0.2,2.1,3.1,2.1,3.3,0c1.3,-11.8,1.9,-23.7,1.6,-35.6c0,-2.1,-3.3,-2.1,-3.3,0Z" class="g3_3" />
<path d="M871.1,606c-1,-0.3,-2.2,-0.5,-3.1,0.1c-1,0.6,-1.3,2.1,-0.4,3c0.8,0.8,2,0.9,3.1,1c1.4,0.2,2.9,0.3,4.3,0.4c1.7,0.2,2.3,-2.3,0.9,-3c-1.4,-0.8,-2.9,-1.3,-4.5,-1.6c-1.4,-0.3,-3.4,-0.6,-4.3,0.7c-0.9,1.3,0,2.7,1.3,3.3c1.5,0.7,3.1,0.5,4.6,-0.2c0.8,-0.3,1,-1.5,0.6,-2.2c-0.5,-0.9,-1.4,-1,-2.3,-0.6c-0.2,0.1,-0.5,0.1,-0.8,0.1c-0.2,0,-0.3,0,-0.4,0c-0.6,-0.2,-0.6,-0.2,-0.2,0.2c0,0.5,-0.1,0.9,-0.1,1.3c0,-0.1,0.1,-0.1,0.1,-0.2c-0.3,0.2,-0.6,0.5,-1,0.7c1.5,-0.5,4,0.6,5.3,1.3c0.3,-1,0.6,-2,0.8,-3c-0.9,-0.1,-1.9,-0.2,-2.9,-0.3c-0.8,-0.1,-1.8,0,-2.5,-0.5c0.3,0.3,0.5,0.6,0.8,1c0,-0.1,-0.1,-0.2,-0.1,-0.3c-0.1,0.5,-0.3,1,-0.4,1.6c-0.6,0.5,-0.3,0.2,0.3,0.3c2,0.6,2.9,-2.5,0.9,-3.1Z" class="g3_3" />
<path d="M870.1,609.7c0.6,3,-1.1,6.6,-2,9.4c-0.8,2.8,-1.7,5.7,-2.6,8.5c-0.1,0.4,0.5,0.6,0.7,0.2c1,-3.2,2.6,-6,3.8,-9.1c1.2,-3.1,1.2,-6.7,1.2,-10c0,-0.4,-0.6,-0.5,-0.7,-0.1c-1.3,6.4,-3.4,12.6,-6.2,18.5c-0.1,0.4,0.4,0.7,0.6,0.3c1.8,-3.8,3.3,-7.8,4.6,-11.8c0.2,-0.9,0.5,-1.8,0.7,-2.7c0.1,-0.5,0.2,-0.9,0.4,-1.4c0.6,-0.8,0.6,-1.3,-0.1,-1.6c0,3,-0.2,5.9,-1.1,8.7c-0.8,2.3,-2,4.4,-3,6.6c-0.6,1.5,0.1,1.6,0.2,1.1c0.4,-1.4,0.9,-2.8,1.3,-4.2c1.2,-3.8,3.6,-8.5,2.9,-12.6c-0.1,-0.4,-0.8,-0.2,-0.7,0.2Z" class="g3_3" />
<path d="M871.9,609.5l-2.1,15.7c0.2,0,0.4,0.1,0.6,0.1c0.1,-0.8,0.2,-1.7,0.2,-2.6c0.2,-1.3,0.3,-2.5,0.4,-3.8c0.3,-3,0.6,-6,1,-9c0,-0.4,-0.6,-0.5,-0.7,-0.1c-0.8,5.6,-1.1,11.2,-0.9,16.8c0.1,0.4,0.7,0.4,0.7,0c-0.1,-2.6,-0.1,-5.2,0,-7.7c0,-1.3,0.1,-2.6,0.2,-3.9c0.1,-0.4,0.1,-0.9,0.2,-1.3c0.3,-0.9,0.2,-1.8,-0.3,-2.6c-0.6,5.2,-1.1,10.3,-1.6,15.5c0,0.4,0.6,0.5,0.7,0.1c0.7,-5.7,1.5,-11.4,2.3,-17c0,-0.5,-0.6,-0.6,-0.7,-0.2Z" class="g3_3" />
<path d="M868.4,609c-2,5.5,-5.1,10.6,-7.7,15.8c0.2,0.1,0.4,0.2,0.6,0.3c1.5,-3.1,4.2,-5.2,6.3,-7.8c1.8,-2.2,2.7,-4.7,3.1,-7.4c0.1,-0.4,-0.5,-0.6,-0.6,-0.2c-1.8,5.3,-4.6,10.1,-7.5,14.9c0.2,0.1,0.4,0.2,0.6,0.3c2.8,-4.8,5.6,-9.6,8.4,-14.5c-0.2,-0.1,-0.4,-0.2,-0.6,-0.3c-2.1,4.5,-4.2,9,-6.3,13.6c-0.2,0.3,0.4,0.7,0.6,0.3c2.1,-4.5,4.2,-9.1,6.3,-13.6c0.2,-0.4,-0.4,-0.7,-0.6,-0.3c-2.8,4.8,-5.6,9.7,-8.4,14.5c-0.2,0.4,0.3,0.7,0.6,0.3c2.8,-4.8,5.7,-9.7,7.5,-15c-0.2,-0.1,-0.4,-0.1,-0.6,-0.2c-0.5,3.7,-2.3,6.5,-4.8,9.2c-1.8,1.9,-3.5,3.6,-4.6,5.9c-0.2,0.4,0.4,0.7,0.6,0.3c2.6,-5.2,5.7,-10.4,7.8,-15.9c0.1,-0.4,-0.5,-0.6,-0.7,-0.2Z" class="g3_3" />
<path d="M873.4,609.8c-0.1,3.2,-0.1,6.4,0,9.5c0,1.6,0.1,3.2,0.2,4.8c0.1,1.1,0.1,2.1,0.2,3.2c0.4,-0.7,0.5,-1.4,0.3,-2.2C874,619.9,876,615,873,610.2c-0.2,-0.2,-0.6,-0.1,-0.6,0.2c0,4.8,-0.3,9.4,-1.1,14.1c0.3,-1.8,-0.1,-3.9,0,-5.8c0,-2.4,0.5,-4.8,1.1,-7.2c0.1,-0.4,-0.6,-0.6,-0.7,-0.2l-3,12.7l-0.8,3.2c0.8,0.5,1.1,0.1,0.9,-1.3l1.5,-7.6c0.1,-0.4,-0.4,-0.6,-0.6,-0.3c-2.4,3.8,-3.7,7.9,-4.9,12.2c-0.1,0.4,0.5,0.6,0.6,0.2c0.9,-3.4,2,-6.7,3.5,-9.8c1.5,-3,0,1.3,-0.1,2.1c-0.5,2,-0.9,4,-1.3,6.1c0,0.4,0.6,0.5,0.7,0.1c0.6,-2.6,1.2,-5.3,1.9,-7.9c0.4,-1.6,0.7,-3.2,1.1,-4.8c0.1,-0.5,0.3,-1,0.4,-1.5c0.8,-1.1,0.7,-1.7,-0.2,-1.9c-1.1,4.4,-1,9,-0.4,13.4c0.1,0.4,0.6,0.3,0.7,0c0.4,-2.1,0.7,-4.2,0.9,-6.3c0.2,-1.7,1.4,-6.9,0.5,-8.3c3,4.9,-0.3,12,0.8,17.3c0.1,0.4,0.7,0.3,0.6,0c-0.4,-6.4,-0.6,-12.7,-0.4,-19.1c0,-0.4,-0.7,-0.4,-0.7,0Z" class="g3_3" />
<path d="M868.9,609.2c-3.1,6.7,-5.9,13.2,-7.7,20.3c0,0.3,0.4,0.6,0.6,0.4c2.7,-3.3,5.1,-6.9,7.1,-10.6c0.2,-0.4,-0.3,-0.7,-0.6,-0.3c-1.9,3,-3.7,6,-5.6,9c-1.5,2.2,-1.4,1.3,-0.7,-1.8c0.5,-2.4,2.1,-4.7,3.3,-6.9c0.5,-1.1,1,-2.2,1.6,-3.3c0.4,-0.7,2.9,-4.4,2.5,-3.6c-1.9,3.7,-4.1,7.4,-6.4,10.9c-0.2,0.3,0.1,0.5,0.4,0.5c3.4,-0.5,4.8,-5.7,5.6,-8.6c0.3,-0.7,0.5,-2,0.5,-2.8c-0.1,0.1,-0.3,0.2,-0.5,0.3c0,1.1,0,2.2,0,3.2c0,3.3,-0.2,6.6,-0.3,9.8c-0.1,0.4,0.6,0.4,0.6,0c0.6,-4,0.9,-7.9,0.2,-12c-0.1,-0.3,-0.7,-0.2,-0.7,0.1c0.1,5.2,0.2,10.3,0.5,15.4c0,0.5,0.7,0.5,0.6,0c-0.1,-3,-0.2,-6.1,-0.3,-9.2c0,-1.5,-0.1,-3.1,-0.1,-4.6c0,1.4,-0.2,2.9,-0.2,4.3c0,1.5,-0.3,3,-0.4,4.5c0.1,0,0.3,-0.1,0.5,-0.1c0.1,-1.1,0.1,-2.2,0.1,-3.3c0.2,-3.2,0.2,-6.5,0.1,-9.7c0,-0.5,-0.6,-0.4,-0.6,0c-0.2,1.9,-0.5,3.5,-1,5.3c-0.8,2.7,-2.2,3.8,-3.6,5.9c2.4,-3.5,4.4,-7.2,6.3,-11c0.1,-0.4,-0.3,-0.7,-0.5,-0.4c-2.7,2.2,-4,5.1,-5.5,8.1c-2,3.9,-4.1,7.2,-3.7,11.7c0,0.3,0.4,0.5,0.6,0.2c1.9,-3,3.8,-6,5.7,-9c0.9,-1.5,0.8,-2.5,-0.3,-0.5c-1,1.6,-2.1,3.2,-3.1,4.7c-2.1,3,-1.8,2.8,-1.3,0.6c0.5,-2,1.2,-3.9,1.9,-5.9c1.3,-3.8,3.2,-7.5,4.9,-11.3c0.2,-0.3,-0.4,-0.7,-0.5,-0.3Z" class="g3_3" />
<path d="M872,610.2c-0.2,6,-0.5,11.9,-0.7,17.9c0.2,0,0.4,0.1,0.6,0.1c0,-1,0,-2,0,-2.9c0,-1.5,0,-2.9,0,-4.4c0,-2.9,0,-5.8,0,-8.7c0,-0.4,-0.6,-0.4,-0.6,0c0,5.8,0,11.6,-0.1,17.4c0,0.4,0.7,0.4,0.7,0c0.2,-6.5,0.5,-12.9,0.7,-19.4c0.1,-0.4,-0.6,-0.4,-0.6,0Z" class="g3_3" />
<path d="M1074,543.9l-7.6,0l0,-1.5l7.6,0l0,1.5Zm0,3l-7.6,0l0,-1.5l7.6,0l0,1.5Zm0,9.2l-7.6,0l0,-3l7.6,0l0,3Zm0,3.1l-7.6,0l0,-1.6l7.6,0l0,1.6Zm0,4.6l-7.6,0l0,-1.6l7.6,0l0,1.6Zm0,9.1l-7.6,0l0,-3l7.6,0l0,3Zm0,3.1l-7.6,0l0,-1.6l7.6,0l0,1.6Zm0,4.6l-7.6,0l0,-3.1l7.6,0l0,3.1Zm0,3l-7.6,0l0,-1.5l7.6,0l0,1.5Zm0,4.6l-7.6,0l0,-1.5l7.6,0l0,1.5Zm0,7.6l-7.6,0l0,-1.5l7.6,0l0,1.5Zm0,4.6l-7.6,0l0,-1.5l7.6,0l0,1.5Zm0,4.6l-7.6,0l0,-3.1l7.6,0l0,3.1Zm0,7.6l-7.6,0l0,-3l7.6,0l0,3Zm0,3.1l-7.6,0l0,-1.5l7.6,0l0,1.5Zm-13.7,-71.8l-7.7,0l0,-1.5l7.7,0l0,1.5Zm0,3l-7.7,0l0,-1.5l7.7,0l0,1.5Zm0,9.2l-7.7,0l0,-3l7.7,0l0,3Zm0,3.1l-7.7,0l0,-1.6l7.7,0l0,1.6Zm0,4.6l-7.7,0l0,-1.6l7.7,0l0,1.6Zm0,9.1l-7.7,0l0,-3l7.7,0l0,3Zm0,3.1l-7.7,0l0,-1.6l7.7,0l0,1.6Zm0,4.6l-7.7,0l0,-3.1l7.7,0l0,3.1Zm0,3l-7.7,0l0,-1.5l7.7,0l0,1.5Zm0,4.6l-7.7,0l0,-1.5l7.7,0l0,1.5Zm0,7.6l-7.7,0l0,-1.5l7.7,0l0,1.5Zm0,4.6l-7.7,0l0,-1.5l7.7,0l0,1.5Zm0,4.6l-7.7,0l0,-3.1l7.7,0l0,3.1Zm0,7.6l-7.7,0l0,-3l7.7,0l0,3Zm0,3.1l-7.7,0l0,-1.5l7.7,0l0,1.5ZM1049.6,522l0,101.3l26,0l0,-91.9Z" class="g3_3" />
<path d="M1106.1,582.1l-1.5,0l0,-6.1l1.5,0l0,6.1Zm0,7.6l-1.5,0l0,-6.1l1.5,0l0,6.1Zm0,6.1l-1.5,0l0,-6.1l1.5,0l0,6.1Zm0,13.8l-1.5,0l0,-6.1l1.5,0l0,6.1Zm0,6.1l-1.5,0l0,-4.6l1.5,0l0,4.6Zm-4.6,-26l-3,0l0,-6.1l3,0l0,6.1Zm0,13.8l-3,0l0,-6.1l3,0l0,6.1Zm0,6.1l-3,0l0,-6.1l3,0l0,6.1Zm-6.1,-27.5l-1.5,0l0,-6.1l1.5,0l0,6.1Zm0,7.6l-1.5,0l0,-6.1l1.5,0l0,6.1Zm0,6.1l-1.5,0l0,-6.1l1.5,0l0,6.1Zm0,7.7l-1.5,0l0,-6.1l1.5,0l0,6.1Zm0,6.1l-1.5,0l0,-6.1l1.5,0l0,6.1Zm0,6.1l-1.5,0l0,-4.6l1.5,0l0,4.6Zm-4.6,-19.9l-3,0l0,-6.1l3,0l0,6.1Zm0,13.8l-3,0l0,-6.1l3,0l0,6.1Zm-6.1,-27.5l-3,0l0,-6.1l3,0l0,6.1Zm0,7.6l-3,0l0,-6.1l3,0l0,6.1Zm0,6.1l-3,0l0,-6.1l3,0l0,6.1Zm0,13.8l-3,0l0,-6.1l3,0l0,6.1Zm0,6.1l-3,0l0,-4.6l3,0l0,4.6Zm-4.6,7.6l27.5,0l0,-56.5l-27.5,0l0,56.5Z" class="g3_3" />
<path d="M1305.8,612.4l-63.9,0c0,0,8.8,-54.2,23.5,-69.1c25.8,-26.3,122.5,-15.5,122.5,-15.5l0,0.8c0,46.3,-36.7,83.8,-82.1,83.8Z" class="g3_3" />
<path d="M1304.6,612.4l-63.9,0c0,0,8.8,-54.2,23.5,-69.1C1290,517,1386.8,527.8,1386.8,527.8l0,0.8c0,46.3,-36.8,83.8,-82.2,83.8Z" class="g5_3" />
<path d="M1321.7,598.3c-30.4,0.5,-63.3,-2.9,-63.3,-2.9c0,0,1.2,-27.8,6.3,-39.2" class="g6_3" />
<path d="M1286.5,539.1c-3.4,19.5,3.6,32.8,3.6,32.8c0,0,26.2,5.7,44.9,3.2" class="g6_3" />
<path d="M1363.4,556.2c-16.4,-0.7,-35.8,-3.7,-35.8,-3.7c0,0,-3.3,-9.6,0,-20" class="g6_3" />
<path d="M1241.9,612.4c0,0,38.8,-51.4,129.7,-74.7" class="g6_3" />
<path d="M1323.9,598.3c-30.4,0.5,-63.2,-2.9,-63.2,-2.9c0,0,1.1,-27.8,6.2,-39.2" class="g5_3" />
<path d="M1288.8,539.1c-3.5,19.5,3.5,32.8,3.5,32.8c0,0,26.2,5.7,45,3.2" class="g5_3" />
<path d="M1365.6,556.2c-16.4,-0.7,-35.8,-3.7,-35.8,-3.7c0,0,-3.3,-9.6,0,-20" class="g5_3" />
<path d="M1244.1,612.4c0,0,38.9,-51.4,129.7,-74.7" class="g5_3" />
</svg>