<?xml version="1.0" encoding="utf-8"?>
<!-- Generator: Adobe Illustrator 21.1.0, SVG Export Plug-In . SVG Version: 6.00 Build 0)  -->
<svg version="1.1" id="Camada_1" xmlns="http://www.w3.org/2000/svg" xmlns:xlink="http://www.w3.org/1999/xlink" x="0px" y="0px"
	 viewBox="0 0 100 100" style="enable-background:new 0 0 100 100;" xml:space="preserve">
<style type="text/css">
	.st0{fill:#DC938A;}
	.st1{fill:#CA4B43;}
	.st2{opacity:0.28;fill:#CA4B43;}
	.st3{fill:#E8F2EF;}
	.st4{fill:#E6B5AD;}
</style>
<g>
	<path class="st0" d="M24.4,46.6c0.4,1.6,0.9,3.2,1.4,4.8c-4.1-0.4-8.2-0.1-12.2,0.6c0.1,0,0.1,0,0.2-0.1
		C17.5,50.3,20.9,48.5,24.4,46.6z"/>
	<path class="st0" d="M76.8,48.2c1.9,2.5,4.1,4.7,6.7,6.3c-3.7-0.9-7.5-1.4-11.3-1.5c-0.7,0-1.4,0-2,0c0,0,0,0-0.1,0
		c-5.4-0.6-10.7-2.3-15.3-5.4c-0.7-0.4-1.3-0.9-1.9-1.4c6.5,0,12.9-1.5,19.1-3.2c0.1,0,0.1-0.1,0.1-0.1C74,44.4,75.4,46.4,76.8,48.2
		z"/>
	<path d="M98.2,55.1c0,0.1,0,0.2,0,0.2c-4.5,4.4-8.9,8.7-13.6,12.9c-3.1,2.7-6.4,5-10.2,6.7c-4.5,1.9-9.2,3-14,3.6
		c-5,0.6-10.2,0.6-15.2,0.4c-5.2-0.2-10.4-0.9-15.4-2.4c-4.5-1.4-8.9-3.6-12.5-6.7c-2.3-2-4.2-4.3-6.1-6.6
		c-3.2-3.7-6.2-7.6-9.2-11.5c-0.1-0.1,0-0.2,0-0.2c0,0,0,0,0,0c3.2-4,6.5-7.9,9.9-11.6c4.9-5.4,10-10.9,16-15.1
		c3.8-2.7,8.1-4.8,12.8-3c2.3,1,4.5,2.2,7,2.7c2.7,0.5,5.4,0.4,8-0.2c2.5-0.6,4.6-2.2,7-2.8c2.4-0.6,4.9,0.1,7.1,0.8
		c4.3,1.4,8.3,3.9,11.7,6.9c7.8,7,12.3,16.6,16.7,25.9C98.2,55,98.2,55.1,98.2,55.1z M97.7,55c-1-2-1.9-4.1-2.9-6.1
		c-4-8.1-8.8-16.1-16.1-21.6c-3.3-2.5-7.1-4.4-11.1-5.4c-1.4-0.3-3-0.6-4.4-0.3c-1.2,0.2-2.2,0.8-3.3,1.3c-1.9,0.9-3.8,1.7-5.9,2
		c-4.2,0.7-8.1-0.3-11.8-2.1c-2.3-1.1-4.6-1.9-7.2-1.3c-2.3,0.5-4.3,1.7-6.2,3c-5.3,3.5-9.9,8.3-14.2,12.9c-3.7,3.9-7.3,8-10.7,12.2
		c-0.4,0.5-0.8,1-1.3,1.5c-0.1,0.1-0.3,0.3-0.3,0.4c0.1,0,0.2,0.2,0.3,0.2c2,1.7,4.5,1.5,6.9,0.9c5.2-1.3,10.1-3.9,14.8-6.7
		c-1-3.7-1.5-7.5-0.6-11.2c1-4.3,4.4-7.2,8.9-7.3c4.9,0,8.6,3.4,11.4,7.1c1.6,2.1,2.9,4.4,4.5,6.5c1.1,0.1,2.1,0,3.2,0
		c2.5-0.2,5-0.8,7.4-1.4c2.2-0.6,4.5-1.3,6.8-1c3.9,0.5,6.9,3.4,9.2,6.3c2.9,3.6,5.4,7.3,9.6,9.5C88.7,56.7,93.9,57.7,97.7,55z
		 M96.9,56c-3.3,1.7-7.2,1.2-10.6-0.1c-0.4-0.2-0.9-0.4-1.3-0.6c0,0,0,0,0,0c-4.8-1.3-9.9-2-14.9-2c0,0,0,0,0,0h0c0,0,0,0,0,0
		c-4.9,0.1-9.7,1.3-14.5,2.1c-4.8,0.8-9.5,0.8-14.3-0.3c-0.7-0.2-1.4-0.3-2-0.5c0,0,0,0,0,0c-4.2-1.1-8.2-2.4-12.5-2.9
		c-5.2-0.6-10.5-0.2-15.7,1c0,0-0.1,0-0.1,0c-2.5,0.8-5.4,1.3-7.5,0.2c3,3.9,6.2,7.8,9.4,11.6c2,2.3,4.1,4.6,6.6,6.4
		c4.2,3,9.1,5,14.2,6.1c5.1,1.1,10.3,1.5,15.4,1.5c5,0,10-0.2,14.9-1c4.8-0.9,9.6-2.4,13.8-4.8c3.2-1.9,5.9-4.3,8.7-6.8
		C90.1,62.6,93.5,59.3,96.9,56z M83.5,54.5c-2.6-1.6-4.8-3.8-6.7-6.3c-1.4-1.8-2.8-3.8-4.5-5.4c0,0.1-0.1,0.1-0.1,0.1
		c-6.3,1.7-12.6,3.2-19.1,3.2c0.6,0.5,1.2,1,1.9,1.4c4.5,3.1,9.8,4.8,15.3,5.4c0,0,0,0,0.1,0c0.7,0,1.4,0,2,0
		C76,53.1,79.8,53.6,83.5,54.5z M72,42.5c-1.2-1.1-2.6-2.1-4.3-2.7c-2.3-0.8-4.6-0.5-7,0.1c-2.1,0.5-4.3,1.1-6.5,1.5
		c-1.8,0.3-3.7,0.5-5.5,0.4c0.1,0.1,0.1,0.1,0.2,0.2c1.1,1.3,2.2,2.5,3.5,3.7C59.2,45.8,65.6,44.2,72,42.5z M68,53.1
		C68,53.1,68,53.1,68,53.1c-4.6-0.8-9-2.3-12.9-4.9c-2-1.3-3.8-2.9-5.4-4.7c-1.7-1.9-3-4.1-4.4-6.2c-2.8-4.1-6.4-8.7-11.8-9.1
		C31.1,28,28.8,28.5,27,30c-2,1.6-2.9,4.1-3.2,6.6c-0.6,5,0.9,10.1,2.5,14.8c0.5,0.1,1,0.1,1.5,0.2c0.2,0,0.5,0.1,0.7,0.1
		c3.5,0.5,6.9,1.6,10.3,2.5c-0.6-0.7-1.1-1.4-1.6-2.2c-1.5-2.4-2.6-5-3.2-7.7c-0.1-0.3,0.4-0.4,0.4-0.1c0.6,2.8,1.7,5.5,3.3,7.9
		c0.5,0.8,1.1,1.6,1.7,2.3c1,0.3,2.1,0.5,3.1,0.7c5.3,1.1,10.4,0.6,15.7-0.4C61.5,54,64.7,53.4,68,53.1z M25.8,51.3
		c-0.5-1.5-1-3.1-1.4-4.8c-3.4,1.9-6.9,3.8-10.6,5.3c-0.1,0-0.1,0.1-0.2,0.1C17.6,51.2,21.7,50.9,25.8,51.3z"/>
	<path class="st1" d="M94.8,48.9c1,2,2,4,2.9,6.1c-3.8,2.7-9,1.7-13-0.3c-4.2-2.1-6.8-5.9-9.6-9.5c-2.3-2.9-5.3-5.8-9.2-6.3
		c-2.3-0.3-4.6,0.4-6.8,1c-2.4,0.6-4.9,1.2-7.4,1.4c-1.1,0.1-2.2,0.1-3.2,0c-1.6-2.1-2.9-4.4-4.5-6.5c-2.8-3.7-6.5-7.2-11.4-7.1
		c-4.5,0-7.9,2.9-8.9,7.3c-0.9,3.7-0.3,7.5,0.6,11.2c-4.7,2.7-9.6,5.4-14.8,6.7c-2.5,0.6-4.9,0.8-6.9-0.9c-0.1-0.1-0.2-0.2-0.3-0.2
		c0-0.1,0.2-0.3,0.3-0.4c0.4-0.5,0.8-1,1.3-1.5c3.4-4.2,7-8.3,10.7-12.2c4.3-4.6,8.9-9.4,14.2-12.9c1.9-1.3,4-2.5,6.2-3
		c2.6-0.6,4.8,0.2,7.2,1.3c3.8,1.8,7.6,2.7,11.8,2.1c2.1-0.3,4-1.1,5.9-2c1.1-0.5,2.1-1.1,3.3-1.3c1.5-0.3,3-0.1,4.4,0.3
		c4.1,0.9,7.8,2.9,11.1,5.4C86,32.9,90.8,40.8,94.8,48.9z"/>
	<path class="st2" d="M94.5,48.3c-1.7-0.6-3.4-1.3-5-2.1c-3.1-1.5-5.8-3.5-8.3-5.8c-2.8-2.7-5.4-6.1-9-8c-3.4-1.8-7.1-1.4-10.7-0.5
		c-4.1,1.1-8.1,2.4-12.4,2.3c-2.2-0.1-4.3-0.5-6.5-1c0.4,0.5,0.9,1,1.3,1.6c1.6,2.1,2.9,4.4,4.5,6.5c1.1,0.1,2.1,0,3.2,0
		c2.5-0.2,5-0.8,7.4-1.4c2.2-0.6,4.5-1.3,6.8-1c3.9,0.5,6.9,3.4,9.2,6.3c2.9,3.6,5.4,7.3,9.6,9.5c4,2,9.1,3,13,0.3
		c-1-2-1.9-4.1-2.9-6.1C94.7,48.7,94.6,48.5,94.5,48.3z"/>
	<path class="st2" d="M5.1,48.1c-0.4,0.5-0.9,1-1.3,1.5c-0.4,0.5-0.8,1-1.3,1.5c-0.1,0.1-0.3,0.3-0.3,0.4c0.1,0,0.2,0.2,0.3,0.2
		c2,1.7,4.5,1.5,6.9,0.9c5.2-1.3,10.1-3.9,14.8-6.7c-0.5-1.9-0.8-3.7-1-5.6C17.6,43.7,11.4,46.7,5.1,48.1z"/>
	<path class="st1" d="M86.3,55.9c3.4,1.3,7.3,1.8,10.6,0.1c-3.4,3.3-6.8,6.6-10.4,9.9c-2.7,2.5-5.4,5-8.7,6.8c-4.2,2.5-9,4-13.8,4.8
		c-4.9,0.9-9.9,1-14.9,1c-5.2,0-10.4-0.3-15.4-1.5C28.7,76,23.8,74,19.5,71c-2.5-1.8-4.6-4-6.6-6.4C9.6,60.9,6.5,57,3.5,53.1
		c2.1,1.1,5,0.6,7.5-0.2c0,0,0.1,0,0.1,0c5.1-1.2,10.4-1.6,15.7-1c4.3,0.5,8.4,1.8,12.5,2.9c0,0,0,0,0,0c0.7,0.2,1.3,0.3,2,0.5
		c4.8,1.1,9.4,1.1,14.3,0.3c4.8-0.8,9.6-2.1,14.5-2.1c0,0,0,0,0,0h0c0,0,0,0,0,0c5-0.1,10,0.7,14.9,2c0,0,0,0,0,0
		C85.5,55.5,85.9,55.7,86.3,55.9z"/>
	<path class="st2" d="M31.7,63.7c6.4,1.7,12.8,3.7,19.5,3.8c8.1,0.1,16.1-1.9,23.9-3.8c4.9-1.2,19.7-5.6,21.9-7.8
		c-3.3,1.7-7.2,1.2-10.6-0.1c-0.4-0.2-0.9-0.4-1.3-0.6h0c-4.8-1.3-9.9-2-14.9-2h0c0,0,0,0,0,0c-4.9,0.1-9.7,1.3-14.5,2.1
		c-4.8,0.8-9.5,0.8-14.3-0.3c-0.7-0.2-1.4-0.3-2-0.5c0,0,0,0,0,0c-4.2-1.1-8.2-2.4-12.5-2.9c-5.2-0.6-10.5-0.2-15.7,1
		c0,0-0.1,0-0.1,0c-2.5,0.8-5.4,1.3-7.5,0.2C5.7,56,24.7,61.9,31.7,63.7z"/>
	<path class="st3" d="M67.8,39.8c1.6,0.6,3,1.5,4.3,2.7c-6.4,1.7-12.9,3.3-19.5,3.2c-1.3-1.1-2.4-2.3-3.5-3.7
		c-0.1-0.1-0.1-0.2-0.2-0.2c1.8,0.1,3.7-0.1,5.5-0.4c2.2-0.4,4.3-0.9,6.5-1.5C63.1,39.3,65.4,39,67.8,39.8z"/>
	<path class="st4" d="M67.9,53.1C68,53.1,68,53.1,67.9,53.1c-3.2,0.3-6.4,0.9-9.6,1.5c-5.3,1-10.4,1.5-15.7,0.4
		c-1-0.2-2.1-0.5-3.1-0.7c-0.6-0.7-1.2-1.5-1.7-2.3L67.9,53.1z"/>
	<path class="st4" d="M67.9,53.1L37.8,52c-1.5-2.4-2.6-5.1-3.3-7.9c-0.1-0.3-0.5-0.2-0.4,0.1c0.6,2.7,1.7,5.4,3.2,7.7l-8.7-0.3
		c-0.2,0-0.5-0.1-0.7-0.1c-0.5-0.1-1-0.1-1.5-0.2c-1.5-4.7-3.1-9.8-2.5-14.8c0.3-2.5,1.3-5,3.2-6.6c1.8-1.4,4.1-2,6.4-1.8
		c5.4,0.4,9,5,11.8,9.1c1.4,2.1,2.8,4.3,4.4,6.2c1.6,1.8,3.4,3.4,5.4,4.7C59,50.8,63.4,52.3,67.9,53.1z"/>
	<path class="st4" d="M37.3,51.9c0.5,0.8,1,1.5,1.6,2.2c-3.4-0.9-6.8-2-10.3-2.5L37.3,51.9z"/>
</g>
</svg>
