<?xml version="1.0" encoding="UTF-8" standalone="no"?>
<!DOCTYPE svg PUBLIC "-//W3C//DTD SVG 1.1//EN"
"http://www.w3.org/Graphics/SVG/1.1/DTD/svg11.dtd">
<svg viewBox="0 0 1466 855" version="1.1" xmlns="http://www.w3.org/2000/svg" xmlns:xlink="http://www.w3.org/1999/xlink">
<defs>
<style type="text/css"><![CDATA[
.g1_4{
fill: #85144B;
}
.g2_4{
fill: #067D99;
}
.g3_4{
fill: #84144B;
}
.g4_4{
fill: #EF8226;
}
]]></style>
</defs>
<path d="M556.5,709.6l0,-3.9l10,0l0,30.3l3.2,0.7l0,3.9l-12.9,0l0,-3.9L560,736l0,-25.7Z" class="g1_4" />
<path d="M582.5,736.2c1,0,1.9,-0.2,2.7,-0.6c0.8,-0.4,1.4,-1,1.9,-1.6l0,-3.7l-3.4,0c-1.4,0,-2.4,0.3,-3.1,1c-0.8,0.6,-1.1,1.4,-1.1,2.3c0,0.8,0.3,1.5,0.8,1.9c0.5,0.5,1.2,0.7,2.2,0.7m5.6,4.4c-0.1,-0.4,-0.3,-0.8,-0.4,-1.3c-0.2,-0.4,-0.3,-0.8,-0.3,-1.2c-0.8,0.8,-1.8,1.6,-2.9,2.1c-1.1,0.6,-2.3,0.9,-3.8,0.9c-2.4,0,-4.2,-0.7,-5.6,-2c-1.4,-1.3,-2.1,-3,-2.1,-5.3c0,-2.2,0.9,-4,2.7,-5.2c1.8,-1.3,4.5,-1.9,8,-1.9l3.4,0l0,-2.3c0,-1.2,-0.4,-2.1,-1.1,-2.8c-0.6,-0.6,-1.6,-0.9,-2.9,-0.9c-0.8,0,-1.4,0.1,-2,0.2c-0.6,0.2,-1.1,0.4,-1.4,0.7l-0.5,2.6l-4.9,0l0,-5.4c1.2,-0.8,2.6,-1.5,4.1,-2.1c1.6,-0.5,3.3,-0.8,5.1,-0.8c3,0,5.4,0.8,7.3,2.2c1.9,1.5,2.8,3.6,2.8,6.3l0,10c0,0.4,0,0.7,0,1.1c0,0.3,0.1,0.6,0.1,0.9l2,0.3l0,3.9Z" class="g1_4" />
<path d="M598.1,720.3l0,-3.9l9.5,0l0.3,3.2c0.8,-1.2,1.7,-2.1,2.9,-2.7c1.2,-0.7,2.5,-1,4.1,-1c1.5,0,2.9,0.4,4,1c1.1,0.7,1.9,1.8,2.5,3.2c0.7,-1.3,1.7,-2.4,2.9,-3.1c1.2,-0.7,2.6,-1.1,4.2,-1.1c2.4,0,4.2,0.8,5.6,2.5c1.4,1.6,2.1,4.2,2.1,7.5l0,10.1l3.2,0.7l0,3.9l-12.6,0l0,-3.9l2.9,-0.7l0,-10.1c0,-1.8,-0.3,-3.1,-0.9,-3.8c-0.6,-0.7,-1.5,-1.1,-2.7,-1.1c-0.9,0,-1.7,0.2,-2.4,0.6c-0.7,0.4,-1.2,1,-1.6,1.7c0,0.3,0,0.6,0,0.8c0,0.2,0,0.4,0,0.6l0,11.3l2.7,0.7l0,3.9l-11.8,0l0,-3.9l2.6,-0.7l0,-10.1c0,-1.8,-0.3,-3.1,-0.9,-3.8C614.1,721.4,613.2,721,612,721c-0.9,0,-1.6,0.2,-2.3,0.5c-0.7,0.3,-1.2,0.8,-1.6,1.4l0,13.1l2.8,0.7l0,3.9l-12.5,0l0,-3.9l3.2,-0.7l0,-15Z" class="g1_4" />
<path d="M659.3,728.7c0,-2.4,-0.4,-4.3,-1.1,-5.6c-0.7,-1.4,-1.8,-2.1,-3.5,-2.1c-1,0,-1.9,0.2,-2.6,0.6c-0.7,0.5,-1.2,1.1,-1.6,1.9l0,10.2c0.4,0.7,0.9,1.3,1.6,1.7c0.7,0.4,1.6,0.6,2.6,0.6c1.7,0,2.9,-0.6,3.6,-1.8c0.6,-1.2,1,-2.9,1,-5.1Zm6.5,0.4c0,3.7,-0.8,6.5,-2.4,8.7c-1.6,2.2,-4,3.3,-7,3.3c-1.4,0,-2.7,-0.3,-3.7,-0.9c-1.1,-0.6,-1.9,-1.5,-2.6,-2.6l-0.5,3l-5.7,0l0,-30.3l-3.4,-0.7l0,-3.9l10,0l0,13.2c0.7,-0.9,1.5,-1.7,2.5,-2.2c0.9,-0.5,2.1,-0.8,3.3,-0.8c3.1,0,5.5,1.2,7.1,3.5c1.6,2.3,2.4,5.4,2.4,9.3Z" class="g1_4" />
<path d="M680.7,721c-1.2,0,-2.1,0.4,-2.8,1.3c-0.7,1,-1.2,2.2,-1.3,3.7l0,0.1l8,0l0,-0.6c0,-1.4,-0.3,-2.5,-0.9,-3.3C683,721.4,682,721,680.7,721m0.6,20c-3.5,0,-6.3,-1.1,-8.4,-3.3c-2,-2.2,-3.1,-5.1,-3.1,-8.5l0,-0.9c0,-3.6,1,-6.6,3,-8.9c2,-2.3,4.6,-3.5,7.9,-3.5c3.3,0,5.8,1,7.6,3c1.8,1.9,2.7,4.6,2.7,8l0,3.5l-14.4,0l-0.1,0.2c0.2,1.6,0.7,2.9,1.6,3.9c1,1,2.3,1.5,3.9,1.5c1.5,0,2.7,-0.1,3.6,-0.4c1,-0.3,2,-0.7,3.1,-1.4l1.8,4.1c-1,0.7,-2.3,1.4,-3.9,1.9c-1.6,0.6,-3.3,0.8,-5.3,0.8Z" class="g1_4" />
<path d="M694.4,709.6l0,-3.9l10,0l0,30.3l3.1,0.7l0,3.9l-12.8,0l0,-3.9l3.2,-0.7l0,-25.7Z" class="g1_4" />
<path d="M720.3,736.2c1,0,1.9,-0.2,2.7,-0.6c0.8,-0.4,1.5,-1,1.9,-1.6l0,-3.7l-3.3,0c-1.4,0,-2.5,0.3,-3.2,1c-0.7,0.6,-1.1,1.4,-1.1,2.3c0,0.8,0.3,1.5,0.8,1.9c0.6,0.5,1.3,0.7,2.2,0.7m5.7,4.4c-0.2,-0.4,-0.3,-0.8,-0.5,-1.3c-0.1,-0.4,-0.2,-0.8,-0.3,-1.2c-0.8,0.8,-1.7,1.6,-2.8,2.1c-1.1,0.6,-2.4,0.9,-3.8,0.9c-2.4,0,-4.3,-0.7,-5.7,-2c-1.4,-1.3,-2.1,-3,-2.1,-5.3c0,-2.2,0.9,-4,2.8,-5.2c1.8,-1.3,4.5,-1.9,8,-1.9l3.3,0l0,-2.3c0,-1.2,-0.3,-2.1,-1,-2.8c-0.7,-0.6,-1.7,-0.9,-3,-0.9c-0.7,0,-1.4,0.1,-2,0.2c-0.6,0.2,-1,0.4,-1.4,0.7l-0.4,2.6l-4.9,0l0,-5.4c1.2,-0.8,2.6,-1.5,4.1,-2.1c1.5,-0.5,3.2,-0.8,5,-0.8c3,0,5.5,0.8,7.4,2.2c1.8,1.5,2.8,3.6,2.8,6.3l0,10c0,0.4,0,0.7,0,1.1c0,0.3,0,0.6,0.1,0.9l1.9,0.3l0,3.9Z" class="g1_4" />
<path d="M735.9,720.3l0,-3.9l9.6,0l0.2,3.2c0.8,-1.2,1.8,-2.1,3,-2.7c1.1,-0.7,2.5,-1,4,-1c1.6,0,2.9,0.4,4,1c1.1,0.7,1.9,1.8,2.5,3.2c0.8,-1.3,1.7,-2.4,2.9,-3.1c1.2,-0.7,2.6,-1.1,4.2,-1.1c2.4,0,4.3,0.8,5.7,2.5c1.4,1.6,2.1,4.2,2.1,7.5l0,10.1l3.1,0.7l0,3.9l-12.5,0l0,-3.9l2.8,-0.7l0,-10.1c0,-1.8,-0.3,-3.1,-0.9,-3.8C766,721.4,765.1,721,764,721c-1,0,-1.8,0.2,-2.4,0.6c-0.7,0.4,-1.3,1,-1.7,1.7c0,0.3,0,0.6,0.1,0.8c0,0.2,0,0.4,0,0.6l0,11.3l2.6,0.7l0,3.9l-11.8,0l0,-3.9l2.7,-0.7l0,-10.1c0,-1.8,-0.3,-3.1,-0.9,-3.8C752,721.4,751.1,721,749.9,721c-0.9,0,-1.7,0.2,-2.3,0.5c-0.7,0.3,-1.2,0.8,-1.7,1.4l0,13.1l2.8,0.7l0,3.9l-12.4,0l0,-3.9l3.1,-0.7l0,-15Z" class="g1_4" />
<path d="M797.1,728.7c0,-2.4,-0.3,-4.3,-1,-5.6c-0.7,-1.4,-1.9,-2.1,-3.6,-2.1c-1,0,-1.8,0.2,-2.5,0.6c-0.7,0.5,-1.3,1.1,-1.7,1.9l0,10.2c0.4,0.7,1,1.3,1.7,1.7c0.7,0.4,1.6,0.6,2.6,0.6c1.7,0,2.8,-0.6,3.5,-1.8c0.7,-1.2,1,-2.9,1,-5.1Zm6.5,0.4c0,3.7,-0.8,6.5,-2.4,8.7c-1.6,2.2,-3.9,3.3,-7,3.3c-1.4,0,-2.6,-0.3,-3.7,-0.9c-1,-0.6,-1.9,-1.5,-2.6,-2.6l-0.5,3l-5.6,0l0,-30.3l-3.5,-0.7l0,-3.9l10,0l0,13.2c0.7,-0.9,1.5,-1.7,2.5,-2.2c1,-0.5,2.1,-0.8,3.4,-0.8c3.1,0,5.4,1.2,7,3.5c1.6,2.3,2.4,5.4,2.4,9.3Z" class="g1_4" />
<path d="M818.6,721c-1.2,0,-2.2,0.4,-2.9,1.3c-0.7,1,-1.1,2.2,-1.3,3.7l0.1,0.1l8,0l0,-0.6c0,-1.4,-0.3,-2.5,-1,-3.3c-0.6,-0.8,-1.6,-1.2,-2.9,-1.2m0.6,20c-3.5,0,-6.3,-1.1,-8.4,-3.3c-2.1,-2.2,-3.1,-5.1,-3.1,-8.5l0,-0.9c0,-3.6,1,-6.6,2.9,-8.9c2,-2.3,4.7,-3.5,8,-3.5c3.3,0,5.8,1,7.6,3c1.8,1.9,2.7,4.6,2.7,8l0,3.5l-14.5,0l0,0.2c0.1,1.6,0.7,2.9,1.6,3.9c0.9,1,2.2,1.5,3.9,1.5c1.4,0,2.6,-0.1,3.6,-0.4c0.9,-0.3,2,-0.7,3.1,-1.4l1.8,4.1c-1,0.7,-2.3,1.4,-3.9,1.9c-1.6,0.6,-3.4,0.8,-5.3,0.8Z" class="g1_4" />
<path d="M840.9,740.6l-6.5,0l0,-5.7l6.5,0l0,5.7Z" class="g1_4" />
<path d="M844.7,720.3l0,-3.9l9.6,0l0.3,3.2c0.7,-1.2,1.7,-2.1,2.9,-2.7c1.2,-0.7,2.5,-1,4.1,-1c1.5,0,2.8,0.4,3.9,1c1.1,0.7,2,1.8,2.5,3.2c0.8,-1.3,1.8,-2.4,3,-3.1c1.1,-0.7,2.5,-1.1,4.2,-1.1c2.3,0,4.2,0.8,5.6,2.5c1.4,1.6,2.1,4.2,2.1,7.5l0,10.1l3.1,0.7l0,3.9l-12.5,0l0,-3.9l2.8,-0.7l0,-10.1c0,-1.8,-0.3,-3.1,-0.8,-3.8C874.9,721.4,874,721,872.8,721c-0.9,0,-1.7,0.2,-2.4,0.6c-0.7,0.4,-1.2,1,-1.6,1.7c0,0.3,0,0.6,0,0.8c0,0.2,0,0.4,0,0.6l0,11.3l2.6,0.7l0,3.9l-11.8,0l0,-3.9l2.7,-0.7l0,-10.1c0,-1.8,-0.3,-3.1,-0.9,-3.8c-0.6,-0.7,-1.5,-1.1,-2.7,-1.1c-0.9,0,-1.6,0.2,-2.3,0.5c-0.7,0.3,-1.2,0.8,-1.7,1.4l0,13.1l2.9,0.7l0,3.9l-12.5,0l0,-3.9l3.1,-0.7l0,-15Z" class="g1_4" />
<path d="M899.8,721c-1.2,0,-2.1,0.4,-2.8,1.3c-0.7,1,-1.2,2.2,-1.3,3.7l0,0.1l8.1,0l0,-0.6c0,-1.4,-0.4,-2.5,-1,-3.3c-0.7,-0.8,-1.6,-1.2,-3,-1.2m0.6,20c-3.5,0,-6.3,-1.1,-8.3,-3.3c-2.1,-2.2,-3.2,-5.1,-3.2,-8.5l0,-0.9c0,-3.6,1,-6.6,3,-8.9c2,-2.3,4.6,-3.5,7.9,-3.5c3.3,0,5.8,1,7.7,3c1.8,1.9,2.7,4.6,2.7,8l0,3.5l-14.5,0l0,0.2c0.1,1.6,0.6,2.9,1.6,3.9c0.9,1,2.2,1.5,3.8,1.5c1.5,0,2.7,-0.1,3.6,-0.4c1,-0.3,2,-0.7,3.2,-1.4l1.7,4.1c-1,0.7,-2.3,1.4,-3.9,1.9c-1.6,0.6,-3.3,0.8,-5.3,0.8Z" class="g1_4" />
<path d="M733.3,270.9c-86.6,0,-156.8,70.2,-156.8,156.9c0,86.6,70.2,156.9,156.8,156.9c86.7,0,156.9,-70.3,156.9,-156.9C890.2,341.1,820,270.9,733.3,270.9Z" class="g2_4" />
<path d="M683.2,370.4l-4,8.3l8,0Z" class="g3_4" />
<path d="M790.4,382.2c0,-1,-0.1,-1.7,-0.4,-2.3c-0.2,-0.5,-0.6,-0.9,-1.1,-1.2c-0.8,-0.3,-1.9,-0.5,-3.4,-0.5c-1.4,0,-2.5,-0.3,-3.2,-0.9c-0.7,-0.5,-1.2,-1.7,-1.2,-3.4c0,-1.8,0.4,-2.9,1.2,-3.5c0.7,-0.6,1.9,-0.9,3.7,-0.9c1.6,0,2.5,-0.4,2.8,-1.2c0.1,-0.5,0.2,-1.2,0.2,-2.2c0,-1,-0.3,-1.7,-1,-2.1c-0.6,-0.4,-1.6,-0.6,-2.9,-0.6l-8.5,0l0,22.9l9.9,0c2.6,0,3.9,-1.4,3.9,-4.1Z" class="g3_4" />
<path d="M642.9,416c-2.7,0,-5.1,1,-7.3,3.1c-2.1,2.1,-3.2,4.9,-3.2,8.3c0,3.3,1.1,6.1,3.2,8.2c2.2,2.1,4.7,3.2,7.4,3.2c2.7,0,5.1,-1,7.3,-3.1c2.2,-2,3.3,-4.8,3.3,-8.3c0,-3.4,-1.1,-6.2,-3.3,-8.3C648.1,417,645.7,416,642.9,416Z" class="g3_4" />
<path d="M691.8,466.9c-3,0,-5.6,1.2,-8,3.5c-2.4,2.3,-3.5,5.2,-3.5,8.9c0,3.7,1.2,6.7,3.6,9c2.3,2.3,5,3.5,8,3.5c2.9,0,5.5,-1.1,7.9,-3.4c2.4,-2.2,3.5,-5.2,3.5,-9c0,-3.8,-1.2,-6.8,-3.5,-9c-2.4,-2.3,-5.1,-3.5,-8,-3.5Z" class="g3_4" />
<path d="M837.9,495.8c-4.3,4.7,-9.6,7,-15.9,7c-6.3,0,-11.7,-2.3,-16.1,-6.9c-4.4,-4.6,-6.6,-10,-6.6,-16.3c0,-3.4,0.6,-6.6,1.8,-9.6c1.3,-3.1,2.9,-5.6,5,-7.6c2.1,-2,4.5,-3.6,7.2,-4.8c2.7,-1.1,5.4,-1.7,8.3,-1.7c6.2,0,11.5,2.2,16,6.6c4.5,4.4,6.8,10,6.8,16.5c0,6.6,-2.2,12.2,-6.5,16.8m-40,-31c-0.7,0.4,-1.8,0.6,-3.2,0.6l-11.8,0l0,31.3c0,0.9,-0.1,1.6,-0.1,2.1c-0.1,0.4,-0.3,1,-0.6,1.6c-0.3,0.6,-0.9,1,-1.7,1.3c-0.8,0.2,-1.8,0.3,-3.1,0.3c-1.3,0,-2.3,-0.1,-3,-0.3c-0.8,-0.3,-1.4,-0.7,-1.7,-1.3c-0.3,-0.6,-0.5,-1.2,-0.5,-1.6c-0.1,-0.5,-0.1,-1.2,-0.1,-2.2l0,-31.2l-11.9,0c-1.3,0,-2.4,-0.2,-3,-0.5c-0.6,-0.3,-1,-0.8,-1.2,-1.4c-0.2,-0.7,-0.3,-1.5,-0.3,-2.7c0,-1,0.1,-1.9,0.3,-2.5c0.2,-0.7,0.5,-1.1,1,-1.4c0.8,-0.3,1.9,-0.5,3.2,-0.5l34.6,0c1.3,0,2.3,0.1,2.9,0.4c0.6,0.3,1.1,0.8,1.3,1.5c0.2,0.6,0.3,1.5,0.3,2.6c0,1.1,-0.1,2,-0.3,2.6c-0.2,0.6,-0.6,1.1,-1.1,1.3M751.6,396.6c-0.8,-0.2,-1.3,-0.5,-1.6,-0.7c-0.4,-0.3,-0.7,-0.7,-0.9,-1.2c-0.2,-0.7,-0.3,-1.8,-0.3,-3.2l0,-20.1c-1,1.2,-2.4,3.2,-4.3,5.9c-2,2.7,-3.2,4.4,-3.7,5.1c-0.5,0.7,-0.9,1.1,-1.1,1.4c-0.2,0.2,-0.7,0.6,-1.5,1.1c-0.8,0.4,-1.6,0.7,-2.5,0.7c-0.9,0,-1.7,-0.2,-2.5,-0.7c-0.7,-0.4,-1.2,-0.8,-1.6,-1.2L731.1,383c-0.8,-1,-2.3,-3.1,-4.8,-6.4c-2.3,-3.2,-3.6,-5,-3.8,-5.2l0,20.2c0,0.9,-0.1,1.7,-0.1,2.1c-0.1,0.5,-0.3,1,-0.6,1.6c-0.6,1.1,-2.2,1.6,-4.7,1.6c-2.4,0,-3.9,-0.6,-4.6,-1.6c-0.3,-0.6,-0.5,-1.1,-0.5,-1.6c-0.1,-0.5,-0.1,-1.2,-0.1,-2.2l0,-33.4c0,-0.9,0,-1.6,0.1,-2c0,-0.5,0.2,-1.1,0.5,-1.7c0.7,-1,2.2,-1.5,4.7,-1.5c1.1,0,2,0.1,2.8,0.4c0.9,0.2,1.4,0.5,1.6,0.8l0.4,0.3l13.6,18c6.9,-9,11.4,-15,13.7,-17.9c0.7,-1.1,2.4,-1.6,4.9,-1.6c2.5,0,4,0.5,4.6,1.6c0.3,0.6,0.5,1.2,0.6,1.6c0,0.5,0.1,1.2,0.1,2.1l0,33.4c0,2.8,-0.8,4.4,-2.3,4.9c-0.8,0.3,-1.7,0.4,-2.9,0.4c-1.1,0,-2,-0.1,-2.7,-0.3m1,98c-1.1,2,-2.5,3.6,-4.3,4.7c-3.3,2.3,-6.9,3.4,-10.7,3.4c-2,0,-3.8,-0.3,-5.6,-0.7c-1.7,-0.5,-3.1,-1.1,-4.2,-1.8c-2.2,-1.3,-3.7,-2.6,-4.6,-3.9l-0.6,-0.7c-1,-1.3,-1.6,-2.5,-1.6,-3.6c0,-1,0.9,-2.4,2.7,-4.1c1,-1,2.1,-1.5,3.3,-1.5c1.1,0,2.8,1,4.8,3.1c0.6,0.7,1.4,1.3,2.5,2c1,0.7,2.1,1,3,1c3.8,0,5.7,-1.6,5.7,-4.8c0,-0.9,-0.5,-1.7,-1.6,-2.4c-1,-0.6,-2.3,-1.1,-3.9,-1.4c-1.5,-0.3,-3.3,-0.8,-5.1,-1.4c-1.8,-0.7,-3.5,-1.4,-5.1,-2.3c-1.5,-0.8,-2.8,-2.2,-3.9,-4.1c-1,-1.9,-1.6,-4.2,-1.6,-6.8c0,-3.7,1.4,-6.8,4.1,-9.6c2.7,-2.7,6.4,-4,11.1,-4c2.5,0,4.8,0.3,6.8,0.9c2.1,0.7,3.5,1.3,4.3,2l1.5,1.1c1.3,1.2,2,2.3,2,3.1c0,0.8,-0.6,2,-1.6,3.4c-1.4,2.1,-2.8,3.2,-4.3,3.2c-0.9,0,-2,-0.5,-3.3,-1.3c-0.1,-0.1,-0.3,-0.3,-0.7,-0.6c-0.3,-0.4,-0.6,-0.6,-0.9,-0.8c-0.9,-0.6,-2,-0.8,-3.3,-0.8c-1.4,0,-2.5,0.3,-3.4,0.9c-0.9,0.7,-1.4,1.5,-1.4,2.7c0,1.2,0.6,2.1,1.6,2.8c1.1,0.7,2.4,1.1,4,1.4c1.5,0.2,3.3,0.6,5.2,1.1c1.8,0.5,3.5,1.2,5.1,1.9c1.6,0.8,2.9,2.1,4,3.9c1,1.9,1.6,4.2,1.6,6.8c0,2.7,-0.6,5.1,-1.6,7.2M717.9,446.1c-0.3,-0.6,-0.4,-1.5,-0.4,-2.9l0,-31.8c0,-1.9,0.4,-3.3,1.1,-4c0.7,-0.7,2.2,-1,4.2,-1l22.5,0c0.8,0,1.5,0,1.9,0.1c0.5,0,1,0.2,1.5,0.5c1,0.6,1.6,2.1,1.6,4.5c0,2.6,-0.7,4.2,-2.1,4.7c-0.7,0.2,-1.7,0.3,-3,0.3l-17.5,0l0,5.8l11.3,0c0.9,0,1.5,0,2,0.1c0.4,0,0.9,0.2,1.5,0.5c1,0.6,1.6,2.1,1.6,4.5c0,2.6,-0.8,4.2,-2.2,4.7c-0.7,0.2,-1.7,0.3,-3,0.3l-11.2,0l0,5.7l17.5,0c0.9,0,1.5,0.1,2,0.1c0.4,0.1,0.9,0.3,1.5,0.6c1,0.6,1.5,2,1.5,4.5c0,2.6,-0.7,4.2,-2.1,4.7c-0.6,0.2,-1.6,0.3,-2.9,0.3l-22.6,0c-2.7,0,-4.3,-0.7,-4.7,-2.2m-10,49.7c-4.3,4.7,-9.6,7,-15.9,7c-6.3,0,-11.7,-2.3,-16.1,-6.9c-4.4,-4.6,-6.6,-10,-6.6,-16.3c0,-3.4,0.6,-6.6,1.8,-9.6c1.3,-3.1,2.9,-5.6,5,-7.6c2.1,-2,4.5,-3.6,7.2,-4.8c2.7,-1.1,5.4,-1.7,8.3,-1.7c6.2,0,11.5,2.2,16,6.6c4.5,4.4,6.8,10,6.8,16.5c0,6.6,-2.2,12.2,-6.5,16.8M664.6,396.5c-2.3,-1.1,-3.5,-2.4,-3.5,-3.9c0,-0.7,0.4,-1.7,1,-3.1l16.3,-33.6c0.4,-1,1.1,-1.7,2,-2.3c0.9,-0.5,1.8,-0.8,2.9,-0.8c2.1,0,3.7,1.1,4.8,3.2l16.2,33.6c0.7,1.3,1,2.3,1,3c0,1.5,-1.1,2.8,-3.4,4c-1.4,0.7,-2.4,1,-3.2,1c-0.8,0,-1.5,-0.2,-2,-0.6c-0.5,-0.3,-0.8,-0.7,-1.1,-1.1c-0.2,-0.4,-0.5,-1,-0.9,-1.8l-3.1,-6.5l-16.7,0l-3.1,6.5c-0.4,0.8,-0.7,1.4,-1,1.7c-0.2,0.4,-0.6,0.8,-1.1,1.1c-0.5,0.4,-1.1,0.6,-1.9,0.6c-0.8,0,-1.9,-0.4,-3.2,-1m1.1,49.8c-1.2,1.7,-2.3,2.5,-3.5,2.5c-0.7,0,-1.8,-0.5,-3.3,-1.5c-0.2,-0.1,-0.7,-0.5,-1.6,-1.2c-0.9,-0.6,-1.6,-1,-2.1,-1.3c-3.5,2.7,-7.5,4.1,-11.9,4.1c-5.9,0,-10.9,-2.1,-15,-6.3c-4,-4.2,-6,-9.1,-6,-14.9c0,-3.2,0.5,-6.2,1.7,-8.9c1.1,-2.7,2.6,-5.1,4.5,-6.9c2,-1.9,4.1,-3.3,6.6,-4.4c2.5,-1.1,5,-1.6,7.6,-1.6c5.7,0,10.6,2,14.7,6.1c4.2,4.1,6.3,9.2,6.3,15.4c0,3.2,-0.7,6.4,-2.1,9.5c1.7,1.1,3,2,3.7,2.6c1.4,1,2.1,2,2.1,2.9c0,0.9,-0.6,2.2,-1.7,3.9m-3,47.2c0,1.3,-0.6,2.6,-1.8,3.7c-3.5,3.7,-8.7,5.5,-15.6,5.5c-6.2,0,-11.6,-2.3,-16.2,-7c-4.5,-4.7,-6.8,-10.3,-6.8,-16.9c0,-6.6,2.3,-12.1,6.9,-16.5c4.7,-4.5,10.2,-6.7,16.5,-6.7c4.8,0,9.5,1.6,13.8,4.8c1.2,0.8,1.7,1.8,1.7,2.8c0,1,-0.4,2.2,-1.4,3.5c-1.6,2.2,-3.1,3.4,-4.4,3.4c-0.8,0,-2.1,-0.6,-3.8,-1.8c-1.8,-1.1,-3.8,-1.7,-6.2,-1.7c-3.2,0,-6,1.1,-8.4,3.4c-2.5,2.2,-3.7,5.1,-3.7,8.7c0,3.5,1.2,6.6,3.7,9.1c2.5,2.5,5.3,3.8,8.5,3.8c2.2,0,4.3,-0.4,6.1,-1.1l0,-6.8l-4.9,0c-1.3,0,-2.2,-0.2,-2.7,-0.5c-0.6,-0.4,-0.9,-0.8,-1.1,-1.5c-0.1,-0.6,-0.2,-1.5,-0.2,-2.6c0,-1.1,0.1,-1.9,0.3,-2.7c0.2,-0.6,0.5,-1.1,1,-1.3c0.8,-0.4,1.7,-0.6,3,-0.6l10.9,0c2.3,0.1,3.7,0.7,4.2,1.8c0.4,0.8,0.6,2,0.6,3.5ZM623.1,358.1c0,-0.9,0.1,-1.6,0.1,-2c0.1,-0.5,0.3,-1.1,0.6,-1.7c0.5,-1.1,2.1,-1.6,4.6,-1.6c2.9,0,4.5,0.8,5,2.2c0.2,0.8,0.3,1.8,0.3,3.2l0,29.9l0.1,0l16.3,0c1.3,0,2.3,0.1,2.9,0.4c0.6,0.3,1,0.8,1.2,1.4c0.2,0.7,0.3,1.5,0.3,2.6c0,1.1,-0.1,1.9,-0.3,2.6c-0.2,0.6,-0.5,1.1,-1,1.3c-0.7,0.4,-1.8,0.6,-3.1,0.6l-21.7,0c-2.8,0,-4.5,-0.8,-4.9,-2.3c-0.3,-0.6,-0.4,-1.7,-0.4,-3.1Zm85.3,48.5c0.6,0.2,1.1,0.4,1.5,0.7c0.3,0.3,0.6,0.7,0.7,1.3c0.3,0.6,0.4,1.6,0.4,2.9l0,17.3c0,5,-1.6,9.6,-4.7,13.7c-1.5,1.9,-3.5,3.5,-5.9,4.7c-2.4,1.2,-5,1.8,-7.9,1.8c-3,0,-5.6,-0.6,-8,-1.8c-2.4,-1.2,-4.3,-2.8,-5.8,-4.8c-3,-4,-4.6,-8.6,-4.6,-13.7l0,-17.3c0,-0.9,0,-1.6,0.1,-2c0,-0.4,0.2,-0.9,0.5,-1.5c0.4,-0.6,0.9,-1,1.6,-1.2c0.7,-0.3,1.7,-0.4,2.9,-0.4c1.2,0,2.2,0.1,2.9,0.4c0.8,0.2,1.3,0.6,1.6,1.2c0.4,0.9,0.7,2.1,0.7,3.6l0,17.1c0,2.3,0.5,4.5,1.7,6.6c0.5,1.1,1.4,1.9,2.5,2.6c1.2,0.6,2.6,1,4.1,1c2.8,0,4.8,-1.1,6.3,-3.1c1.3,-2.1,2,-4.4,2,-7.2l0,-17.4c-0.2,-1.5,0,-2.5,0.4,-3.2c0.4,-0.6,0.9,-1,1.6,-1.2c0.7,-0.3,1.6,-0.4,2.8,-0.4c1.1,0,1.9,0.1,2.6,0.3m57.2,4.8c0,-1.9,0.3,-3.3,1.1,-4c0.7,-0.7,2.1,-1,4.1,-1l22.5,0c0.9,0,1.5,0,2,0.1c0.4,0,0.9,0.2,1.5,0.5c1,0.6,1.6,2.1,1.6,4.5c0,2.6,-0.7,4.2,-2.2,4.7c-0.6,0.2,-1.6,0.3,-2.9,0.3l-17.5,0l0,5.8l11.3,0c0.8,0,1.5,0,2,0.1c0.4,0,0.9,0.2,1.5,0.5c1,0.6,1.5,2.1,1.5,4.5c0,2.6,-0.7,4.2,-2.1,4.7c-0.7,0.2,-1.7,0.3,-3,0.3l-11.2,0l0,5.7l17.5,0c0.8,0,1.5,0.1,1.9,0.1c0.5,0.1,1,0.3,1.6,0.6c1,0.6,1.5,2,1.5,4.5c0,2.6,-0.7,4.2,-2.1,4.7c-0.7,0.2,-1.7,0.3,-3,0.3l-22.6,0c-2.6,0,-4.2,-0.7,-4.7,-2.2c-0.2,-0.6,-0.3,-1.5,-0.3,-2.9ZM766,358.1c0,-1,0.1,-1.7,0.1,-2.1c0.1,-0.5,0.3,-1,0.6,-1.6c0.6,-1.1,2.1,-1.6,4.7,-1.6l15.2,0c3.7,0,6.8,1.3,9.2,3.9c2.7,2.6,4,5.7,4,9.4c0,2.6,-0.8,5,-2.3,7.2c2.3,2.8,3.5,6,3.5,9.5c-0.1,4,-1.4,7.4,-4.1,10c-2.7,2.8,-5.9,4.1,-9.7,4.1l-15.9,0c-2.8,0,-4.4,-0.7,-4.9,-2.2C766.1,394,766,392.9,766,391.5Zm39.1,53.3c0,-0.9,0,-1.6,0.1,-2c0,-0.4,0.2,-0.9,0.5,-1.5c0.3,-0.6,0.8,-1,1.6,-1.2c0.7,-0.3,1.7,-0.4,2.9,-0.4c1.2,0,2.2,0.1,2.9,0.4c0.7,0.2,1.2,0.6,1.5,1.2c0.5,0.9,0.7,2.1,0.7,3.6l0,17.1c0,2.3,0.6,4.5,1.7,6.6c0.6,1.1,1.4,1.9,2.6,2.6c1.2,0.6,2.5,1,4.1,1c2.7,0,4.8,-1.1,6.2,-3.1c1.4,-2.1,2.1,-4.4,2.1,-7.2l0,-17.4c-0.2,-1.5,-0.1,-2.5,0.3,-3.2c0.4,-0.6,1,-1,1.7,-1.2c0.7,-0.3,1.6,-0.4,2.7,-0.4c1.1,0,2,0.1,2.6,0.3c0.7,0.2,1.2,0.4,1.5,0.7c0.4,0.3,0.6,0.7,0.8,1.3c0.2,0.6,0.3,1.6,0.3,2.9l0,17.3c0,5,-1.5,9.6,-4.6,13.7c-1.5,1.9,-3.5,3.5,-5.9,4.7c-2.4,1.2,-5.1,1.8,-8,1.8c-2.9,0,-5.5,-0.6,-7.9,-1.8c-2.4,-1.2,-4.4,-2.8,-5.8,-4.8c-3.1,-4,-4.6,-8.6,-4.6,-13.7Zm2.5,-53.3c0,-2,0.4,-3.4,1.2,-4.2c0.7,-0.7,2.2,-1.1,4.3,-1.1l23.7,0c0.9,0,1.6,0.1,2.1,0.1c0.4,0.1,1,0.3,1.6,0.6c1.1,0.5,1.6,2.1,1.6,4.7c0,2.8,-0.8,4.5,-2.2,4.9c-0.7,0.3,-1.7,0.4,-3.1,0.4l-18.5,0l0,6l11.9,0c0.9,0,1.6,0.1,2.1,0.1c0.4,0.1,1,0.3,1.6,0.6c1.1,0.6,1.6,2.1,1.6,4.7c0,2.8,-0.7,4.5,-2.3,4.9c-0.7,0.3,-1.7,0.4,-3.1,0.4l-11.8,0l0,6.1l18.5,0c0.9,0,1.6,0.1,2.1,0.1c0.4,0.1,1,0.3,1.6,0.6c1.1,0.5,1.6,2.1,1.6,4.6c0,2.9,-0.8,4.5,-2.2,5c-0.7,0.2,-1.7,0.3,-3.1,0.3l-23.9,0c-2.8,0,-4.5,-0.7,-4.9,-2.2c-0.3,-0.7,-0.4,-1.7,-0.4,-3.1ZM733.3,270.9c-86.6,0,-156.8,70.2,-156.8,156.9c0,86.6,70.2,156.9,156.8,156.9c86.7,0,156.9,-70.3,156.9,-156.9C890.2,341.1,820,270.9,733.3,270.9Z" class="g3_4" />
<path d="M821.8,466.9c-3,0,-5.6,1.2,-8,3.5c-2.3,2.2,-3.5,5.2,-3.5,8.9c0,3.7,1.2,6.7,3.6,9c2.3,2.3,5,3.5,8,3.5c2.9,0,5.6,-1.1,7.9,-3.4c2.4,-2.2,3.5,-5.2,3.5,-9c0,-3.8,-1.2,-6.8,-3.5,-9c-2.4,-2.3,-5.1,-3.5,-8,-3.5Z" class="g3_4" />
<path d="M810.6,357.2c0,-2.1,0.4,-3.5,1.2,-4.2c0.8,-0.8,2.2,-1.1,4.3,-1.1l23.7,0c0.9,0,1.6,0,2.1,0.1c0.5,0,1,0.2,1.6,0.5c1.1,0.6,1.6,2.1,1.6,4.7c0,2.8,-0.7,4.5,-2.2,4.9c-0.7,0.3,-1.7,0.4,-3.1,0.4l-18.5,0l0,6.1l11.9,0c0.9,0,1.7,0,2.1,0.1c0.5,0,1,0.2,1.6,0.5c1.1,0.6,1.6,2.2,1.6,4.7c0,2.8,-0.7,4.5,-2.2,5c-0.7,0.2,-1.8,0.3,-3.2,0.3l-11.8,0l0,6.1l18.5,0c0.9,0,1.6,0.1,2.1,0.1c0.5,0.1,1,0.3,1.6,0.6c1.1,0.6,1.6,2.1,1.6,4.7c0,2.8,-0.7,4.5,-2.2,4.9c-0.7,0.3,-1.7,0.4,-3.1,0.4l-23.9,0c-2.8,0,-4.5,-0.8,-4.9,-2.3c-0.3,-0.7,-0.4,-1.7,-0.4,-3.1Z" class="g4_4" />
<path d="M808.1,410.5c0,-0.9,0,-1.6,0.1,-2.1c0,-0.4,0.2,-0.9,0.5,-1.5c0.3,-0.5,0.8,-0.9,1.6,-1.2c0.7,-0.2,1.7,-0.3,2.9,-0.3c1.2,0,2.2,0.1,2.9,0.3c0.7,0.3,1.2,0.6,1.5,1.2c0.5,0.9,0.7,2.1,0.7,3.6l0,17.1c0,2.3,0.6,4.6,1.8,6.7c0.5,1,1.4,1.9,2.5,2.5c1.2,0.7,2.5,1,4.1,1c2.8,0,4.8,-1,6.2,-3.1c1.4,-2,2.1,-4.4,2.1,-7.1l0,-17.5c-0.2,-1.5,0,-2.5,0.4,-3.1c0.4,-0.6,0.9,-1,1.6,-1.3c0.7,-0.2,1.6,-0.3,2.7,-0.3c1.1,0,2,0.1,2.7,0.3c0.6,0.2,1.1,0.4,1.5,0.7c0.3,0.2,0.6,0.6,0.7,1.2c0.3,0.6,0.4,1.7,0.4,3l0,17.2c0,5.1,-1.6,9.6,-4.7,13.7c-1.5,2,-3.5,3.5,-5.9,4.7c-2.4,1.3,-5,1.9,-8,1.9c-2.9,0,-5.5,-0.6,-7.9,-1.9c-2.4,-1.2,-4.3,-2.8,-5.8,-4.7c-3.1,-4.1,-4.6,-8.6,-4.6,-13.7Z" class="g4_4" />
<path d="M769.1,357.1c0,-0.9,0,-1.7,0.1,-2.1c0,-0.5,0.2,-1,0.5,-1.6c0.6,-1.1,2.1,-1.6,4.7,-1.6l15.2,0c3.7,0,6.8,1.3,9.3,3.9c2.6,2.6,3.9,5.7,3.9,9.4c0,2.6,-0.8,5,-2.3,7.3c2.3,2.8,3.5,5.9,3.5,9.4c-0.1,4,-1.4,7.4,-4.1,10.1c-2.6,2.7,-5.9,4.1,-9.7,4.1l-15.8,0c-2.9,0,-4.5,-0.8,-5,-2.3c-0.2,-0.7,-0.3,-1.7,-0.3,-3.1Z" class="g4_4" />
<path d="M768.6,410.5c0,-2,0.4,-3.3,1.1,-4c0.7,-0.7,2.1,-1.1,4.2,-1.1l22.4,0c0.9,0,1.6,0.1,2,0.1c0.5,0.1,1,0.3,1.5,0.6c1,0.5,1.6,2,1.6,4.4c0,2.7,-0.7,4.2,-2.1,4.7c-0.7,0.2,-1.7,0.3,-3,0.3l-17.5,0l0,5.8l11.3,0c0.9,0,1.5,0.1,2,0.1c0.4,0.1,0.9,0.3,1.5,0.6c1,0.5,1.5,2,1.5,4.4c0,2.7,-0.7,4.2,-2.1,4.7c-0.7,0.2,-1.7,0.3,-3,0.3l-11.2,0l0,5.8l17.5,0c0.9,0,1.5,0,2,0.1c0.4,0,0.9,0.2,1.5,0.5c1,0.6,1.5,2.1,1.5,4.5c0,2.7,-0.7,4.2,-2.1,4.7c-0.6,0.3,-1.6,0.4,-3,0.4l-22.6,0c-2.6,0,-4.2,-0.8,-4.6,-2.2c-0.3,-0.6,-0.4,-1.6,-0.4,-2.9Z" class="g4_4" />
<path d="M711.4,405.7c0.6,0.2,1.1,0.4,1.5,0.7c0.4,0.2,0.6,0.6,0.8,1.2c0.2,0.6,0.3,1.7,0.3,3l0,17.2c0,5.1,-1.6,9.6,-4.7,13.7c-1.5,2,-3.4,3.5,-5.9,4.7c-2.4,1.3,-5,1.9,-7.9,1.9c-2.9,0,-5.6,-0.6,-8,-1.9c-2.3,-1.2,-4.3,-2.8,-5.8,-4.7c-3,-4.1,-4.6,-8.6,-4.6,-13.7l0,-17.3c0,-0.9,0.1,-1.7,0.1,-2.1c0.1,-0.4,0.3,-0.9,0.6,-1.5c0.3,-0.5,0.8,-0.9,1.5,-1.2c0.7,-0.2,1.7,-0.3,2.9,-0.3c1.3,0,2.2,0.1,3,0.3c0.7,0.3,1.2,0.6,1.5,1.2c0.4,0.9,0.7,2.1,0.7,3.6l0,17.1c0,2.3,0.5,4.6,1.7,6.7c0.5,1,1.4,1.9,2.6,2.5c1.1,0.7,2.5,1,4,1c2.8,0,4.9,-1,6.3,-3.1c1.3,-2,2,-4.4,2,-7.1l0,-17.5c-0.2,-1.5,0,-2.5,0.4,-3.1c0.4,-0.6,1,-1,1.7,-1.3c0.7,-0.2,1.6,-0.3,2.7,-0.3c1.1,0,1.9,0.1,2.6,0.3Z" class="g4_4" />
<path d="M626.1,357.2c0,-0.9,0.1,-1.6,0.1,-2.1c0.1,-0.5,0.3,-1,0.6,-1.6c0.5,-1.1,2.1,-1.6,4.7,-1.6c2.8,0,4.4,0.7,4.9,2.2c0.2,0.7,0.3,1.7,0.3,3.1l0,29.9l0.1,0l16.4,0c1.3,0,2.2,0.2,2.8,0.5c0.6,0.3,1,0.7,1.2,1.4c0.2,0.6,0.3,1.5,0.3,2.5c0,1.1,-0.1,1.9,-0.3,2.6c-0.2,0.7,-0.5,1.1,-1,1.3c-0.7,0.4,-1.8,0.6,-3.1,0.6l-21.7,0c-2.8,0,-4.5,-0.7,-4.9,-2.2c-0.3,-0.7,-0.4,-1.7,-0.4,-3.1Z" class="g4_4" />
<path d="M665.7,492.5c0,1.3,-0.6,2.6,-1.8,3.8c-3.4,3.6,-8.7,5.4,-15.6,5.4c-6.2,0,-11.6,-2.3,-16.1,-7c-4.6,-4.7,-6.9,-10.3,-6.9,-16.9c0,-6.6,2.3,-12.1,7,-16.5c4.6,-4.4,10.1,-6.6,16.4,-6.6c4.9,0,9.5,1.6,13.9,4.8c1.1,0.8,1.6,1.7,1.6,2.8c0,1,-0.4,2.1,-1.4,3.5c-1.6,2.2,-3,3.3,-4.4,3.3c-0.8,0,-2.1,-0.6,-3.8,-1.7c-1.7,-1.2,-3.8,-1.7,-6.2,-1.7c-3.2,0,-6,1.1,-8.4,3.3c-2.5,2.2,-3.7,5.1,-3.7,8.7c0,3.6,1.3,6.6,3.7,9.2c2.5,2.5,5.3,3.7,8.5,3.7c2.2,0,4.3,-0.3,6.1,-1.1l0,-6.8l-4.9,0c-1.3,0,-2.2,-0.1,-2.7,-0.5c-0.5,-0.3,-0.9,-0.8,-1,-1.4c-0.2,-0.7,-0.3,-1.5,-0.3,-2.6c0,-1.2,0.1,-2,0.3,-2.7c0.2,-0.7,0.6,-1.1,1,-1.4c0.8,-0.3,1.7,-0.5,3,-0.5l11,0c2.2,0.1,3.6,0.6,4.1,1.7c0.4,0.8,0.6,2,0.6,3.5Z" class="g4_4" />
<path d="M668.7,445.3c-1.1,1.7,-2.3,2.6,-3.5,2.6c-0.7,0,-1.8,-0.5,-3.3,-1.6c-0.2,-0.1,-0.7,-0.5,-1.6,-1.1c-0.9,-0.6,-1.6,-1.1,-2.1,-1.4c-3.5,2.7,-7.5,4.2,-11.9,4.2c-5.9,0,-10.9,-2.2,-14.9,-6.3c-4.1,-4.2,-6.1,-9.2,-6.1,-15c0,-3.2,0.5,-6.1,1.7,-8.8c1.1,-2.8,2.7,-5.1,4.6,-7c1.9,-1.8,4,-3.3,6.5,-4.4c2.5,-1,5,-1.6,7.7,-1.6c5.6,0,10.5,2,14.7,6.1c4.1,4.1,6.2,9.2,6.2,15.5c0,3.1,-0.7,6.3,-2.1,9.4c1.7,1.2,3,2,3.8,2.6c1.3,1,2,2,2,2.9c0,1,-0.5,2.2,-1.7,3.9Z" class="g4_4" />
<path d="M667.6,395.5c-2.3,-1.1,-3.5,-2.4,-3.5,-3.9c0,-0.7,0.4,-1.7,1,-3l16.3,-33.7c0.4,-0.9,1.1,-1.7,2,-2.2c0.9,-0.6,1.9,-0.9,2.9,-0.9c2.1,0.1,3.7,1.1,4.8,3.2l16.3,33.6c0.7,1.4,1,2.4,1,3.1c0,1.4,-1.2,2.8,-3.5,3.9c-1.4,0.7,-2.4,1,-3.2,1c-0.8,0,-1.4,-0.2,-1.9,-0.5c-0.5,-0.4,-0.9,-0.8,-1.1,-1.2c-0.2,-0.4,-0.6,-1,-1,-1.8l-3.1,-6.5l-16.7,0l-3.1,6.5c-0.4,0.8,-0.7,1.4,-1,1.8c-0.2,0.3,-0.6,0.7,-1.1,1.1c-0.5,0.4,-1.1,0.5,-1.9,0.5c-0.8,0,-1.8,-0.3,-3.2,-1Z" class="g4_4" />
<path d="M710.9,494.9c-4.3,4.6,-9.6,6.9,-15.9,6.9c-6.3,0,-11.6,-2.3,-16.1,-6.8c-4.4,-4.6,-6.6,-10,-6.6,-16.3c0,-3.5,0.6,-6.7,1.8,-9.7c1.3,-3,3,-5.5,5,-7.6c2.1,-2,4.5,-3.6,7.2,-4.7c2.7,-1.2,5.5,-1.8,8.3,-1.8c6.2,0,11.5,2.2,16,6.6c4.6,4.5,6.8,10,6.8,16.6c0,6.5,-2.1,12.1,-6.5,16.8Z" class="g4_4" />
<path d="M720.9,445.2c-0.2,-0.6,-0.4,-1.6,-0.4,-2.9l0,-31.8c0,-2,0.4,-3.3,1.2,-4c0.7,-0.7,2.1,-1.1,4.1,-1.1l22.5,0c0.8,0,1.5,0.1,1.9,0.1c0.5,0.1,1,0.3,1.6,0.6c1,0.5,1.5,2,1.5,4.4c0,2.7,-0.7,4.2,-2.1,4.7c-0.7,0.2,-1.7,0.3,-3,0.3l-17.5,0l0,5.8l11.3,0c0.9,0,1.6,0.1,2,0.1c0.5,0.1,1,0.3,1.5,0.6c1,0.5,1.6,2,1.6,4.4c0,2.7,-0.7,4.2,-2.2,4.7c-0.6,0.2,-1.7,0.3,-3,0.3l-11.1,0l0,5.8l17.4,0c0.9,0,1.5,0,2,0.1c0.4,0,1,0.2,1.5,0.5c1,0.6,1.6,2.1,1.6,4.5c0,2.7,-0.7,4.2,-2.1,4.7c-0.7,0.3,-1.7,0.4,-3,0.4l-22.6,0c-2.7,0,-4.2,-0.8,-4.7,-2.2Z" class="g4_4" />
<path d="M755.6,493.6c-1.1,2.1,-2.5,3.6,-4.2,4.8c-3.4,2.2,-7,3.3,-10.8,3.3c-2,0,-3.8,-0.2,-5.6,-0.7c-1.7,-0.4,-3.1,-1.1,-4.2,-1.8c-2.2,-1.3,-3.7,-2.6,-4.6,-3.8l-0.6,-0.7c-1,-1.3,-1.6,-2.6,-1.6,-3.6c0,-1.1,0.9,-2.5,2.7,-4.2c1,-1,2.1,-1.5,3.3,-1.5c1.2,0,2.8,1.1,4.8,3.1c0.6,0.7,1.5,1.4,2.5,2c1.1,0.7,2.1,1,3,1c3.9,0,5.8,-1.6,5.8,-4.7c0,-1,-0.6,-1.8,-1.6,-2.5c-1.1,-0.6,-2.4,-1.1,-4,-1.4c-1.5,-0.3,-3.2,-0.7,-5.1,-1.4c-1.8,-0.6,-3.5,-1.4,-5,-2.2c-1.6,-0.9,-2.9,-2.3,-4,-4.2c-1,-1.8,-1.6,-4.1,-1.6,-6.8c0,-3.6,1.4,-6.8,4.1,-9.5c2.7,-2.7,6.4,-4.1,11.1,-4.1c2.5,0,4.8,0.3,6.8,1c2.1,0.6,3.5,1.3,4.3,1.9l1.6,1.2c1.3,1.2,1.9,2.2,1.9,3c0,0.9,-0.5,2,-1.5,3.5c-1.4,2,-2.9,3.1,-4.4,3.1c-0.9,0,-2,-0.4,-3.2,-1.3c-0.1,-0.1,-0.4,-0.3,-0.7,-0.6c-0.4,-0.3,-0.7,-0.6,-1,-0.8c-0.9,-0.5,-2,-0.8,-3.3,-0.8c-1.4,0,-2.5,0.3,-3.4,1c-0.9,0.6,-1.4,1.5,-1.4,2.6c0,1.2,0.6,2.1,1.7,2.8c1,0.7,2.3,1.2,3.9,1.4c1.5,0.3,3.3,0.7,5.2,1.2c1.8,0.5,3.5,1.1,5.2,1.9c1.5,0.7,2.8,2.1,3.9,3.9c1,1.8,1.6,4.1,1.6,6.8c0,2.7,-0.6,5,-1.6,7.1Z" class="g4_4" />
<path d="M754.6,395.6c-0.7,-0.2,-1.2,-0.4,-1.6,-0.7c-0.3,-0.3,-0.6,-0.7,-0.8,-1.2C752,393,751.9,392,751.9,390.6l0,-20.2c-1.1,1.3,-2.5,3.2,-4.4,5.9c-1.9,2.8,-3.2,4.5,-3.7,5.1c-0.5,0.7,-0.9,1.2,-1.1,1.4c-0.2,0.3,-0.7,0.6,-1.5,1.1c-0.8,0.5,-1.6,0.7,-2.5,0.7c-0.9,0,-1.7,-0.2,-2.4,-0.6c-0.8,-0.4,-1.3,-0.9,-1.7,-1.3l-0.5,-0.6c-0.8,-1,-2.3,-3.1,-4.7,-6.4c-2.4,-3.3,-3.7,-5.1,-3.9,-5.3l0,20.3c0,0.9,-0.1,1.6,-0.1,2c-0.1,0.5,-0.3,1,-0.6,1.6c-0.6,1.1,-2.1,1.6,-4.7,1.6c-2.4,0,-3.9,-0.5,-4.5,-1.6c-0.3,-0.5,-0.5,-1.1,-0.6,-1.6c0,-0.5,-0.1,-1.2,-0.1,-2.1l0,-33.4c0,-0.9,0.1,-1.6,0.1,-2.1c0.1,-0.5,0.3,-1,0.6,-1.6c0.6,-1.1,2.1,-1.6,4.6,-1.6c1.2,0,2.1,0.2,2.9,0.4c0.8,0.3,1.3,0.6,1.5,0.8l0.4,0.4l13.7,18c6.8,-9.1,11.3,-15,13.7,-17.9c0.7,-1.1,2.3,-1.6,4.8,-1.6c2.5,-0.1,4.1,0.5,4.6,1.5c0.3,0.6,0.5,1.2,0.6,1.6c0,0.6,0.1,1.3,0.1,2.2l0,33.4c0,2.7,-0.8,4.4,-2.3,4.9c-0.7,0.2,-1.7,0.3,-2.9,0.3c-1.1,0,-2,-0.1,-2.7,-0.3Z" class="g4_4" />
<path d="M800.9,463.9c-0.7,0.3,-1.8,0.5,-3.1,0.5l-11.9,0l0,31.3c0,1,-0.1,1.7,-0.1,2.1c-0.1,0.5,-0.3,1,-0.6,1.6c-0.3,0.7,-0.8,1.1,-1.6,1.3c-0.8,0.3,-1.8,0.4,-3.2,0.4c-1.3,0,-2.3,-0.1,-3,-0.4c-0.8,-0.2,-1.3,-0.6,-1.6,-1.3c-0.3,-0.6,-0.5,-1.1,-0.6,-1.6c0,-0.4,-0.1,-1.2,-0.1,-2.1l0,-31.3l-11.9,0c-1.3,0,-2.3,-0.1,-2.9,-0.4c-0.6,-0.3,-1.1,-0.8,-1.3,-1.5c-0.2,-0.7,-0.3,-1.5,-0.3,-2.6c0,-1.1,0.1,-2,0.3,-2.6c0.2,-0.6,0.6,-1.1,1.1,-1.3c0.7,-0.4,1.8,-0.6,3.1,-0.6l34.6,0c1.3,0,2.3,0.2,2.9,0.5c0.6,0.3,1.1,0.8,1.3,1.4c0.2,0.7,0.3,1.5,0.3,2.6c0,1.1,-0.1,2,-0.3,2.6c-0.2,0.7,-0.6,1.1,-1.1,1.4Z" class="g4_4" />
<path d="M840.9,494.9c-4.3,4.6,-9.6,6.9,-15.9,6.9c-6.3,0,-11.6,-2.3,-16.1,-6.8c-4.4,-4.6,-6.6,-10,-6.6,-16.3c0,-3.5,0.6,-6.7,1.8,-9.7c1.3,-3,3,-5.5,5,-7.6c2.1,-2,4.5,-3.6,7.2,-4.7c2.7,-1.2,5.5,-1.8,8.3,-1.8c6.2,0,11.5,2.2,16,6.6c4.6,4.5,6.8,10,6.8,16.6c0,6.5,-2.1,12.1,-6.5,16.8Z" class="g4_4" />
</svg>