<?xml version="1.0" encoding="UTF-8" standalone="no"?>
<!-- Generator: Inkscape 0.91 - https://inkscape.org/pt-br/ -->
<svg
   xmlns:dc="http://purl.org/dc/elements/1.1/"
   xmlns:cc="http://creativecommons.org/ns#"
   xmlns:rdf="http://www.w3.org/1999/02/22-rdf-syntax-ns#"
   xmlns:svg="http://www.w3.org/2000/svg"
   xmlns="http://www.w3.org/2000/svg"
   xmlns:sodipodi="http://sodipodi.sourceforge.net/DTD/sodipodi-0.dtd"
   xmlns:inkscape="http://www.inkscape.org/namespaces/inkscape"
   width="45px"
   height="16px"
   viewBox="0 0 45 16"
   version="1.1"
   id="svg2"
   inkscape:version="0.91 r13725"
   sodipodi:docname="logo-github.svg">
  <metadata
     id="metadata15">
    <rdf:RDF>
      <cc:Work
         rdf:about="">
        <dc:format>image/svg+xml</dc:format>
        <dc:type
           rdf:resource="http://purl.org/dc/dcmitype/StillImage" />
      </cc:Work>
    </rdf:RDF>
  </metadata>
  <sodipodi:namedview
     pagecolor="#ffffff"
     bordercolor="#666666"
     borderopacity="1"
     objecttolerance="10"
     gridtolerance="10"
     guidetolerance="10"
     inkscape:pageopacity="0"
     inkscape:pageshadow="2"
     inkscape:window-width="1366"
     inkscape:window-height="702"
     id="namedview13"
     showgrid="false"
     inkscape:zoom="7.9777778"
     inkscape:cx="23.564303"
     inkscape:cy="6.8718663"
     inkscape:window-x="-8"
     inkscape:window-y="-8"
     inkscape:window-maximized="1"
     inkscape:current-layer="svg2" />
  <title
     id="title4">logo-github</title>
  <desc
     id="desc6">Created with Inkscape 0.91</desc>
  <defs
     id="defs8" />
  <path
     style="fill:#333333;fill-rule:evenodd;stroke:none;stroke-width:1;fill-opacity:1"
     d="m 18.53,12.0301 -0.02,0 c 0.009,0 0.015,0.009 0.024,0.011 0.001,0 0.005,-10e-4 0.006,-10e-4 l -0.01,-0.01 z m 0.004,0.011 c -0.093,10e-4 -0.327,0.049 -0.574,0.049 -0.78,0 -1.05,-0.36 -1.05,-0.83 l 0,-3.13 1.59,0 c 0.09,0 0.16,-0.08 0.16,-0.19 l 0,-1.7 c 0,-0.09 -0.08,-0.17 -0.16,-0.17 l -1.59,0 0,-2.11 c 0,-0.08 -0.05,-0.13 -0.14,-0.13 l -2.16,0 c -0.09,0 -0.14,0.05 -0.14,0.13 l 0,2.17 c 0,0 -1.09,0.27 -1.16,0.28 -0.08,0.02 -0.13,0.09 -0.13,0.17 l 0,1.36 c 0,0.11 0.08,0.19 0.17,0.19 l 1.11,0 0,3.28 c 0,2.44 1.7,2.69 2.86,2.69 0.53,0 1.17,-0.17 1.27,-0.22 0.06,-0.02 0.09,-0.09 0.09,-0.16 l 0,-1.5 c 0,-0.099 -0.068,-0.165 -0.146,-0.179 l 0,0 z M 42.23,9.8401 c 0,-1.81 -0.73,-2.05 -1.5,-1.97 -0.6,0.04 -1.08,0.34 -1.08,0.34 l 0,3.52 c 0,0 0.49,0.34 1.22,0.36 1.03,0.03 1.36,-0.34 1.36,-2.25 l 0,0 z m 2.43,-0.16 c 0,3.43 -1.11,4.41 -3.05,4.41 -1.64,0 -2.52,-0.83 -2.52,-0.83 0,0 -0.04,0.46 -0.09,0.52 -0.03,0.06 -0.08,0.08 -0.14,0.08 l -1.48,0 c -0.1,0 -0.19,-0.08 -0.19,-0.17 l 0.02,-11.11 c 0,-0.09 0.08,-0.17 0.17,-0.17 l 2.13,0 c 0.09,0 0.17,0.08 0.17,0.17 l 0,3.77 c 0,0 0.82,-0.53 2.02,-0.53 l -0.01,-0.02 c 1.2,0 2.97,0.45 2.97,3.88 l 0,0 z m -8.72,-3.61 -0.01,0 -2.09,0 c -0.11,0 -0.17,0.08 -0.17,0.19 l 0,5.44 c 0,0 -0.55,0.39 -1.3,0.39 -0.75,0 -0.97,-0.34 -0.97,-1.09 l 0,-4.75 c 0,-0.09 -0.08,-0.17 -0.17,-0.17 l -2.14,0 c -0.09,0 -0.17,0.08 -0.17,0.17 l 0,5.11 c 0,2.2 1.23,2.75 2.92,2.75 1.39,0 2.52,-0.77 2.52,-0.77 0,0 0.05,0.39 0.08,0.45 0.02,0.05 0.09,0.09 0.16,0.09 l 1.34,0 c 0.11,0 0.17,-0.08 0.17,-0.17 l 0.02,-7.47 c 0,-0.09 -0.08,-0.17 -0.19,-0.17 l 0,0 z m -23.7,-0.01 -2.13,0 c -0.09,0 -0.17,0.09 -0.17,0.2 l 0,7.34 c 0,0.2 0.13,0.27 0.3,0.27 l 1.92,0 c 0.2,0 0.25,-0.09 0.25,-0.27 l 0,-7.36 0,-0.01 c 0,-0.09 -0.08,-0.17 -0.17,-0.17 l 0,0 z m -1.05,-3.38 c -0.77,0 -1.38,0.61 -1.38,1.38 0,0.77 0.61,1.38 1.38,1.38 0.75,0 1.36,-0.61 1.36,-1.38 0,-0.77 -0.61,-1.38 -1.36,-1.38 l 0,0 z m 16.49,-0.25 -2.11,0 c -0.09,0 -0.17,0.08 -0.17,0.17 l 0,4.09 -3.31,0 0,-4.09 c 0,-0.09 -0.08,-0.17 -0.17,-0.17 l -2.13,0 c -0.09,0 -0.17,0.08 -0.17,0.17 l 0,11.11 c 0,0.09 0.09,0.17 0.17,0.17 l 2.13,0 c 0.09,0 0.17,-0.08 0.17,-0.17 l 0,-4.75 3.31,0 -0.02,4.75 c 0,0.09 0.08,0.17 0.17,0.17 l 2.13,0 c 0.09,0 0.17,-0.08 0.17,-0.17 l 0,-11.11 c 0,-0.09 -0.08,-0.17 -0.17,-0.17 l 0,0 z m -18.87,4.92 0,5.74 c 0,0.04 -0.01,0.11 -0.06,0.13 0,0 -1.25,0.89 -3.31,0.89 -2.49,0 -5.44,-0.78 -5.44,-5.92 0,-5.14 2.58,-6.2 5.1,-6.19 2.18,0 3.06,0.49 3.2,0.58 0.04,0.05 0.06,0.09 0.06,0.14 l -0.42,1.78 c 0,0.09 -0.09,0.2 -0.2,0.17 -0.36,-0.11 -0.9,-0.33 -2.17,-0.33 -1.47,0 -3.05,0.42 -3.05,3.73 0,3.31 1.5,3.7 2.58,3.7 0.92,0 1.25,-0.11 1.25,-0.11 l 0,-2.3 -1.47,0 c -0.11,0 -0.19,-0.08 -0.19,-0.17 l 0,-1.84 c 0,-0.09 0.08,-0.17 0.19,-0.17 l 3.74,0 c 0.11,0 0.19,0.08 0.19,0.17 l 0,0 z"
     id="Shape"
     inkscape:connector-curvature="0" />
</svg>
